<?xml version="1.0" encoding="utf-8"?>
<!-- Generator: Adobe Illustrator 17.1.0, SVG Export Plug-In . SVG Version: 6.00 Build 0)  -->
<!DOCTYPE svg PUBLIC "-//W3C//DTD SVG 1.1//EN" "http://www.w3.org/Graphics/SVG/1.1/DTD/svg11.dtd">
<svg version="1.1" xmlns="http://www.w3.org/2000/svg" xmlns:xlink="http://www.w3.org/1999/xlink" x="0px" y="0px"
	 viewBox="0 0 1028.7 902" enable-background="new 0 0 1028.7 902" xml:space="preserve">
<g id="Layer_1">
	<g>
		<path d="M606.5,722.3C606.5,722.3,606.5,722.3,606.5,722.3c0-0.1,0-0.1,0-0.2C606.5,722.1,606.5,722.1,606.5,722.3
			C606.5,722.2,606.5,722.2,606.5,722.3z"/>
		<path d="M606.6,722.9c0-0.2-0.1-0.4-0.1-0.6c0,0,0,0,0,0C606.6,722.5,606.6,722.7,606.6,722.9z"/>
		<path d="M563.3,744.1c-0.9-6.5-2-13-3.1-19.4c-0.7-3.9-1.4-7.9-1.8-11.9c-0.3-2.9-0.6-5.7-0.9-8.6c-0.3-2.1-0.7-4.2-1-6.3
			c-0.3-1.9-0.6-3.7-0.7-5.6c-0.1-1.3,0-2.6,0-3.9c0,0,0,0,0-0.1c-0.1,0-0.1,0-0.2,0.1c-0.8,0.3-1.6,0.5-2.4,0.7
			c0.6,3.1,1.2,6.2,1.9,9.2c0.9,4.1,1.6,8.2,2.3,12.3c0.3,1.8,0.8,3.6,1.2,5.5c0.5,2,0.9,4,1.2,6.1c0.7,4,1.3,8,1.8,12.1
			c0.5,3.4,1,6.9,1.5,10.3c0.2,1.4,0.5,2.8,0.8,4.2C563.7,747.3,563.5,745.7,563.3,744.1z"/>
		<path d="M621,718.5c0,0.3,0.1,0.5,0.1,0.8c0,0,0,0,0,0c-0.1-0.6-0.2-1.1-0.2-1.7C620.9,717.9,621,718.2,621,718.5z"/>
		<path d="M613.7,765.8C613.7,765.8,613.7,765.8,613.7,765.8c0,0.1-0.1,0.1-0.1,0.2C613.6,766,613.7,765.9,613.7,765.8z"/>
		<path d="M606.5,722C606.5,722,606.5,722,606.5,722C606.5,722,606.5,722,606.5,722C606.5,722,606.5,722,606.5,722z"/>
		<path d="M406.3,859.3c-0.2-4.6-0.1-9.3-0.1-13.9c0-5.1,0-10.2,0-15.2c0-10.4,0.2-20.7,0.2-31.1c0-5.4-0.1-10.7,0.2-16.1
			c0.3-5.1,0.6-10.3,0.6-15.4c0-5.2-0.1-10.4,0.1-15.7c0.1-2.6,0.2-5.3,0.4-7.9c0.2-2.5,0.6-5.1,1-7.6c0.3-2.3,0.6-4.6,0.7-7
			c0.2-2.3,0.2-4.6,0.3-6.9c0.3-5,0.8-9.9,1.3-14.9c0.5-5.6,1-11.2,2-16.7c0.9-4.7,2-9.4,2.8-14.1c0.2-1.9,0.4-3.8,0.6-5.7
			c0.1-0.9,0.2-1.8,0.3-2.6c-2.1-0.8-4.3-1.6-6.4-2.3c-0.1,0.7-0.2,1.5-0.3,2.2c-0.5,3.3-1.1,6.6-1.6,9.9c-1,8.2-1.5,16.4-2.5,24.5
			c-0.5,4.2-1.1,8.5-1.6,12.7c-0.6,4.4-1.3,8.8-1.9,13.2c-0.5,4.7-1.1,9.3-1.5,14c-0.5,5.3-0.9,10.6-0.9,15.9c0,2.9-0.1,5.7-0.2,8.6
			c-0.1,2.5-0.4,5-0.6,7.5c-0.5,5.2-1,10.4-1.2,15.7c-0.1,2.6-0.1,5.2-0.3,7.7c-0.2,2.5-0.5,5-0.9,7.5c-0.4,3.7-0.6,7.3-1,11
			c-0.3,3.5-0.5,7-0.5,10.5c0,3.6,0,7.2,0,10.8c0,3.2-0.1,6.5,0.1,9.7c0.4,2.2,0.9,4.3,1.7,6.4c0.4,0.9,0.9,1.7,1.5,2.5
			c0.3,0.3,0.6,0.7,0.9,1c0.5,0.5,1.1,1,1.7,1.5c1.4,1,2.9,1.9,4.5,2.6c0.4,0.1,0.8,0.2,1.2,0.4
			C406.5,861.1,406.4,860.2,406.3,859.3z"/>
		<path d="M341.9,640.3c-0.1,1.2-0.3,2.4-0.4,3.6c-0.2,2.6-0.4,5.2-0.9,7.8c-0.3,2-0.7,4-1.2,6c-0.9,4.3-2.1,8.5-2.8,12.8
			c-0.6,3.4-1,6.9-1.5,10.3c-0.5,3.9-0.9,7.8-1.4,11.7c0,0.4-0.1,0.8-0.2,1.2c0.7-3.8,1.3-7.6,2.1-11.4c0.5-2.5,0.9-5,1.5-7.5
			c0.5-2.4,1.2-4.9,1.9-7.3c1.3-5.1,2.4-10.3,3.4-15.4c0.5-2.4,1-4.7,1.4-7.1c0.2-1,0.3-1.9,0.5-2.9
			C343.7,641.4,342.8,640.9,341.9,640.3z"/>
		<path d="M213.1,746.4c0.1-1.6,0.2-3.2,0.4-4.8c0.1-1.3,0.3-2.6,0.4-3.9c0.2-5.5,0.1-11,0.1-16.5c0-5.4,0-10.7,0-16.1
			c0-5.1-0.3-10.2-0.4-15.3c-0.1-5.5-0.1-10.9-0.1-16.4c0-5.3,0-10.7,0.1-16c0.1-5.2,0.4-10.4,0.4-15.7c0-10.8,0-21.6,0-32.5
			c0-10.3-0.2-20.6,0.4-30.9c0.2-2.4,0.2-4.9,0.4-7.4c0.2-2.7,0.4-5.3,0.6-8c0.2-2.6,0.4-5.3,0.6-7.9c0.2-2.5,0.2-5,0.1-7.5
			c-0.6-0.3-1.3-0.6-1.9-0.9c-3.3-1.6-6.6-3.1-9.9-4.9c-0.1,1.7-0.2,3.4-0.4,5c-0.2,2.4-0.3,4.8-0.6,7.2c-0.3,2.2-0.6,4.4-0.8,6.7
			c-0.6,4.7-1,9.3-1.1,14c-0.1,4.5-0.4,8.9-0.8,13.4c-0.2,2.6-0.5,5.3-0.6,7.9c-0.1,2.7-0.1,5.5-0.2,8.2c-0.2,5.2-0.5,10.5-0.5,15.7
			c0,5.1,0,10.2-0.4,15.3c-0.3,5.2-0.6,10.4-0.6,15.6c-0.1,5.2-0.1,10.3-0.1,15.5c0,2.7,0,5.3,0,8c0,2.5,0.2,4.9,0.3,7.4
			c0.2,5.1,0.1,10.3,0.3,15.4c0.2,5.2,0.6,10.4,0.7,15.7c0.3,10.4,0.1,20.9,0.2,31.3c0,5.1,0.6,10.1,1.1,15.1
			c0.3,2.6,0.5,5.2,0.6,7.8c0.1,2.2,0.1,4.5,0.3,6.7c0.2,1.5,0.5,2.9,0.8,4.4c0.3-0.6,0.6-1.2,0.9-1.7c2.8-5.5,5.5-11.1,8.1-16.8
			c0.4-0.9,0.7-1.7,1.1-2.6C212.8,753.6,212.9,750,213.1,746.4z"/>
		<path d="M981.4,627.2c0-0.1,0-0.2,0-0.3C981.4,627,981.4,627.1,981.4,627.2C981.4,627.2,981.4,627.2,981.4,627.2z"/>
		<path d="M997.2,594.3c-0.7-2-1.5-4-2.3-6c-2.5-5.5-5.5-10.7-7.6-16.3c-1.8-4.9-3.1-9.9-5-14.8c-0.5-1.1-1-2.1-1.6-3.2
			c-0.4-0.8-0.9-1.5-1.5-2.2c-2.4-2.8-5.1-5.2-7.6-7.9c-1.4-1.6-2.8-3.2-4.3-4.8c-1.1-1.1-2.3-2.2-3.5-3.2c-1.7-1.2-3.4-2.3-5.1-3.5
			c-1.8-1.3-3.6-2.6-5.4-4c-1.8-1.4-3.7-2.7-5.7-4c-2-1.3-4-2.4-5.9-3.7c-3.8-2.5-7.5-5-11.7-6.7c-1.3-0.5-2.5-1.1-3.8-1.7
			c-0.1,0-0.1-0.1-0.2-0.1c0,0-0.1,0-0.1,0c-0.4-0.1-0.9-0.3-1.3-0.5c-4.1-1.6-8.2-2.7-12.5-3.8c-2.3-0.6-4.5-1.1-6.8-1.7
			c-1.6-0.4-3.3-0.7-4.9-0.9c-6.6-0.7-13.2-1.6-19.9-1.7c-3.3-0.1-6.6-0.1-9.8-0.1c-2.9,0-5.7-0.1-8.6,0.2c-2.8,0.5-5.6,1.2-8.4,1.7
			c-3.3,0.6-6.5,1.4-9.7,2.5c-2.9,1.1-5.9,1.9-8.9,2.8c-2.8,0.8-5.5,1.6-8.2,2.7c-1.4,0.6-2.9,1.2-4.3,1.7c-0.6,0.2-1.1,0.4-1.7,0.5
			c-0.4,0.3-0.8,0.5-1.2,0.8c-4.1,2.8-8.5,5.2-12.3,7.2c-1.1,0.6-2.2,1.1-3.3,1.7c-0.9,0.5-1.9,1-2.8,1.5c-2,1-4,2.2-6.2,3.5
			c-2,1.3-4.1,2.6-6,4l-0.3,0.2c-1.9,1.3-3.8,2.6-5.8,3.8l-0.4,0.3l-1,0.6c-3.4,2.1-6.8,4.2-10.3,6.2c-4,2.4-8.1,4.6-12.3,6.8
			c-3.9,2-8,4.4-13.2,7.5c-4.9,2.9-8.5,5.3-11.8,7.8c-3.1,2.5-6.8,5.3-10.8,7.8c-3.7,2.4-7.4,4.6-10.5,6.5c-3.9,2.3-7.6,4.6-11,6.7
			l-2.2,1.3c-2.8,1.7-5.7,3.6-8.5,5.5l-0.6,0.4c-2.8,2-6.1,4.2-9.3,6.2c-3.8,2.3-7.3,4.4-10.8,6.3c-3.8,2-7.2,3.9-10.4,6.1
			c-3.1,2.1-6.1,4.3-9,6.5c-2.5,2-4.9,3.9-7.6,6.3l-1,0.8c-2.3,1.9-4.6,3.9-7.2,5.6c-3.1,2.1-6.4,4-9.8,5.5
			c-1.3,0.6-2.6,1.2-3.9,1.7c-1.2,0.5-2.4,1-3.5,1.5l-0.6,0.3l-0.2,0.1l-1.8,0.7c-1.7,0.7-3.3,1.4-4.9,2c-0.5,0.2-1.1,0.4-1.6,0.6
			c-1.6,0.6-3.4,1.2-5.5,1.9c-2.3,0.7-4.6,1.4-6.9,2.1c-1.6,0.5-3.2,1-4.8,1.5c-2.8,0.9-5.9,1.5-8.5,2.1l-0.7,0.1
			c-0.6,0.1-1.3,0.3-1.9,0.4c-4.1,0.9-8.1,1.7-12.2,2.3c-4.3,0.7-8.5,1.5-12.4,2.3c-5.2,1.1-9.5,1.7-13.6,1.8
			c-1.9,0.1-4,0.1-6.6,0.1c-1.1,0-2.3,0-3.5,0l-2.6,0c-4.6,0-9.3,0-13.9-0.1c-4.7,0-9.6-0.1-14.7-0.3c-3.4-0.1-6.9-0.4-10.4-0.7
			l-1.1-0.1c-0.7-0.1-1.4-0.1-2.2-0.2c-5.7-0.5-11.5-1.2-16.3-1.9c-5.4-0.7-10.2-1.6-14.9-2.7c-2.4-0.6-4.8-1.2-7.2-1.9
			c-1.1-0.3-2.1-0.7-3.3-1.1l-0.1,0c-0.9-0.3-1.7-0.6-2.6-0.9c-2.2-0.7-4.4-1.4-6.6-2l-0.4-0.1l-0.2-0.1c-1.9-0.6-3.9-1.2-5.8-1.8
			c-2.1-0.7-4.2-1.3-6.3-1.9c-3.1-0.9-5.9-1.8-8.6-2.7c-2.4-0.8-4.8-1.7-7.5-2.7c-2-0.7-4-1.5-6-2.2l-1.1-0.4l-0.3-0.1
			c-4.1-1.4-8.4-2.9-12.6-4.5c-2-0.8-4-1.6-6-2.4l-1.2-0.5c-2.5-1-5.2-2.1-7.7-3.4c-4.4-2.2-8.5-4.8-12.3-7.7c-2-1.5-4-3-5.9-4.4
			l-0.2-0.1l-0.5-0.3l-0.8-0.6c-1.3-0.9-2.7-2-4.2-2.9c-4.6-3-9.3-5.6-13.4-7.9l-2.1-1.2l-0.1-0.1c-3.7-2-7.4-4.1-11-6.4
			c-4.5-2.9-8.6-5.8-12.5-8.7l-2.3-1.7c-3.2-2.5-6.5-4.9-9.7-7.4c-3.5-2.6-6.7-4.9-9.7-7c-4.2-2.9-7.7-5.4-11-8.2
			c-2-1.7-4-3.4-5.9-5.2l-0.5-0.5c-1-0.9-1.9-1.7-2.9-2.6c-2.8-2.4-5.7-4.9-8.9-7.4c-3.5-2.6-7.2-5.2-10.7-7.6l-0.3-0.2
			c-5.4-3.8-11.1-7.7-16.3-12c-3.1-2.5-6.1-5.4-8.8-7.8l-1.2-1.1l-1.7-1.6c-3.3-3-6.9-6.2-10.7-9.3c-1.1-0.8-2.2-1.6-3.3-2.4
			c-1.2-0.9-2.5-1.6-3.8-2.4l-0.9-0.5c-2.2-1.3-4.6-2.6-6.8-3.8l-0.1-0.1l-1.6-0.9c-6-3.3-11.5-6.2-17.3-8.7
			c-3.6-1.3-6.6-2.2-9.5-2.7c-2.6-0.2-5.3-0.2-7.2-0.2c-0.7,0-1.3,0-2,0l-1,0c-0.8,0-1.7,0-2.5,0l-1.5,0l-1.6,0c-2.6,0-5.2,0-7.8,0
			c-7.2,0.1-14.2,0.2-21.3,1c-1.4,0.2-2.9,0.5-4.3,0.8l-0.2,0.1c-3.2,1.1-6.7,2.4-10.6,4c-1.8,0.9-3.6,2-5.1,2.9l-0.1,0.1
			c-1.6,1-3.2,1.9-4.9,2.8l-2,1l-1,0.5c-2.2,1.1-5,2.5-7.6,3.9c-2.4,1.3-4.6,2.7-7.2,4.2l-0.6,0.4c-0.8,0.5-1.6,1-2.5,1.5
			c-1.6,1-3.3,2-4.9,3l-0.9,0.6c-0.9,0.6-1.8,1.2-2.7,1.8c-1.9,1.7-3.8,3.6-5.3,5.2l-0.2,0.2c-0.9,0.9-1.8,1.8-2.7,2.7
			c-2.8,2.8-5.4,5.4-7.7,8.2c-0.3,0.5-0.7,1-1,1.4c-2.5,6.3-4.7,11.8-6.9,16.9c-1.2,2.8-2,5-2.6,7c-0.2,0.4-0.5,0.8-0.7,1.2
			c-0.2,0.4-0.5,0.9-0.7,1.3c-0.3,0.5-0.6,1.1-0.8,1.6l-0.4,0.7l-0.2,0.3c-0.5,0.8-1,1.7-1.4,2.6c-0.4,0.8-0.7,1.6-1,2.4
			c-0.9,2.1-1.5,4.2-2,6.3c-0.2,0.7-0.3,1.4-0.5,2.2c-0.4,1.7-0.9,3.4-1.2,5.1c-0.6,3.2-0.8,6.3-0.8,9.5l0,0.6v0.6
			c0,2.1,0,4.1,0,6.2l0,0.2c0,2.3,0.1,5,0.3,7.5c0.1,1.3,0.3,2.6,0.4,3.9l0,0.4c0.1,1.2,0.3,2.4,0.4,3.6c0.2,1.9,0.3,4,0.3,5.8
			l0.1,1.8c0.2,3.1,0.6,6.3,1,9.1l0.1,0.4c0.7,4.9,1.6,9.9,2.6,14.8l0.1,0.3c0.5,2.4,1.1,4.8,1.8,7.2c0.9,2.9,2,5.8,3.5,9l0.9,2
			l0.3,0.7c0.6,1.4,1.2,2.8,1.9,4.2c0.4,1,0.9,1.9,1.3,2.9l0.1,0.2l0.1,0.1c0.6,1.3,1.1,2.7,1.8,4c0.5,1.1,1.1,2.2,1.6,3.3l0.1,0.3
			l0.1,0.2c0.9,1.9,1.9,3.9,2.8,5.9l0.4,1.1c0.8,2,1.6,4,2.6,6c0.9,1.9,2.1,3.9,3,5.6l0.6,1c1.5,2.7,2.8,4.7,4,6.5
			c0.4,0.6,0.8,1.1,1.2,1.7l0.2,0.3c1,1.4,2.1,2.9,3,4.4c1.2,2,2.3,4.2,3.4,6.3l0.1,0.2l0.1,0.2c1.2,2.3,2.4,4.7,3.8,7
			c0.7,1.1,1.6,2.2,2.4,3.2c0.3,0.3,0.5,0.7,0.8,1c0.9,1.2,1.7,2.2,2.5,3.1c1,1.2,2,2.3,3,3.3L83,734c0.6,0.6,1.1,1.2,1.7,1.8
			c0.7,0.8,1.4,1.7,2.1,2.5l0.1,0.1c0.7,0.9,1.5,1.8,2.2,2.6c2.1,2.3,4.2,4.2,6.4,5.7c1.9,1.3,4,2.6,5.9,3.8l0.1,0.1l1.5,0.9
			c0.9,0.5,2.2,1.3,3.5,2.2c1,1.3,1.9,2.3,2.7,3.2c2.4,2.6,4.4,4.7,6.6,6.8l2.1,2c1.8,1.7,3.6,3.4,5.3,5.1c1.1,1.1,2.1,2.2,3.2,3.2
			c1,1,2,2,3,3l0.8,0.8c2,2,4.1,4,5.9,6.2l1.2,1.4c1.6,1.9,3.3,3.9,4.9,5.8c0.6,0.7,1.2,1.4,1.7,2.1c0.8,0.6,1.5,1.3,2.3,1.9
			c0.4,0.3,0.9,0.6,1.3,1l0.6,0.5l0.7,0.5c0.5,0.4,1,0.8,1.6,1.2c0.8,0.6,1.3,1.3,1.9,2.1l0.1,0.1c0.6,0.9,1,2.1,1,3.5
			c0.6,0.6,1.2,1.1,1.9,1.7c2.3,1.7,4.7,3.3,7,4.8l0.2,0.2c1.2,0.8,2.5,1.7,3.7,2.5c1.5,1.1,3.1,2.2,4.5,3.2l0.1,0.1
			c2.2,1.6,4.3,3.1,6.4,4.5c0.9,0.6,1.8,1.2,2.6,1.7c3,1.9,6,3.9,8.9,6.1c3.6,2.7,7.5,5.3,12,8.2c3,1.9,6.2,3.7,9.3,5.5l0.3,0.2
			l2.3,1.3c0.4,0.3,0.9,0.5,1.3,0.8l0,0c0,0,0,0,0,0l0.1,0l0,0c1.3,0.8,2.6,1.5,3.9,2.2c2.4,1.2,4.5,2.3,6.5,3.2
			c1.5,0.7,3,1.4,4.5,2.1c2.9,1.3,5.4,2.5,8,3.8c3.6,1.8,7.2,3.5,10.8,5.1l0.3,0.1c3.9,1.5,8,3.1,12.1,4.5c4.5,1.5,9.2,2.9,13.6,4.1
			c3,0.8,6,1.9,8.9,2.9l0.2,0.1c1.5,0.5,3.1,1.1,4.6,1.6c10.4,3.4,19.9,6.7,29,9.8c5.2,1.8,9.9,3.6,14.3,5.4c5,2,9.6,3.6,13.8,4.8
			c4.8,1.4,9.9,2.6,15.5,3.7l2.8,0.6l0.4,0.1c3.5,0.7,7.1,1.4,10.6,2c2.7,0.3,5.4,0.5,8.1,0.6c1.1,0,2.3,0.1,3.8,0.1
			c0.8,0,1.6,0,2.4,0c0.8,0,1.6,0,2.4,0c12.7,0,25.3,0,38,0c12.7,0,25.3,0,38,0c17.1,0,31.2,0,44.5-0.1c12.4-0.1,21.8-0.3,30.6-0.9
			c2.6-0.2,5.2-0.3,7.9-0.4c2.3-0.1,4.5-0.2,6.8-0.3c3-0.2,6-0.3,8.9-0.4h0.1c1.8-0.1,3.5-0.1,5.3-0.2c5.4-0.2,10.8-0.6,16.1-0.9
			c4.4-0.3,9.4-0.6,14.3-0.8c2-0.1,3.9-0.2,5.9-0.3l0.8,0c2.5-0.2,4.9-0.3,7.4-0.4c5.2-0.2,9.8-0.5,14-1c2.3-0.4,4.5-0.7,6.6-1.3
			c2.2-0.6,4.3-1.1,6.5-1.7l0.3-0.1l0.3-0.1c1.7-0.4,3.3-0.9,4.9-1.4c2.5-0.7,5.6-1.6,8.6-2.3l1.9-0.4c3.9-0.9,7.8-1.9,11.7-3.2
			c3.9-1.3,8-2.7,12.1-4.3c4.1-1.8,7.5-3.4,10.9-5.1c3.7-1.9,8.1-4.1,12.7-6c4-1.7,8.1-3.2,12.1-4.8l0.1,0l0.3-0.1
			c3.2-1.2,6.6-2.5,9.8-3.8c1.6-0.7,3-1.3,4.3-2.1c2.4-1.3,4.2-2.3,5.9-3.3c3.2-1.9,6.4-3.6,9.7-5.1c2.6-1.2,5.2-2.4,7.8-3.5
			l1.1-0.5l2.7-1.2c4.1-1.9,8-4,11.8-6c3-1.6,5.9-3.4,8.7-5.1c4.4-2.7,8.9-5.5,13.8-7.6c4.1-1.8,8.6-3.5,14-5.5
			c3.9-1.4,7.3-2.7,10.4-4c2.2-1,4.5-2.3,6.9-3.8l3.2-2l1.2-0.8c1.3-0.8,2.8-1.8,4.3-2.7c3.9-2.3,7.9-4.4,11.7-6.3l2.6-1.3l0.2-0.1
			c2.9-1.4,5.9-2.9,8.8-4.5c2.9-1.5,5.9-3.4,9-5.7c2.3-1.9,4.4-4,6.6-6c2.7-2.6,5.6-5.2,8.6-7.6c4.9-3.9,10.1-7.4,15.1-10.9
			c1.4-1,2.8-1.9,4.2-2.9c2.3-1.8,4.9-3.9,7.3-6.3c2.6-2.7,5.4-5.5,7.9-8.6c1.2-1.5,2.4-2.9,3.6-4.3l0.4-0.4
			c1.1-1.3,2.1-2.5,3.2-3.8c2.2-2.7,4.6-5.5,7.3-8.1c2.7-2.6,5.6-5.2,8.7-7.6c0.6-0.5,1.2-0.9,1.7-1.4l0.4-0.3
			c2.1-1.6,4.3-3.3,6.2-5.1c2.5-2.3,5.4-5.1,8-8.2c1.9-2.2,3.8-4.6,6.1-7.5l0.8-1.1c1.1-1.5,2.3-3.1,3.4-4.7l1.1-1.6
			c1-1.5,2-3.1,3.1-4.6c3.2-4.7,6.4-9.1,9.8-13.3c1.9-2.6,3.4-4.8,4.8-6.9c1.5-2.3,2.8-4.7,4-6.8c2.8-5,5.1-9.6,7.1-14.2
			c1-2.5,1.8-4.7,2.5-6.8c0.2-1.5,0.4-3.1,0.6-4.6c0.5-4,0.7-8,0.8-12.1c0.1-4.4,0.1-8.7,0.1-13.1c0-3.5,0.1-7.1-0.3-10.6
			C998.7,599,998.1,596.6,997.2,594.3z M142.7,588.6c1.4-1,3-1.5,4.7-1.5c2.3,0,4.2,0.9,5.8,2.4c1.8,1.6,3.7,3.1,4.7,5.3
			c0.9,1.9,1.2,3.2,1.4,5.4c0,0.5,0.1,1,0.1,1.5c0,1.5-0.1,3-0.2,4.5c-0.1,1.4-0.3,2.8-0.5,4.1c-0.1,0.9-0.2,1.7-0.5,2.6
			c-0.4,1.4-0.9,2.6-1.5,3.9c-0.6,1.3-1.3,2.2-2.2,3.4c-1.3,1.6-3,2.8-4.8,3.7c-1.2,0.6-2.8,1.3-4.2,1.6c-1.5,0.3-3.2,0.6-4.7,0.5
			c-3.1-0.3-5.7-0.8-8.5-2.1c-2.5-1.1-4.9-3.2-6.1-5.8c-0.6-1.3-1-2.3-1.2-3.6c-0.2-1.1-0.4-2.3-0.3-3.4c0.1-2.6,0.3-5.3,0.9-7.9
			c0.6-2.5,1.5-5.1,3-7.2c1.4-2,3-3.8,4.6-5.7c1.4-1.6,3.8-2.4,5.8-2.4C140.3,587.8,141.6,588.1,142.7,588.6z M80.6,545.5
			c-1.7,1.8-3.4,3.7-5,5.6c-0.8,1-1.6,2-2.3,3c-1.3,1.9-2.6,3.8-3.8,5.6c-0.6,0.9-1.3,1.6-2.4,1.8c-1,0.3-2.2,0.1-3.1-0.4
			c-1.8-1.1-2.6-3.7-1.4-5.5c2.6-3.8,5.1-7.7,8.1-11.2c2.7-3.1,5.5-6,8.3-8.9c4.1-4.3,9.2-7.3,14.3-10.1c1.9-1,3.8-1.9,5.7-2.9
			c1.8-0.9,3.5-1.8,5.3-2.7c4.1-2.1,8.2-4.1,12.4-5.8c1.8-0.7,3.7-1.3,5.6-1.9c2.1-0.7,4.3-1.2,6.4-2c0.9-0.4,1.8-0.8,2.8-1.2
			c0.7-0.3,1.4-0.5,2.1-0.5c0.3,0,0.6,0,1,0.1c1,0.3,1.9,0.9,2.4,1.8c0.5,0.9,0.7,2.1,0.4,3.1c-0.2,0.9-0.9,2-1.8,2.4
			c-1.9,0.8-3.7,1.8-5.7,2.4c-0.6,0.2-1.2,0.4-1.8,0.5c-1.3,0.4-2.5,0.8-3.8,1.2c-2.2,0.7-4.4,1.5-6.5,2.3
			c-4.9,2.2-9.6,4.8-14.4,7.2c-5.3,2.6-10.6,5.2-15.3,8.8C85.2,540.5,82.9,543.1,80.6,545.5z M136.9,740.8c-1.1,1.8-3.6,2.6-5.5,1.4
			c-1.8-1.2-3.7-2.3-5.5-3.6c-1.2-0.9-2.3-1.8-3.4-2.8c-1.2-1-2.3-2-3.5-3c-3.1-2.9-6.1-6-9-9.1c-1.4-1.5-2.9-3-4.3-4.6
			c-1.4-1.7-2.8-3.3-4.2-5c-1.4-1.7-2.8-3.4-4.3-5.1c-1.6-1.7-3.1-3.5-4.7-5.2c-3.2-3.4-6.1-7.1-8.9-10.9c-0.6-0.8-0.7-2.1-0.4-3.1
			c0.3-1,0.9-1.9,1.8-2.4c0.6-0.4,1.3-0.5,2-0.5c0.4,0,0.7,0,1.1,0.1c1.1,0.3,1.7,1,2.4,1.8c0.7,1,1.4,1.9,2.2,2.9
			c0.5,0.7,1.1,1.3,1.6,2c2.7,3.3,5.8,6.4,8.6,9.6c2.9,3.3,5.7,6.7,8.5,10.1c1.3,1.6,2.8,3.1,4.3,4.6c1.3,1.4,2.6,2.8,3.9,4.1
			c1,1,2,2,3,3c0.7,0.7,1.4,1.3,2.1,1.9c1.8,1.6,3.6,3.2,5.5,4.7c1.7,1.2,3.5,2.3,5.2,3.4C137.3,736.5,138.1,738.9,136.9,740.8z
			 M151.2,731.1c-0.5,0.9-1.4,1.6-2.4,1.8c-0.9,0.3-2.3,0.2-3.1-0.4c-2.5-1.8-4.9-3.7-7.2-5.8c-1.6-1.5-3.1-2.9-4.7-4.4
			c-1.6-1.5-3.2-3-4.7-4.5c-0.8-0.8-1.6-1.7-2.3-2.5c-0.5-0.6-1.1-1.2-1.6-1.7c-3-3.3-6-6.6-9.1-9.8c-1.6-1.8-3.3-3.5-5-5.2
			c-1.6-1.6-3.3-3.1-5-4.6c-1.6-1.5-1.5-4.2,0-5.7c0.7-0.7,1.8-1.2,2.8-1.2c1.1,0,2,0.5,2.8,1.2c1.8,1.6,3.6,3.2,5.3,4.9
			c1.6,1.6,3.2,3.3,4.7,4.9c2.9,3.1,5.8,6.3,8.7,9.4c1.4,1.5,2.8,3,4.2,4.5c0.6,0.7,1.3,1.3,2,1.9c0.6,0.6,1.3,1.2,1.9,1.8
			c3,2.8,5.9,5.6,9,8.2c0.7,0.5,1.5,1.1,2.2,1.6c0.9,0.6,1.5,1.3,1.8,2.4C151.9,729,151.8,730.2,151.2,731.1z M156.6,702.7
			c-1.1,1.9-3.6,2.5-5.5,1.4c-3.4-2-6.7-4-9.9-6.2c-3-2.1-5.8-4.4-8.6-6.8c-2.6-2.1-5.1-4.3-7.6-6.5c-1.2-1.1-2.4-2.2-3.6-3.2
			c-0.6-0.5-1.3-1-1.9-1.5c-0.4-0.3-0.8-0.7-1.3-1c-3.1-2.3-6.2-4.6-9.3-7.1c-0.8-0.6-1.2-1.9-1.2-2.8c0-1.1,0.4-2.1,1.2-2.8
			s1.8-1.2,2.8-1.2c0.7,0,1.4,0.2,2,0.5c0.3,0.2,0.5,0.4,0.8,0.6c0.7,0.6,1.5,1.2,2.3,1.8c2.4,1.8,4.8,3.5,7.1,5.4
			c1.2,0.9,2.4,1.8,3.5,2.8c1.1,1,2.2,2,3.3,3c4.3,3.8,8.7,7.4,13.2,10.9c1.6,1.2,3.3,2.4,5,3.5c2,1.3,4.1,2.5,6.2,3.8
			C157.1,698.3,157.7,700.8,156.6,702.7z M164.9,667.8c-0.5,0.9-1.4,1.6-2.4,1.8c-0.9,0.3-2.3,0.2-3.1-0.4c-3.2-2.4-6.6-4.6-10-6.6
			c-3.2-2-6.5-3.8-9.7-5.9c-1.8-1.2-2.6-3.5-1.4-5.5c0.7-1.2,2.1-2,3.5-2c0.7,0,1.3,0.2,1.9,0.6c3.2,2.1,6.5,4,9.7,6
			c3.4,2.1,6.8,4.2,10,6.6c0.9,0.7,1.5,1.3,1.8,2.4C165.5,665.8,165.4,666.9,164.9,667.8z M249.4,571.7c0.6-0.4,1.3-0.5,2-0.5
			c1.4,0,2.7,0.7,3.5,2c0.6,1,1.2,2,1.9,2.9c0.4,0.5,0.8,1,1.1,1.5c1.8,2.2,3.7,4.4,5.6,6.6c1.2,1.3,2.4,2.7,3.4,4.1
			c1.2,1.6,2.2,3.3,3.3,5c1.1,1.9,0.4,4.4-1.4,5.5c-1.9,1.1-4.3,0.4-5.5-1.4c-1-1.7-2.1-3.3-3.2-4.9c-1.9-2.3-4-4.6-5.9-6.9
			c-2.2-2.6-4.3-5.4-6.2-8.3C246.8,575.3,247.6,572.8,249.4,571.7z M247.7,593.7c0.6-0.4,1.3-0.5,2-0.5c1.4,0,2.8,0.7,3.5,2
			c1.1,2,2.2,4,3.3,6c1.2,2.3,2.3,4.6,3.4,6.9c0.5,1,0.7,2,0.4,3.1c-0.3,1-0.9,1.9-1.8,2.4c-1.8,1-4.5,0.5-5.5-1.4
			c-1.2-2.4-2.3-4.8-3.5-7.1c-1-1.9-2.1-3.8-3.1-5.7C245.2,597.3,245.8,594.8,247.7,593.7z M244.3,613.5c0.7,0,1.4,0.2,2,0.5
			c0.9,0.6,1.5,1.4,1.8,2.4c0.7,1.9,1.3,3.8,2,5.7c0.7,2.1-0.8,4.4-2.8,4.9c-1,0.3-2.2,0.1-3.1-0.4c-0.9-0.6-1.5-1.4-1.8-2.4
			c-0.7-1.9-1.3-3.8-2-5.7c-0.7-2.1,0.8-4.4,2.8-4.9C243.6,613.6,243.9,613.5,244.3,613.5z M372.3,650.3c-2,3.4-6.8,4.9-10.3,2.7
			c-1.3-0.8-2.5-1.6-3.8-2.4c-0.4,2.3-0.9,4.6-1.4,6.9c-1,5-2.1,9.9-3.4,14.8c-0.7,2.7-1.4,5.3-2,8c-0.6,2.6-1,5.2-1.5,7.8
			c-0.5,2.4-0.8,4.8-1.3,7.2c-0.5,2.6-1,5.3-1.5,7.9c-1,5.3-1.9,10.6-3.1,15.8c-0.7,2.9-1.3,5.7-2,8.6c-0.5,2.3-0.9,4.7-1.3,7.1
			c-1.9,10.8-3.7,21.7-6.4,32.4c-1.3,5.3-2.4,10.8-3.6,16.1c-1.2,5.1-2.3,10.2-3.7,15.2c-1.4,5-3,10-4.3,15c-0.7,2.7-1.3,5.4-1.9,8
			c-0.7,2.5-1.3,5.1-1.9,7.6c-0.6,2.6-1.3,5.3-2,7.9c-0.7,2.7-1.6,5.4-2.5,8.1c-0.6,1.7-1.2,3.3-1.9,4.9c-0.2,0.6-0.5,1.1-0.8,1.6
			c-0.7,1-1.9,2.5-3,3c-1.4,0.7-2.6,1.2-4.2,1.2c-1.3,0-3-0.4-4.1-1.1c-1.7-1-3-2.5-3.9-4.3c-1-2.1-2.1-4.2-3.1-6.4
			c-1.1-2.2-2.2-4.4-3.3-6.7c-1.2-2.7-2.4-5.4-3.5-8.1c-1-2.4-1.9-4.8-2.8-7.2c-1-2.5-1.9-4.9-2.8-7.4c-0.8-2.4-1.6-4.8-2.2-7.2
			c-0.8-2.8-1.5-5.5-2.3-8.3c-0.7-2.4-1.4-4.8-1.9-7.3c-0.5-2.6-1-5.3-1.5-7.9c-0.9-5.3-1.6-10.6-2.4-15.9c-0.4-2.4-0.8-4.9-1.2-7.3
			c-0.5-2.6-0.8-5.3-1.5-7.9c-1.3-5.3-2.6-10.5-3.8-15.9c-1.2-5.3-2.2-10.5-3.1-15.8c-0.9-5.3-2.1-10.5-3-15.8
			c-0.9-5.2-1.6-10.5-2.2-15.8c-0.2-1.3-0.5-2.7-0.7-4c-1,2.5-2,5-2.9,7.5c-1.2,3.4-2.4,6.9-3.7,10.3c-1.8,4.8-3.8,9.6-5.7,14.3
			c-1,2.4-2,4.9-2.8,7.4c-0.9,2.6-1.7,5.1-2.6,7.7c-1.9,5.3-3.6,10.7-5.4,16c-1.4,4.1-3.1,8.2-4.8,12.2c-0.2,0.5-0.4,1-0.6,1.5
			c-0.1,0.2-0.2,0.4-0.3,0.7c-2.2,5.4-4.7,10.6-7.2,15.9c-1.2,2.4-2.3,4.7-3.6,7.1c-1.2,2.3-2.6,4.6-3.7,7c-0.6,1.2-1.2,2.5-1.8,3.7
			c-0.3,0.7-0.7,1.5-1,2.2c-0.5,1.2-1,2.5-1.7,3.6c-0.9,1.3-1.9,3-3.4,3.6c-1.4,0.6-2.5,1.2-4.1,1.2c-1.3,0-2.9-0.4-4-1.1
			c-0.9-0.5-2.4-1.9-2.9-2.9c-0.6-1.2-1.1-2.4-1.3-3.7c-0.1-0.5-0.2-0.9-0.2-1.4c-0.9-4.6-1.7-9.3-2.7-14c-0.5-2.5-1-5-1.4-7.6
			c-0.4-3-0.5-6-0.6-9c-0.2-5.2-1-10.3-1.4-15.4c-0.4-5.1-0.4-10.3-0.4-15.5c0-5.1,0-10.2,0-15.3c-0.1-10.5-0.9-20.9-1-31.3
			c0-2.5-0.1-5.1-0.1-7.6c-0.1-2.5-0.3-5.1-0.3-7.6c0-5.3,0-10.6,0-15.8c0-5.1,0-10.2,0.2-15.3c0.2-5.1,0.7-10.2,0.8-15.4
			c0.1-5.3,0-10.6,0.2-15.9c0.2-5.3,0.3-10.6,0.6-15.9c0.2-5.2,0.9-10.4,1.2-15.6c0.3-5.5,0.3-10.9,0.9-16.3c0.3-2.6,0.6-5.1,1-7.7
			c0.3-2.6,0.5-5.1,0.7-7.7c0.2-2.5,0.5-5,0.6-7.5c0.1-3,0.2-6.1,0.4-9.1c-0.3-0.2-0.6-0.4-0.9-0.7c-4.5-3.3-9-6.5-13-10.3
			c-3-2.8-2.8-7.8,0-10.6c1.5-1.5,3.3-2.2,5.2-2.2c1.9,0,3.9,0.7,5.4,2.2c1.4,1.3,2.8,2.5,4.3,3.8c3.3,2.5,6.6,4.9,9.9,7.2
			c3.5,2.5,7.1,5,10.8,7c3.8,2.1,7.8,3.8,11.8,5.7c2,0.9,4,1.9,5.9,2.8c0.9,0.4,1.8,0.8,2.6,1.2c0.7,0.3,1.4,0.6,2.1,1
			c1.3,0.7,2.5,1.5,3.8,2.2c3.5,2.1,4.8,6.7,2.7,10.3c-1.9,3.2-6,4.6-9.4,3.1c0,0.2,0,0.3,0,0.5c-0.2,3-0.5,6-0.7,9.1
			c-0.4,5.2-0.8,10.4-1,15.7c-0.2,5.1-0.3,10.2-0.3,15.3c0,10.6,0,21.1,0,31.7c0,5.5,0,11,0,16.6c0,5.3-0.4,10.6-0.5,16
			c-0.1,5.1-0.1,10.2-0.1,15.3c0,5.3,0,10.6,0.1,15.8c0.2,5.4,0.3,10.9,0.4,16.3c0,1.6,0,3.2,0,4.8c1.7-4.1,3.4-8.2,4.9-12.4
			c2-5.3,3.8-10.6,5.9-15.8c1.9-4.8,3.8-9.6,5.3-14.5c0.8-2.5,1.5-4.9,2.2-7.4c0.4-1.5,0.8-3.1,1.6-4.4c0.5-0.8,1-1.6,1.7-2.3
			c1.2-1.1,2.2-1.5,3.6-2.1c1.8-0.7,4.2-0.1,5.8,0.8c0.8,0.5,1.6,1.1,2.3,1.8c1.2,1.4,1.6,2.2,2.3,3.9c0.3,0.7,0.5,1.4,0.8,2.1
			c1.8,5.4,2.8,11.1,3.9,16.7c0.6,3.1,1.2,6.2,1.6,9.4c0.3,2.4,0.6,4.8,0.9,7.3c0.4,2.7,0.9,5.4,1.4,8.2c0.5,2.7,1.1,5.4,1.6,8.1
			c0.5,2.6,1,5.2,1.4,7.8c0.9,5.3,2,10.6,3.2,15.8c0.5,2.4,1,4.8,1.7,7.2c0.7,2.5,1.4,5.1,1.9,7.6c1,5.4,1.9,10.8,2.8,16.2
			c0.8,5.1,1.4,10.2,2.4,15.2c0.5,2.7,1,5.4,1.6,8.1c0.6,2.7,1.4,5.3,2.2,8c0.7,2.3,1.2,4.7,1.9,7.1c0.8,2.7,1.7,5.4,2.6,8
			c0.1,0.4,0.3,0.7,0.4,1.1c0.6-2.7,1.1-5.5,1.5-8.3c0.4-4.1,1-8.1,1.4-12.2c0.4-4.7,1.5-9.2,2.5-13.8c0.5-2.2,0.9-4.3,1.4-6.5
			c0.5-2.1,1.1-4.2,1.6-6.3c0.5-2.1,1-4.2,1.5-6.3c0.5-2,1-4,1.4-6.1c1.1-5.1,2.2-10.2,3.2-15.3c1.1-5.2,1.8-10.4,2.8-15.5
			c0.4-2.4,0.7-4.8,1.2-7.2c0.5-2.7,1-5.4,1.5-8.1c0.8-4.6,1.4-9.3,2.1-13.9c0.9-7.9,1.8-15.7,3-23.6c0.6-3.8,1.3-7.6,2.1-11.3
			c0.8-3.6,1.6-7.1,2.3-10.7c0.3-2.8,0.5-5.6,0.8-8.4c0.1-1.4,0.3-2.9,0.3-4.3c0-1.4-0.1-2.7-0.1-4.1c-0.9-0.4-1.9-0.8-2.8-1.2
			c-1-0.4-1.9-0.7-2.9-1.1c-1.3-0.4-2.4-1-3.3-1.9c-0.4-0.5-0.8-1-1.2-1.5c-1-1.7-1.3-3.8-0.8-5.8c0.5-1.9,1.8-3.5,3.4-4.5
			c1.1-0.6,2.5-1.1,3.9-1.1c0.7,0,1.3,0.1,1.9,0.3c4.3,1.6,8.7,3.4,12.7,5.6c3.5,1.9,6.7,4.1,10.1,6.1c1.1,0.6,2.1,1.3,3.1,1.9
			c1.5-0.6,3.2-0.7,4.8-0.3c1.9,0.5,3.5,1.8,4.5,3.4c0.6,1,1,2.2,1,3.4c2.7,1.6,5.3,3.3,8,4.9C373.1,642.2,374.4,646.7,372.3,650.3z
			 M872.7,613.4c0.2-2.4,0.7-4.8,1.3-7.2c0.9-3.6,1.9-7.1,2.9-10.7c1.2-4.3,5.8-7,10.1-5.8c1.6,0.4,2.9,1.3,3.9,2.5
			c0.6-1.8,1.8-3.4,3.6-4.4c1.3-0.7,2.7-1.1,4.1-1.1c2.9,0,5.7,1.5,7.2,4.1c0.5,0.9,1.1,1.8,1.7,2.8c0.8,1.3,1.4,2.6,2,4.1
			c0.4,0.9,0.6,1.7,0.7,2.7c0.2,1.2,0.4,2.6,0.5,3.8c0.1,2.2-0.1,4.5-0.7,6.6c-0.4,1.5-1,2.9-1.6,4.4c-0.3,0.8-0.7,1.6-1.2,2.3
			c-1.6,2.1-3.2,4.1-5.5,5.4c-0.9,0.5-1.8,1-2.7,1.4c-2.8,1.2-5.4,2.3-8.5,2.3c-2.4,0-4.9-0.3-7.1-0.9c-1.3-0.4-2.6-0.9-3.8-1.4
			c-1.2-0.5-2.4-1.4-3.3-2.3c-0.7-0.7-1.3-1.4-1.9-2.2c-0.5-0.8-0.9-1.7-1.2-2.7C872.9,615.9,872.6,614.7,872.7,613.4z M637.3,715.9
			c1.7-1.5,3.4-3,5-4.7c2-2,3.9-4.1,5.9-6.3c0.7-0.8,1.7-1.2,2.8-1.2c1.1,0,2.1,0.4,2.9,1.2c1.6,1.6,1.5,4.1,0,5.7
			c-2,2.2-4,4.4-6.1,6.5c-1.5,1.5-3.2,3-4.8,4.4c-0.8,0.7-1.7,1.2-2.8,1.2c-1.1,0-2.1-0.4-2.8-1.2
			C635.8,720.1,635.6,717.3,637.3,715.9z M659,730.6c1.6-1.1,3.3-2.1,4.9-3.2c1.2-0.8,2.4-1.7,3.5-2.6c1-0.9,1.9-1.9,2.9-2.9
			c0.7-0.8,1.8-1.2,2.8-1.2c1.1,0,2.1,0.4,2.9,1.2c1.6,1.6,1.5,4.1,0,5.7c-0.9,0.9-1.7,2.1-2.8,2.9c-0.7,0.5-1.4,1.1-2.1,1.6
			c-0.8,0.6-1.7,1.2-2.5,1.8c-1.6,1.1-3.2,2.2-4.8,3.2c-3.4,2.2-6.8,4.6-10.2,7c-0.9,0.6-2.1,0.7-3.1,0.4c-1-0.3-1.9-0.9-2.4-1.8
			c-0.5-0.9-0.7-2.1-0.4-3.1c0.3-1.1,1-1.8,1.8-2.4C652.8,734.9,655.9,732.7,659,730.6z M530.1,847.3c-0.1,2.6-0.2,5.1-0.4,7.7
			c-0.2,2.1-0.5,4.3-1,6.3c-0.5,1.9-1.1,3.6-1.9,5.4c-0.7,1.7-1.6,3.3-2.7,4.8c-0.8,1.1-1.6,2.4-2.7,3.3c-0.8,0.7-1.7,1.4-2.6,2
			c-1.5,1-3.2,1.8-4.9,2.3c-1.6,0.4-3.3,0.6-4.9,0.8c-2.5,0.3-5.1,0.2-7.6,0.3c-2.6,0.1-5.2,0.3-7.8,0.5c-5,0.4-10,0.2-15,0.6
			c-2.5,0.2-5,0.4-7.5,0.5s-5,0-7.5,0c-5.2,0-10.4,0-15.7,0c-5.1,0-10.2,0-15.3-0.4c-2.7-0.2-5.5-0.4-8.2-0.8
			c-3.2-0.4-6.3-0.9-9.5-1.4c-2.6-0.4-5.1-0.8-7.7-1.4c-1.3-0.3-2.6-0.6-3.9-0.9c-1.7-0.5-3.3-1.2-4.9-1.8c-2.8-1.2-5.2-2.9-7.6-4.8
			c-1.3-1-2.4-2.1-3.5-3.4c-1.3-1.6-2.5-3.2-3.4-5c-2.6-5.1-3.8-11-3.9-16.7c-0.1-4.7,0-9.5,0-14.2c0-4.8,0-9.5,0.6-14.3
			c0.3-2.5,0.5-5,0.7-7.5c0.2-2.7,0.6-5.3,0.9-7.9c0.3-3.2,0.5-6.4,0.6-9.6c0.1-3.5,0.4-7,0.7-10.5c0.5-5.4,1.1-10.9,1.3-16.3
			c0.1-2.5,0.1-4.9,0.1-7.4c0.1-2.8,0.2-5.6,0.4-8.4c0.3-5.2,1-10.4,1.5-15.6c0.6-5.8,1.4-11.6,2.3-17.4c0.6-4.7,1.2-9.4,1.8-14
			c0.6-5.1,1-10.2,1.5-15.3c0.5-5.8,1.3-11.6,2.3-17.4c0.5-2.8,0.9-5.6,1.3-8.4c-0.9-0.3-1.8-0.6-2.7-0.8c-1.5-0.4-3-0.7-4.5-0.9
			c-1.8-0.3-3.6-1.9-4.5-3.4c-1-1.7-1.3-3.8-0.8-5.8c0.5-1.9,1.8-3.5,3.4-4.5c1.2-0.7,2.4-1,3.8-1c0.7,0.1,1.3,0.2,2,0.3
			c1.6,0.3,3.3,0.5,4.9,1c1.4,0.4,2.9,0.9,4.3,1.4c0.2,0.1,0.3,0.1,0.5,0.2c0.6-0.2,1.3-0.3,2-0.3c0.7,0,1.3,0.1,2,0.3
			c1.8,0.5,3.3,1.6,4.3,3.2c2.1,0.8,4.1,1.5,6.2,2.3c0.2,0,0.4,0,0.6,0c0.7,0,1.4,0.1,2,0.2c2,0.5,4,0.8,5.9,1.4
			c2.4,0.8,4.8,1.8,7,3c2.7,1.4,5.4,3,8.2,4.3c0.3,0.1,0.7,0.2,1,0.3c1.9,0.6,3.5,1.7,4.5,3.4c1,1.7,1.3,3.8,0.8,5.8
			c-1,3.8-5.3,6.5-9.2,5.2c-2.3-0.8-4.4-1.8-6.5-2.9c-0.3,3.3-0.7,6.7-1.4,10c-0.4,2.3-1,4.5-1.4,6.8c-0.5,2.2-0.9,4.5-1.3,6.7
			c-0.9,7.2-1.5,14.5-2.1,21.7c-0.3,3.8-0.4,7.7-0.7,11.5c-0.3,3.8-0.8,7.6-1.4,11.3c-1.1,9.8-0.5,19.6-0.8,29.4
			c-0.2,5.1-0.5,10.1-0.7,15.2c-0.2,5.1-0.1,10.2-0.1,15.2c0,5.1-0.1,10.1-0.2,15.2c0,5.2,0,10.3,0,15.5c0,5.1,0,10.2,0,15.3
			c0,2.4,0,4.8,0,7.2c0,1.8,0,3.6,0.2,5.4c0.2,0.9,0.4,1.7,0.6,2.6c0.3,0.6,0.7,1.1,1.1,1.7c0.3,0.4,0.5,0.8,0.6,1.2
			c0.3,0,0.5,0.1,0.8,0.1c3.8,0.5,7.5,0.8,11.3,1c4.3,0.2,8.7,0.2,13,0.2c5.1,0,10.2,0,15.3,0c2.5,0,5,0.1,7.5,0
			c2.6-0.1,5.1-0.3,7.7-0.5c5-0.3,10-0.2,15-0.6c2.7-0.2,5.3-0.4,8-0.4c2.1-0.1,4.2-0.1,6.3-0.3c0.5-0.1,0.9-0.2,1.4-0.3
			c0.3-0.2,0.7-0.4,1-0.6c0.1-0.1,0.3-0.3,0.4-0.4c0.7-1,1.3-2.1,1.9-3.2c0.6-1.8,1-3.6,1.3-5.4c0.5-5.5,0.7-11,0.2-16.5
			c-0.4-3-0.9-6-1.7-8.9c-0.9-3.7-1.9-7.4-2.8-11.1c-2.5-10.4-4.5-20.9-6.4-31.4c-1.9-10.7-4-21.4-6.1-32.1c-1-5.3-1.9-10.7-2.9-16
			c-0.9-5.2-1.8-10.3-2.6-15.5c-0.9-5.3-1.5-10.7-2.5-16c-0.5-2.6-1-5.1-1.5-7.7c-0.3-1.2-0.5-2.4-0.8-3.7c-0.2-1.2-0.4-2.4-0.5-3.7
			c-0.1-0.4-0.1-0.9-0.3-1.3c-0.2-0.7-0.5-1.4-0.8-2.1c-2.1,0.1-4.3,0.2-6.4,0.2c-4.1,0-7.5-3.4-7.5-7.5c0-4.1,3.4-7.5,7.5-7.5
			c5.1,0,10.2-0.5,15.4-0.8c2.4-0.2,4.9-0.2,7.4-0.3c1.2,0,2.3,0,3.5,0c0.6,0,1.2,0,1.8,0c1.3,0,2.6,0.2,3.9,0.4
			c1.8,0.3,3.6,1.9,4.5,3.4c1,1.7,1.3,3.8,0.8,5.8c-0.5,1.9-1.8,3.5-3.4,4.5c-1.2,0.7-2.4,1-3.8,1c-0.3,0-0.5-0.1-0.8-0.1
			c-1.3-0.1-2.5-0.1-3.8,0c-1.2,0-2.3,0-3.5,0c0.1,0.3,0.1,0.5,0.2,0.8c0.2,0.9,0.3,1.8,0.4,2.7c0.7,4,1.7,7.9,2.4,11.9
			c0.4,2.2,0.8,4.3,1.1,6.5c0.3,2.2,0.6,4.4,0.9,6.6c0.7,4.4,1.3,8.7,2.1,13.1c0.8,4.6,1.7,9.1,2.5,13.7c0.9,5.2,1.8,10.4,2.9,15.6
			c1.1,5.3,2,10.6,3,15.8c2,10.6,3.8,21.3,6.1,31.8c1.2,5.4,2.5,10.8,3.9,16.1c1.4,5.6,2.6,11.2,3,17
			C530.3,842.1,530.2,844.7,530.1,847.3z M706.6,826.7c-0.8,2.3-1.6,4.7-2.5,7c-0.8,2-1.5,4.1-2.6,5.9c-1.2,1.9-2.5,3.9-4.1,5.5
			c-1.5,1.5-3.1,2.8-4.7,4c-2,1.5-4.1,2.6-6.5,3.5c-2.2,0.9-4.4,1.3-6.7,1.6c-2.3,0.3-4.6,0.2-6.9,0.2c-1.6-0.1-3.2-0.2-4.8-0.3
			c-1.9-0.2-3.8-0.4-5.7-0.9c-0.9-0.3-1.8-0.6-2.7-0.9c-3.2-1.1-6.3-2.6-9.1-4.5c-4.9-3.2-9.6-6.7-14.3-10.3c-2-1.5-3.9-3.2-5.6-5
			c-1.8-1.9-3.6-3.7-5.4-5.5c-3.7-3.7-7.5-7.2-11.2-11c-1.8-1.9-3.4-3.8-5.1-5.8c-1.6-1.9-3.4-3.6-5.2-5.2c-1.6-1.2-3.2-2.3-5-3.3
			c-1.6-1-3.3-1.8-5.1-2.5c-1.7-0.7-3.3-1.3-5.1-1.8c-1.7-0.5-3.5-0.9-5.3-1.3c0.1,1.3,0.3,2.5,0.5,3.8c0.7,5,1.2,10,1.6,15
			c0.4,5.1,0.9,10.3,1.2,15.4c0.2,2.6,0.3,5.2,0.5,7.7c0.1,2.1,0.4,4.2,0.7,6.3c1.2,7.4,3,14.6,4.3,22c0.5,0,1,0,1.5,0
			c1-0.5,2.1-0.8,3.3-0.8c0.7,0.1,1.3,0.2,2,0.3c1.9,0.5,3.5,1.8,4.5,3.4c1,1.7,1.3,3.8,0.8,5.8c-0.5,1.7-1.8,3.8-3.4,4.5
			c-1.2,0.5-2.3,1.1-3.5,1.4c-0.9,0.3-2.1,0.3-3,0.3c-0.7,0-1.4,0-2,0c-1.3,0-2.7,0-4,0c-3,0-6,0.2-8.9,0.5c-6,0.9-12,1.9-18,2.3
			c-4.1,0.2-7.5-3.6-7.5-7.5c0-2,0.8-3.9,2.2-5.3c1.5-1.5,3.3-2.1,5.3-2.2c1.8-0.1,3.6-0.3,5.3-0.5c1.6-0.2,3.2-0.5,4.8-0.7
			c-0.2-1.1-0.4-2.3-0.6-3.4c-0.4-2.3-0.7-4.6-1.1-6.9c-0.5-2.6-1-5.3-1.5-7.9c-0.5-2.5-1.2-5-1.8-7.4c-1.2-5.1-2.6-10.1-3.6-15.3
			c-0.5-2.5-0.9-5-1.4-7.5c-0.6-2.8-1.2-5.6-1.9-8.4c-0.6-2.6-0.9-5.2-1.4-7.9c-0.4-2.5-0.8-5-1.2-7.5c-0.9-5.5-2-10.9-2.8-16.4
			c-0.7-5.2-1.8-10.4-2.6-15.6c-0.4-2.5-0.9-5.1-1.3-7.6c-0.2-1.3-0.4-2.6-0.7-3.8c-0.3-1.2-0.6-2.4-0.8-3.6
			c-0.9-5.5-1.6-11-2.4-16.5c-0.5-3.8-1.2-7.6-2-11.3c-0.5-2-0.9-4.1-1.4-6.1c-0.4-2-0.7-4-1.1-6.1c-0.7-4-1.7-7.9-2.4-11.9
			c0-0.3-0.1-0.5-0.1-0.8c-0.8,0.4-1.6,0.9-2.4,1.4c-0.7,0.4-1.3,0.9-2,1.2c-1.2,0.7-2.9,1.2-4.3,1.2c-1.6,0-2.5-0.4-4-1.1
			c-1.7-0.8-3-2.8-3.4-4.5c-0.4-1.3-0.4-2.7,0-4c0.6-2.3,2-3.7,3.9-5c0.2-0.2,0.5-0.3,0.7-0.5c0.7-0.5,1.4-0.9,2-1.4
			c1.6-1.2,3.2-2.2,4.9-3.3c1.2-0.8,2.4-1.6,3.6-2.3c0,0,0.1-0.1,0.1-0.1c0.2-0.2,0.4-0.3,0.6-0.5c0.2-0.2,0.4-0.4,0.5-0.6
			c1.4-1.4,3.3-2.2,5.3-2.2c0.5-0.2,1-0.5,1.5-0.7c1.2-0.7,2.4-1,3.8-1c0.7,0.1,1.3,0.2,2,0.3c0.1,0,0.2,0,0.2,0.1
			c0.9-0.4,1.8-0.8,2.8-1.1c2.8-1.3,5.6-2.6,8.5-3.7c1.2-0.4,2.3-0.8,3.5-1.2c1.2-0.3,2.4-0.6,3.6-0.8c1.2-0.2,2.4-0.5,3.6-0.7
			c1.3-0.4,2.5-0.8,3.8-1.2c2.5-0.7,5-1.2,7.6-1.5c0.6-0.2,1.2-0.3,1.8-0.3c0.1,0,0.2,0,0.4,0c0.8-0.1,1.6-0.1,2.5-0.2
			c0.8,0,1.5-0.1,2.3-0.1c1.3,0,2.6,0.1,3.8,0.4c1.9,0.5,3.9,1.3,5.6,2.5c1.7,1.2,3.4,2.4,4.8,4c2.1,2.5,4.1,5.1,5.4,8.1
			c1.3,2.9,2.5,5.8,3.4,8.9c0.7,2.4,1.4,4.8,1.8,7.3c1,5.6,1.9,11.3,2.5,17c0.3,2.2,0.7,4.5,1,6.7c0,0,0,0,0,0
			c0.2,0.6,0.3,1.3,0.3,1.9c0,0.1,0,0.2,0,0.3c0-0.1,0-0.2,0-0.3c0,0,0,0,0,0c0,0.3,0.1,0.6,0.1,1c0,0,0,0,0,0
			c0.1,0.7,0.2,1.4,0.3,2.2c0.1,0.9,0.2,1.9,0.4,2.8c0.1,1.1,0.3,2.2,0.4,3.3c0.6,4.2,1.1,8.3,1.8,12.5c0.9,5.2,2.2,10.4,3.3,15.6
			c0.6,2.9,1,5.9,1.2,8.8c0.2,2.3-0.3,4.4-1.3,6.4c-0.9,1.7-2.1,3.3-3.6,4.5c-2.3,1.9-4.7,3.5-7.4,4.9c-2.9,1.5-5.9,2.9-9,4
			c-1.5,0.6-3.1,1.2-4.7,1.7c1.8,0.9,3.6,1.9,5.4,2.9c2.7,1.6,5.2,3.7,7.6,5.7c1.8,1.6,3.5,3.5,5,5.4c1.6,1.9,3.3,3.8,5.1,5.6
			c3.8,3.8,7.7,7.5,11.5,11.3c1.7,1.7,3.3,3.5,5.1,5.2c1.5,1.5,3.2,2.9,4.9,4.2c5,3.6,9.9,7.5,15.4,10.2c1.8,0.7,3.6,1.2,5.4,1.6
			c3.4,0.3,6.9,0.5,10.3,0.3c1-0.2,2-0.5,2.9-0.8c1.1-0.6,2.2-1.2,3.2-1.9c0.9-0.8,1.8-1.6,2.6-2.5c0.8-1.2,1.6-2.5,2.2-3.8
			c0.9-2.5,1.8-5,2.6-7.5c0.7-1.9,1.7-3.4,3.4-4.5c1.7-1,3.8-1.3,5.8-0.8c1.9,0.5,3.5,1.8,4.5,3.4
			C706.8,822.6,707.2,824.9,706.6,826.7z M789.2,804c-0.1,1.7-0.4,3.6-0.9,5.2c-1,3-2.4,6.1-4.8,8.3c-1.1,0.9-2.2,1.9-3.5,2.6
			c-1.1,0.6-2.3,1.1-3.5,1.6c-1,0.4-2,0.7-3,0.9c-1.5,0.4-3,0.7-4.5,0.9c-2.3,1.9-5.6,2.2-8.2,0.9c-2.6,0.2-5.2,0.3-7.8,0.2
			c-4.2-0.1-8.3-0.8-12.4-2c-1.6-0.5-3.2-1-4.8-1.7c-1.9-0.8-3.9-1.7-5.7-2.8c-0.8-0.5-1.5-1-2.3-1.6c-2.5-1.8-4.9-3.8-7.2-5.8
			c-1.9-1.7-3.9-3.4-5.7-5.2c-4.8-4.9-8-11-11.5-16.8c-1.3-2.3-2.7-4.5-4.2-6.7c-1.7-2.5-3.1-5.2-4.2-8.1c-0.8-2.2-1.3-4.4-1.8-6.7
			c-0.6,0.1-1.2,0.2-1.8,0.2c-2,0-3.9-0.8-5.3-2.2c-2.8-2.8-3-7.8,0-10.6c2.6-2.4,5.3-4.8,7.8-7.2c2.6-2.6,5.3-5.1,7.6-8
			c1.2-1.5,3.5-2.2,5.3-2.2c2,0,3.9,0.8,5.3,2.2c1.4,1.4,2.2,3.3,2.2,5.3c0,1.4-0.3,2.6-1,3.8c-0.4,0.5-0.8,1-1.2,1.5
			c-2,2.5-4.3,4.7-6.5,6.9c0.6,0.8,1.1,1.7,1.3,2.7c0.8,3.4,1.4,6.8,2.6,10.1c1.2,2.4,2.7,4.7,4.2,6.9c1,1.6,2,3.2,2.9,4.8
			c2.1,3.8,4.3,7.6,6.9,11.2c3.5,4.2,7.9,7.7,12.2,11.2c1.7,1.2,3.4,2.3,5.3,3.2c2.9,1.1,6,2,9,2.5c3,0.3,6.1,0.2,9.2,0
			c0.7,0,1.4-0.1,2.2-0.2c0.1-0.5,0.3-1,0.4-1.5c0.2-2.4,0-4.9-0.3-7.3c-0.3-2.2-0.7-4.4-1.1-6.6c-0.5-2.3-1-4.5-1.5-6.8
			c-0.6-2.4-1.1-4.8-1.8-7.1c-0.7-2.3-1.2-4.7-2-7c-0.8-2.4-1.5-4.7-2.3-7.1c-0.8-2.4-1.8-4.8-2.7-7.1c-1.7-4.3-3.2-8.6-4.9-12.9
			c-1.3-3-2.9-5.8-4.3-8.8c-1.6-3.4-3-6.9-4.6-10.3c-1.6-3.4-3.4-6.7-5.2-10c-0.8-1.5-1.6-3.1-2.4-4.6c-0.7-1.2-1.4-2.3-2.2-3.4
			c-1.6-1.9-3.4-3.6-5.2-5.2c-1.1-0.8-2.2-1.5-3.5-2.1c-1.3-0.6-2.5-1.2-3.8-1.8c-1.2-0.5-2.5-0.8-3.8-1.1c-1-0.2-1.8-0.7-2.6-1.2
			c-1.9-0.4-3.9-0.7-5.8-1c-2.6-0.4-5.1-0.8-7.7-1.3c-2.6-0.5-5.2-1-7.9-1.5c-6.2-1-12.4-1.6-18.2-4.3c-4.2-1.9-7.8-5.4-10.4-9.3
			c-2-3-3.6-6.2-4.1-9.8c-0.4-2.4-0.6-4.9-0.4-7.3c0.2-5.6,1-11.1,3.1-16.3c1.2-2.9,2.3-5.7,3.9-8.4c1.3-2.3,2.6-4.6,3.9-6.9
			c1.2-2.2,2.7-4.3,4.2-6.2c1.9-2.5,3.8-4.9,6.1-7.1c3.9-3.7,8.7-7.1,14.1-8.1c1.3-0.3,2.5-0.4,3.8-0.4c1.1,0,2.2,0.1,3.3,0.2
			c2.1,0.2,4.2,0.6,6.2,1.3c2.2,0.8,4.2,1.8,6.2,3c1,0.6,2.1,1.1,3.1,1.8c2.6,1.7,5.1,3.5,7.3,5.6c3.9,3.7,7.2,8,11.1,11.6
			c1.8,1.7,3.8,3.2,5.5,5c2,2.2,3.9,4.5,5.8,6.7c0,0,0,0.1,0.1,0.1c1.8-1.3,3.5-2.5,5.3-3.7c1-0.7,2.4-1,3.7-1
			c0.7,0,1.4,0.1,2.1,0.3c1.9,0.5,3.5,1.8,4.5,3.4c1,1.7,1.3,3.8,0.8,5.8c-0.5,2-1.8,3.4-3.4,4.5c-3.2,2.2-6.4,4.5-9.6,6.8
			c-3,2.2-6,4.6-9.2,6.5c-3.5,2.1-8.2,0.8-10.3-2.7c-2.1-3.6-0.8-8.2,2.7-10.3c0.4-0.3,0.8-0.5,1.2-0.8c-1.6-2-3.3-4-5.1-5.7
			c-2-2-4.3-3.8-6.3-5.8c-2.1-2.1-4-4.2-5.9-6.4c-1.7-1.9-3.6-3.7-5.5-5.4c-1.2-0.8-2.4-1.6-3.6-2.4c-1.4-0.8-2.9-1.7-4.3-2.4
			c-1.1-0.4-2.1-0.7-3.2-0.9c-1-0.1-2-0.1-3-0.1c-0.5,0.1-1,0.3-1.4,0.4c-0.4,0.2-0.8,0.4-1.2,0.6c1.3,1,2.3,2.4,2.7,4
			c0.4,1.3,0.4,2.7,0,4c-0.3,0.6-0.5,1.2-0.8,1.8c-0.3,0.7-0.6,1.4-0.9,2.2c-0.6,1.5-1,3.1-1.3,4.7c-0.3,3.6-0.4,7.3-0.1,10.9
			c0.4,2.2,0.9,4.4,1.7,6.5c0.9,1.8,1.9,3.4,2.9,5.1c0.9,1.6,1.9,3.1,2.9,4.7c0.7,0.8,1.4,1.6,2.3,2.3c0.8,0.7,1.7,1.4,2.6,2.1
			c1.4,1.1,2.7,2.3,4.1,3.5c2.6,1.9,5.5,3.4,8.4,4.8c0.7,0.3,1.3,0.5,2,0.7c0.7,0.2,1.4,0.5,2.1,0.7c1.6,0.5,3.2,0.7,4.8,1
			c0.8,0.1,1.5,0.5,2.2,1c3.2,0.5,6.5,1,9.6,1.9c2.5,0.7,5.1,1.4,7.6,2.2c3.6,1.2,7.1,2.8,10.6,4.5c4.5,2.2,8.5,5.4,12.5,8.5
			c3.2,2.4,6.5,4.6,9.7,7.1c1.2,0.9,2.5,1.9,3.6,3.1c1.7,1.9,3.6,4.2,4.7,6.5c1.5,3,2.8,6.2,3.8,9.4c1.6,5.2,2.5,10.7,2.7,16.1
			c0.1,2.5,0.1,5.1,0.1,7.6c0,2.5,0.2,5.1,0.3,7.6c0.1,4.9,0.1,9.8,0.1,14.7c0,4.9,0,9.9,0,14.8C789.4,794.1,789.5,799.1,789.2,804z
			 M811.5,739.7c-0.7,0.9-1.3,1.5-2.4,1.8c-1,0.3-2.2,0.1-3.1-0.4c-0.9-0.5-1.6-1.4-1.8-2.4c-0.3-0.9-0.2-2.3,0.4-3.1
			c2.7-3.6,5.6-7,8.3-10.4c2.2-2.8,4.5-5.4,6.8-8.2c0.5-0.7,1.1-1.4,1.6-2.1c0.6-0.9,1.3-1.5,2.4-1.8c0.3-0.1,0.7-0.1,1.1-0.1
			c0.7,0,1.4,0.2,2,0.5c0.9,0.5,1.6,1.4,1.8,2.4c0.3,0.9,0.2,2.3-0.4,3.1c-1.2,1.6-2.3,3.2-3.6,4.7c-0.5,0.6-1.1,1.2-1.6,1.9
			c-1.3,1.5-2.6,3-3.8,4.6c-2.4,3-4.9,6-7.3,9C811.8,739.3,811.7,739.5,811.5,739.7z M835.4,745.3c-2.4,2.7-4.8,5.3-7.1,8
			c-2.4,2.9-4.8,5.8-7.2,8.7c-0.6,0.8-1.9,1.2-2.8,1.2c-1.1,0-2.1-0.4-2.8-1.2c-0.8-0.8-1.2-1.8-1.2-2.8c0-1.1,0.5-2,1.2-2.8
			c2.5-3,4.9-6,7.4-8.9c2.2-2.6,4.6-5.2,6.9-7.8c0.7-0.8,1.7-1.2,2.7-1.2c1.1,0,2.2,0.4,2.9,1.2c0.8,0.7,1.2,1.8,1.2,2.8
			C836.6,743.6,836.1,744.5,835.4,745.3z M912.7,731.2c-1.4,1.4-2.8,2.8-4.5,4c-0.8,0.6-1.6,1.1-2.5,1.6c-1,0.5-1.9,1-2.9,1.6
			c-1.8,1.1-3.5,2.2-5.1,3.4c-2.6,2.1-5.2,4.2-7.6,6.4c-2.8,2.5-5.6,5.2-8.3,7.8c-2.9,2.9-7.7,2.9-10.6,0c-2.9-2.9-2.9-7.7,0-10.6
			c3.6-3.6,7.3-7,11.2-10.3c-1.1-1.4-2.1-2.9-3-4.4c-0.5-0.9-1.1-1.9-1.7-2.8c-1.1-1.9-2.3-3.7-3.6-5.5c-2-2.6-4.2-5.1-6.1-7.8
			c-1.8-2.4-3.7-4.9-5.5-7.3c-1.9-2.5-3.9-4.9-5.9-7.3c-3.8-4.3-7.7-8.4-11.2-13c-3.3-4.3-6.4-8.9-9.3-13.4
			c-1.5-2.3-2.8-4.6-4.3-6.9c-1.4-2.3-3.1-4.5-4.7-6.7c-1.5-2.1-3-4.2-4.5-6.3c-1.4-2-2.9-4.1-4.2-6.2c-2.9-4.8-5.7-9.6-8.6-14.4
			c-2.8-4.5-5.8-8.8-8.6-13.2c-1.4-2.3-3-4.5-4.6-6.7c-1.6-2.1-3.1-4.3-4.5-6.5c-1.4-2.1-2.7-4.1-4.1-6.2c-1.7-2.6-3.4-5.3-5.2-7.8
			c-3-3.7-6.5-7-9.9-10.4c0,0-0.1-0.1-0.1-0.1c-4.5,3.6-9.1,7.1-13.8,10.5c-3.2,2.3-6.3,4.8-9.6,7c-1,0.7-2.1,1.3-3.1,2
			c0.4,0.3,0.7,0.5,1.1,0.8c2.4,2,4.8,4.2,6.4,6.9c2.1,3.5,0.8,8.2-2.7,10.3c-3.5,2.1-8.2,0.8-10.3-2.7c-0.1-0.1-0.1-0.2-0.2-0.3
			c-1.1-1.2-2.3-2.2-3.5-3.3c-1.5-1.1-3.1-2.3-4.6-3.4c-2.2-1.7-4.1-3.5-6-5.6c-1.4-1.5-2.2-3.2-2.2-5.3c0-2,0.8-3.9,2.2-5.3
			c1.4-1.4,3.4-2.2,5.5-2.2c0.4,0,0.8,0,1.2,0.1c0.8-0.4,1.7-0.8,2.5-1.2c1.2-0.6,2.3-1.3,3.5-2c2.4-1.4,4.7-3.1,6.9-4.7
			c2.2-1.6,4.4-3.3,6.6-4.9c2-1.5,4-3,6-4.5c5.2-4.1,10.2-8.3,15.5-12.2c5-3.7,10.2-7,15.2-10.8c1.8-1.5,3.6-3,5.3-4.6
			c2.1-1.9,4.4-3.6,6.7-5.3c2.1-1.6,4.4-2.9,6.6-4.2c2.8-1.7,5.5-3.3,8.2-5.1c0.3-0.2,0.5-0.3,0.8-0.4c0.2-1.7,0.9-3.4,2.2-4.6
			c1.4-1.4,3.3-2.2,5.3-2.2c1.8,0,4.1,0.7,5.3,2.2c2.8,3.3,5.8,6.7,8.1,10.5c1,1.8,2.1,3.5,2.9,5.3c1,2.2,2.1,4.2,3.3,6.3
			c2.1,3.5,0.8,8.2-2.7,10.3c-3.5,2.1-8.2,0.8-10.3-2.7c-1.1-1.8-2-3.6-2.9-5.5c-0.6-1.2-1.1-2.4-1.8-3.5c-0.6-1.1-1.2-2.2-1.9-3.2
			c-0.2,0.2-0.5,0.4-0.8,0.5c-3.3,2.2-6.7,4.1-10.1,6.2c-2.3,1.4-4.5,2.9-6.7,4.5c-1.9,1.6-3.7,3.4-5.6,4.9c0.4,0.6,0.7,1.2,1.1,1.8
			c1.3,1.7,2.7,3.3,4,5c0,0,0.1,0.1,0.1,0.1c0.4,0.4,0.8,0.9,1.1,1.4c0.3,0.3,0.5,0.6,0.8,1c2.2,2.8,4.6,5.4,6.5,8.4
			c1.7,2.5,3.2,5.2,4.8,7.8c1.3,2.1,2.8,4.1,4.1,6.2c1.3,2.1,2.5,4.3,3.7,6.4c1.3,2.3,2.8,4.5,4,6.8c1.2,2.2,2.4,4.5,3.8,6.7
			c1.4,2.2,2.8,4.4,4.1,6.6c1.3,2.1,2.4,4.3,3.7,6.4c1.3,2.2,2.8,4.2,4.1,6.4c1.4,2.2,2.7,4.4,4.2,6.6c2.8,4.3,5.5,8.8,8.2,13.2
			c1.5,2.4,3,4.8,4.5,7.2c1.2,2.1,2.4,4.2,3.8,6.2c1.4,2.1,3,4.1,4.2,6.3c1.3,2.2,2.5,4.4,3.9,6.6c1.4,2.2,2.9,4.4,4.2,6.6
			c0.7,1.1,1.3,2.2,1.9,3.4c0.7,1.3,1.5,2.6,2.4,3.8c2,2.4,3.8,4.8,5.6,7.3c1.5,1.8,3,3.5,4.4,5.4c1.2,1.6,2.4,3.1,3.5,4.8
			c0.5,0.7,1,1.4,1.5,2.1c0.8,1,1.6,2,2.3,3c1.2,1.5,2.5,3,3.7,4.6c0.7-0.2,1.3-0.3,2-0.3c1.9,0,3.9,0.7,5.3,2.2
			C915.6,723.5,915.6,728.3,912.7,731.2z M989.4,623.9c0,0.9-0.1,1.8-0.1,2.8c0,0.4,0,0.9-0.1,1.3c-0.1,0.8-0.1,1.3-0.4,2
			c-0.3,0.7-0.6,1.4-1,2c-1,1.9-3.6,2.5-5.5,1.4c-1.9-1.1-2.5-3.5-1.4-5.5c0.1-0.2,0.2-0.4,0.3-0.7c0.2-3.9,0.2-7.9,0.2-11.8
			c0-2.3-0.1-4.6-0.2-6.9c-0.1-1.9-0.3-3.7-0.5-5.6c-0.4-2.5-0.8-5-1.4-7.4c-0.3-1.4-0.8-2.9-1.2-4.3c-0.3-1.1-0.8-2.2-1.2-3.3
			c-0.3-0.8-0.7-1.5-1-2.3c-0.4-0.9-0.9-1.9-1.4-2.8c-0.9-1.7-1.9-3.4-2.9-5c-1-1.7-2-3.3-3.1-4.9c-1-1.6-2.3-3.1-3.4-4.6
			c0.2,0.3,0.4,0.5,0.6,0.8c-0.3-0.4-0.6-0.8-0.9-1.2c-0.5-0.5-0.8-1.1-1-1.8c0-0.4-0.1-0.7-0.1-1.1c0-1.1,0.4-2.1,1.2-2.8
			c0.7-0.8,1.8-1.2,2.8-1.2c0.9,0,2.2,0.4,2.8,1.2c2.2,2.9,4.5,5.7,6.4,8.8c1.6,2.5,3.2,5.1,4.6,7.7c0.5,1,1,1.9,1.5,2.9
			c0.6,1.3,1.2,2.6,1.7,3.9c0.4,1,0.8,2,1.1,3c0.3,1.1,0.7,2.1,1,3.2c0.5,2.1,1,4.3,1.4,6.5c0.4,2.3,0.7,4.6,0.9,6.9
			c0.2,1.9,0.3,3.8,0.3,5.7c0.1,2.2,0.1,4.4,0.1,6.7C989.5,619.8,989.5,621.8,989.4,623.9z"/>
		<path d="M981.3,627.5C981.3,627.5,981.3,627.4,981.3,627.5c-0.1,0.1-0.1,0.2-0.2,0.4C981.2,627.7,981.3,627.6,981.3,627.5z"/>
		<path d="M766,758.8c0.9,2.3,1.6,4.8,2.4,7.2c1.6,4.8,3.1,9.6,4.2,14.6c0.6,2.7,1.3,5.3,1.8,8c0-6.7,0-13.5,0-20.2
			c0-5-0.1-10.1-0.3-15.1c-0.2-4.5-0.1-8.9-0.5-13.3c-0.8-4-1.9-7.9-3.3-11.7c-0.2-0.6-0.5-1.1-0.8-1.7c-0.5-1-1.1-1.8-1.7-2.7
			c-1.2-1.4-2.6-2.6-4.1-3.7c-1.8-1.2-3.5-2.5-5.3-3.7c-1.7-1.3-3.4-2.6-5.1-3.9c-2.3-1.7-4.5-3.3-7-4.7c-1.4-0.8-2.8-1.5-4.2-2.1
			c0.4,0.7,0.8,1.4,1.2,2.2c2.4,4.5,5,9,7.1,13.8c1,2.4,2,4.8,3.1,7.2c1.1,2.3,2.3,4.6,3.4,6.9c2.5,5.2,4.3,10.6,6.3,16
			C764,754,765,756.4,766,758.8z"/>
		<path d="M681.8,675.1c-0.7-1-1.3-2.1-1.9-3.1c-1.9-3.2-3.7-6.3-4.8-9.8c-0.9-3-1.5-6.1-1.8-9.2c-0.2-2.6-0.2-5.1-0.1-7.7
			c0-0.1,0-0.2,0-0.4c-0.8,1.4-1.6,2.9-2.3,4.4c0.2-0.4,0.3-0.8,0.5-1.2c-0.7,1.7-1.5,3.3-2,5c-0.5,1.7-0.9,3.3-1.2,5
			c-0.3,2.9-0.5,5.9-0.3,8.8c0.2,0.8,0.4,1.6,0.6,2.3c0.5,1,1.1,1.9,1.7,2.9c0.8,1,1.7,1.9,2.7,2.7c0.6,0.4,1.2,0.7,1.9,1.1
			c2.9,1.1,6,1.6,9,2.1C683.2,677.1,682.5,676.1,681.8,675.1z"/>
		<path d="M613.2,765.6c0.2-0.1,0.3-0.3,0.4-0.4c0-0.4-0.1-0.8-0.1-1.3c-1-6.5-2.8-12.9-3.9-19.4c-1.1-6.8-2-13.7-2.9-20.6
			c-0.1-0.5-0.2-1.1-0.2-1.6c0,0,0-0.1,0-0.1c0-0.1,0-0.1,0-0.2c0,0,0,0,0,0c0,0,0-0.1,0-0.1c0-0.3-0.1-0.6-0.1-0.9c0,0,0-0.1,0-0.1
			c-0.1-0.6-0.2-1.2-0.3-1.7c-0.6-3.9-1.1-7.8-1.6-11.7c-0.5-3.7-1.1-7.5-1.9-11.1c-0.8-3.6-1.8-7-3.1-10.5c-0.2-0.5-0.4-1-0.7-1.5
			c-0.7-1.4-1.5-2.7-2.4-4c-0.6-0.7-1.2-1.3-1.9-1.9c-0.5-0.3-0.9-0.6-1.4-0.9c0,0-0.1,0-0.1,0c-1.4-0.1-2.7,0-4.1,0.1
			c-2.1,0.6-4.2,1.2-6.3,1.6c-1.3,0.3-2.6,0.5-3.9,0.8c-1.1,0.4-2.3,0.8-3.4,1.1c-2.2,0.7-4.4,1.5-6.5,2.3c1.3,1.4,2.1,3.2,2.1,5.1
			c0,1.8,0,3.6,0.2,5.4c0.5,3.1,1.1,6.2,1.4,9.3c0.3,2.9,0.6,5.8,0.9,8.7c0.5,3.4,1.1,6.7,1.6,10.1c0.6,3.9,1.3,7.8,2,11.8
			c0.7,4.3,1.3,8.6,1.8,13c0.4,3.7,0.8,7.3,1.2,11c0-0.1,0-0.1,0-0.2c0.3,2.3,0.6,4.7,0.7,7c0.1,2.1,0.2,4.2,0.4,6.4
			c0.1,2.3,0.3,4.5,0.4,6.8c0.7-0.3,1.3-0.5,2-0.8c3.6-1.4,7.4-2.1,11.1-3.1c3.5-1,6.9-2.2,10.2-3.5
			C607.6,768.9,610.5,767.5,613.2,765.6z"/>
		<path d="M860.5,681.3c-1.3-2.2-2.5-4.4-4-6.4c-3-4.2-5.5-8.7-8.2-13.1c-2.9-4.5-5.5-9.1-8.3-13.6c-1.4-2.2-2.8-4.3-4.1-6.5
			c-1.3-2.2-2.8-4.3-4.2-6.4c-1.3-2.1-2.5-4.3-3.7-6.4c-1.3-2.3-2.7-4.4-4-6.6c-1.4-2.2-2.8-4.4-4.1-6.8c-1.2-2.2-2.5-4.4-3.8-6.6
			c-1.3-2.2-2.6-4.4-3.8-6.6c-0.7-1.1-1.3-2.3-2-3.4c-0.7-1.1-1.4-2.1-2.1-3.1c-1.4-2.2-2.7-4.5-4.1-6.7c-1.1-1.8-2.3-3.5-3.5-5.2
			c-1.4-1.7-2.7-3.4-4.1-5.1c-0.2-0.3-0.5-0.6-0.7-0.9c-0.1-0.1-0.2-0.3-0.3-0.4c-1.5-1.9-3.1-3.8-4.6-5.8c-0.6-0.7-1.2-1.5-1.7-2.3
			c-1.5,1-3,2.1-4.5,3.1c1.8,1.8,3.5,3.5,5.2,5.3c1.8,1.9,3.5,3.9,5.1,6c1.2,1.6,2.3,3.3,3.4,5c2.8,4.2,5.6,8.5,8.4,12.7
			c1.4,2.1,2.9,4.1,4.4,6.1c1.4,2,2.7,4,4,6.1c2.5,4,5.3,7.9,7.8,12c1.4,2.3,2.8,4.6,4.2,6.9c1.4,2.4,2.8,4.9,4.3,7.2
			c2.9,4.4,6,8.7,9.1,13c1.6,2.2,3.2,4.5,4.6,6.8c1.4,2.3,2.8,4.7,4.3,7c2.6,4,5.3,7.9,8.1,11.7c1.3,1.6,2.7,3.2,4.1,4.8
			C861.3,682.6,860.9,682,860.5,681.3z"/>
		<path d="M891.3,609.8c0.6-0.3,1.2-0.6,1.7-0.9c0,0,0.1-0.1,0.1-0.1c0.1-0.2,0.3-0.5,0.4-0.7c0.2-0.6,0.4-1.3,0.5-2
			c0-0.8,0-1.5,0-2.3c-0.1-0.2-0.1-0.5-0.2-0.7c-0.4-0.8-0.9-1.6-1.4-2.3c-0.6,2.3-1.2,4.5-1.8,6.8c-0.2,0.9-0.5,1.7-0.7,2.6
			c0,0,0.1,0,0.1,0C890.5,610.1,890.9,609.9,891.3,609.8z"/>
		<path d="M142.1,609.2c0.2-0.8,0.4-1.5,0.5-2.3c0.1-0.9,0.1-1.7,0.2-2.6c-0.3,0.4-0.6,0.9-0.8,1.3c-0.2,0.8-0.4,1.6-0.6,2.4
			c0,0.4-0.1,0.9-0.1,1.3c0.1,0,0.2,0,0.2,0C141.8,609.3,142,609.3,142.1,609.2z"/>
		<polygon points="140.6,609.9 140.6,609.9 140.6,609.9 		"/>
		<path d="M1025.9,506.7c-0.8-0.7-1.7-1.2-2.8-1.5c-0.9-0.2-1.8-0.3-2.6-0.2c-0.8-0.3-1.7-0.6-2.6-0.9c-0.6-0.2-1.2-0.4-1.7-0.6
			c-0.6-0.2-1.3-0.4-1.9-0.6c-0.6-0.4-1.3-0.8-1.9-1.2c-0.3-0.3-0.6-0.6-0.9-1c-0.9-1.1-1.7-2.2-2.6-3.3c-0.2-0.2-0.4-0.4-0.6-0.6
			c-0.8-1.2-1.5-2.5-2.2-3.8c-0.8-1.7-2-3.3-3-5c-0.6-0.9-1-1.9-1.5-2.9c-0.4-1-0.9-1.9-1.4-2.8c-0.5-0.9-0.9-1.8-1.4-2.7
			c-0.6-1-1.3-2-2.1-2.9c-1.2-1.8-2.3-3.6-3.7-5.2c-1.1-1.3-2.2-2.6-3.3-3.9c-1-1.4-2.1-2.7-3.3-4c-1.6-1.7-3.5-3-5.4-4.4
			c-3-2.2-6.6-3.5-10-4.8c-1.5-0.6-3.1-1.3-4.6-1.8c-1.6-0.5-3.3-1-4.9-1.5c-1.5-0.4-3.1-0.8-4.6-1.2c-2.3-0.6-4.7-0.8-7-1.1
			c0.3,0,0.7,0.1,1,0.1c-1.7-0.2-3.4-0.4-5.1-0.6c-2.1-0.3-4.2-0.7-6.3-1.1c-2.3-0.5-4.6-1.3-6.8-2.1c-0.9-0.4-1.7-0.8-2.5-1.2
			c-1.4-0.8-2.6-1.8-4-2.6c-2.4-1.5-4.8-3.1-7.2-4.8c-0.6-0.5-1.1-1-1.7-1.6c-1.1-1.1-2.4-2.1-3.7-3c-1.4-1-2.7-1.8-4.4-2.4
			c-1.1-0.4-2.4-0.5-3.6-0.5c-0.5,0-0.9,0-1.4,0c-1.2,0.1-2.4,0.2-3.5,0.5c-2.1,0.6-4.1,2.1-5.2,3.9c-0.9,1.6-1.4,3.4-1.3,5.2
			c0.1,1.1,0.3,2.3,0.5,3.4c0.2,1.1,0.6,2.1,1,3.1c-0.2,1.6,0,3.6,0.9,4.9c0.3,0.4,0.5,0.7,0.8,1.1c0.2,0.3,0.4,0.6,0.6,0.8
			c-0.6,1.1-0.9,2.3-0.9,3.5c0.1,0.7,0.2,1.3,0.3,2c0.3,1.2,0.9,2.2,1.8,3.1c0.4,0.6,0.8,1.2,1.1,1.8c0.1,0.2,0.3,0.4,0.4,0.7
			c0.1,0.2,0.1,0.5,0.2,0.7c0-0.2,0-0.4-0.1-0.5c0,0,0,0,0,0c0,0.2,0.1,0.4,0.1,0.6c0.1,0.9,0,1.8,0,2.7c0,0.7,0,1.4,0,2.1
			c-0.1,0.4-0.2,0.8-0.4,1.3c-0.4,0.9-0.9,1.8-1.3,2.7c-0.4,0.8-0.8,1.6-1.1,2.4c-0.2,0.5-0.4,1-0.6,1.5c-0.3,0.9-0.4,1.9-0.4,2.8
			c0.1,2,0.7,3.5,1.9,4.9c0.1,0,0.1,0,0.2,0c0.1,0,0.1,0,0.2,0c0.3,0,0.7-0.1,1-0.1c0,0,0,0,0.1,0c1.1,0,2.3-0.1,3.4-0.1
			c0,0,0.1,0,0.1,0c0.8-0.2,1.6-0.4,2.4-0.6c0,0,0,0,0,0c0.5-0.3,1-0.5,1.5-0.8c0.5-0.3,1.1-0.5,1.6-0.8c0.1-0.1,0.2-0.2,0.4-0.4
			c0,0,0,0,0-0.1c0,0,0,0,0-0.1c0.1-0.2,0.1-0.4,0.2-0.6c0.1-0.4,0.3-0.7,0.4-1.1c0.2-0.4,0.3-0.8,0.4-1.2c0.1-0.2,0.1-0.4,0.2-0.6
			c0,0,0,0,0,0c0-0.6,0-1.2-0.1-1.8c0,0,0-0.1,0-0.1c-0.1-0.3-0.1-0.6-0.2-0.9c-0.3-1.1-0.6-2.1-1-3.2c-0.6-1.3-1-2.6-1-4.1
			c0-1.2,0.3-2.5,0.8-3.6c0.2-0.4,0.4-0.7,0.6-1.1c0,0,0.1-0.1,0.1-0.1c0.3-0.4,0.5-0.7,0.8-1c0,0,0,0,0,0c0.2-0.2,0.5-0.4,0.7-0.6
			c0.1,0,0.1-0.1,0.2-0.1c0.3-0.2,0.5-0.4,0.8-0.5c0,0,0.1,0,0.1-0.1c0.3-0.2,0.6-0.3,0.9-0.4c0.1,0,0.1-0.1,0.2-0.1
			c0.3-0.1,0.6-0.2,1-0.3c0,0,0.1,0,0.1,0c0.1,0,0.3-0.1,0.4-0.1c0.1,0,0.2,0,0.2,0c0.2,0,0.4,0,0.6,0c0,0,0,0,0.1,0
			c0.1,0,0.3,0,0.4,0c0,0,0,0,0.1,0c0.7,0.1,1.5,0.2,2.2,0.3c0.6,0.2,1.2,0.4,1.8,0.8c0.2,0.1,0.4,0.2,0.6,0.4
			c0.1,0.1,0.3,0.2,0.4,0.3c0.2,0.2,0.4,0.4,0.7,0.6c0.1,0.1,0.1,0.1,0.2,0.2c0.2,0.3,0.5,0.5,0.7,0.8c0.1,0.2,0.3,0.4,0.4,0.6
			c0.1,0.2,0.2,0.3,0.4,0.5c0,0.1,0.1,0.1,0.1,0.2c0.1,0.2,0.3,0.4,0.4,0.6c0,0.1,0.1,0.1,0.1,0.2c0.2,0.2,0.3,0.4,0.5,0.6
			c0.1,0.1,0.1,0.2,0.2,0.2c0.3,0.4,0.6,0.7,0.9,1.1c0.1,0.1,0.2,0.2,0.3,0.4c0.3,0.4,0.6,0.8,0.9,1.2c0.1,0.1,0.2,0.2,0.3,0.4
			c0,0,0,0.1,0,0.1c0.3,0.4,0.6,0.9,0.8,1.3c0,0,0,0.1,0.1,0.1c0.1,0.1,0.1,0.2,0.2,0.4c0.2,0.4,0.5,0.8,0.7,1.2
			c0.3,0.4,0.6,0.9,0.9,1.3c0.2,0.3,0.4,0.6,0.6,0.9c0.2,0.4,0.4,0.8,0.6,1.2c0.2,0.4,0.4,0.9,0.5,1.3c0,0.1,0,0.1,0.1,0.2
			c0.1,0.4,0.3,0.7,0.4,1.1c0,0.1,0.1,0.2,0.1,0.3c0.1,0.3,0.2,0.6,0.3,0.9c0,0.1,0.1,0.3,0.1,0.4c0,0,0,0.1,0,0.1
			c0.1,0.4,0.2,0.7,0.2,1.1c0.4,2.2,0.4,4.3-0.8,6.4c0,0,0,0,0,0c-0.2,0.3-0.4,0.7-0.7,1c-0.1,0.1-0.1,0.2-0.2,0.2
			c-0.3,0.3-0.5,0.6-0.8,0.9c0,0,0,0,0,0c-0.1,0.2-0.2,0.4-0.3,0.7c-0.2,0.4-0.4,0.8-0.6,1.2c-0.5,1.2-1,2.3-1.4,3.6
			c-0.4,1-0.8,2-0.7,3.2c0,1.4,0.3,2.6,1,3.8c0.7,1.1,1.6,2,2.7,2.7c2.8,1.7,6.8,1.3,9.1-1.2c1.1-1.1,1.5-2,1.9-3.2
			c0.5-1.1,1-2.1,1.8-3.1c0.3-0.4,0.7-0.9,1-1.3c0.1-0.1,0.2-0.3,0.3-0.4c0.2-0.3,0.5-0.5,0.7-0.7c1-0.8,2.1-1.6,3.1-2.4
			c0.7-0.6,1.3-1.4,1.6-2.4c0.6-0.2,1.3-0.4,1.9-0.5c1.3-0.1,2.6-0.1,3.8,0c0,0,0,0,0,0c1,0.2,2,0.5,3,0.8c1.8,0.9,3.5,1.9,5.1,3.1
			c1.5,1.3,2.9,2.8,4.2,4.3c0,0,0,0,0,0c0.5,0.7,1,1.3,1.6,1.9c-0.1,0-0.2,0-0.3,0c-1.2,0.1-2.4,0.2-3.7,0.4
			c-1.7,0.4-3.3,1.1-4.8,1.9c-0.6,0.3-1.1,0.6-1.7,0.9c-0.5,0.3-1,0.6-1.5,0.9c-0.5,0.3-0.9,0.7-1.4,1.1c-0.8,0.6-1.4,1.5-1.9,2.4
			c-0.9,1.8-1,2.6-1.3,4.5c-0.2,0.4-0.3,0.8-0.5,1.2c-0.4,1.3-0.4,2.7,0,4c0.2,1.3,1.1,2.6,2,3.5c2.3,2.3,5.5,2.7,8.6,2.5
			c2.2-0.1,4.3-0.5,6.5-0.7c1.8-0.1,3.5-0.1,5.3-0.1c0.1,0,0.2,0,0.3,0c0.2,0.3,0.5,0.6,0.7,0.9c1.5,1.5,3.3,2,5.3,2.2
			c0.1,0,0.1,0,0.2,0c0.9,0.1,1.8,0.1,2.8,0.2c1.1,0.2,2.1,0.4,3.1,0.7c1.4,0.4,2.8,0.9,4.2,1.4c2.3,0.7,4.7,1.3,7.1,1.7
			c1.1,0.2,2.2,0.3,3.4,0.4c3.7,0.2,7.6,0.8,11.2-0.5c1.9-0.7,3.3-1.6,4.8-2.9c0.9-0.7,1.5-1.6,2.2-2.5c0.4-0.5,0.7-1.1,1-1.6
			c0.3-0.1,0.6-0.3,0.9-0.5c0.8-0.4,1.5-1,2.1-1.6c1.3-1.4,1.9-2.9,2.5-4.7C1029.3,511.6,1028.1,508.5,1025.9,506.7z M900.7,463.1
			c0-0.2,0-0.3-0.1-0.5c0,0,0-0.1,0-0.1c0,0,0,0.1,0,0.1C900.6,462.7,900.6,462.9,900.7,463.1L900.7,463.1z"/>
		<path d="M51.2,510.9c0.7-1.2,1-2.4,1-3.8c0-2.1-0.9-3.8-2.2-5.3c-0.3-0.3-0.6-0.7-0.9-1c-2.1-2.1-4.8-3.6-7.2-5.2
			c-0.4-0.3-0.9-0.5-1.3-0.8c-0.5-0.3-1-0.7-1.6-1c0.1,0,0.2-0.1,0.2-0.1c1.1-0.4,2.3-0.7,3.5-0.9c1.1-0.1,2.1-0.1,3.2-0.1
			c1.8,0.4,3.5,1.1,5.3,1.6c0.7,0.4,1.3,0.8,2,1.2c0.4,0.2,0.8,0.4,1.2,0.7c0.4,0.3,0.9,0.5,1.3,0.7c0.9,0.5,2,0.9,3,1.3
			c1.5,0.5,3.1,0.3,4.6,0.1c1.4-0.2,2.6-1.1,3.6-2c2.1-1.8,2.5-4.8,1.9-7.3c-0.3-1.4-1.1-2.6-2.1-3.5c-0.1-0.1-0.3-0.3-0.4-0.4
			c-0.4-0.9-0.9-1.7-1.6-2.3c-0.9-0.9-1.9-1.4-2.9-1.8c-0.6-0.6-1.3-1.1-1.9-1.7c-0.9-0.8-1.8-1.5-2.6-2.3c-0.1-0.1-0.2-0.2-0.2-0.4
			c0-0.5,0-1,0-1.5c0,0,0-0.1,0-0.1c0.3-1.6,0.6-3.1,0.8-4.8c-0.1,0.7-0.2,1.3-0.3,2c0.1-0.7,0.3-1.3,0.6-2c0.4-0.8,0.9-1.6,1.4-2.3
			c0.2-0.3,0.4-0.5,0.6-0.8c0.1,0,0.3-0.1,0.4-0.1c1.3-0.3,2.5-0.5,3.8-0.8c2.1-0.4,4.2-0.9,6.3-1.2c0.6-0.1,1.2-0.2,1.8-0.2
			c0,0-0.1,0-0.1,0c1-0.1,2-0.2,3-0.2c1.3,0,2.5-0.2,3.8-0.4c2.1-0.3,4.2-0.3,6.3-0.8c1.8-0.5,3.5-1.3,5.2-2c0.7-0.3,1.4-0.6,2-0.9
			c-0.3,0.4-0.7,0.9-1,1.3c-0.3,0.4-0.5,0.8-0.8,1.2c-0.5,0.5-1,0.9-1.6,1.4c0,0,0.1,0,0.1-0.1c-0.6,0.5-1.3,1-1.9,1.6
			c-1.5,1.3-2.7,2.9-3.3,4.8c-0.6,1.9-0.2,4.1,0.8,5.8c0.2,0.3,0.4,0.7,0.7,1c1.4,1.7,3.6,2.9,5.8,2.7c1.6-0.1,2.8-0.4,4.2-1.2
			c0.4-0.2,0.7-0.5,1.1-0.8c1.2-0.9,2.3-1.8,3.4-2.8c0.5-0.5,1.1-1,1.6-1.5c0.7-0.7,1.4-1.3,2.1-1.9c1.4-1.2,2.7-2.5,3.9-3.9
			c1.2-1.3,2.6-2.3,3.9-3.5c0.2-0.2,0.3-0.3,0.5-0.5c0.3-0.2,0.6-0.5,0.8-0.7c0.7-0.6,1.3-1.3,2-1.9c0.8-0.7,1.5-1.5,2.2-2.3
			c0.6-0.6,1.1-1.3,1.6-2c0.8-1,1.6-2.1,2.2-3.1c0.9-0.7,1.8-1.4,2.6-2.2c1.8-2,3-4.2,3.9-6.7c0.4-1.1,0.5-2.3,0.6-3.5
			c0.3-2.3-0.4-5-1.8-6.8c-1.2-1.6-2.2-2.7-4-3.8c-1-0.7-2.3-1.1-3.5-1.4c-1.7-0.4-3.5-0.7-5.2-0.8c-1-0.1-2.1-0.1-3.1-0.1
			c-0.6,0-1.3,0-1.9,0c-3.1,0-6.5,0.7-9,2.6c-1.9,1.4-3.5,3.1-5.2,4.6c-1.3,1.1-2.3,2.5-3.3,3.9c-0.2,0.2-0.4,0.5-0.6,0.7
			c-0.8,0.5-1.6,1-2.4,1.5c-0.8,0.5-1.6,1-2.5,1.5c-0.8,0.3-1.6,0.5-2.4,0.7c-0.9,0.1-1.9,0.1-2.8,0c-1.8-0.4-3.6-1-5.4-1.6
			c-2.1-0.7-4.1-1.2-6.2-1.9c-2.2-0.7-4.4-1.3-6.6-1.9c-2.9-0.7-5.9-1-8.9-1.2c-3.6-0.2-7.5-0.1-10.5,2c-2.7,1.9-4.9,4.2-6.9,6.9
			c-1.4,1.9-2.2,4.2-3.4,6.3c-0.6,1-1.2,2-1.7,3c-0.8,1.7-1.5,3.5-2.2,5.3c-0.6,1.6-1.1,3.3-1.7,4.9c-0.7,1.4-1.5,2.7-2.2,4.1
			c-1,1.9-1.7,3.8-2.9,5.6c-0.1,0.1-0.2,0.2-0.3,0.4c-0.8,1-1.6,2-2.6,2.9c-0.7,0.4-1.3,0.9-2,1.3c-0.7,0.5-1.5,0.9-2.2,1.4
			c-0.3,0.1-0.5,0.1-0.8,0.2c-0.7,0.1-1.5,0.1-2.2,0.1c-1-0.2-1.9-0.3-2.9-0.2c-0.5-0.1-1-0.2-1.5-0.2c-2,0-3.9,0.8-5.3,2.2
			c-1.3,1.3-2.3,3.4-2.2,5.3c0.1,1.3,0.2,2.7,0.5,3.9c0.3,0.9,0.7,1.8,1.1,2.6c0.6,1.1,1.4,2,2.2,2.9c0.3,0.4,0.7,0.7,1,1.1
			c1.6,1.4,2.8,1.9,4.7,2.6c1.8,0.7,3.6,1.4,5.6,1.8c3.1,0.6,6.3,0.5,9.5,0.9c1.5,0.3,3,0.7,4.4,1.2c0.1,0,0.2,0,0.2,0.1
			c1.5,0.7,3,1.4,4.5,2.3c0.8,0.5,1.6,1.1,2.4,1.7c1.3,1,2.5,2.2,3.9,3.1c0.9,0.6,1.8,1,2.7,1.3C45.9,515.3,49.5,513.7,51.2,510.9z
			 M90.7,463.3c0,0,0.1-0.1,0.1-0.1C90.8,463.2,90.8,463.3,90.7,463.3C90.7,463.3,90.7,463.3,90.7,463.3z"/>
		<path d="M524.7,333.9c-0.1,0-0.3,0-0.4,0.1c0,0,0,0.1,0,0.1C524.4,334,524.6,334,524.7,333.9z"/>
		<path d="M601.7,310c2.2,0.7,4.3,1.5,6.5,2.3c0.5,0.2,1.1,0.4,1.6,0.6c0.7,0,1.5,0,2.2,0c1.9,0,3.8,0,5.7,0c3.9-6,7.8-12.1,11.8-18
			c3.5-5.2,6.9-10.5,10.5-15.5c1.8-2.6,3.6-5.2,5.5-7.7c1-1.3,2-2.7,2.9-4c2.1-3.1,3.9-6.3,5.8-9.5c2.1-3.5,0.8-8.2-2.7-10.3
			c-1.2-0.7-2.4-1-3.7-1c-2.6,0-5.1,1.3-6.5,3.7c-1.7,2.8-3.2,5.8-5.1,8.5c-0.8,1.1-1.6,2.2-2.4,3.3c-1.7,2.3-3.3,4.6-5,7
			c-1.5,2.2-3.1,4.3-4.6,6.5c-1.4,2-2.7,4-4,6c-3.3,4.9-6.6,9.8-9.8,14.7C607.6,300.9,604.7,305.5,601.7,310z"/>
		<path d="M816.6,275.6c1,1.5,1.6,3.3,2.4,4.9c0,0.1,0.1,0.2,0.1,0.3c0.7,1.2,1.4,2.3,2.2,3.4c0.3-0.2,0.7-0.5,1-0.7
			c3.9-2.7,7.8-5.4,11.8-8.2c1.9-1.3,3.7-2.6,5.6-3.9c3.3-2.3,6.5-4.8,9.7-7.3c1.5-1.2,2.2-3.5,2.2-5.3c0-2-0.8-3.9-2.2-5.3
			c-1.4-1.4-3.3-2.2-5.3-2.2c-0.7,0.1-1.3,0.2-2,0.3c-1.3,0.4-2.4,1-3.3,1.9c-0.8,0.6-1.6,1.3-2.4,1.9c-3.9,2.9-7.9,5.5-11.9,8.3
			c-4,2.8-8,5.5-12,8.3C814.2,272.9,815.6,274.1,816.6,275.6z"/>
		<path d="M775.7,299.1c-4.4,3-8.9,6-13.2,9.1c-3.1,2.3-6.2,4.6-9.2,7c0.5,0.6,0.9,1.2,1.4,1.8c2.2,2.9,4,6.1,5.9,9.2
			c0.4,0.4,0.8,0.8,1.2,1.3c1.4-1.1,2.8-2.3,4.2-3.4c0,0,0,0,0.1,0c5.6-4.1,11.4-8.1,17.2-12.1c4.4-3,8.7-6.3,12.9-9.6
			c-0.3-0.5-0.5-1.1-0.6-1.6c-0.3-0.7-0.6-1.4-0.7-2.2c-0.4-1.5-0.7-3-0.9-4.5c-1-2.2-2-4.3-3-6.5c-1.3,1-2.7,2.1-4,3.1
			C783.2,293.6,779.5,296.4,775.7,299.1z"/>
		<path d="M735.8,455.8c0.9,2.1,1.8,4.3,2.7,6.5c1.9-0.9,3.9-1.7,5.8-2.6c4.3-1.7,8.5-3.4,12.8-5.1c4.3-1.7,8.6-3.6,13-5.2
			c4.7-1.6,9.5-3.3,14.1-5.2c2.7-1.1,5.4-2.3,8.1-3.5c1-0.4,1.9-0.9,2.9-1.3c0.7-0.4,1.5-0.7,2.2-1.1c1.6-0.9,3.1-2,4.6-3
			c1.7-1.1,2.9-2.5,3.4-4.5c0.5-1.9,0.3-4-0.8-5.8c-1-1.7-2.6-2.9-4.5-3.4c-0.6-0.2-1.3-0.3-2.1-0.3c-1.3,0-2.7,0.3-3.7,1
			c-1.9,1.3-3.7,2.6-5.8,3.7c-0.9,0.4-1.8,0.9-2.7,1.3c-1.6,0.7-3.2,1.4-4.8,2.1c-4.3,1.8-8.6,3.4-12.9,4.9
			c-5.1,1.8-10.1,3.8-15.1,5.9c-5.2,2.1-10.4,4.1-15.6,6.3c-1.7,0.7-3.4,1.5-5.1,2.2C733.7,450.9,734.7,453.3,735.8,455.8z"/>
		<path d="M390.4,283.6c1.4,1.3,3,2.5,4.3,3.9c2.5,3.5,5.1,7,7.8,10.4c1.3,1.6,2.7,3,4.1,4.5c1.1,1.2,2.2,2.5,3.2,3.8
			c3.9,5.2,7.4,10.8,11.3,16c1.4,1.8,2.8,3.6,4.2,5.4c4.1-1.8,8.4-3.5,12.5-5.1c0.6-0.2,1.2-0.5,1.8-0.7c-1.7-2.1-3.3-4.2-5-6.3
			c-1.7-2.3-3.4-4.6-5.1-6.9c-1.8-2.5-3.5-5-5.2-7.6c-2-2.8-4.1-5.6-6.4-8.2c-1.9-2.1-3.8-4.1-5.6-6.3c-1-1.3-1.9-2.6-2.9-3.9
			c-0.7-1-1.4-1.9-2.1-2.9c-0.8-1.1-1.6-2.1-2.5-3.1c-1.2-1.2-2.6-2.3-3.9-3.4c-1.5-1.3-3.2-2.2-5.3-2.2c-2,0-3.9,0.8-5.3,2.2
			C387.6,275.7,387.3,280.9,390.4,283.6z"/>
		<path d="M461.7,363.3c-1,0.7-2.1,1.5-3.1,2.2c0.4-0.1,0.8-0.3,1.2-0.6C460.5,364.5,461.1,363.9,461.7,363.3z"/>
		<path d="M203.1,224.6c1.6,1,3.3,2,4.9,3.1c2.9,2.6,5.3,5.7,7.8,8.8c2.2,2.7,4.4,5.4,6.5,8.2c3.9,5.3,8.1,10.5,12.3,15.6
			c-0.2-1.1-0.1-2.3,0.2-3.4c0.6-3.2,2.6-6.1,4.3-8.9c0.7-1.1,1.3-2.2,2-3.3c-0.7-0.8-1.4-1.7-2-2.5c-3.6-4.7-7.1-9.4-10.8-14
			c-1.8-2.3-3.7-4.5-5.5-6.8c-0.9-1.1-1.8-2.1-2.8-3c-1.1-1.1-2.2-2.1-3.5-3.1c-1.9-1.4-3.9-2.5-5.9-3.8c-1.1-0.7-2.4-1-3.7-1
			c-2.6,0-5.3,1.4-6.6,3.7C198.3,217.9,199.6,222.4,203.1,224.6z"/>
		<path d="M258.4,289.1c3.6,4.9,7.3,9.8,11.2,14.6c3.8,4.6,7.6,9.2,11.3,13.9c2.7,3.4,5.3,6.9,8,10.3c2.9,3.9,5.8,7.8,8.6,11.8
			c1.7,2.4,3.4,4.8,5.2,7.2c2,2.6,4,5.1,6.1,7.6c1.5,1.8,3.2,3.6,4.9,5.3c1.8,1.9,3.6,3.9,5.4,5.9c2,2.2,4,4.5,6,6.7
			c1.6,1.9,3.3,3.7,4.9,5.6c0.9,1.2,1.9,2.3,2.8,3.5c0.2,0.2,0.3,0.4,0.5,0.7c1.5-1.4,3-2.6,4.5-3.9c2.3-1.9,4.7-3.7,7.4-5.1
			c-1.2-1.5-2.4-3-3.6-4.5c-2.8-3.4-5.8-6.7-8.7-10c-2.9-3.2-5.7-6.4-8.6-9.5c-1.5-1.7-3.1-3.3-4.6-5c-1.4-1.5-2.7-3.2-4-4.8
			c-1.3-1.7-2.6-3.5-3.9-5.3c-1.7-2.5-3.5-5-5.3-7.5c-3.4-4.7-7-9.2-10.6-13.8c-3-3.9-6.1-7.9-9.2-11.7c-3.3-3.9-6.6-7.9-9.8-11.9
			c-3.2-4.1-6.3-8.3-9.5-12.4c-3.2-4.1-6.6-8-9.9-12c-1.3-1.6-2.7-3.2-4-4.8c-0.7,0.8-1.4,1.5-2,2.3c-0.5,0.5-1,1-1.6,1.3
			c-0.5,0.5-0.9,1-1.4,1.5c-2.1,2.3-5.6,2.9-8.5,2C246.2,274.2,252.5,281.5,258.4,289.1z"/>
		<path d="M182.9,395.5c3.5,1.9,7.1,3.7,10.7,5.5c2.4,1.1,4.7,2.3,7.1,3.5c5.2,2.6,10.7,4.8,16.1,7.1c5,2.1,10.2,3.7,15.4,5.3
			c5.2,1.6,10.4,3.2,15.5,4.9c3.5,1.1,6.9,2.5,10.3,4c8,3.5,16.1,6.8,24.1,10.1c3.1,1.4,6.3,2.7,9.5,4c1-1.7,2-3.5,3-5.2
			c1.5-2.6,3.2-5.2,4.9-7.7c-1.5-0.6-3-1.2-4.5-1.8c-6.4-2.8-12.8-5.5-19.3-8.1c-5.1-2.2-10.1-4.4-15.2-6.5
			c-5-2.1-10.1-3.8-15.3-5.4c-5.1-1.6-10.3-3.2-15.4-4.9c-5-1.7-9.9-3.7-14.8-5.7c-3.5-1.6-7-3.3-10.4-5c-1.6-0.8-3.3-1.6-4.9-2.4
			c-3-1.5-6-3.1-9-4.7c-1.2-0.6-2.5-1-3.8-1c-2.6,0-5,1.2-6.4,3.7C178.2,388.6,179.3,393.6,182.9,395.5z"/>
		<path d="M501.7,30.8c0.2,2.6,0.5,5.2,0.8,7.8c0.2,2.6,0.3,5.1,0.4,7.7c0.2,5.2,0.4,10.5,0.6,15.7c0.1,1.2,0.1,2.4,0.2,3.6
			c0.5-0.3,0.9-0.5,1.4-0.8c0.1-0.1,0.2-0.1,0.3-0.2c-0.4-0.6-0.7-1.3-0.9-2c-0.6-2.1-0.3-4.4,0.8-6.4c1-1.7,2.9-3.5,4.9-3.8
			c2.6-0.4,5.2-1.3,7.9-1.5c-0.1-1.8-0.2-3.6-0.3-5.4c-0.1-2.5-0.1-4.9-0.4-7.4c-0.5-5.2-1-10.4-1.3-15.6
			c-0.3-5.3-0.6-10.5-0.7-15.8c0-2.2-0.2-4.5-0.3-6.7c-0.5,0.2-1.1,0.3-1.6,0.4c-1.3,0.2-2.6,0.5-3.9,0.5c-0.9,0-1.8,0-2.6,0
			c-0.6,0-1.2,0-1.8,0c-1.7,0-3.3,0-5,0c0.2,4.8,0.2,9.6,0.5,14.4C501,20.3,501.3,25.6,501.7,30.8z"/>
		<path d="M504.9,92.4c0,0.5,0.1,0.9,0.1,1.4c0.2,2.7,0.5,5.4,0.8,8.1c0.3,2.7,0.5,5.5,0.7,8.2c0.4,5,0.8,10,1.2,15
			c0.4,4.4,0.7,8.8,0.9,13.2c-2.7,1.7-4,5.1-3.2,8.3c0.5,2.1,1.1,4.1,1.5,6.2c0.2,2.7,0.1,5.4,0.2,8.2c0.1,2.5,0.2,4.9,0.3,7.4
			c0.3,5.3,0.5,10.7,0.8,16c0.6,10.8,1.6,21.5,2.5,32.3c0.4,5.6,0.8,11.1,1.1,16.7c0.2,2.4,0.1,4.8,0.2,7.2c0,2.9,0.1,5.8,0.1,8.8
			c0.2,10.7,0.7,21.4,1.1,32.1c0.2,5.6,0.6,11.1,1.1,16.7c0.2,2,0.3,4,0.4,6.1c0,0,0.1,0,0.1,0c4.9,0,9.9,0,14.8,0
			c-0.3-5.2-0.7-10.3-1.1-15.5c-0.4-5.5-0.5-11.1-0.7-16.6c-0.2-5.1-0.5-10.3-0.6-15.4c-0.2-5.7-0.2-11.4-0.3-17.1
			c-0.1-5.5-0.5-11-0.9-16.5c-0.8-10.7-1.7-21.4-2.5-32.1c-0.1-1.2-0.2-2.4-0.2-3.6c1.2-1.3,2.2-3.3,2-5.1
			c-0.4-6.1-0.8-12.1-0.9-18.2c-0.1-5.2-0.2-10.5-0.5-15.7c-0.3-5.4-0.6-10.8-0.9-16.2c-0.1-2.5-0.4-5-0.6-7.5
			c-0.2-2.6-0.4-5.1-0.6-7.7c-0.4-5.5-0.9-11-1.4-16.5c-0.5-5-1-10-1.3-14.9c-1.7,0.7-3.3,1.5-4.9,2.3
			C511.3,89.4,508.1,90.9,504.9,92.4z"/>
		<path d="M601.3,174.6c1.9,0.5,4,0.3,5.8-0.8c1.5-0.9,3.1-2.7,3.4-4.5c0.7-3.7,1.3-7.4,2-11c0.6-3.1,1.4-6.2,2.2-9.2
			c0.8-3.1,1.5-6.2,2.1-9.3c0.3-1.4,0.6-2.9,0.8-4.3c0.1-0.6,0.2-1.3,0.4-1.9c0.4-2.1,1-4,1.6-6c1.1-3.9-1.3-8.1-5.2-9.2
			c-0.7-0.2-1.3-0.3-2-0.3c-3.3,0-6.3,2.2-7.3,5.5c-0.5,1.8-1.1,3.6-1.5,5.4c-0.2,0.8-0.3,1.5-0.4,2.3c-0.3,1.5-0.6,3-0.9,4.6
			c-0.6,3.1-1.3,6.2-2.1,9.3c-0.8,3.1-1.6,6.1-2.2,9.2c-0.7,3.7-1.4,7.4-2,11c-0.4,2.1-0.3,3.9,0.8,5.8
			C597.8,172.8,599.4,174.1,601.3,174.6z"/>
		<path d="M746.2,227.7c0.7-0.1,1.3-0.2,2-0.3c1.3-0.4,2.4-1,3.3-1.9c5.2-4.1,10.4-8.2,15.4-12.5c3.9-3.3,7.6-6.6,11.6-9.8
			c0.8-0.6,1.7-1.3,2.5-1.9c2.5-1.9,4.8-3.9,7.2-5.9c1.4-1.3,2.2-3.4,2.2-5.3c0-2-0.8-3.9-2.2-5.3c-1.4-1.4-3.3-2.2-5.3-2.2
			c-2.1,0-3.8,0.9-5.3,2.2c-1.3,1.1-2.5,2.2-3.8,3.3c-2.6,2-5.1,3.9-7.6,5.9c-1.3,1.1-2.5,2.2-3.8,3.3c-1.3,1.1-2.6,2.2-3.9,3.3
			c-5.8,4.9-11.6,9.6-17.6,14.3c-1.5,1.2-2.2,3.5-2.2,5.3c0,2,0.8,3.9,2.2,5.3C742.3,226.9,744.2,227.7,746.2,227.7z"/>
		<path d="M331,143.3c1,1.6,2,3.2,3,4.8c1.8,2.9,3.7,5.7,5.6,8.5c2.1,3.1,4,6.2,6,9.4c0.8,1.3,1.5,2.7,2.3,4.1
			c1.2,2.3,2.4,4.5,3.6,6.8c1.9,3.6,6.9,4.7,10.3,2.7c1.7-1,2.9-2.6,3.4-4.5c0.6-2,0.2-3.9-0.8-5.8c-1.2-2.3-2.4-4.6-3.6-6.8
			c-0.7-1.4-1.4-2.8-2.3-4.1c-2-3.1-4-6.3-6-9.4c-1.9-2.8-3.7-5.7-5.6-8.5c-1-1.6-2-3.2-3-4.8c-1.6-2.6-3.4-5.1-5.2-7.6
			c-1.2-1.6-2.5-2.9-4.5-3.4c-0.6-0.2-1.3-0.3-2-0.3c-1.3,0-2.6,0.3-3.8,1c-1.7,1-2.9,2.6-3.4,4.5c-0.5,1.8-0.4,4.2,0.8,5.8
			C327.6,138.2,329.4,140.7,331,143.3z"/>
		<path d="M588.6,480.5c1.8,1.9,3.8,3.6,5.8,5.2c2.4,1.9,4.8,3.9,7.3,5.6c2.1,1.4,4.1,3,6.2,4.3c3.4,2,7,3.7,10.8,4.8
			c2.3,0.7,4.5,1.3,6.8,1.9c2.2,0.6,4.5,1.3,6.7,1.8c2.2,0.5,4.3,1.1,6.4,1.7c3.1,2.6,5.8,5.7,8.4,8.8c1.4,1.9,2.5,4,3.6,6.1
			c1.4,2.6,2.9,5,4.2,7.7c0.7,1.7,1.3,3.4,1.9,5.1c0.7,2.1,1.3,4.2,2.1,6.2c1.5,3.9,2.5,8,3.1,12.1c0.4,3.8,0.4,7.6,0.4,11.4
			c-0.1,0-0.2,0-0.3,0.1c-2.6,0.7-5.2,1.2-7.9,1.7c-1.9,0.2-3.8,0.3-5.7,0.4c-2.8,0.1-5.6,0.3-8.3,0.1c-2.4-0.5-4.7-1.3-6.9-2.2
			c-1.2-0.5-2.4-1.1-3.6-1.8c-1-0.6-1.9-1.2-2.9-1.8c-2.3-2-4.2-4.3-6.3-6.6c0,0-0.1-0.1-0.1-0.1c0.1-0.1,0.1-0.2,0.2-0.3
			c1.8-3.1,3.9-5.9,5.9-8.9c2.2-3.4,0.7-8.3-2.7-10.3c-1.2-0.7-2.4-1-3.7-1c-2.6,0-5.1,1.4-6.6,3.7c-1.3,2-2.6,3.9-3.9,5.8
			c-1.1,1.6-2.3,3.3-3.2,5.1c-0.9,1.8-1.7,3.5-2.5,5.3c-0.8,1.7-1.4,3.4-2.1,5.2c-0.3,0.4-0.5,0.9-0.8,1.3
			c-2.2,3.4-0.7,8.3,2.7,10.3c1.7,1,3.8,1.3,5.8,0.8c1.5-0.4,2.7-1.3,3.7-2.4c0.6,0.7,1.2,1.3,1.9,1.9c1.3,1.2,2.7,2.3,4.2,3.3
			c2.2,1.5,4.4,2.7,6.8,3.7c1.5,0.6,3,1.3,4.5,1.9c0.8,0.3,1.5,0.6,2.3,0.9c2,0.7,4.2,1,6.3,1.2c3.3,0.4,6.7,0.2,10,0
			c5.9-0.3,11.7-1.1,17.4-2.7c3.1-0.9,6.2-1.6,9.2-2.6c1.8-0.6,3.6-1.3,5.2-2.3c1.4-0.8,2.7-1.9,3.9-3c1-0.9,1.9-1.8,2.8-2.8
			c1.8-2,3.6-4.1,5.1-6.5c1.7-2.7,3-5.8,3.9-8.8c0.6-1.8,0.7-3.8,0.8-5.8c0-0.9-0.1-1.7-0.1-2.6c-0.2-1.8-0.4-3.6-0.8-5.3
			c-0.7-2.8-1.9-5.5-3.1-8.2c-1-2.2-2.1-4.4-3.4-6.4c-1.7-2.5-3.6-4.8-5.6-7.1c-1.8-2-3.8-3.8-5.8-5.6c-2.3-2-4.8-3.8-7.3-5.3
			c-2-1.2-4-2.3-5.9-3.5c-2-1.2-3.9-2.5-5.9-3.7c-1.9-1.1-3.9-2.1-5.9-2.9c-2.7-1.1-5.4-2.2-8.2-3.2c-1.3-1-2.6-1.9-3.8-2.9
			c-1.4-1.1-2.8-2.3-4.3-3.3c-1.1-0.7-2.1-1.4-3.1-2.1c-0.9-0.7-1.8-1.5-2.8-2.2c-1.5-1.2-3.1-2.3-4.6-3.4c-1.2-1-2.5-2-3.6-3.2
			c-0.9-0.9-1.7-1.9-2.5-2.9c-2.9-3.9-5-8.3-6.9-12.7c-1.5-3.7-2.9-7.5-3.8-11.4c-0.3-4.1,0-8.2,0.3-12.2c0.1-1.9,0.3-3.9,0.5-5.8
			c0-0.6,0.1-1.2,0.1-1.7c0.2,0.1,0.5,0.2,0.7,0.3c2.6,1.2,5,2.7,7.2,4.4c1.2,1,2.4,1.9,3.5,3c1,1,2,2.1,2.9,3.2
			c0.7,1,1.4,2.1,2.1,3.2c-0.2,1.7,0.2,3.2,1,4.8c1.4,2.7,2.7,5.5,4,8.3c1,2.3,1.9,4.6,3.1,6.8c0.6,1.1,1.2,2.3,1.8,3.4
			c-1.5,0.3-3,0.9-4.1,2.1c-1.4,1.4-2.2,3.3-2.2,5.3c0,4,3.4,7.7,7.5,7.5c8.2-0.3,16.5-0.4,24.7-0.4c4.1,0,7.5-3.4,7.5-7.5
			c0-4.1-3.4-7.5-7.5-7.5c-0.2,0-0.3,0-0.5,0c-2.2,0-4.4,0-6.5,0c-0.4-1.9-1.1-3.8-1.9-5.5c-0.6-1.5-1.4-2.8-2.1-4.2
			c-2.4-4.4-5.3-8.5-7.7-13c-1.2-2.3-2.4-4.6-3.6-7c-0.5-1.1-1.3-2-1.9-3c-1-1.5-2.1-2.9-3.3-4.3c-1.7-2-3.6-3.8-5.6-5.4
			c-2.3-1.9-4.7-3.8-7.4-5.3c-2.5-1.4-5.1-2.6-7.8-3.6c-2.8-1-5.8-1.4-8.8-1.7c-1.1-0.1-2.2-0.1-3.3-0.2c-0.3,0-0.6,0-0.9,0
			c-0.3,0-0.6,0-0.9,0c-2.4,0-4.7,0.6-6.9,1.7c-3.5,1.7-6.2,5-8,8.3c-1.1,2-2,4.3-2.6,6.6c-1.6,5.6-2.5,11.4-3,17.1
			c-0.2,2.3-0.3,4.6-0.3,6.9c0,2.4-0.1,4.8,0.1,7.2C580.7,467.4,583.2,474.9,588.6,480.5z M598.4,469c-0.6-0.9-1.2-1.9-1.7-2.9
			c-0.7-2-1.2-4-1.6-6c-0.3-2.7-0.2-5.4-0.1-8.1c0-1.1,0.1-2.2,0.1-3.3c0.2,2.2,0.6,4.3,1.2,6.5c1.5,5,3.6,9.9,5.8,14.7
			c0.8,1.7,1.6,3.3,2.5,4.9C602.4,473,600.3,471.2,598.4,469z M632.5,501.2c0.3,0.2,0.5,0.4,0.8,0.6
			C633,501.6,632.8,501.4,632.5,501.2z M672.6,525.7c1.3,1.3,2.5,2.7,3.6,4.2c1,1.4,2,2.9,2.8,4.5c0.7,1.3,1.3,2.6,1.9,4
			c0.7,1.7,1.2,3.5,1.6,5.3c0.1,1.2,0.1,2.3,0.1,3.5c-0.2,1.1-0.6,2.1-1,3.1c-0.7,1.5-1.5,2.8-2.4,4.2c-0.6,0.7-1.2,1.4-1.8,2
			c0-1.2-0.1-2.4-0.2-3.5c-0.5-5.2-1.7-10.1-3.2-15.1c-0.3-1.2-0.8-2.3-1.2-3.5c-0.4-1.1-0.7-2.2-1-3.2c-0.8-2.4-1.6-4.7-2.6-7
			c-0.3-0.8-0.7-1.6-1-2.4C669.7,522.9,671.2,524.3,672.6,525.7z M641.7,489.5C641.7,489.5,641.7,489.5,641.7,489.5
			c0.4,0.3,0.8,0.7,1.3,1c-0.9-0.7-1.9-1.4-2.8-2.2C640.7,488.7,641.2,489.1,641.7,489.5z"/>
		<path d="M586.1,638.2c2.7-0.9,5.5-1.7,8.1-3c0.3-0.1,0.5-0.3,0.8-0.4c1.1-0.6,2.3-1.1,3.4-1.7c1-0.5,2-1.1,3-1.6
			c0.6-0.2,1.2-0.4,1.7-0.7c0.5-0.3,0.9-0.6,1.3-0.9c0.3-0.2,0.6-0.3,0.9-0.5c1.9-1.2,3.9-2.3,5.8-3.5c1.6-0.7,3.2-1.5,4.8-2.2
			c1.1-0.5,2.3-1,3.5-1.6c0.5-0.2,1.1-0.5,1.6-0.7c0.3-0.1,0.6-0.3,0.9-0.4c0.9-0.4,1.6-1.1,2.4-1.8c2-1.7,2.6-4.9,1.9-7.3
			c-0.4-1.3-1-2.4-1.9-3.3c-1.1-1.1-3.1-2.2-4.8-2.2c-0.2,0-0.3,0-0.5,0c-1.2,0.1-2.4,0.2-3.5,0.6c-1,0.3-2.1,0.9-3.1,1.3
			c-0.6,0.3-1.2,0.6-1.8,0.9c-1.1,0.5-2.2,1.1-3.3,1.7c-0.9,0.5-1.7,0.9-2.5,1.4c-0.6-2.1-1.3-4.2-1.9-6.4c-1.5-4.8-3-9.6-4.5-14.3
			c-1-3.1-2-6.2-3.3-9.2c-1.1-2.5-2.2-4.9-3.4-7.4c-2.1-4.4-4.5-8.6-6.9-12.8c-1.1-2.7-2.2-5.4-3.4-8.1c-0.8-1.8-1.5-3.7-2.3-5.5
			c0.3,0.6,0.5,1.2,0.8,1.8c-1.9-4.9-3.6-9.8-5.5-14.7c-1.9-4.9-3.8-9.8-5.5-14.8c-1.8-5-3.8-9.9-5.6-14.9
			c-1.8-5.2-3.6-10.3-5.4-15.5c-1.6-4.9-3.1-9.9-4.6-14.8c-0.7-2.4-1.5-4.8-2.4-7.2c-0.9-2.6-1.6-5.2-2.5-7.8
			c-3.3-9.9-7.1-19.6-10.9-29.3c-1.9-4.7-3.7-9.3-5.2-14.1c-1.5-4.8-3.1-9.6-4.9-14.4c-0.8-2.1-1.6-4.2-2.3-6.3c4.4,0,8.8,0,13.2,0
			c4.1,0,7.5-3.4,7.5-7.5c0-4.1-3.4-7.5-7.5-7.5c-2.6,0-5.3,0-7.9,0c-1.8,0-3.5,0-5.3,0c-2.1,0-4.2,0-6.3,0.1
			c-0.3-0.4-0.6-0.7-0.9-1.1c-0.9-0.9-2.5-1.8-3.8-2.2c-0.6-0.2-1.3-0.3-1.9-0.3c-0.8,0-1.6,0.1-2.4,0.4c-2.4,0.7-4.2,2.4-5.2,4.6
			c0,0,0,0,0,0.1c-2.3,0.5-4.6,1-6.9,1.7c-2,0.6-4,1.4-5.9,2.2c-2.3,0.9-4.6,1.6-7,2.3c-3.9,1.2-6.3,5.2-5.2,9.2
			c1.1,3.8,5.3,6.5,9.2,5.2c2.3-0.7,4.6-1.5,6.8-2.3c1.1-0.4,2.1-0.8,3.2-1.2c-0.2,1.1-0.3,2.1-0.4,3.2c-0.7,4.6-1.8,9.2-3,13.7
			c-0.6,2.4-1.1,4.9-1.6,7.3c-0.5,2.6-1.1,5.1-1.8,7.6c-2.5,10.2-4.7,20.4-7.2,30.5c-0.6,2.4-1.2,4.9-1.7,7.3
			c-0.6,2.6-1,5.2-1.7,7.7c-0.6,2.6-1.3,5.2-1.9,7.8c-0.6,2.6-1.1,5.2-1.6,7.8c-0.2,1.2-0.5,2.3-0.8,3.5c-3.2,0-6.4,0.2-9.5,0.8
			c-1.4,0.3-2.7,0.8-3.8,1.6c-1.4,0.9-2.6,2.1-3.8,3.3c-3,2.8-2.8,7.8,0,10.6c1.4,1.4,3.3,2.2,5.3,2.2c2.1,0,3.8-0.8,5.3-2.2
			c0.4-0.3,0.7-0.7,1-1c0.1,0,0.1,0,0.2,0c0.6,0,1.1-0.1,1.7-0.1c-1.1,4.3-2.3,8.5-3.4,12.7c-0.8,2.8-1.3,5.6-2,8.4
			c-0.6,2.6-1.2,5.1-2,7.7c-1.4,5.1-3.2,10.1-4.7,15.2c-1.5,5-3,10-4.2,15c-1.1,4.6-2.2,9.2-3.3,13.8c-1.2,1-2.1,2.2-2.5,3.8
			c-1,3.3-2.3,6.4-3.1,9.6c-0.5,2-0.7,4.1-0.8,6.1c-0.1,1.6-0.1,3.1-0.1,4.7c0,3.1,0,6.1,0,9.2c0,0.1,0,0.2,0,0.2
			c-2.9,0-5.7-0.1-8.6-0.2c-0.1,0-0.2,0-0.3,0c-4,0-7.2,3.6-7.2,7.5c0,2,0.8,3.9,2.2,5.3c1.4,1.4,3.3,2.1,5.3,2.2c0.1,0,0.1,0,0.2,0
			c0.6,0.4,1.2,0.6,1.9,0.7c3.2,0.5,6.3,1,9.5,1.7c2.8,0.6,5.6,1.2,8.4,1.6c3.2,0.5,6.5,0.8,9.8,0.9c1.3,0,2.6,0,3.8,0
			c2,0,4.3,0,6.2-0.6c2.5-0.8,4.5-2.7,5.2-5.2c0.7-2.6-0.1-5.3-1.9-7.3c-1.1-1.2-2.5-1.8-4-2.3c0-0.2,0-0.4,0-0.5
			c0-1.2,0.1-2.5,0.2-3.7c0.4-2.4,0.9-4.8,1.5-7.2c0.6-2.5,1.3-4.9,1.9-7.3c1.3-5.5,2.6-11,3.9-16.5c0.6-2.5,1.4-4.9,2.1-7.4
			c0.8-2.4,1.4-4.9,2.1-7.3c0.7-2.6,1.4-5.3,1.9-7.9c0.5-2.6,1-5.2,1.5-7.8c1-5,2-10,3.2-15c1.3-5.2,2.5-10.4,3.7-15.6
			c0.9-4.2,1.9-8.5,2.9-12.7c0.3,0.1,0.5,0.1,0.8,0.2c2,0.5,4,1.2,6,1.7c4.1,1,8.2,2.3,12.2,3.9c2.1,0.9,4.2,1.7,6.2,2.6
			c2.7,1.2,5.4,2.4,7.9,3.8c2.6,1.4,5.1,3,7.5,4.7c1.2,0.9,2.3,1.9,3.4,2.9c1.4,1.2,2.7,2.7,4.1,4c2.8,2.9,5.7,5.7,8.3,8.9
			c2.5,3.5,4.5,7.2,6.5,11.1c1,1.9,1.8,3.9,2.8,5.8c0.8,1.6,1.7,3.2,2.6,4.7c0.3,0.4,0.5,0.9,0.8,1.3c0.8,2.1,1.7,4.2,2.4,6.3
			c1.7,4.8,3.1,9.7,4.6,14.5c1.5,4.8,2.7,9.6,4.2,14.4c0.7,2.4,1.5,4.9,2.3,7.3c0.8,2.5,1.9,5,3,7.5c0,0,0,0.1,0,0.1c0,0,0,0,0,0
			c-1.1,0.7-2,1.6-2.7,2.7c-0.1,0.1-0.2,0.3-0.2,0.4c-1,0.3-2,0.7-2.9,1c-1.9,0.6-3.5,1.7-4.5,3.4c-1,1.7-1.3,3.8-0.8,5.8
			c0.7,2.7,3.1,4.8,5.8,5.4C583.8,638.6,584.9,638.5,586.1,638.2z M513.9,410.4c-0.7,0.2-1.5,0.6-2.1,1c0.1-0.5,0.2-1.1,0.4-1.6
			c0.2-1,0.4-1.9,0.5-2.9C513.1,408,513.5,409.2,513.9,410.4z M476.7,561.1c-0.5,2.7-1.2,5.3-1.9,7.9c-0.7,2.5-1.4,4.9-2.1,7.3
			c-0.8,2.4-1.6,4.9-2.1,7.4c-1.3,5.5-2.6,11-3.9,16.5c0,0,0,0.1,0,0.1c-0.1-0.7-0.4-1.5-0.7-2.1c0.1-0.3,0.2-0.6,0.3-1
			c1.4-4.9,2.3-10,3.5-14.9c1.3-5.1,2.4-10.3,4-15.4c1.6-5.2,3.1-10.3,4.8-15.5c0.2-0.6,0.4-1.2,0.5-1.7c-0.2,1.2-0.5,2.3-0.7,3.5
			C477.7,555.9,477.2,558.5,476.7,561.1z M550.9,518c-4.3-3.3-9.1-5.7-14-7.9c-2.5-1.2-5.1-2.2-7.7-3.2c-2.4-1-4.8-2-7.3-2.9
			c-2.4-0.8-4.8-1.6-7.3-2.2c-2.5-0.6-4.9-1.3-7.4-2c-0.5-0.1-1-0.3-1.5-0.4c0.3-1.4,0.6-2.7,1-4.1c1.2-4.9,2.2-9.8,3.2-14.8
			c1.1-5.4,2.4-10.8,3.6-16.1c0.6-2.4,1.2-4.8,1.8-7.2c0.6-2.5,1.1-5.1,1.7-7.6c1.1-5,2.1-9.9,2.9-14.9c0.2-1.5,0.5-3,0.8-4.5
			c2.6,6.8,5.4,13.6,8,20.4c1.8,4.8,3.5,9.7,5.1,14.5c0.8,2.5,1.6,5,2.4,7.4c0.8,2.5,1.7,5,2.4,7.5c1.5,5,3,9.9,4.6,14.8
			c1.7,5.2,3.6,10.4,5.4,15.5c1,2.8,2,5.5,3.1,8.3C551.5,518.4,551.2,518.2,550.9,518z"/>
		<path d="M353.6,438.9c-2.8,0.5-5.6,1-8.3,1.8c-3.8,1.1-7.5,2.4-11,4.3c-1.4,0.8-2.7,1.5-4.1,2.2c-1.5,0.8-2.8,1.8-4.1,2.8
			c-1.6,1.2-3.4,2.3-4.9,3.7c-2.4,2.3-2.8,6.2-1.2,9.1c1,1.7,2.6,2.9,4.5,3.4c1.8,0.5,4.2,0.3,5.8-0.8c0.6-0.4,1.2-0.9,1.8-1.4
			c2.2-1.5,4.5-2.7,6.8-4c-0.1,2.1-0.1,4.2-0.2,6.3c-0.1,5.1,0.1,10.3,0.2,15.4c0.1,2.7,0.1,5.4,0.1,8.1c0,2.4,0.3,4.8,0.5,7.2
			c0.2,2.7,0.3,5.5,0.6,8.2c0.3,3.1,0.7,6.2,1.1,9.3c0.3,2.1,0.6,4.1,0.9,6.2c0.4,3.6,0.7,7.1,0.9,10.7c0.1,1.9,0.2,3.8,0.4,5.8
			c0.2,2.1,0.6,4.2,0.9,6.2c0.5,4.5,0.6,9,0.6,13.5c0,3.1,0,6.2,0,9.3c-0.9-0.5-1.9-1-2.8-1.5c-1.4-0.7-2.7-1.4-4.1-2
			c-1.2-0.5-2.2-1.2-3.3-1.9c-3.1-2.8-5.6-5.9-8.1-9.2c-1.2-1.5-3.5-2.2-5.3-2.2c-2,0-3.9,0.8-5.3,2.2c-1.4,1.4-2.2,3.3-2.2,5.3
			c0.1,0.7,0.2,1.3,0.3,2c0.4,1.3,1,2.4,1.9,3.3c4.2,5.2,8.4,10.6,14.6,13.5c2.3,1.1,4.5,2.2,6.7,3.4c2.7,1.5,5.4,2.7,8.2,3.9
			c4.6,1.9,9.3,3.7,14.1,4.9c2.5,0.6,5.1,1.1,7.6,1.6c0.5,0.1,1,0.2,1.6,0.3c0.2,0.1,0.4,0.3,0.5,0.4c2.5,1.6,5.3,2.8,8.2,3.6
			c2.6,0.8,5.4,1,8.2,1.2c2.4,0.2,4.9,0,7.3-0.1c3.1-0.1,6.2-0.4,9.3-1c2.2-0.4,4.5-0.6,6.7-1.3c1.9-0.6,3.9-1.3,5.6-2.4
			c1.5-1,2.9-2.1,4.3-3.3c1.9-1.6,3.8-3.3,5.5-5.2c1.6-1.7,3.1-3.5,4.6-5.2c1.7-1.9,3.5-3.8,5-5.8c1.9-2.4,3.7-4.9,5.2-7.6
			c1.1-1.9,2-3.8,2.8-5.8c0.5-0.8,0.9-1.6,1.3-2.4c1.3-2.6,2.4-5.2,3.4-7.9c0.8-2.1,1.5-4.2,1.9-6.5c0.5-2.4,0.7-4.9,0.7-7.3
			c0-1.1,0-2.3,0-3.4c0-2.4,0-4.8-0.2-7.2c-0.1-2.9-0.7-5.7-1.1-8.6c0,0.3,0.1,0.7,0.1,1c-0.1-0.7-0.2-1.4-0.3-2.1
			c-0.2-4.9-0.6-9.8-1.7-14.6c-1.2-5.2-2.4-10.3-4.4-15.2c-0.7-1.6-1.3-3.1-2.1-4.7c-0.6-1.3-1.2-2.6-1.9-3.8
			c-0.1-0.2-0.3-0.4-0.4-0.6c-0.6-1.4-1.3-2.7-2-4c-0.9-1.4-2-2.7-3.1-4c-0.9-1.1-1.7-2.2-2.6-3.3c-2.8-3.6-6.1-6.8-9.1-10.2
			c-1.9-2.2-4-4.2-6.4-6c-2-1.5-4.3-2.7-6.5-3.9c-1.5-0.9-3.2-1.5-4.8-2.2c-1.1-0.5-2.3-0.9-3.5-1.1c-3.2-0.7-6.3-1-9.5-1.3
			c-5.1-0.5-10.2-1.3-15.3-1.3c0,0-0.1,0-0.1,0c-2.6,0-5.1,0-7.6,0.1c-3,0.1-5.9,0.5-8.9,1C356.4,438.3,355,438.6,353.6,438.9z
			 M433.1,517.1c0,4.1,0.1,8.2-0.2,12.3c-0.7,4-1.5,7.9-2.3,11.9c-0.4,2.1-0.7,4.3-1.1,6.4c-0.2,1-0.5,2-0.8,2.9
			c-0.2,0.3-0.4,0.6-0.5,0.9c-0.7,1.2-1.4,2.5-2.1,3.7c-0.7,1.2-1.5,2.3-2.3,3.4c-1.5,1.8-2.9,3.6-4.3,5.4c-1.1,1.2-2.1,2.5-3.3,3.5
			c-1.9,1.3-3.9,2.5-6,3.6c-2.9,1.1-5.8,1.9-8.7,2.8c-2.9,0.8-5.8,1.6-8.7,2.1c-2.2,0.2-4.4,0.3-6.6,0.4c-2.5,0.1-5.1,0.1-7.6-0.1
			c-1.2-0.2-2.4-0.4-3.6-0.7c0,0,0,0,0,0c-0.4-0.3-0.8-0.6-1.1-1c-1.1-1-2-2.2-3-3.4c0-1.6,0-3.1-0.1-4.7
			c-0.2-5.4-0.2-10.7-0.3-16.1c0-1.9-0.1-3.7-0.1-5.6c-0.1-3.5-0.1-6.9-0.2-10.4c-0.1-5.3,0-10.7,0-16c0-9.6,0.1-19.3-0.1-28.9
			c-0.1-4.6-0.1-9.2-0.1-13.7c0-1.2,0.1-2.5,0.1-3.7c0.1-3.5,0.4-6.9,0.7-10.4c0.4-2.8,0.8-5.6,1.7-8.2c1.6-0.1,3.1-0.2,4.7-0.2
			c3.4-0.1,6.9-0.2,10.3,0c2.1,0.4,4.2,1.2,6.2,1.9c4.5,2.1,8.7,4.7,12.8,7.5c5.9,4.8,11.5,10,16.3,15.9c0.6,0.9,1.2,1.7,1.7,2.6
			c0.7,2,1.4,3.9,2,5.9c0.8,2.4,1.7,4.8,2.4,7.3c1.5,5.2,3.1,10.3,3.9,15.6c-0.1-0.7-0.2-1.3-0.3-2c0.2,1.5,0.4,3.1,0.6,4.6
			C433.1,514.3,433.1,515.7,433.1,517.1z M356.3,457c-0.2,1.3-0.4,2.6-0.5,3.9c-0.2,2-0.5,4-0.6,6c-0.2,2-0.2,4-0.3,6.1
			c-0.1,3.2-0.1,6.3-0.1,9.5c0,5.1,0.2,10.3,0.2,15.4c0,1.7,0,3.4,0,5.1c-0.2-2.1-0.3-4.2-0.4-6.3c-0.1-2.4-0.4-4.8-0.4-7.2
			c0-2.7-0.1-5.3-0.1-8c-0.1-2.5-0.2-5-0.2-7.5c-0.1-2.6,0-5.1,0-7.7c0-3.7,0.3-7.3,0.6-10.9c0.7,0,1.5,0,2.2,0
			C356.4,456,356.4,456.5,356.3,457z"/>
		<path d="M631.3,481.7c0,0,0.1,0.1,0.1,0.1c0,0,0.1,0,0.1,0.1C631.5,481.8,631.4,481.7,631.3,481.7z"/>
		<path d="M684.4,373.6c0,2,0.8,3.9,2.2,5.3c0.9,0.9,2.1,1.6,3.4,1.9c0.2,0.3,0.3,0.5,0.5,0.8c0.3-0.2,0.5-0.4,0.8-0.6
			c2.2,0.2,4.4-0.5,5.9-2.1c1.7-1.9,3.2-3.9,5-5.7c0.2-0.2,0.5-0.4,0.8-0.7c2.7-1.9,5.3-3.9,7.9-5.9c-0.1,0-0.1-0.1-0.1-0.1
			c0.2-0.2,0.5-0.3,0.7-0.5c1.8-1.4,3.6-2.9,5.4-4.3c1.6-1.1,3.3-2.1,4.9-3.2c1.8-1.3,3.6-2.7,5.3-4.1c0.1-0.1,0.2-0.2,0.4-0.3
			c1.9-1.3,3.8-2.3,5.7-3.6c1.1-0.8,1.9-1.6,2.6-2.6c0.5-0.4,1.1-0.8,1.6-1.2c0-0.1-0.1-0.1-0.1-0.2c-0.2-0.4-0.4-0.7-0.5-1.1
			c0.3-1.8,0-3.6-0.9-5.2c-1-1.7-2.6-2.9-4.5-3.4c-0.1,0-0.2,0-0.3-0.1c-0.8-0.8-1.4-1.6-1.9-2.5c-2.9,2.2-5.8,4.4-8.8,6.6
			c0,0-0.1,0-0.1,0.1c-0.9,0.6-1.7,1.2-2.5,1.9c-0.5,0.4-1.1,0.8-1.6,1.2c-1.1,0.8-2.2,1.6-3.3,2.5c0,0,0,0,0,0c0,0,0,0-0.1,0
			c-1,0.7-2.1,1.2-3,1.9c-2.2,1.5-4.3,3.3-6.4,5c-1.2,0.8-2.4,1.5-3.6,2.3c-2.1,1.3-3.8,3-5.7,4.7c-0.2,0.2-0.4,0.4-0.6,0.5
			c-2.9,2.1-5.7,4.1-8.6,6.2c-1,0.7-1.9,1.4-2.9,2.1c0.8,1.1,1.7,2.1,2.5,3.2C684.5,373,684.4,373.3,684.4,373.6z"/>
	</g>
</g>
<g id="Layer_2">
</g>
</svg>
