<?xml version="1.0" encoding="utf-8"?>
<!-- Generator: Adobe Illustrator 17.1.0, SVG Export Plug-In . SVG Version: 6.00 Build 0)  -->
<!DOCTYPE svg PUBLIC "-//W3C//DTD SVG 1.1//EN" "http://www.w3.org/Graphics/SVG/1.1/DTD/svg11.dtd">
<svg version="1.1" id="Layer_1" xmlns="http://www.w3.org/2000/svg" xmlns:xlink="http://www.w3.org/1999/xlink" x="0px" y="0px"
	 viewBox="-144.1 204.3 49.5 49.5" enable-background="new -144.1 204.3 49.5 49.5" xml:space="preserve">
<path id="facebook-circle-icon" fill="#F9FAF5" d="M-119.4,204.3c-13.7,0-24.8,11.1-24.8,24.8s11.1,24.8,24.8,24.8
	s24.8-11.1,24.8-24.8S-105.7,204.3-119.4,204.3z M-112.1,218.8c0,0-2.5,0-3.5,0c-1.2,0-1.5,0.5-1.5,1.8c0,1.1,0,3.1,0,3.1h4.9
	l-0.5,5.4h-4.5v16h-6.4v-15.9h-3.3v-5.4h3.3c0,0,0-0.8,0-4.3c0-4,2.1-6.1,6.9-6.1c0.8,0,4.4,0,4.4,0L-112.1,218.8L-112.1,218.8z"/>
</svg>
