<?xml version="1.0" encoding="utf-8"?>
<!-- Generator: Adobe Illustrator 17.1.0, SVG Export Plug-In . SVG Version: 6.00 Build 0)  -->
<!DOCTYPE svg PUBLIC "-//W3C//DTD SVG 1.1//EN" "http://www.w3.org/Graphics/SVG/1.1/DTD/svg11.dtd">
<svg version="1.1" id="Layer_1" xmlns="http://www.w3.org/2000/svg" xmlns:xlink="http://www.w3.org/1999/xlink" x="0px" y="0px"
	 viewBox="0 0 512 512" enable-background="new 0 0 512 512" xml:space="preserve">
<path id="instagram-9-icon" fill="#F9FAF5" d="M212.6,256c0-24.6,19.9-44.4,44.4-44.4c24.5,0,44.5,19.9,44.5,44.4
	c0,24.5-19.9,44.5-44.5,44.5C232.4,300.4,212.6,280.5,212.6,256z M328.1,256c0,39.3-31.8,71.1-71.1,71.1
	c-39.3,0-71.1-31.8-71.1-71.1c0-6.1,0.9-12.1,2.3-17.8h-20.1V336c0,4.9,4,8.9,8.9,8.9h160c4.9,0,8.9-4,8.9-8.9v-97.8h-20.1
	C327.2,243.9,328.1,249.8,328.1,256z M337,167.1h-26.7c-4.9,0-8.9,4-8.9,8.9v26.7c0,4.9,4,8.9,8.9,8.9H337c4.9,0,8.9-4,8.9-8.9V176
	C345.9,171.1,341.9,167.1,337,167.1z M462,256c0,113.8-92.2,206-206,206S50,369.8,50,256S142.2,50,256,50S462,142.2,462,256z
	 M372.6,167.1c0-14.7-11.9-26.7-26.7-26.7H168.1c-14.7,0-26.7,11.9-26.7,26.7v177.8c0,14.7,11.9,26.7,26.7,26.7h177.8
	c14.7,0,26.7-11.9,26.7-26.7L372.6,167.1L372.6,167.1z"/>
</svg>
