<?xml version="1.0" encoding="utf-8"?>
<!-- Generator: Adobe Illustrator 17.1.0, SVG Export Plug-In . SVG Version: 6.00 Build 0)  -->
<!DOCTYPE svg PUBLIC "-//W3C//DTD SVG 1.1//EN" "http://www.w3.org/Graphics/SVG/1.1/DTD/svg11.dtd">
<svg version="1.1" id="Layer_1" xmlns="http://www.w3.org/2000/svg" xmlns:xlink="http://www.w3.org/1999/xlink" x="0px" y="0px"
	 viewBox="-113 87.9 51.5 51.5" enable-background="new -113 87.9 51.5 51.5" xml:space="preserve">
<path id="instagram-9-icon" fill="#F9FAF5" d="M-92.7,113.7c0-3.1,2.5-5.5,5.6-5.5s5.6,2.5,5.6,5.5s-2.5,5.6-5.6,5.6
	C-90.2,119.2-92.7,116.7-92.7,113.7z M-78.2,113.7c0,4.9-4,8.9-8.9,8.9c-4.9,0-8.9-4-8.9-8.9c0-0.8,0.1-1.5,0.3-2.2h-2.5v12.2
	c0,0.6,0.5,1.1,1.1,1.1h20c0.6,0,1.1-0.5,1.1-1.1v-12.2h-2.5C-78.3,112.1-78.2,112.9-78.2,113.7z M-77.1,102.6h-3.3
	c-0.6,0-1.1,0.5-1.1,1.1v3.3c0,0.6,0.5,1.1,1.1,1.1h3.3c0.6,0,1.1-0.5,1.1-1.1v-3.3C-76,103.1-76.5,102.6-77.1,102.6z M-61.5,113.7
	c0,14.2-11.5,25.8-25.7,25.8c-14.2,0-25.8-11.5-25.8-25.8s11.5-25.8,25.8-25.8C-73,87.9-61.5,99.4-61.5,113.7z M-72.7,102.6
	c0-1.8-1.5-3.3-3.3-3.3h-22.2c-1.8,0-3.3,1.5-3.3,3.3v22.2c0,1.8,1.5,3.3,3.3,3.3H-76c1.8,0,3.3-1.5,3.3-3.3V102.6L-72.7,102.6z"/>
</svg>
