<?xml version="1.0" encoding="utf-8"?>
<!-- Generator: Adobe Illustrator 17.1.0, SVG Export Plug-In . SVG Version: 6.00 Build 0)  -->
<!DOCTYPE svg PUBLIC "-//W3C//DTD SVG 1.1//EN" "http://www.w3.org/Graphics/SVG/1.1/DTD/svg11.dtd">
<svg version="1.1" id="Layer_1" xmlns="http://www.w3.org/2000/svg" xmlns:xlink="http://www.w3.org/1999/xlink" x="0px" y="0px"
	 viewBox="0 0 93.6 93.6" enable-background="new 0 0 93.6 93.6" xml:space="preserve">
<g>
	<g>
		<path fill="#F7F8F3" d="M15.5,56c0,0.1,0.1,0.5,0.6,1.1l2.5-1.9v-5L15.5,52V56z"/>
		<path fill="#F7F8F3" d="M37.5,80.5c0-0.6,0-1.2,0-1.7l-1.3,6.1l-0.6-0.1l1.9-9c0-0.3,0-0.6,0-0.9c0-0.1,0-0.2,0-0.3
			c0-0.3,0-0.7,0-1.1l0-0.4c0-0.2,0-0.3,0-0.5c-0.5-1.3-0.9-2.7-1.3-4.1c-0.4-1.7-0.3-3.4-0.1-5l-4.9,13.4l-0.5-0.3l0.1-0.2
			l5.7-15.8c0.1-0.8,0.1-1.6,0.1-2.4c-0.1-0.2-0.1-0.5,0-0.8c0.2-0.5,0.4-0.9,0.6-1.4c0.2-0.7,0.5-1.4,0.9-2.1c0.6-1,1.3-2,2-3
			l2.3-6.3c-0.1-0.1-0.1-0.2-0.2-0.4c-0.1-0.2-0.2-0.5-0.3-0.7l-0.7,1.4l-0.3-0.1l-0.1,0l-0.3-0.1l1.1-2c0-0.2-0.1-0.4-0.1-0.5
			c0-0.1,0-0.2,0-0.3c0-0.1-0.1-0.1-0.1-0.2L34.5,51v4l-9.1,9.2L25.1,64l-7.5,10.3c-0.1-0.1-0.3-0.3-0.4-0.4l7.3-10.1
			c-0.7-0.3-2.6-1.1-4-2.5l-7.2,7.5c-0.1-0.2-0.2-0.3-0.3-0.5l7.1-7.4c-0.1-0.1-0.2-0.2-0.3-0.4l-3.6,3.7l-0.7-0.3
			c-0.1,0-1.5-0.6-2.9-1.5c-0.4-0.3-0.7-0.5-1-0.8L10,62.7c-0.1-0.2-0.2-0.4-0.2-0.6l1.3-1c-1.1-1.1-1.7-2.4-1.7-3.7v-1.9l-1.4,0.8
			c0-0.2-0.1-0.4-0.1-0.6l1.6-0.9V49l-2.5,1c0-0.2,0-0.4,0-0.6l2.5-1v-5.2l-2.5,0.6c0-0.2,0-0.4,0.1-0.6l2.3-0.6
			c-0.2-0.4-0.7-0.9-1.3-1.4l-1.1-0.8l2.6-2.6L7.7,38c0-0.2,0.1-0.4,0.2-0.6l2.2-0.2l1.5-1.5l0.8,0.5c1.5,0.9,3,2.8,3.2,4.9l1.8-0.5
			l0.1,0.3l0.1,0.3l-2,0.5v0v4.2l3.1-1.3v-1.7l2-2.5l0-0.3l0,0l-0.1-0.3l0.3-0.1l0.5-0.1l0.5-0.6l0.3,0.4l4.1-1l4-4l0.8,0.5l0,0
			l2.4-0.3c-0.5-0.4-0.9-0.8-1.4-1.3L24,33.1l0-0.3l0,0l0-0.3l0.3,0l7,0.2c-0.5-0.5-1-1.1-1.4-1.8l-18.2-3.2
			c0.1-0.2,0.2-0.4,0.3-0.6l17.3,3c-0.5-0.8-0.8-1.5-1-2.2l-0.5-0.2l0.2-0.3l0,0l0.1-0.2l0,0c-0.1-0.6,0-1.2,0.1-1.8
			c0-0.1,0.1-0.3,0.1-0.4l-0.2-0.1l0-0.2l0-0.1l0-0.5l0.4,0.2c0-0.1,0.1-0.1,0.1-0.2c-0.1,0-0.2-0.1-0.2-0.2
			c-0.1-0.1-0.1-0.1-0.2-0.2c-0.2-0.3-0.2-0.6-0.1-0.9c0.1-0.2,0.2-0.4,0.3-0.5l0.1-0.1c0,0,0.1-0.2,0.1-0.2c0-0.1,0-0.1,0.1-0.2
			L26.2,20l0.2-0.3l0,0l0.1-0.3l2.5,1.7c0.3-0.3,0.6-0.6,0.8-0.8C30.3,20,30.7,20,31,20c0.1,0,0.2,0,0.4,0l0.1,0
			c0.1,0,0.1,0,0.2-0.1c0.2-0.2,0.4-0.3,0.7-0.4c0.1-0.1,0.3-0.1,0.5-0.1c0.6,0,1.1,0.4,1.3,0.9c0,0.1,0,0.1,0.1,0.2
			c0.1,0.1,0.1,0.3,0.1,0.4c0,0.1,0,0.1,0,0.2c0.8,0.2,1.6,0.5,2.3,1.1c0.3,0.2,0.7,0.5,1.1,0.9L33.3,18l0.3-0.2l0.2-0.2l0.2,0.2
			l6.5,7.7c0.4,0.3,0.9,0.6,1.4,0.9L39,21.6l0.2-0.2l0.1,0l0.3-0.2l2.6,4.1l0,0c0-0.3,0.1-0.6,0.3-0.8l-4-8.9l0.2-0.1l0,0l0.3-0.2
			l4,9l0.1,0c0.3,0,0.6,0.1,0.8,0.3L39,7.5c0.2,0,0.4-0.1,0.6-0.1l4.9,17c0.1-0.1,0.3-0.2,0.5-0.2h0.1l-0.7-4.7l0.2-0.1l0.1,0
			l0.4-0.2l0.7,5.2c0.2,0.2,0.3,0.4,0.4,0.7c0,0.4,0,1.1,0,1.8v0l0,0.2l0,0c0-0.2,0-0.5,0-0.8c0-0.5,0-1.1,0.1-1.3
			c0-0.1,0-0.2,0-0.2l0,0l0-18.2c0.1,0,0.2,0,0.3,0c0.1,0,0.2,0,0.3,0l0,17.5c0.1,0,0.1,0,0.2,0c0.1,0,0.2,0,0.3,0
			c0.1,0,0.1,0,0.2,0l0.8-5.8l0.4,0.2l0.1,0l0.2,0.1l-0.8,6c0.1,0.1,0.1,0.2,0.1,0.3c0,0.1,0,0.2,0,0.2c0,0,0,0.1,0,0.1
			c0-0.2,0-0.2,0-0.3c0-0.4,0.3-0.7,0.6-0.8l4.1-14.1l0.2,0l0.1,0l0.4,0l-4,14c0.2,0,0.4,0.2,0.6,0.4l3.7-8.3l0.3,0.1c0,0,0,0,0.1,0
			l0.3,0.1l-4.1,9.3c0,0.1,0,0.2,0,0.3c0.2-0.1,0.4-0.2,0.6-0.4L61.5,9.5c0.2,0.1,0.4,0.2,0.6,0.2l-9.4,15.1c0.6-0.5,1.2-1,1.7-1.4
			c0.5-0.5,1-0.9,1.5-1.2c0.1,0,0.1-0.1,0.2-0.1l3.4-4l0.2,0.3l0,0l0.1,0.2l-2.2,2.6c0.3-0.1,0.6-0.2,0.9-0.2c0-0.1,0-0.2,0.1-0.3
			c0-0.1,0-0.1,0.1-0.2c0.2-0.5,0.7-0.8,1.3-0.8c0.2,0,0.3,0,0.5,0.1c0.3,0.1,0.5,0.3,0.7,0.5l0,0l7.7-6.9c0.2,0.1,0.4,0.2,0.5,0.4
			L62,20.3c0.3,0,0.6,0.1,0.9,0.4c0.2,0.2,0.6,0.5,0.9,1l1.3-0.9l0.2,0.2l0,0l0.2,0.2l-0.3,0.2L64,22.3c0,0.1,0.1,0.2,0.1,0.2
			l0.1,0.1c0.1,0.1,0.2,0.3,0.3,0.5c0.1,0.3,0.1,0.6-0.1,0.9c-0.1,0.1-0.1,0.2-0.2,0.2c-0.1,0.1-0.2,0.1-0.3,0.2
			c0,0.1,0.1,0.2,0.1,0.3l11.8-5.7c0.2,0.2,0.3,0.3,0.5,0.5l-12,5.9c0.1,0.7,0.1,1.4,0,2.1l9.3-3l0.1,0.3l0.2,0.3L64,28.3
			c-0.2,0.7-0.6,1.3-1,2l18.8-3.3c0.1,0.2,0.2,0.4,0.3,0.6l-19.6,3.5c-0.4,0.6-0.8,1.1-1.3,1.6l22.9-0.8c0.1,0.2,0.2,0.4,0.2,0.6
			l-23.9,0.9c-0.4,0.4-0.8,0.7-1.2,1.1l8.2,0.9l1-1l0.7,0.4c0.4,0.2,0.8,0.5,1.1,0.8l1.6,0.2l0,0.2l0,0l0.1,0.4l-1.1-0.1
			c0.7,0.9,1.3,1.9,1.3,3.2l2.6,0.7c-0.2-0.2-0.5-0.4-0.9-0.7l-1.2-0.8l4.7-4.3l0.7,0.4c0.7,0.4,1.5,1.1,2.1,1.9l5.5,0.6
			c0.1,0.2,0.1,0.4,0.1,0.6l-5.2-0.5c0.4,0.7,0.6,1.5,0.6,2.3v2.1l5.4,1.3c0,0.2,0,0.4,0.1,0.6l-5.4-1.3v4.7l5.5,2.2
			c0,0.2,0,0.4,0,0.6l-5.4-2.2v5.3l4.5,2.6c0,0.2-0.1,0.4-0.1,0.6l-4.4-2.5V58c0,0.2,0.3,0.7,1.3,1.4l1.2,0.8l-1.1,1l1,0.8
			c-0.1,0.2-0.2,0.4-0.2,0.6l-1.3-1l-3.1,2.8l-0.7-0.4c-1.4-0.9-3.1-2.6-3.1-4.9v-3l0,0v-5.9L73,49l-0.6,0.5v8.8
			c0,0.2,0.3,0.7,1.3,1.4l1.2,0.8l-0.8,0.8l6.6,6.9c-0.1,0.2-0.2,0.3-0.3,0.5l-6.8-7l-3.1,2.8l-0.7-0.4c-0.3-0.2-0.5-0.3-0.8-0.5
			l3.5,4.8l-0.2,0.2l-0.2,0.3l-0.2-0.3l-21-28.9c0,0.2,0,0.5,0,0.7l5.3,10.1c0.1,0,0.2,0,0.3,0c1.3,0,2.3,0.9,2.4,2.3
			c0.1,0.6,0,1.2-0.1,1.7c0,0.2,0,0.3-0.1,0.5c0.2-0.2,0.5-0.4,0.9-0.5c0,0,0.1,0,0.1,0c0.9,0,1.2,1.1,1.4,1.8l0,0.1
			c0.3,1.2,0.4,2.5,0.2,4l2.2,4.2l-0.3,0.1l-0.1-0.3l0,0l0.1,0.3l-0.2,0.1L63,64.5l-1.7-3.1c0,0.1,0,0.2,0,0.2
			c-0.4,1.8-1.2,3-2.5,3.7l3.2,8.8l-0.6,0.1L61.2,74l-3.1-8.4c-0.7,0.3-1.5,0.4-2.2,0.5c-0.1,0-0.1,0-0.2,0c0.9,1.7,0.9,3.8,0.8,5.5
			c0,1.1-0.2,2.1-0.7,3L58,84.8l-0.6,0.1l-2-9.6c-0.1,0.1-0.2,0.3-0.3,0.4c0,0-0.1,0.1-0.1,0.1l0,0l0,0l-0.1,0.1
			c-0.3,0.3-0.6,0.7-1,0.9c0,0.2-0.1,0.4-0.2,0.5l-0.3,0.4c-0.3,0.4-0.7,0.8-1,1.2l-0.1,0.1l0,0.1l0,0c0,0,0,0.1-0.1,0.1l0,0.1
			l-0.1,0.1c-0.1,0.1-0.2,0.2-0.2,0.2c0,0.1-0.1,0.2-0.1,0.3l-0.1,0.1l-0.1,0.1l0,0.1c0.2,0.2,0.4,0.6,0.3,0.9
			c-0.1,0.3-0.2,0.7-0.3,1.1c0,0.2-0.2,0.4-0.3,0.5l-0.1,0c0.1,0.2,0.2,0.4,0.1,0.6l0,0.1c0,0.1-0.1,0.2-0.1,0.4
			c0,0.2-0.2,0.4-0.3,0.5l0,0c0.1,0.2,0.2,0.4,0.1,0.6c0,0.2-0.1,0.5-0.1,0.7c0,0.2-0.1,0.3-0.2,0.5c0,0.2-0.1,0.3-0.2,0.4
			c0,0.1,0.1,0.1,0.1,0.2c0.1,0.2,0.2,0.4,0.2,0.6c0,0.2,0,0.4,0,0.7c0,0.2-0.1,0.4-0.2,0.6c0,0.1,0,0.1-0.1,0.2
			c0,0.1-0.1,0.1-0.1,0.2c0.2,0.1,0.3,0.3,0.3,0.5c21.8-1.9,39-20.3,39-42.6c0-23.6-19.2-42.8-42.8-42.8C23.3,4.1,4.1,23.3,4.1,46.8
			c0,20.4,14.3,37.5,33.4,41.7c0-0.1,0-0.2,0-0.4C37.5,85.6,37.5,83,37.5,80.5z M39.3,46.9l0.3,0.2l0.1,0l0.2,0.1l-2.7,5.1l-0.3-0.2
			l0,0L36.6,52L39.3,46.9z M64.5,82.8l-2.1-5.7l0.7,0.1l0.1,0.2l1.9,5.2C64.8,82.7,64.7,82.8,64.5,82.8z M70.7,79l-6.2-11.7l0.6-0.1
			l0.1,0.2l6,11.3C71,78.8,70.9,78.9,70.7,79z M76.1,74.3l-2.3-3.2l0.6-0.1l0.1,0.1l2,2.7C76.3,74,76.2,74.1,76.1,74.3z M78.9,22.8
			c0.1,0.2,0.3,0.4,0.4,0.5l-2.4,0.8l-0.1-0.3l0,0l0.2-0.1l-0.3,0.1l-0.1-0.3L78.9,22.8z M70.8,17.7l-0.2,0.1l-2.2,1.5l-0.2-0.3
			l-0.2-0.2l0.2-0.2l2.4-1.6L70.8,17.7z M65.2,11.2c0.2,0.1,0.4,0.2,0.6,0.3l-1.2,1.4l-0.2-0.4l-0.1-0.2L65.2,11.2z M62.6,14.6
			l0.3,0.2l-0.2,0.3L61.2,17l-0.2-0.3l0,0l-0.2-0.2l1.7-2L62.6,14.6z M57.8,8.2c0.2,0.1,0.4,0.1,0.6,0.2l-2.4,5.5l-0.3-0.2l0,0
			l-0.2-0.1L57.8,8.2z M54,7.4c0.2,0,0.4,0.1,0.6,0.1l-0.4,1.4l-0.3-0.3l0,0l-0.2-0.1L54,7.4z M49.2,14.7l1.1-7.8
			c0.2,0,0.4,0,0.6,0.1l-1.1,8.1L49.5,15l0,0l-0.3,0L49.2,14.7z M44.2,12.8l0.1,0.3l0.7,5L44.6,18l0,0h-0.3l-0.7-5.2l0.3,0l0,0
			L44.2,12.8z M43.4,6.9l0.5,3.5l-0.3,0.1c0,0,0,0,0,0l-0.3,0.1l-0.5-3.7C43,6.9,43.2,6.9,43.4,6.9z M25.5,26.6L25.5,26.6l-0.1,0.3
			l-4.7-1.5l0.1-0.3l0,0l0.1-0.3l4.7,1.5L25.5,26.6z M35.9,8.2l1.8,4.1l-0.5,0l-0.2,0l-0.1-0.2l-1.6-3.7C35.5,8.3,35.7,8.3,35.9,8.2
			z M32.2,9.5l6.1,9.7l-0.4,0.1l-0.1,0l-0.2,0.1l-6-9.6C31.8,9.6,32,9.5,32.2,9.5z M28.5,11.1l3.6,4.2l-0.2,0.2l0,0l-0.2,0.2
			l-3.7-4.4C28.1,11.4,28.3,11.2,28.5,11.1z M28.2,16.3l0.2,0.2l3.3,3l-0.2,0.2l0,0L31.3,20l-0.2-0.2l-3.4-3L28.2,16.3z M24.8,13.3
			l1.7,1.6l-0.3,0.2L26,15.2l-1.8-1.6C24.5,13.5,24.6,13.4,24.8,13.3z M21.3,15.9l3.7,2.5l-0.4,0.3l-0.2,0.2l-3.7-2.5
			C20.9,16.2,21.1,16,21.3,15.9z M17.9,19.1l8.3,4l-0.3,0.3l-0.1,0.2l-8.3-4.1C17.6,19.4,17.7,19.2,17.9,19.1z M14.7,22.8l4.1,1.3
			l-0.4,0.5l-0.2-0.1l-3.9-1.3C14.5,23.1,14.6,22.9,14.7,22.8z M24,35.9C24,35.9,24,35.9,24,35.9l0.1,0.4L15,37.2l0-0.4l0-0.3l0.3,0
			l8.7-0.9L24,35.9z M9.6,31.9l8.6,0.3l-0.1,0.4l0,0.3l-8.8-0.3C9.4,32.3,9.5,32.1,9.6,31.9z M23.4,78.2L23,79.1
			c-0.2-0.1-0.3-0.2-0.5-0.4l0.6-1.1l0.3,0.3l0.1,0.1L23.4,78.2z M25.1,74.5l-0.3-0.1l0.1-0.3l10.3-19.5l0.3,0.2l0,0l0.3,0.1
			L25.3,74.6L25.1,74.5z"/>
		<polygon fill="#F7F8F3" points="15.5,51.2 18.6,49.5 18.6,45.3 15.5,46.5 		"/>
		<path fill="#F7F8F3" d="M34.5,45.8l7-7.2l0-0.3c0,0,0-0.1,0-0.1l-7,5.5V45.8z"/>
		<path fill="#F7F8F3" d="M66.4,59.5v-5.3l-1.1-1.2l0.2-0.1c-0.1-0.1-0.2-0.2-0.3-0.2l-1.2-0.8l2.6-2.3v-0.4L51.9,37.9
			c-0.1,0-0.2,0-0.3,0.1l11.3,11.7l-0.1,0.2l0,0l-0.2,0.4L50.9,38.2c0,0.1,0,0.2,0,0.3L66.4,60C66.4,59.8,66.4,59.7,66.4,59.5z"/>
		<path fill="#F7F8F3" d="M34.5,49.9l6.8-9.4v0c0-0.1,0-0.2,0.1-0.3l0-0.5l-6.9,7.2V49.9z"/>
		<path fill="#F7F8F3" d="M66.4,45.2l-13.3-7.6c-0.1,0-0.3,0.1-0.4,0.1l13.7,10.7V45.2z"/>
		<path fill="#F7F8F3" d="M26,57.6l2.3-2.3v-2.1l-3.2,3.3C25.2,56.8,25.5,57.2,26,57.6z"/>
		<path fill="#F7F8F3" d="M16.7,57.6l0.6-0.6L16.7,57.6C16.6,57.6,16.7,57.6,16.7,57.6z"/>
		<path fill="#F7F8F3" d="M43.6,47.4l0.3-1.3l0,0c-0.3-0.2-0.6-0.4-0.9-0.7l-1.4,3.9C42.1,48.6,42.8,47.9,43.6,47.4z"/>
		<path fill="#F7F8F3" d="M49.7,45.3l0.7,3.4c0.3,0.3,0.5,0.6,0.8,1c0,0,0.1-0.1,0.1-0.1c0-0.1,0.1-0.1,0.1-0.2l0.1-0.1l0-0.1l0,0
			c0.2-0.2,0.3-0.4,0.4-0.5l-1.6-4.3C50.2,44.6,50,45,49.7,45.3z"/>
		<path fill="#F7F8F3" d="M50.8,42.2c0,0.3-0.1,0.6-0.1,0.9l1.8,4.8c0.2-0.1,0.4-0.3,0.6-0.4c0.1,0,0.2,0,0.3,0c0.7,0,1,0.6,1.3,1.6
			c0.2,0.6,0.3,1.1,0.4,1.7c0,0,0.1,0,0.1-0.1l0,0c0,0,0.1,0,0.1-0.1c0,0,0.1,0,0.1,0c0,0,0.1,0,0.1,0l0,0l-4.7-8.8
			C50.8,41.9,50.8,42.1,50.8,42.2z"/>
		<path fill="#F7F8F3" d="M49,45.9c-0.1,0.1-0.2,0.2-0.4,0.3c0.1,0.1,0.3,0.3,0.4,0.4l0,0.1c0,0.1,0.1,0.1,0.1,0.2
			c0.1,0.2,0.2,0.3,0.3,0.5l-0.3-1.6C49.1,45.9,49,45.9,49,45.9z"/>
		<polygon fill="#F7F8F3" points="24.9,50.3 27.4,48.3 27.6,48.6 27.6,48.6 27.8,48.8 24.9,51.1 24.9,55.8 28.3,52.3 28.3,44.6 
			24.9,46.6 		"/>
		<path fill="#F7F8F3" d="M24.9,42.9v2.9l3.4-2v-2.4c0,0,0-0.1,0-0.1l-0.5,0.2l0-0.4l0-0.1l0-0.2l0.3-0.1c-0.3-0.4-0.7-0.8-1.2-1.2
			l-0.7-0.5l-3.5,0.9L24.9,42.9z"/>
		<path fill="#F7F8F3" d="M34.5,42.7l6.1-4.8c-0.2,0-0.3-0.1-0.5-0.1L34.5,41V42.7z"/>
		<path fill="#F7F8F3" d="M46.8,0C21,0,0,21,0,46.8c0,22.6,16.1,41.5,37.5,45.9c0-0.5,0-1,0-1.5c-20.6-4.3-36-22.6-36-44.4
			c0-25,20.4-45.4,45.4-45.4c25,0,45.4,20.4,45.4,45.4c0,23.7-18.3,43.3-41.5,45.2l0,0c0,0.2,0,0.5,0.1,0.7c0,0.2,0,0.3-0.1,0.5
			c0,0.1-0.1,0.1-0.1,0.1l0,0l0,0c0,0,0.1,0.1,0.1,0.1c24-2,43-22.1,43-46.7C93.6,21,72.6,0,46.8,0z"/>
		<path fill="#F7F8F3" d="M34.2,38.3l3.2-1.3c-0.4-0.1-0.7-0.3-1.1-0.5l-2.8,0.7C33.8,37.6,34,37.9,34.2,38.3z"/>
		<path fill="#F7F8F3" d="M34.5,40.1v0.2l4.6-2.7c-0.3-0.1-0.5-0.2-0.8-0.2l-4,1.6C34.5,39.3,34.5,39.7,34.5,40.1z"/>
		<path fill="#F7F8F3" d="M66.8,36l-8.4-0.9c-0.3,0.2-0.7,0.5-1.1,0.7l7.6,1.9L66.8,36z"/>
		<path fill="#F7F8F3" d="M75.4,48.7c-0.1-0.2-0.4-0.6-1-1.1l-1,0.9l1.9,1.1V48.7z"/>
		<path fill="#F7F8F3" d="M33.1,36.6l2.3-0.6c-0.4-0.2-0.9-0.5-1.3-0.8l-2.3,0.2C32.3,35.8,32.7,36.2,33.1,36.6z"/>
		<path fill="#F7F8F3" d="M66.4,41.8l-11.7-4.7c-0.1,0-0.2,0.1-0.3,0.1c-0.1,0-0.2,0.1-0.3,0.1l12.3,7.1V41.8z"/>
		<path fill="#F7F8F3" d="M66.4,40.9c0-0.2-0.3-0.7-1.3-1.4l-1.2-0.8l0.5-0.4l-7.9-1.9c-0.3,0.1-0.6,0.3-0.9,0.4l10.8,4.4V40.9z"/>
		<polygon fill="#F7F8F3" points="72.4,43.5 72.9,43.7 75,41.8 75.4,41.9 75.4,41 72.4,40.2 		"/>
		<path fill="#F7F8F3" d="M50.6,89.4c0-0.2-0.2-0.4-0.3-0.5c0-0.1,0.1-0.1,0.1-0.2c0-0.1,0-0.1,0.1-0.2c0.1-0.2,0.2-0.3,0.2-0.6
			c0-0.2,0-0.4,0-0.7c0-0.2,0-0.4-0.2-0.6c0-0.1-0.1-0.1-0.1-0.2c0.1-0.1,0.2-0.3,0.2-0.4c0.1-0.1,0.2-0.3,0.2-0.5
			c0-0.2,0.1-0.5,0.1-0.7c0-0.2,0-0.4-0.1-0.6l0,0c0.2-0.1,0.3-0.3,0.3-0.5c0-0.1,0-0.2,0.1-0.4l0-0.1c0-0.2,0-0.4-0.1-0.6l0.1,0
			c0.2-0.1,0.3-0.3,0.3-0.5c0.1-0.4,0.2-0.8,0.3-1.1c0.1-0.3,0-0.7-0.3-0.9l0-0.1l0.1-0.1l0.1-0.1c0.1-0.1,0.1-0.2,0.1-0.3
			c0.1-0.1,0.2-0.1,0.2-0.2l0.1-0.1l0-0.1c0,0,0.1-0.1,0.1-0.1l0,0l0-0.1l0.1-0.1c0.3-0.4,0.7-0.8,1-1.2l0.3-0.4
			c0.1-0.2,0.2-0.3,0.2-0.5c0.3-0.3,0.7-0.6,1-0.9l0.1-0.1l0,0l0,0c0,0,0.1-0.1,0.1-0.1c0.1-0.1,0.2-0.3,0.3-0.4
			c0.1-0.2,0.2-0.4,0.4-0.5c0-0.1,0.1-0.1,0.1-0.2c0.4-0.9,0.7-1.8,0.7-3c0-1.7,0-3.8-0.8-5.5c0.1,0,0.1,0,0.2,0
			c0.7-0.1,1.5-0.2,2.2-0.5c0.2-0.1,0.4-0.2,0.6-0.3l0,0c1.4-0.7,2.2-1.9,2.5-3.7c0-0.1,0-0.2,0-0.2c0.1-0.4,0.1-0.7,0.2-1.1
			c0.2-1.5,0.1-2.8-0.2-4l0-0.1c-0.2-0.8-0.5-1.8-1.4-1.8c0,0-0.1,0-0.1,0c-0.4,0-0.7,0.2-0.9,0.5c0-0.2,0-0.3,0.1-0.5
			c0.1-0.6,0.2-1.1,0.1-1.7c-0.1-1.4-1.1-2.3-2.4-2.3c-0.1,0-0.2,0-0.3,0c-0.2,0-0.5,0.1-0.7,0.1l0,0c0,0-0.1,0-0.1,0
			c0,0-0.1,0-0.1,0c0,0-0.1,0-0.1,0.1l0,0c0,0-0.1,0-0.1,0.1c-0.1-0.6-0.2-1.1-0.4-1.7c-0.3-0.9-0.6-1.6-1.3-1.6c-0.1,0-0.2,0-0.3,0
			c-0.2,0.1-0.4,0.2-0.6,0.4c-0.2,0.1-0.3,0.3-0.4,0.4l0,0c0,0-0.1,0.1-0.1,0.1c-0.1,0.2-0.3,0.3-0.4,0.5l0,0l0,0.1l-0.1,0.1
			c0,0.1-0.1,0.1-0.1,0.2c0,0-0.1,0.1-0.1,0.1c-0.2-0.3-0.5-0.7-0.8-1l0-0.1c-0.3-0.4-0.6-0.8-0.9-1.2c-0.1-0.2-0.2-0.3-0.3-0.5
			c0-0.1-0.1-0.1-0.1-0.2l0-0.1c-0.1-0.2-0.2-0.3-0.4-0.4c0.1-0.1,0.2-0.2,0.4-0.3c0,0,0.1-0.1,0.1-0.1c0.1-0.1,0.1-0.1,0.2-0.2l0,0
			c0.1-0.1,0.3-0.3,0.4-0.4c0.3-0.3,0.5-0.7,0.7-1.1c0.1-0.3,0.2-0.6,0.3-0.9c0-0.1,0-0.1,0-0.2c0.1-0.3,0.1-0.6,0.1-0.9
			c0-0.1,0-0.2,0-0.4c0-0.4,0-0.8,0-1.1c0-0.1,0-0.2,0-0.3c0-0.2,0-0.5,0-0.7c0-0.4,0-0.8,0-1.2c0-0.1,0-0.2,0-0.3c0,0,0-0.1,0-0.1
			c0.2,0,0.5-0.1,0.7-0.1c0.1,0,0.2,0,0.3-0.1c0.3-0.1,0.6-0.1,0.9-0.2c0.1,0,0.3-0.1,0.4-0.1c0.3-0.1,0.6-0.2,0.9-0.3
			c0.1,0,0.2-0.1,0.3-0.1c0.1,0,0.2-0.1,0.3-0.1c0.3-0.1,0.6-0.2,0.9-0.4c0.3-0.1,0.6-0.3,0.9-0.4c0.3-0.2,0.6-0.3,0.9-0.5
			c0.4-0.2,0.7-0.5,1.1-0.7c0.3-0.2,0.5-0.4,0.8-0.6c0.4-0.3,0.8-0.7,1.2-1.1c0.2-0.2,0.5-0.5,0.7-0.7c0.4-0.5,0.9-1,1.3-1.6
			c0.1-0.2,0.2-0.3,0.3-0.5c0.1-0.1,0.1-0.2,0.2-0.3c0.4-0.7,0.8-1.4,1-2c0.1-0.3,0.2-0.5,0.2-0.8c0.1-0.7,0.1-1.4,0-2.1
			c0,0,0-0.1,0-0.1c0-0.2-0.1-0.3-0.1-0.5c0-0.1-0.1-0.2-0.1-0.3c0.1,0,0.2-0.1,0.3-0.2c0.1-0.1,0.2-0.1,0.2-0.2
			c0.2-0.3,0.2-0.6,0.1-0.9c-0.1-0.2-0.2-0.4-0.3-0.5l-0.1-0.1c0,0,0-0.1-0.1-0.2l0,0c0-0.1-0.1-0.2-0.1-0.3c0-0.1-0.1-0.2-0.1-0.3
			c-0.2-0.5-0.6-0.8-0.9-1c-0.3-0.2-0.6-0.3-0.9-0.4c-0.1,0-0.3,0-0.4,0c-0.1,0-0.2,0-0.2,0l-0.1,0c-0.1,0-0.1,0-0.2-0.1l0,0
			c-0.2-0.1-0.4-0.3-0.7-0.5c-0.2-0.1-0.3-0.1-0.5-0.1c-0.6,0-1.1,0.3-1.3,0.8c0,0.1-0.1,0.1-0.1,0.2c-0.1,0.1-0.1,0.2-0.1,0.3
			c-0.3,0-0.6,0.1-0.9,0.2c-0.5,0.2-1.1,0.5-1.6,0.8c-0.1,0-0.1,0.1-0.2,0.1c-0.4,0.3-0.9,0.8-1.5,1.2c-0.5,0.5-1.1,0.9-1.7,1.4
			c-0.5,0.4-1,0.7-1.5,1c-0.2,0.1-0.4,0.2-0.6,0.4c0-0.1,0-0.2,0-0.3c0-0.6,0-0.7,0-0.8c0-0.2-0.1-0.4-0.2-0.5
			c-0.1-0.2-0.3-0.3-0.6-0.4c0,0-0.1,0-0.1,0c-0.1,0-0.1,0-0.2,0c-0.2,0-0.3,0-0.4,0.1c-0.3,0.1-0.6,0.4-0.6,0.8c0,0,0,0.1,0,0.3
			c0,0,0-0.1,0-0.1c0-0.1,0-0.2,0-0.2c0-0.1,0-0.2-0.1-0.3c-0.1-0.3-0.3-0.4-0.6-0.5c-0.1,0-0.1,0-0.2,0c-0.1,0-0.2,0-0.3,0
			c-0.1,0-0.1,0-0.2,0c-0.3,0.1-0.6,0.3-0.7,0.7l0,0c0,0,0,0.1,0,0.2c0,0.2,0,0.7-0.1,1.3c0,0.3,0,0.6,0,0.8l0,0l0,0l0,0
			c0-0.1,0-0.2,0-0.2v0c0-0.8,0-1.5,0-1.8c0-0.3-0.1-0.6-0.4-0.7c-0.2-0.1-0.4-0.2-0.6-0.2c0,0-0.1,0-0.1,0h-0.1
			c-0.2,0-0.4,0.1-0.5,0.2c-0.2,0.2-0.3,0.4-0.4,0.7c0,0.1,0,0.2,0,0.3v0c0-0.1,0-0.1,0-0.1c0-0.3-0.1-0.5-0.3-0.6
			c-0.2-0.2-0.4-0.3-0.8-0.3l-0.1,0c-0.3,0-0.5,0.1-0.7,0.2c-0.2,0.2-0.3,0.4-0.3,0.8l0,0c0,0.1,0,0.4,0,0.7c0,0.1,0,0.3,0,0.4
			c0,0-0.1,0-0.1-0.1c-0.5-0.3-1-0.6-1.4-0.9c-0.9-0.6-1.7-1.4-2.5-2c-0.1-0.1-0.3-0.2-0.4-0.4c-0.4-0.3-0.7-0.6-1.1-0.9
			c-0.8-0.6-1.6-0.9-2.3-1.1c0-0.1,0-0.1,0-0.2c0-0.1,0-0.3-0.1-0.4c0-0.1,0-0.1-0.1-0.2c-0.2-0.5-0.7-0.9-1.3-0.9
			c-0.2,0-0.3,0-0.5,0.1c-0.3,0.1-0.5,0.3-0.7,0.4C31.6,20,31.6,20,31.5,20l-0.1,0c-0.1,0-0.3,0-0.4,0c-0.3,0-0.8,0-1.2,0.4
			c-0.2,0.2-0.5,0.4-0.8,0.8c-0.1,0.1-0.2,0.3-0.3,0.5c0,0,0,0.1,0,0.1c0,0.1,0,0.1-0.1,0.2c0,0.1-0.1,0.2-0.1,0.2l-0.1,0.1
			c-0.1,0.1-0.2,0.3-0.3,0.5c-0.1,0.3-0.1,0.7,0.1,0.9c0.1,0.1,0.1,0.2,0.2,0.2c0.1,0.1,0.1,0.1,0.2,0.2c0,0.1-0.1,0.1-0.1,0.2
			c-0.1,0.2-0.2,0.4-0.2,0.6c0,0.1-0.1,0.3-0.1,0.4c-0.1,0.6-0.2,1.2-0.1,1.8c0,0.2,0.1,0.5,0.1,0.7c0.2,0.7,0.5,1.5,1,2.2
			c0.1,0.2,0.2,0.4,0.4,0.6c0,0.1,0.1,0.1,0.1,0.2c0.5,0.7,0.9,1.2,1.4,1.8c0.2,0.2,0.4,0.5,0.7,0.7c0.5,0.5,0.9,0.9,1.4,1.3
			c0.3,0.2,0.5,0.4,0.8,0.6c0.4,0.3,0.9,0.6,1.3,0.8c0.3,0.2,0.6,0.3,0.9,0.5c0.4,0.2,0.7,0.3,1.1,0.5c0.3,0.1,0.7,0.2,1,0.4
			c0.3,0.1,0.5,0.2,0.8,0.2c0.3,0.1,0.6,0.2,1,0.2c0.2,0,0.3,0.1,0.5,0.1c0.3,0.1,0.6,0.1,0.9,0.2l0,0c0,0,0,0.1,0,0.1l0,0.3l0,1.1
			l0,0.5c0,0.1-0.1,0.2-0.1,0.3v0v0.9c0,0.1,0,0.1,0,0.2c0,0.1,0,0.1,0.1,0.2c0,0.1,0,0.2,0,0.3c0,0.2,0.1,0.4,0.1,0.5
			c0,0.1,0.1,0.2,0.1,0.3c0.1,0.2,0.1,0.4,0.2,0.6c0.1,0.2,0.2,0.5,0.3,0.7c0.1,0.1,0.1,0.2,0.2,0.4c0.1,0.2,0.3,0.5,0.5,0.7
			c0.3,0.3,0.5,0.5,0.9,0.7l0,0c0.1,0.1,0.2,0.1,0.3,0.2l0,0c0,0.1,0,0.2,0,0.3c0,0.1,0,0.2,0,0.3c-0.2,0.1-0.4,0.3-0.6,0.4
			c-0.8,0.6-1.5,1.2-2.1,1.9c-0.3,0.3-0.6,0.7-0.8,1l-0.1,0.2c-0.1,0.2-0.3,0.4-0.4,0.6c-0.7,1-1.4,2-2,3c-0.4,0.7-0.7,1.4-0.9,2.1
			c-0.2,0.5-0.3,1-0.6,1.4c-0.1,0.3-0.1,0.5,0,0.8c0,0.8,0,1.6-0.1,2.4c-0.1,0.5-0.1,1-0.2,1.5c-0.1,0.4-0.1,0.9-0.2,1.4
			c-0.2,1.6-0.3,3.3,0.1,5c0.3,1.4,0.8,2.8,1.3,4.1c0,0.2,0,0.3,0,0.5l0,0.4c0,0.4,0,0.7,0,1.1c0,0.1,0,0.2,0,0.3c0,0.3,0,0.6,0,0.9
			c0,1,0,2,0,3c0,0.6,0,1.2,0,1.7c0,2.5,0,5.1,0,7.7c0,0.1,0,0.2,0,0.4c3,0.7,6.1,1,9.3,1C48.1,89.6,49.3,89.5,50.6,89.4z
			 M48.7,86.9L48.7,86.9c0-0.3,0-0.6,0-0.8l0.1,0C48.7,86.3,48.7,86.6,48.7,86.9z M49.1,86.1c-0.1,0-0.1,0.1-0.2,0.1
			c-0.1,0.1,0,0.1,0.1,0.1c0,0,0.1,0,0.1-0.1v0.3c-0.1,0-0.1,0.1-0.2,0.1c0,0-0.1,0-0.1,0.1c0-0.3,0-0.5,0-0.8
			c0.1-0.1,0.2-0.1,0.3-0.2V86.1z M50.3,79.6c0,0,0-0.1,0-0.1c0-0.1-0.1,0-0.1,0c0,0.1,0,0.2,0.1,0.3c-0.1,0.2-0.2,0.4-0.4,0.6
			c0-0.4,0.1-0.9,0.2-1.3c0.1-0.2,0.2-0.3,0.3-0.5l0,0l0,0c0.1,0.1,0.2,0.2,0.3,0.2C50.6,79.2,50.4,79.4,50.3,79.6z M50.7,79.1
			c0,0.2,0.1,0.4,0.1,0.6c-0.1,0.2-0.3,0.4-0.4,0.6c0-0.2,0-0.3-0.1-0.5C50.5,79.6,50.6,79.4,50.7,79.1z M50.3,80c0,0.1,0,0.3,0,0.4
			c-0.1,0.2-0.3,0.4-0.5,0.5c0-0.1,0-0.2,0-0.2C50,80.5,50.1,80.3,50.3,80z M49.7,80.7c-0.1,0.2-0.3,0.5-0.4,0.7l0,0
			c-0.2,0.2-0.5,0.3-0.7,0.4c0.4-0.8,0.8-1.6,1.3-2.3C49.8,79.9,49.7,80.3,49.7,80.7z M49.7,81.1c0,0-0.1,0.1-0.1,0.1
			c0-0.1,0.1-0.2,0.1-0.3C49.7,81,49.7,81.1,49.7,81.1L49.7,81.1z M49.2,83.8c0.1-0.1,0.1-0.1,0.2-0.2l0.1,0c0.1,0,0.2-0.1,0.3-0.2
			c0,0.2,0,0.3,0,0.5c-0.2,0.2-0.4,0.3-0.6,0.4V83.8z M49.1,85.6c-0.1,0.1-0.2,0.1-0.2,0.2c0-0.7,0-1.5,0-2.2c0,0.1,0,0.3,0.1,0.4
			l0,0.1c0,0.2,0.1,0.4,0.1,0.6c-0.3,0.2-0.2,0.5,0,0.7V85.6z M49.1,83L49.1,83C49,83,49,83,48.9,83.1c0-0.1,0-0.1-0.1-0.2
			c0-0.1,0-0.1,0-0.2c0.1-0.1,0.1-0.1,0.2-0.2V83z M49.2,86.4v-0.3l0,0C49.3,86.2,49.3,86.3,49.2,86.4L49.2,86.4z M49.3,85.3
			c0,0,0.1,0,0.1,0c0,0-0.1,0.1-0.1,0.1C49.3,85.3,49.3,85.3,49.3,85.3z M49.8,85.9c-0.1,0.1-0.2,0.2-0.4,0.3c0-0.1,0-0.2,0-0.2
			c0.1-0.1,0.3-0.2,0.4-0.3C49.8,85.8,49.8,85.9,49.8,85.9z M49.8,85.6c-0.2,0.1-0.3,0.2-0.4,0.3c0-0.1,0-0.2,0-0.4
			c0.1-0.1,0.2-0.2,0.3-0.3c0,0,0-0.1,0-0.1c0.1,0,0.1-0.1,0.2-0.1C49.8,85.2,49.8,85.4,49.8,85.6z M50,85.5L50,85.5
			c0-0.2,0-0.4,0-0.6c0.1,0,0.1-0.1,0.1-0.1C50.1,85,50,85.3,50,85.5z M50.3,83.6c-0.1,0.1-0.2,0.2-0.4,0.3c0-0.1,0-0.3,0-0.4
			c0.2-0.1,0.3-0.2,0.5-0.3C50.4,83.3,50.4,83.4,50.3,83.6z M50.7,82c-0.3,0.2-0.5,0.4-0.8,0.6c0-0.1,0-0.2,0-0.3
			c0-0.1-0.1-0.1-0.1,0c0,0.1,0,0.2,0,0.4c-0.2,0.1-0.3,0.2-0.5,0.3v-0.5l0.1,0c0.6-0.3,1-0.8,1.5-1.2c0,0.1,0,0.1,0,0.2
			c0,0.1,0.1,0.1,0.1,0c0-0.2,0.1-0.3,0.1-0.5c0,0,0.1-0.1,0.1-0.1C50.9,81.2,50.8,81.6,50.7,82z M50.9,79.6c0-0.2-0.1-0.4-0.1-0.5
			c0.1,0,0.1,0.1,0.2,0.1c0,0.1,0,0.2,0,0.3C51,79.5,51,79.5,50.9,79.6z M51.4,78.9c0,0-0.1,0-0.1,0l0,0
			C51.4,78.8,51.4,78.8,51.4,78.9L51.4,78.9z M51.6,78.7c-0.1,0-0.2,0-0.3,0l0,0C51.4,78.6,51.5,78.6,51.6,78.7L51.6,78.7z
			 M55.7,71.6c0,1-0.2,1.9-0.7,2.7c-0.2,0.3-0.3,0.5-0.6,0.8c0,0-0.1,0.1-0.1,0.1c0,0-0.1,0.1-0.1,0.1c-0.4,0.4-0.7,0.7-1.1,1.1
			c-0.2,0.1-0.2,0.3-0.1,0.4c-0.4,0.5-0.9,1.1-1.3,1.6c-0.1,0-0.2,0-0.4,0c0-0.1,0-0.2,0.1-0.3c0-0.1-0.1-0.1-0.1,0
			c0,0.1-0.1,0.2-0.1,0.3c-0.1,0-0.1,0-0.2,0l0,0c0-0.1-0.1-0.1-0.1-0.1c0,0,0,0.1,0,0.1c0,0-0.1,0-0.1,0l0-0.1c0-0.1-0.1-0.1-0.1,0
			l0,0.1h0c0,0,0,0-0.1,0c0,0-0.1,0-0.1,0l0,0c0.6-0.9,1.1-1.9,1.5-2.9c0.2,0,0.4-0.1,0.4-0.4c0-0.2,0-0.5,0-0.7
			c0.2-0.8,0.3-1.7,0.4-2.6c0.1-0.9,0-1.8-0.2-2.6c0.2-0.3,0.5-0.5,0.7-0.8c0,0.1,0.1,0.2,0.1,0.3c0,0.1,0.2,0,0.1,0
			c0-0.1-0.1-0.2-0.1-0.4c0.2-0.2,0.3-0.3,0.5-0.5c0.1,0.2,0.2,0.4,0.2,0.6c0,0.1,0.2,0,0.1,0c-0.1-0.2-0.2-0.4-0.2-0.7
			c0.1-0.1,0.2-0.2,0.3-0.3v0.7c0,0.1,0.1,0.1,0.1,0v-0.9c0.1-0.1,0.1-0.1,0.2-0.2c0.1,0,0.1,0.1,0.2,0.1c0.1,0,0.1-0.1,0.1-0.1
			c-0.1,0-0.1-0.1-0.2-0.1c0.1-0.1,0.2-0.2,0.4-0.3c0.1-0.1,0-0.1-0.1-0.1c-0.1,0.1-0.3,0.2-0.4,0.3c-0.1-0.1-0.1-0.1-0.2-0.2v0
			c0.1-0.1,0.2-0.1,0.2-0.2c0.1-0.1,0-0.2-0.1-0.1c-0.1,0-0.1,0.1-0.2,0.1v-0.4l0,0c0.1,0,0.2-0.1,0.3-0.1
			C55.7,67.8,55.7,69.9,55.7,71.6z M51.6,63.6c0,0.1,0,0.2,0,0.3c-0.1,0-0.2,0.1-0.2,0.1c0-0.1,0-0.3,0-0.4c0.1,0,0.1-0.1,0.2-0.1
			c0,0,0,0.1,0.1,0.1c0,0,0.1,0,0.1-0.1l0.1,0l0,0c0,0.1,0,0.3,0,0.4l0,0c0-0.1,0-0.1,0-0.2C51.7,63.5,51.6,63.5,51.6,63.6z
			 M51.6,64c0,0.1,0,0.2,0,0.3l0,0c-0.1-0.1-0.2-0.1-0.2-0.2l0,0C51.4,64.1,51.5,64.1,51.6,64z M51.7,65.3L51.7,65.3
			c0,0.3,0.1,0.4,0.2,0.6c0,0,0,0,0,0.1c0.1,0.1,0.1,0.2,0.2,0.3c0,0,0,0.1,0,0.1c0,0-0.1,0-0.1,0.1l0,0c0,0.1-0.1,0.1-0.1,0.2
			c-0.2-0.5-0.3-1-0.5-1.5C51.5,65.2,51.6,65.3,51.7,65.3z M51.9,63.4c0.1,0,0.2,0,0.2,0v0c0,0.1,0,0.2,0,0.3
			c-0.1,0-0.2,0.1-0.2,0.1C51.9,63.7,51.9,63.6,51.9,63.4L51.9,63.4z M52.1,63.8c0,0.1,0,0.1,0,0.2c-0.1,0-0.1,0.1-0.2,0.1
			c0-0.1,0-0.2,0-0.3C51.9,63.9,52,63.9,52.1,63.8z M52,64.2L52,64.2c0,0.2,0.1,0.2,0.1,0.1c0,0,0-0.1,0-0.1l0.1,0
			c0,0.1,0,0.1,0,0.2c-0.1,0-0.3,0.1-0.4,0.1c0,0,0-0.1,0-0.1C51.9,64.3,52,64.3,52,64.2z M52.2,63.4L52.2,63.4L52.2,63.4
			c0,0.1,0,0.2,0,0.3l0,0C52.2,63.5,52.2,63.5,52.2,63.4L52.2,63.4z M53.1,63.5L53.1,63.5c0,0,0-0.1,0-0.2c0,0,0.1-0.1,0.1-0.1
			c0,0.2,0,0.4,0,0.6l0,0c-0.1,0-0.1,0.1-0.2,0.1c0-0.1,0-0.2,0-0.3c0,0,0.1,0,0.1,0C53.2,63.6,53.2,63.5,53.1,63.5z M53.1,63.2
			c0-0.1,0-0.1,0-0.2c0,0,0.1,0,0.1-0.1c0,0.1,0,0.1,0,0.2C53.1,63.2,53.1,63.2,53.1,63.2z M53.6,65c0.1-0.1,0.2-0.1,0.3-0.2
			c0.1-0.1,0.2-0.1,0.3-0.2c0,0.1-0.1,0.2-0.1,0.3c-0.2,0.2-0.5,0.4-0.7,0.6l0,0C53.5,65.3,53.5,65.2,53.6,65
			C53.6,65,53.6,65,53.6,65z M53.8,66.5c-0.1,0.1-0.1,0.1-0.2,0.2c-0.1-0.1-0.2-0.1-0.3-0.2l0,0C53.5,66.4,53.7,66.5,53.8,66.5z
			 M52.2,66.4c0.1,0.2,0.3,0.4,0.4,0.7c-0.1,0.1-0.1,0.2-0.2,0.3C52.3,67.1,52.2,66.8,52.2,66.4C52.2,66.5,52.2,66.5,52.2,66.4z
			 M51.9,65.5c0.1,0.2,0.2,0.4,0.3,0.5l0,0C52.1,65.9,52,65.7,51.9,65.5z M53.4,67.4C53.3,67.4,53.3,67.3,53.4,67.4
			c0-0.1,0.1,0,0.1,0c0.1,0,0.1-0.1,0.1-0.1c-0.1,0-0.1-0.1-0.2-0.1c0,0,0.1-0.1,0.1-0.1c0,0.1,0.1,0.2,0.1,0.3
			c-0.2,0.2-0.3,0.3-0.5,0.5c0-0.1-0.1-0.2-0.1-0.3c0.1-0.1,0.1-0.1,0.2-0.2C53.2,67.4,53.2,67.4,53.4,67.4
			C53.3,67.5,53.4,67.4,53.4,67.4z M53.5,66.7c0,0,0.1,0,0.1,0.1l-0.1,0.1C53.5,66.8,53.5,66.7,53.5,66.7z M53.6,66.9
			c0,0,0.1-0.1,0.1-0.1c0.1,0.1,0.3,0.1,0.4,0.2l0,0c-0.1,0.1-0.2,0.2-0.4,0.3C53.7,67.2,53.6,67,53.6,66.9z M52.6,67.8
			c0-0.1-0.1-0.2-0.1-0.3c0.1-0.1,0.1-0.2,0.2-0.3c0.1,0.1,0.1,0.2,0.2,0.3C52.7,67.6,52.7,67.7,52.6,67.8z M52.6,68.1
			c-0.1-0.1-0.2-0.2-0.3-0.3l0,0c0,0,0-0.1,0-0.1C52.5,67.8,52.5,68,52.6,68.1z M52.7,67.9c0.1-0.1,0.1-0.1,0.2-0.2
			c0,0.1,0.1,0.2,0.1,0.3c-0.1,0.1-0.1,0.2-0.2,0.3C52.8,68.1,52.7,68,52.7,67.9L52.7,67.9z M52.9,67.4c-0.1-0.1-0.1-0.2-0.2-0.3
			c0-0.1,0.1-0.1,0.1-0.2c0.1,0.1,0.2,0.2,0.2,0.3C53,67.3,53,67.4,52.9,67.4z M52.7,67c-0.1-0.1-0.2-0.3-0.2-0.4
			c0.1,0.1,0.2,0.2,0.3,0.3C52.7,66.9,52.7,66.9,52.7,67z M52.3,67.5c0,0.1-0.1,0.1-0.1,0.2c0,0,0-0.1-0.1-0.1
			c-0.1-0.2-0.1-0.4-0.2-0.7c0-0.1,0-0.1,0.1-0.2C52.2,67,52.2,67.3,52.3,67.5z M52.7,68.4L52.7,68.4C52.6,68.5,52.7,68.5,52.7,68.4
			l0.1,0.2l0,0l0,0c0,0.1,0.2,0,0.1-0.1c0-0.1-0.1-0.1-0.1-0.2c0.1-0.1,0.1-0.2,0.2-0.3c0,0.1,0.1,0.2,0.1,0.3
			c-0.2,0.3-0.5,0.5-0.7,0.8c0-0.4-0.1-0.8-0.2-1.2C52.4,68.1,52.5,68.3,52.7,68.4z M53.2,68c0.2-0.2,0.3-0.3,0.5-0.5
			c0,0.1,0.1,0.2,0.1,0.3c-0.2,0.2-0.3,0.3-0.5,0.5C53.3,68.2,53.2,68.1,53.2,68z M53.8,67.4c0.2-0.1,0.3-0.3,0.5-0.4v0.4
			c-0.1,0.1-0.2,0.2-0.3,0.3C53.9,67.6,53.8,67.5,53.8,67.4z M54.1,66.8c-0.1,0-0.2-0.1-0.3-0.1c0.1,0,0.1-0.1,0.2-0.1
			C54,66.6,54.1,66.7,54.1,66.8z M54,66.5c0.1,0,0.1,0,0.2,0v0.4C54.2,66.7,54.1,66.6,54,66.5z M53.4,66.9c-0.1,0.1-0.1,0.1-0.2,0.2
			C53.1,67,53,66.9,53,66.9l0,0c0.1-0.1,0.2-0.2,0.3-0.4l0,0C53.3,66.6,53.4,66.8,53.4,66.9z M53.2,64c0,0,0,0.1,0,0.1
			c-0.1,0-0.2,0.1-0.2,0.1c0,0,0-0.1,0-0.1C53.1,64.1,53.1,64.1,53.2,64z M53.1,66.4c-0.1,0.1-0.2,0.2-0.3,0.3
			c-0.2-0.2-0.3-0.4-0.5-0.7c0.1-0.1,0.1-0.2,0.2-0.3l0,0c0,0,0,0.1,0.1,0.1C52.8,66.1,53,66.2,53.1,66.4z M52.7,64.3
			C52.7,64.3,52.7,64.4,52.7,64.3c0,0.1-0.1,0.1-0.1,0.1C52.6,64.4,52.6,64.4,52.7,64.3C52.6,64.3,52.7,64.3,52.7,64.3z M52.6,64.2
			c0-0.1,0-0.2,0-0.3l0,0C52.7,64,52.7,64.1,52.6,64.2L52.6,64.2z M52.8,63.7c0-0.1,0-0.1,0-0.2c0,0,0.1,0,0.1-0.1
			c0,0.1,0,0.1,0,0.2C52.9,63.6,52.8,63.7,52.8,63.7z M52.9,63.8c0,0.1,0,0.2,0,0.3l-0.1,0C52.8,64,52.8,63.9,52.9,63.8
			C52.8,63.8,52.9,63.8,52.9,63.8z M52.9,63.3c0,0-0.1,0-0.1,0.1l0-0.1c0-0.1-0.1-0.1-0.1,0c0,0,0,0.1,0,0.1l0,0c0,0,0-0.1,0-0.1
			c0-0.1-0.1-0.1-0.1,0c0,0.1,0,0.1,0,0.2c0,0-0.1,0-0.1,0.1c0-0.1,0-0.1,0-0.2c0,0,0,0,0-0.1c0.2-0.1,0.4-0.1,0.6-0.2
			C52.9,63.1,52.9,63.2,52.9,63.3z M52.4,64.3c0-0.1,0-0.2,0-0.2c0,0,0.1,0,0.1-0.1C52.5,64.1,52.5,64.2,52.4,64.3
			C52.4,64.3,52.4,64.3,52.4,64.3z M52.5,64.4c0,0,0,0.1,0,0.1l-0.1,0l0,0L52.5,64.4C52.4,64.4,52.4,64.4,52.5,64.4z M52.4,63.9
			c0-0.1,0-0.1,0-0.2c0,0,0.1,0,0.1-0.1c0,0.1,0,0.1,0,0.2C52.5,63.8,52.4,63.9,52.4,63.9z M52.4,65.4c0.1,0,0.1,0,0.2-0.1
			c0,0.1,0,0.1,0,0.2l0,0l0,0c0-0.1-0.2,0-0.1,0.1c0,0,0,0.1,0.1,0.1c-0.1,0.1-0.1,0.2-0.2,0.3c-0.1-0.2-0.2-0.3-0.3-0.5
			c0-0.1-0.1,0-0.1,0c0-0.1-0.1-0.1-0.1-0.2v0c0.1,0,0.1,0,0.2,0C52.1,65.4,52.2,65.4,52.4,65.4z M52.3,63.8c0,0.1,0,0.1,0,0.2
			l-0.1,0C52.2,63.9,52.2,63.8,52.3,63.8L52.3,63.8z M54.4,67.3v-0.1C54.4,67.1,54.4,67.2,54.4,67.3L54.4,67.3z M58.7,57.9
			c0-0.2,0-0.4,0-0.6c0-0.1,0-0.1,0.1-0.2c0,0.1,0,0.1,0,0.2c0,0,0,0.1,0.1,0.1C58.9,57.6,58.8,57.8,58.7,57.9L58.7,57.9z
			 M58.6,58.6L58.6,58.6c0,0.2-0.1,0.3-0.1,0.4l0,0C58.5,58.9,58.5,58.8,58.6,58.6z M58.3,59.9c0,0.1,0.1,0,0.1,0c0-0.2,0-0.3,0-0.5
			c0.1-0.2,0.1-0.3,0.2-0.5l0,0c0,0.1,0.1,0,0.1,0c0-0.1,0-0.1,0-0.2l0,0c0,0,0-0.1,0-0.1c0.1-0.3,0.2-0.6,0.4-0.9
			c0-0.1,0-0.1-0.1-0.1c0.1-0.3,0.2-0.5,0.3-0.8c0-0.1-0.1-0.1-0.1,0c-0.1,0.1-0.1,0.3-0.2,0.4c0-0.1,0-0.3,0-0.4
			c0.1-0.2,0.1-0.4,0.2-0.6c0-0.1-0.1-0.1-0.1,0c0,0.1-0.1,0.2-0.1,0.4c0-0.1,0-0.2,0-0.2c0.3-0.3,0.6-0.9,1-0.9
			c0.3,0,0.5,1.1,0.6,1.3c0.4,1.6,0.3,3.2,0,4.9c-0.3,1.3-0.8,2.4-2.1,3.1c-1.3,0.7-3,0.6-4.4,1.1l-0.1,0c-0.1,0-0.2,0-0.3-0.1
			c0.2-0.2,0.4-0.3,0.6-0.5l0,0c0.1-0.1,0.2-0.2,0.3-0.2c0,0,0-0.1,0-0.1c0.2-0.2,0.3-0.4,0.5-0.5c0,0.1,0,0.2-0.1,0.3
			c0,0.1,0.1,0.1,0.1,0c0-0.2,0.1-0.4,0.1-0.6c0-0.1,0.1-0.1,0.1-0.2c0,0,0.1,0,0.1,0c0-0.1,0-0.1,0.1-0.2c0.1-0.2,0.3-0.3,0.4-0.5
			c0,0.1,0,0.1,0,0.2c-0.2,0.3-0.3,0.6-0.5,0.9c0,0.1,0.1,0.1,0.1,0.1c0.2-0.3,0.3-0.6,0.5-0.9c0,0,0.1,0,0.1,0
			c0.1-0.1,0.1-0.3,0.2-0.4c0,0,0,0.1,0,0.1c0,0-0.1,0.1-0.1,0.1c-0.1,0.1,0,0.2,0.1,0.1c0.3-0.4,0.7-0.8,0.9-1.2c0,0,0.1,0,0.1,0
			c0.1-0.2,0.2-0.4,0.3-0.6l0-0.1l0,0c0.2-0.3,0.3-0.6,0.5-1c0,0,0.1,0,0.1,0c0.1-0.2,0.1-0.3,0.2-0.5
			C58.3,59.8,58.3,59.8,58.3,59.9z M54.3,64.7c0-0.1,0-0.2,0.1-0.3c0.2-0.1,0.3-0.3,0.5-0.4C54.7,64.2,54.5,64.5,54.3,64.7z
			 M55.9,62.9c0-0.1,0-0.2,0-0.2l0,0c0.1-0.1,0.2-0.3,0.2-0.4c0,0.1,0,0.2,0,0.2C56.1,62.6,56,62.7,55.9,62.9z M56.4,62.4
			c0.1-0.1,0.1-0.1,0.2-0.2l0,0l0-0.1l0,0c0.1-0.1,0.1-0.2,0.2-0.3c0,0,0.1,0,0.1-0.1c0.1-0.2,0.2-0.4,0.4-0.6c0,0.1,0.1,0,0.1,0
			c0-0.1,0-0.2,0-0.4c0.1-0.1,0.2-0.2,0.2-0.4c0,0.1,0,0.3,0,0.4l0,0c-0.1,0.1-0.1,0.3-0.2,0.4c-0.3,0.5-0.7,1.1-1.1,1.6
			c0-0.1,0-0.1,0-0.2C56.3,62.5,56.4,62.4,56.4,62.4z M56.3,62.3c0-0.1,0-0.2,0-0.2c0-0.1,0.1-0.1,0.1-0.2c0,0,0,0.1,0,0.1
			c0,0,0,0.1,0,0.2C56.4,62.1,56.4,62.2,56.3,62.3z M56.6,61.6c0.1-0.1,0.1-0.2,0.2-0.2c0,0.1,0,0.1,0,0.2c0,0.1-0.1,0.2-0.1,0.2
			C56.6,61.7,56.6,61.7,56.6,61.6L56.6,61.6z M56.8,61.3c0.1-0.1,0.1-0.2,0.2-0.3l0,0C57,61.1,56.9,61.2,56.8,61.3L56.8,61.3z
			 M57.7,60.5c0-0.1,0-0.2,0-0.3c0,0.1,0,0.1,0,0.2l0,0C57.8,60.4,57.8,60.5,57.7,60.5z M57.9,59.8L57.9,59.8c0,0,0,0.1,0,0.2l0,0
			c0,0.1-0.1,0.1-0.1,0.2l0,0C57.9,60,57.9,59.9,57.9,59.8L57.9,59.8z M58.3,59.2c0,0,0,0.1,0,0.1c-0.1,0.1-0.1,0.3-0.2,0.4l0,0
			l0,0.1c0-0.1,0-0.2,0-0.3C58.2,59.4,58.2,59.3,58.3,59.2z M58.1,52.8c0.1,0.9-0.2,1.7-0.2,2.6c0,1,0.2,1.9-0.1,2.9
			c-0.2,0.8-0.9,1.4-1.4,2.1c-0.5,0.6-0.8,1.2-1.2,1.9c-0.5,0.9-1.1,1.5-1.9,1.9c0-0.3,0-0.6,0-0.9c0,0,0.1,0,0.1-0.1
			c0.1,0,0-0.2-0.1-0.1l0,0c0-0.1,0-0.1,0-0.2c0.1,0,0.2-0.1,0.2-0.1c1.1-0.7,2.1-1.5,2.6-2.7c0.2-0.4,0.2-0.7,0.3-1.1
			c0-0.1,0.1-0.2,0.1-0.2c0.1-0.3,0-0.6,0-0.9c0-0.1,0-0.3,0-0.4c0.1-0.1,0.2-0.3,0.3-0.4c0.1-0.1-0.1-0.1-0.1-0.1
			c-0.1,0.1-0.1,0.2-0.2,0.3c0-0.3-0.1-0.5-0.1-0.8c0.1-0.2,0.1-0.4,0.2-0.6c0-0.1-0.1-0.1-0.1,0l0,0c0-0.1-0.1-0.1-0.1,0l0,0.1
			c0,0,0-0.1,0-0.1c0.1-0.1,0.2-0.3,0.2-0.4c0-0.1-0.1-0.1-0.1-0.1c0,0.1-0.1,0.2-0.1,0.3c-0.1-0.3-0.1-0.7-0.1-1
			c0.1-0.1,0.2-0.3,0.3-0.4c0.1-0.1-0.1-0.1-0.1-0.1c-0.1,0.1-0.1,0.2-0.2,0.2c0-0.2,0-0.4,0-0.6c0-0.2,0.1-0.3,0.1-0.5
			c0-0.1-0.1-0.1-0.1,0l0,0c0-0.2,0-0.4-0.1-0.6l0-0.1c0-0.1,0.1-0.2,0.1-0.3C56.1,52,56,52,56,52c0,0,0,0.1-0.1,0.1
			c0-0.1,0-0.2-0.1-0.3c0-0.1,0.1-0.2,0.1-0.4c0-0.1-0.1-0.1-0.1,0c0,0.1,0,0.1,0,0.2c0-0.1,0-0.1,0-0.2
			C56.8,51.1,58,51.4,58.1,52.8z M55.6,53.2c0,0.3,0,0.7,0.1,1l0,0.1c0-0.3-0.1-0.6-0.1-0.9C55.6,53.3,55.6,53.3,55.6,53.2z
			 M55.5,53c0-0.1,0-0.2,0-0.4c0,0,0-0.1,0.1-0.1c0,0.1,0,0.2,0,0.4C55.6,52.9,55.6,53,55.5,53z M55.7,54.5c0,0.1,0,0.3,0,0.4
			c0,0.1-0.1,0.2-0.1,0.2c0-0.1,0-0.2-0.1-0.4C55.6,54.7,55.7,54.6,55.7,54.5z M56.4,57.3c0,0-0.1,0.1-0.1,0.1
			c0-0.1-0.1-0.3-0.1-0.4c0-0.1,0.1-0.2,0.1-0.4C56.3,56.9,56.4,57.1,56.4,57.3z M56.3,56c0-0.1,0.1-0.1,0.1-0.2
			c0,0.1-0.1,0.2-0.1,0.3C56.3,56,56.3,56,56.3,56z M56.4,57.5L56.4,57.5c0,0.1,0,0.2,0,0.2l0,0.1C56.4,57.7,56.4,57.7,56.4,57.5
			C56.4,57.6,56.4,57.5,56.4,57.5z M56.1,56.8c0,0,0-0.1,0-0.1c0-0.2,0.1-0.3,0.2-0.5c0,0.1,0,0.1,0,0.2
			C56.2,56.5,56.1,56.7,56.1,56.8z M56,56.4c0-0.1,0-0.1-0.1-0.2l0,0c0.1-0.1,0.2-0.3,0.3-0.4c0,0,0,0.1,0,0.1
			C56.1,56.1,56,56.3,56,56.4z M56,55.8c0-0.1,0-0.2,0-0.3c0-0.1,0.1-0.2,0.1-0.3c0,0.1,0,0.1,0,0.2c0,0.1,0,0.1,0,0.2
			C56.1,55.7,56,55.8,56,55.8z M55.9,55.3c0-0.1,0-0.2,0-0.3c0-0.1,0.1-0.2,0.1-0.3c0,0.1,0,0.2,0,0.3C56,55.1,56,55.2,55.9,55.3z
			 M55.9,56L55.9,56c0,0-0.1-0.1-0.1-0.1c0,0,0-0.1,0-0.1C55.9,55.9,55.9,55.9,55.9,56L55.9,56z M55.8,54.7c0-0.1,0-0.3,0-0.4
			c0-0.1,0.1-0.2,0.1-0.4c0,0.2,0,0.3,0,0.5C55.9,54.5,55.9,54.6,55.8,54.7z M55.8,55.5c0,0,0,0.1-0.1,0.1c0-0.1,0-0.1-0.1-0.2
			c0-0.1,0-0.1,0.1-0.2C55.8,55.3,55.8,55.4,55.8,55.5z M55.8,53.9c0-0.3,0-0.7,0-1c0-0.1,0.1-0.2,0.1-0.3c0,0.3,0,0.6,0.1,0.9l0,0
			C55.9,53.6,55.8,53.8,55.8,53.9z M55.7,52.6c0-0.1,0-0.2,0-0.3c0-0.1,0-0.1,0.1-0.2c0,0.1,0,0.2,0.1,0.3
			C55.8,52.4,55.8,52.5,55.7,52.6z M55.6,51.5c0,0.1,0.1,0.3,0.1,0.4l0,0.1l0,0c0-0.1-0.1-0.1-0.1,0c0,0.1,0,0.2,0,0.3
			c0,0,0,0.1-0.1,0.1c0-0.3,0-0.5,0-0.8C55.5,51.5,55.6,51.5,55.6,51.5z M55.5,54.4L55.5,54.4l0,0.1c0-0.3-0.1-0.5-0.1-0.8l0-0.1
			C55.5,53.9,55.5,54.2,55.5,54.4z M55.4,53c0,0.1,0,0.3,0,0.4c0,0,0,0.1,0,0.1c0-0.1,0-0.2,0-0.3C55.4,53.1,55.4,53,55.4,53z
			 M55.4,51.6c0,0.3,0,0.7,0,1.1c0,0.1-0.1,0.1-0.1,0.2c0-0.4-0.1-0.8-0.2-1.2C55.2,51.7,55.3,51.6,55.4,51.6z M52.7,49
			c0.2-0.2,0.4-0.5,0.6-0.6c0.1,0,0.4,0.9,0.4,1c0.6,2,0.7,4.1,1.1,6.1c0.2,1.1,0.8,2.2,0.7,3.3c-0.1,1.1-0.9,2.1-1.8,2.7
			c-0.6,0.4-2,1.6-2.7,0.8L51,62.3c0,0,0-0.1,0-0.1c0-0.2-0.1-0.3-0.2-0.4c-0.1-0.3-0.1-0.8-0.1-1.1c0.4-0.2,0.7-0.5,1-0.8
			c0,0.1,0.1,0.2,0.1,0.2c0,0.1,0.2,0,0.1-0.1c-0.1-0.1-0.1-0.2-0.2-0.3c0.2-0.2,0.4-0.5,0.5-0.8c0,0,0.1,0.1,0.1,0.1
			c0.1,0.1,0.2,0,0.1-0.1c0-0.1-0.1-0.1-0.1-0.2c0.2-0.3,0.3-0.7,0.5-1c0.4,0,0.6-0.7,0.1-0.8c-0.1,0-0.3-0.1-0.4-0.1
			c0.1-0.1,0.1-0.2,0.2-0.3c0,0,0,0.1,0,0.1c0,0.1,0.2,0,0.1,0c0-0.1,0-0.1-0.1-0.2c0,0,0-0.1,0-0.1c0-0.1-0.1-0.2-0.1-0.3
			c0.1-0.2,0.2-0.4,0.3-0.7c0-0.1-0.1-0.1-0.1,0c-0.1,0.2-0.2,0.4-0.2,0.5c0-0.2-0.1-0.4-0.1-0.5c0.1-0.1,0.1-0.2,0.2-0.3
			c0-0.1-0.1-0.1-0.1-0.1c0,0.1-0.1,0.1-0.1,0.2c0-0.1,0-0.3-0.1-0.4c0.1-0.1,0.1-0.2,0.2-0.3c0.1,0.3,0.1,0.6,0.3,0.9
			c0,0.1,0.2,0,0.1,0c-0.1-0.3-0.2-0.7-0.3-1.1c0.1-0.2,0.2-0.5,0.3-0.7c0-0.1-0.1-0.1-0.1-0.1c-0.1,0.2-0.2,0.3-0.3,0.5
			c0-0.1,0-0.2,0-0.3c0.1-0.3,0.3-0.6,0.4-0.8c0-0.1-0.1-0.1-0.1-0.1c-0.1,0.2-0.2,0.4-0.3,0.7c0-0.3,0-0.6,0-0.9
			c0.1-0.4,0.2-0.7,0.2-1.1c0-0.1-0.1-0.1-0.1,0c0,0.2,0,0.4-0.1,0.6c0-0.3,0-0.6,0-0.9c0-0.1-0.1-0.1-0.1,0c0,0.4,0,0.8,0.1,1.2
			c0-0.2-0.1-0.4-0.1-0.6c0-0.4,0-0.9,0-1.3c0.1-0.2,0.3-0.4,0.5-0.5c0.1-0.1,0-0.2-0.1-0.1c-0.1,0.1-0.3,0.3-0.4,0.4
			c0-0.1,0-0.3,0-0.4c0,0,0.1-0.1,0.1-0.1c0.1-0.1,0-0.2-0.1-0.1l0,0l0,0c0,0,0-0.1-0.1-0.1C52.4,49.4,52.6,49.2,52.7,49z
			 M51.1,63.5c0-0.1,0-0.1,0-0.2c0.1,0,0.1,0,0.2,0l0,0.1C51.2,63.5,51.1,63.5,51.1,63.5z M51.2,63.6c0,0.1,0,0.2,0,0.3
			C51.2,63.8,51.2,63.7,51.2,63.6L51.2,63.6z M50.6,59.8c-0.1-0.2-0.1-0.4-0.1-0.6c0.1-0.1,0.2-0.2,0.3-0.4c0,0.2,0.1,0.4,0.1,0.6
			C50.8,59.5,50.7,59.7,50.6,59.8z M50.7,60.3L50.7,60.3c0-0.1-0.1-0.1-0.1-0.2l0-0.1C50.6,60.2,50.6,60.2,50.7,60.3z M50.5,59.9
			c0,0-0.1,0.1-0.1,0.1c-0.1,0-0.2,0-0.3,0c0-0.1-0.1-0.3-0.1-0.4c0.1-0.1,0.3-0.3,0.4-0.4C50.4,59.5,50.4,59.7,50.5,59.9z
			 M51.1,58.3c-0.1,0.1-0.2,0.3-0.3,0.4c0.1-0.2,0.2-0.3,0.3-0.5L51.1,58.3L51.1,58.3z M52.3,55.2c0-0.1,0.1-0.1,0.1-0.2
			c0,0.2,0.1,0.3,0.1,0.5c-0.1,0.2-0.2,0.4-0.3,0.6c0-0.2,0-0.4,0-0.5C52.2,55.4,52.2,55.3,52.3,55.2z M52.2,50.9
			c0,0,0.1-0.1,0.1-0.1c0,0.2,0,0.4,0,0.6C52.2,51.2,52.2,51,52.2,50.9z M52.4,54c0-0.3,0-0.6,0-0.9c0-0.1,0.1-0.1,0.1-0.2
			c0,0.3,0,0.5,0,0.8C52.5,53.8,52.5,53.9,52.4,54z M52.6,54c0,0.1,0,0.2,0,0.3c-0.1,0.1-0.1,0.2-0.2,0.3l0-0.1c0,0,0-0.1-0.1,0
			c0-0.1,0-0.1,0-0.2C52.5,54.2,52.5,54.1,52.6,54z M52.4,52.8c0-0.2,0-0.3-0.1-0.5v0c0,0.1,0,0.1,0,0.2c0,0.1,0.1,0.1,0.1,0l0,0
			C52.5,52.6,52.4,52.7,52.4,52.8z M52.5,55.7c0,0.2,0.1,0.3,0.1,0.5c-0.1,0.2-0.3,0.4-0.4,0.7c0-0.2-0.1-0.3-0.1-0.5
			C52.3,56.1,52.4,55.9,52.5,55.7z M51.4,59.3c-0.1,0.1-0.2,0.2-0.3,0.4c0-0.1-0.1-0.2-0.1-0.3c0.1-0.1,0.2-0.2,0.2-0.4
			C51.3,59.1,51.4,59.2,51.4,59.3z M51.4,58.9c0.1-0.1,0.1-0.3,0.2-0.4c0.1,0.1,0.1,0.2,0.2,0.3c-0.1,0.1-0.2,0.3-0.3,0.4
			C51.4,59.1,51.4,59,51.4,58.9z M51.1,60c0,0.1,0.2,0,0.1-0.1l0-0.1c0.1-0.1,0.2-0.2,0.3-0.4c0.1,0.1,0.1,0.2,0.2,0.3
			c-0.2,0.3-0.5,0.5-0.7,0.7v0c0-0.1-0.1-0.1-0.1-0.2C50.9,60.2,51,60.1,51.1,60L51.1,60z M51.6,59.3c0.1-0.1,0.2-0.3,0.3-0.4
			c0.1,0.1,0.1,0.2,0.2,0.3c-0.1,0.2-0.2,0.3-0.3,0.5C51.7,59.6,51.6,59.5,51.6,59.3z M51.9,58.8c0.1-0.1,0.1-0.1,0.1-0.2
			c0,0.1,0.1,0.2,0.1,0.3c0,0.1-0.1,0.1-0.1,0.2C52.1,59,52,58.9,51.9,58.8z M52.2,58.4c0.1-0.2,0.2-0.4,0.3-0.6l0,0
			c0.1,0,0.2,0,0.2,0c-0.1,0.3-0.3,0.6-0.4,0.9C52.2,58.7,52.2,58.5,52.2,58.4z M52.5,57.1c0,0-0.1,0-0.1,0c0.1-0.2,0.2-0.5,0.4-0.7
			c0,0.1,0,0.1,0.1,0.2C52.7,56.7,52.6,56.9,52.5,57.1z M52.4,57.8c-0.1,0.1-0.2,0.3-0.2,0.4c0-0.1,0-0.2,0-0.3c0-0.1-0.1-0.1-0.1,0
			c0,0.1,0,0.3,0.1,0.4c-0.1,0.1-0.1,0.2-0.2,0.3c-0.1-0.1-0.1-0.2-0.2-0.3c0-0.1,0.1-0.2,0.1-0.3c0-0.1-0.1-0.1-0.1,0
			c0,0.1-0.1,0.1-0.1,0.2c0-0.1-0.1-0.1-0.1-0.2l0.1,0c0.1-0.1,0.3-0.2,0.5-0.2c0,0,0.1,0,0.1,0C52.2,57.8,52.3,57.8,52.4,57.8z
			 M51.5,58.4c-0.1,0.1-0.1,0.2-0.2,0.4c0-0.1-0.1-0.3-0.1-0.4c0,0,0.1-0.1,0.1-0.1l0,0l0,0C51.4,58.2,51.4,58.3,51.5,58.4z
			 M51.2,58.9c-0.1,0.1-0.2,0.2-0.2,0.4c0-0.2-0.1-0.4-0.1-0.6c0.1-0.1,0.1-0.2,0.2-0.2C51.1,58.6,51.2,58.7,51.2,58.9z M50.9,59.5
			c0,0.1,0.1,0.2,0.1,0.3c-0.1,0.1-0.2,0.3-0.3,0.4c0-0.1-0.1-0.2-0.1-0.2C50.7,59.8,50.8,59.7,50.9,59.5z M50.7,60.4
			c0,0,0,0.1,0.1,0.1l0,0c0,0-0.1,0-0.1,0.1C50.7,60.6,50.7,60.5,50.7,60.4L50.7,60.4z M52.1,49.8C52.1,49.8,52.2,49.7,52.1,49.8
			C52.2,49.7,52.2,49.8,52.1,49.8c0.1,0.1,0,0.1,0,0.2C52.1,49.9,52.1,49.9,52.1,49.8L52.1,49.8z M52.1,50.2c0,0,0.1-0.1,0.1-0.1
			c0,0.1,0,0.3,0,0.4c0,0.1-0.1,0.1-0.1,0.2l0-0.1C52.1,50.5,52.1,50.3,52.1,50.2z M52,56.3c-0.1,0.2-0.2,0.4-0.3,0.6
			c0,0.1,0.1,0.1,0.1,0.1c0.1-0.1,0.1-0.3,0.2-0.4c0,0.1,0.1,0.3,0.1,0.4l0,0l0,0c-0.2,0-0.4,0-0.6,0.1c0.2-0.4,0.3-0.7,0.4-1.1
			C52,56.1,52,56.2,52,56.3z M52,50.6l0,0.3c0,0,0,0.1-0.1,0.1c0-0.1-0.1-0.2-0.1-0.3c0.1-0.1,0.1-0.2,0.2-0.3
			C51.9,50.5,51.9,50.6,52,50.6z M51.7,50.5c0.1-0.1,0.1-0.2,0.2-0.3c0,0,0,0.1,0,0.1C51.8,50.4,51.7,50.5,51.7,50.5L51.7,50.5
			L51.7,50.5z M59.4,21L59.4,21c0-0.1,0-0.1,0.1-0.2c0.1-0.2,0.4-0.3,0.6-0.3c0.2,0.1,0.3,0.2,0.4,0.3c0.2,0.2,0.5,0.3,0.8,0.3
			c0.4,0,0.8,0,1.1,0.2c0.3,0.2,0.6,0.6,0.7,0.9c0.1,0.2,0.1,0.5,0.3,0.8c0.1,0.1,0.2,0.2,0.3,0.4c0,0.1,0,0.1-0.1,0.1
			c0,0,0,0.1,0,0.1c-0.2,0-0.7,0.1-0.9,0c-0.1-0.1-0.1-0.2-0.1-0.3c0,0,0-0.1,0-0.1c0.2-0.2,0.3-0.6,0.3-0.8c0-0.1-0.2-0.1-0.2,0
			c0,0.2,0,0.5-0.2,0.7c-0.1-0.2-0.2-0.3-0.4-0.4c0,0-0.1,0-0.1-0.1c-0.2-0.1-0.4-0.2-0.6-0.4c-0.2-0.1-0.4-0.2-0.6-0.3l0,0
			c0-0.4-0.2-0.6-0.6-0.7c-0.1,0-0.2,0.1-0.1,0.2c0.2,0.1,0.4,0.3,0.4,0.5c-0.3-0.1-0.6-0.2-1-0.2l0,0l0,0
			C59.5,21.5,59.4,21.3,59.4,21C59.4,21.1,59.4,21,59.4,21z M29,23.1c0.1-0.1,0.2-0.3,0.3-0.4c0.2-0.2,0.2-0.5,0.3-0.8
			c0.1-0.3,0.5-0.7,0.8-0.9c0.3-0.2,0.7-0.2,1.1-0.2c0.3,0,0.6-0.1,0.8-0.3c0.1-0.1,0.3-0.2,0.4-0.3c0.2-0.1,0.6,0.1,0.6,0.3
			c0,0.1,0,0.1,0,0.2l0,0c0,0,0,0.1,0,0.1c0,0.2-0.1,0.4-0.2,0.5l0,0l0,0c-0.3,0-0.7,0-1,0.1c0-0.2,0.2-0.4,0.4-0.5
			c0.1,0,0.1-0.2-0.1-0.2c-0.3,0.1-0.6,0.4-0.6,0.7l0,0c-0.2,0.1-0.4,0.2-0.6,0.3c-0.2,0.1-0.4,0.2-0.6,0.3c0,0,0,0.1-0.1,0.1
			c-0.2,0.1-0.3,0.3-0.4,0.4c-0.1-0.2-0.1-0.5-0.1-0.7c0-0.1-0.2-0.1-0.2,0c0,0.3,0,0.6,0.2,0.9c0,0,0,0.1,0,0.1
			c0,0.1,0,0.2-0.1,0.2c-0.2,0.2-0.7,0.1-0.9,0c0,0-0.1,0,0-0.1C29,23.2,28.9,23.2,29,23.1z M30.4,30.2c-3.7-5.2,1.1-7.9,1.1-7.9
			c0.9-0.4,2.4-0.9,4.5,0.6c1.6,1.2,3.8,3.7,6.8,4.8c0-0.2,0-0.4,0-0.6c0-0.1,0.1-1.7,0.1-1.8c0-0.2,0-0.2,0.2-0.2
			c0.1,0,0.1,0,0.1,0.1c0,0.1,0,1.8,0,1.9c0,0.2,0,0.5,0,0.7c0.5,0.2,1.1,0.3,1.6,0.3c0-0.6,0.1-2.4,0.1-2.8c0-0.1,0-0.1,0-0.2
			c0-0.1,0-0.1,0.1-0.1c0,0,0.1,0,0.1,0c0.1,0,0.1,0,0.1,0.1c0,0.5,0,2,0,3l0,0c0.3,0,0.5,0,0.8,0c0.3,0,0.7,0,1,0
			c0-0.2,0-0.3,0-0.5c0-0.3,0.1-2.2,0.1-2.5c0,0,0-0.1,0-0.1c0,0,0-0.1,0.1-0.1c0.1,0,0.1,0,0.2,0c0,0,0.1,0,0.1,0.1
			c0,0.1,0,0.1,0,0.2c0,0.4,0,1.9,0,2.8c0.6-0.1,1.1-0.2,1.6-0.3c0-0.2,0-0.4,0-0.6c0-0.1,0.1-1.9,0.1-2c0,0,0-0.1,0.1-0.1
			c0.1,0,0.1,0,0.2,0c0.1,0,0.1,0,0.1,0.1c0,0.1,0,1.9,0,2.1c0,0.1,0,0.2,0,0.3c2.9-1.1,5.1-3.6,6.6-4.7c2.1-1.6,3.7-1.1,4.5-0.6
			c0,0,4.8,2.7,1.1,7.9c-2.4,3.4-5.2,5.2-7.9,6.2c-2.7,1-5.5,1.1-7.9,1.4C41.3,37.3,35.2,37.1,30.4,30.2z M38.5,73.6
			c0-0.3,0-0.7,0-1c-0.5-1.4-1-2.8-1.3-4.2c-0.8-3.4,0.5-6.8,0.4-10.2c0-0.1,0-0.2-0.1-0.2c0.6-1.1,0.8-2.4,1.4-3.5
			c0.7-1.3,1.6-2.5,2.5-3.7c0.9-1.2,2-2.3,3.4-3.2v2.7l0,0c0,0.1,0.1,0.2,0.2,0.4c0.1-0.1,0.1-0.1,0.2-0.2l0,0V48H45
			c0-0.6,0-1.1,0.1-1.4c0-0.2,0-0.4,0-0.6c0,0,0-0.1,0-0.1h-0.1c0-0.1,0-0.1,0-0.2c0,0-0.1,0-0.1,0c-0.2-0.1-0.4-0.2-0.6-0.4
			c-0.6-0.4-1-0.8-1.3-1.4c-0.2-0.4-0.3-0.8-0.5-1.2c-0.1-0.3-0.1-0.5-0.2-0.8c0-0.2,0-0.3-0.1-0.5c0,0,0-0.1-0.1-0.1v-1
			c0.1,0,0.1-0.1,0.1-0.1c0-0.2,0-0.4,0-0.6c0-0.5,0-0.9,0.1-1.4c0.5,0.1,0.9,0.1,1.4,0.1c0,0.1,0,0.2,0,0.3l0,0.1
			c0,0.2,0.2,0.3,0.4,0.2c0,0,0.1,0,0.1-0.1c0,0,0.1-0.1,0.1-0.2c0-0.1,0-0.2,0-0.3c0.4,0,0.7,0,1,0c0.1,0,0.2,0,0.4,0
			c0,0.1,0,0.3,0,0.4c0,0.2,0.1,0.4,0.2,0.5c0.1,0.1,0.1,0.1,0.2,0c0.1-0.1,0.2-0.3,0.2-0.5c0-0.2,0-0.3,0-0.5c0.5,0,0.9,0,1.4,0
			c0,0.1,0,0.2,0,0.3l0,0.1c0,0.1,0.1,0.2,0.2,0.2c0,0,0.1,0,0.1,0c0.1,0,0.2-0.1,0.2-0.3c0-0.1,0-0.2,0-0.3c0-0.1,0-0.1,0-0.2
			c0.5-0.1,1-0.1,1.4-0.2c0,0.9,0,1.8,0,2.7c0,0.5,0,1,0,1.4c0,0.3-0.1,0.7-0.1,1c-0.2,0.7-0.5,1.4-1.1,1.9l0,0
			c-0.1,0.1-0.2,0.1-0.3,0.2c-0.2,0.2-0.5,0.4-0.8,0.5c-0.1,0-0.1,0.1-0.1,0.1l0,0.1v0l0,0v0.6c0.3,0.1,0.5,0.3,0.7,0.6l0,0v0
			c0.8,1.4,2,2.5,2.8,3.9c1.3,2.5,0.2,5.4-1.2,7.5c-0.2,0.3,0.2,0.7,0.5,0.6c-0.1,0.1-0.3,0.3-0.4,0.4c-0.2-0.6-0.4-1.3-0.6-2
			c-0.2-0.9-0.3-1.9-0.5-2.8c-0.1-0.8-0.4-1.5-0.6-2.3c0,0,0.1-0.1,0.1-0.1c0.2-0.3,0.4-0.5,0.7-0.6c0.2-0.1,0.3-0.3,0.3-0.5
			c-0.1-0.2-0.3-0.4-0.5-0.3c-0.4,0.1-0.7,0.4-1,0.7c-0.1-0.1-0.2-0.3-0.3-0.4l0,0c-0.5-0.7-1.2-1-2.1-0.4c-0.2,0.1-0.4,0.3-0.5,0.4
			c-0.1-0.1-0.1-0.2-0.2-0.4v0c-0.1-0.3-0.2-0.7-0.2-1.1c0-0.5-0.8-0.5-0.8,0c-0.1,0.7,0.2,1.3,0.5,1.9c0,0.1,0.1,0.2,0.2,0.2
			c-0.3,0.4-0.5,0.8-0.7,1.2c0-0.3,0-0.7,0.1-1c0-0.1-0.1-0.1-0.1,0c-0.1,0.4-0.1,0.9-0.1,1.3c-0.2,0.5-0.4,1.1-0.5,1.6
			c0-0.1,0-0.1,0-0.2c0.2-0.4,0.3-0.9,0.4-1.4c0-0.1-0.1-0.1-0.1,0c-0.1,0.4-0.2,0.7-0.3,1.1c0-0.4-0.1-0.7-0.1-1.1
			c0-0.1-0.1-0.1-0.1,0c0,0.5,0.1,0.9,0.1,1.4c-0.1,0.3-0.2,0.5-0.3,0.8c0-0.1,0-0.1,0-0.2c0-0.1-0.1,0-0.1,0c0,0.1,0.1,0.2,0.1,0.4
			c-0.1,0.2-0.2,0.4-0.3,0.6c0-0.2-0.1-0.5-0.1-0.8c0-0.1-0.1-0.1-0.1,0c0,0.3,0.1,0.6,0.1,1c-0.1,0.2-0.2,0.4-0.3,0.6
			c-0.1-0.2-0.1-0.5-0.2-0.7c0-0.1-0.2,0-0.1,0c0.1,0.3,0.1,0.6,0.2,0.9c-0.1,0.2-0.2,0.3-0.3,0.4c-0.1,0-0.1-0.1-0.1-0.2
			c-0.3-0.4-1,0-0.7,0.4c0.1,0.1,0.2,0.2,0.2,0.3c0,0.4,0,0.9,0,1.3c0,0.1-0.1,0.1-0.1,0.2c0,0.1,0.1,0.1,0.1,0.1l0,0
			c0,0.2,0,0.4,0,0.6c-0.2,0.2-0.4,0.4-0.6,0.7c-0.1,0.1,0,0.2,0.1,0.1c0.2-0.2,0.3-0.4,0.5-0.6c0.1,0.7,0.1,1.5,0.2,2.2
			c-0.3,0.4-0.6,0.9-1,1.3c-0.1,0.1,0.1,0.1,0.1,0.1c0.3-0.4,0.6-0.8,0.9-1.2c0,0.3,0.1,0.6,0.1,1c-0.1,0.1-0.2,0.3-0.2,0.4
			c0,0.1,0.1,0.1,0.1,0.1c0.1-0.1,0.1-0.2,0.2-0.3c0.1,0.3,0.1,0.7,0.2,1c0,0,0,0.1,0,0.1c0,0.1,0,0.1,0.1,0.1
			c0,0.2,0.1,0.5,0.1,0.7c0,0.1,0.1,0.1,0.1,0c0,0.1-0.1,0.1-0.1,0.2c-0.2,0.5-0.4,1.1-0.4,1.7c-0.1,0.5,0.7,0.5,0.8,0
			c0.2-1.5,1.4-2.6,1.4-4.2c0-0.9-0.1-1.8-0.1-2.6c0-1,0-2,0.2-3c0.2-1.8,0.5-3.5,1.4-5.1c0-0.1,0.1-0.1,0.1-0.2
			c0.3-0.5,0.9-1.4,1.5-1.4c0.1,0,0.3,0.1,0.4,0.2c0.4,0.3,0.6,0.9,0.8,1.5c0,0.2,0.1,0.3,0.1,0.4c0.5,1.6,0.5,3.4,1.1,5
			c0.2,0.6,0.4,1.1,0.5,1.7c-0.1,0.1-0.1,0.1-0.2,0.2c-0.1,0.1,0,0.2,0.1,0.1c0,0,0.1-0.1,0.1-0.1c0.1,0.3,0.2,0.5,0.2,0.8
			c0.3,0.9,0.4,1.9,0.7,2.8C50.2,64,50.1,64,50,64c-0.1,0,0,0.2,0.1,0.1c0,0,0.1,0,0.1-0.1c0.4,1.5,1,2.9,1.3,4.5
			c-0.1,0.1-0.1,0.2,0,0.4c0.1,0.1,0.1,0.3,0.2,0.4c0,0.1,0,0.2,0,0.4c0.1,1.5-0.2,3.1-0.2,4.6c-0.1,0.5-0.3,0.9-0.5,1.4
			c-0.9,2.2-2.5,4-3.4,6.2c-0.2,0.1-0.2,0.3-0.2,0.4c-0.1,0.1-0.1,0.3-0.1,0.4c-0.2,0.5,0.6,0.7,0.8,0.2c0-0.1,0.1-0.2,0.1-0.3
			c0.2,0,0.3,0,0.5-0.1l0,0.1c-0.3,0.2-0.6,0.5-0.9,0.8c-0.1,0.1,0,0.2,0.1,0.1c0.3-0.3,0.5-0.5,0.8-0.8l0,0.1c0,1,0,2,0,3l-0.1,0
			c0-0.6-0.1-1.3-0.1-1.9c0-0.1-0.1-0.1-0.1,0c0.1,0.7,0.1,1.3,0.2,2c-0.2,0.1-0.3,0.2-0.5,0.3c-0.1,0,0,0.2,0.1,0.1
			c0.1-0.1,0.3-0.2,0.4-0.2c0,0.2,0,0.5,0,0.8c-0.6,0-1.1,0-1.7,0c-2.9,0-5.7-0.3-8.5-0.9c0-3.7,0-7.4,0.1-11.1c0,0.1,0,0.1,0.1,0.2
			C38.5,74.6,38.5,74.1,38.5,73.6z M41.6,65.2c0.1-0.3,0.2-0.5,0.3-0.8c0.1-0.2,0.2-0.4,0.4-0.7c0,0.1,0,0.2,0,0.4
			c0,0.1,0.1,0.1,0.1,0c0-0.2,0-0.4,0-0.6c0,0,0-0.1,0.1-0.1c0-0.1,0-0.1-0.1-0.1c0-0.7,0-1.3,0-2l0,0c0,0.9,0.1,1.8,0.1,2.7
			c0,0.8-0.5,1.4-0.8,2.1v0C41.7,65.7,41.6,65.4,41.6,65.2z M42.3,59.2L42.3,59.2C42.3,59.2,42.3,59.2,42.3,59.2
			c0.1,0.1,0.1,0.3,0,0.5c0,0-0.1,0.1-0.1,0.1c0-0.2,0-0.3,0-0.5l0,0C42.3,59.3,42.3,59.2,42.3,59.2z M42.3,59.9
			c0,0.4-0.1,0.9-0.1,1.3c0,0,0,0.1-0.1,0.1c0-0.4,0-0.8,0.1-1.3C42.2,60,42.3,60,42.3,59.9z M42.2,61.5c0,0.3,0,0.6,0,0.9l0,0
			c0,0,0,0.1-0.1,0.1C42.1,62.2,42.1,61.9,42.2,61.5C42.2,61.5,42.2,61.5,42.2,61.5z M41.5,62.2c0-0.4,0-0.7,0.1-1.1
			c0.2-0.2,0.3-0.5,0.5-0.8c0,0.4,0,0.8-0.1,1.2C41.8,61.7,41.7,61.9,41.5,62.2z M42,61.7c0,0.3,0,0.6,0,1c-0.2,0.2-0.3,0.5-0.5,0.7
			c0-0.2,0-0.4,0-0.6c0-0.1,0-0.3,0-0.4C41.7,62.2,41.8,62,42,61.7z M41.6,60.8c0-0.3,0-0.7,0-1c0.2-0.1,0.3-0.3,0.5-0.4
			c0,0.2,0,0.4,0,0.6C41.9,60.3,41.8,60.5,41.6,60.8z M42.1,59.2c-0.2,0.1-0.3,0.2-0.5,0.4c0-0.2,0-0.4,0-0.6l0,0
			c0.2,0.1,0.3,0.1,0.5,0.2C42.1,59.2,42.1,59.2,42.1,59.2z M41.9,58.2c-0.1,0-0.1-0.1-0.2-0.1l0,0c-0.1,0-0.1-0.1-0.2-0.1
			c0.1-0.1,0.2-0.2,0.3-0.3C41.8,57.8,41.8,58,41.9,58.2z M41.9,57.4c0.1-0.2,0.2-0.4,0.3-0.6c0.1,0.3,0.1,0.7,0.2,1
			c-0.1,0.1-0.2,0.2-0.4,0.3C42,57.9,41.9,57.7,41.9,57.4z M41.6,58.9L41.6,58.9c0,0-0.1,0.1-0.1,0.1c0,0,0-0.1,0-0.1
			C41.5,58.9,41.5,58.9,41.6,58.9z M41.5,59.1c0,0.2,0,0.4,0,0.7l-0.1,0.1C41.4,59.6,41.4,59.4,41.5,59.1
			C41.5,59.1,41.5,59.1,41.5,59.1z M41.5,59.9c0,0.4,0,0.7-0.1,1.1l0,0C41.4,60.7,41.4,60.3,41.5,59.9L41.5,59.9z M41.4,63.9
			c0,0.1,0.1,0.1,0.1,0c0-0.1,0-0.2,0-0.3c0.1-0.2,0.3-0.5,0.4-0.7v0c0,0.1,0.1,0.1,0.1,0c0-0.1,0-0.2,0-0.3c0,0,0-0.1,0.1-0.1
			c0,0.3,0,0.5,0,0.8c0,0.1-0.1,0.2-0.1,0.3c0-0.1,0.1-0.2,0.1-0.3c0-0.1-0.1-0.1-0.1-0.1c-0.1,0.3-0.3,0.7-0.4,1
			c-0.1,0.1-0.1,0.3-0.2,0.4C41.5,64.5,41.4,64.3,41.4,63.9C41.4,64,41.4,64,41.4,63.9z M42.5,58.4c-0.1,0-0.2-0.1-0.4-0.1
			c0.1-0.1,0.2-0.2,0.3-0.3c0,0,0.1,0,0.1,0c0,0,0-0.1,0-0.1l0,0C42.5,58,42.5,58.2,42.5,58.4z M42.5,57.7c-0.1-0.4-0.1-0.7-0.2-1.1
			c0.1-0.2,0.2-0.4,0.3-0.6c0,0.3,0.1,0.5,0.1,0.8c0,0.2-0.1,0.5-0.1,0.7C42.5,57.6,42.5,57.7,42.5,57.7z M42.7,55.9
			c0.1-0.2,0.2-0.4,0.3-0.7c0,0.1,0,0.2,0,0.3c-0.1,0.3-0.1,0.7-0.2,1C42.7,56.3,42.7,56.1,42.7,55.9z M41.3,59.3c0,0.2,0,0.4,0,0.6
			c-0.1,0.1-0.2,0.2-0.3,0.4c0-0.2,0-0.4,0-0.6C41,59.5,41.2,59.4,41.3,59.3z M40.9,59.5c0-0.3,0-0.7,0-1c0.1,0.1,0.3,0.2,0.4,0.3
			c0,0.1,0,0.2,0,0.3C41.2,59.2,41,59.3,40.9,59.5z M41.3,60.1c0,0.4,0,0.7,0,1.1c-0.1,0.1-0.2,0.2-0.3,0.3c0-0.4-0.1-0.7-0.1-1.1
			C41.1,60.3,41.2,60.2,41.3,60.1z M41.1,61.7c0.1-0.1,0.2-0.2,0.2-0.3c0,0.3,0,0.7,0,1c-0.1,0.1-0.1,0.1-0.2,0.2
			C41.1,62.3,41.1,62,41.1,61.7L41.1,61.7z M41.4,62.6c0,0.1,0,0.1,0,0.2c0,0.3,0,0.6,0,0.9c0-0.3-0.1-0.6-0.1-0.8
			C41.3,62.8,41.3,62.7,41.4,62.6z"/>
		<path fill="#F7F8F3" d="M50.6,93.4L50.6,93.4c0-0.1,0.1-0.1,0.1-0.2c0.1-0.1,0.1-0.3,0.1-0.5c0-0.2,0-0.5-0.1-0.7l0,0
			c-1.3,0.1-2.5,0.2-3.8,0.2c-3.2,0-6.3-0.3-9.3-1c0,0.5,0,1,0,1.5c3,0.6,6.2,0.9,9.4,0.9c1.3,0,2.6-0.1,3.8-0.2
			C50.6,93.5,50.6,93.4,50.6,93.4L50.6,93.4z"/>
		<path fill="#F7F8F3" d="M46.7,62.9c-0.8-0.2-1.5-0.2-2.3-0.3c-0.5,0-0.5,0.8,0,0.8c0.7,0.1,1.4,0.1,2.1,0.2
			C47,63.8,47.2,63,46.7,62.9z"/>
		<path fill="#F7F8F3" d="M44.7,55.9c0.8-0.1,1.6,0.2,2.4-0.1c0.9-0.4,0.4-1.9,0.1-2.5c-0.3-0.8-1.1-1.1-1.8-0.5
			c-0.6,0.5-1,1.5-1,2.2c0,0.1,0,0.2,0.1,0.2C44.2,55.4,44.2,55.9,44.7,55.9z M45.2,55c0-0.5,0.2-1.1,0.6-1.5
			c0.1-0.1,0.2-0.3,0.4-0.3c0.2,0,0.3,0.5,0.4,0.7c0.1,0.3,0.2,0.6,0.2,0.9c0,0.3-0.1,0.3-0.4,0.3c-0.4,0-0.7,0-1.1-0.1
			C45.2,55.1,45.2,55,45.2,55z"/>
		<path fill="#F7F8F3" d="M44.3,59.6c1.2,0.1,2.3,0.1,3.5,0.4c0.5,0.2,0.7-0.6,0.2-0.8c-1.2-0.4-2.5-0.4-3.7-0.5
			C43.8,58.7,43.8,59.5,44.3,59.6z"/>
		<path fill="#F7F8F3" d="M60.4,30c-0.2,0.4-0.5,0.8-0.8,1.1c-0.3,0.3,0.2,0.8,0.5,0.5c0.4-0.4,0.7-0.8,0.9-1.3
			C61.2,30,60.6,29.6,60.4,30z"/>
		<path fill="#F7F8F3" d="M43.9,35.9c-1.6,0-3.2-0.4-4.7-0.9c-1.3-0.5-2.8-1-3.8-1.9c-0.3-0.3-0.8,0.2-0.5,0.5c1.1,1,2.6,1.4,3.9,2
			c1.6,0.6,3.4,1,5.1,1C44.3,36.6,44.3,35.9,43.9,35.9z"/>
		<path fill="#F7F8F3" d="M46.6,30.6c0.1,0.1,0.1,0.1,0.2,0.2c0.2,0.1,0.4,0,0.5-0.2c0-0.2,0-0.3,0.1-0.5c0.4,0.2,0.7,0.3,1.2,0.3
			c0.2,0,0.4-0.2,0.3-0.4l0-0.1c0.2,0.1,0.4,0.1,0.6,0.1c0.3,0,0.5-0.3,0.6-0.5l0.1,0c0.1,0.1,0.4,0.1,0.5-0.1
			c0.1-0.2,0.1-0.4,0.3-0.2c0.2,0.1,0.3,0.1,0.5,0.1c0.2,0,0.3-0.1,0.4-0.2c0.2-0.2,0.1-0.4,0.4-0.2c0.2,0.2,0.6,0.6,1,0.4
			c0.2-0.1,0.3-0.1,0.5-0.3c0.1-0.1,0.2-0.5,0.3-0.4c0.2,0.1,0.4-0.1,0.4-0.2c0-0.1,0-0.2,0-0.3c0.1,0,0.2-0.1,0.2-0.2
			c0-0.1,0.1-0.1,0.1-0.2l0,0c0.2,0.2,0.4,0.3,0.6,0.4c0.2,0.1,0.4-0.1,0.4-0.3c0-0.2,0-0.3,0-0.5c0,0,0.1,0,0.1,0.1
			c0.1,0.1,0.4,0.1,0.5-0.1c0.1-0.3,0.1-0.6,0.2-1c0.2,0.1,0.4,0.2,0.6,0.3c0.2,0.1,0.4,0,0.5-0.2c0.1-0.2,0.1-0.5,0.1-0.7
			c0,0,0.1,0,0.1,0c0.2,0.1,0.4-0.1,0.4-0.3c0-0.1,0-0.3,0-0.4l0.1,0c0.2,0.1,0.4-0.1,0.4-0.2c0-0.1,0-0.2,0.1-0.2
			c0.4,0.1,0.6-0.1,0.7-0.5l0.1,0c0.5-0.1,1-0.1,1.3,0.3c0.4,0.4,0.5,0.9,0.6,1.4c0.1,0.4,0.7,0.2,0.6-0.2c-0.1-0.6-0.3-1.3-0.8-1.8
			c-0.5-0.5-1.2-0.5-1.9-0.4c-0.1,0-0.2,0.1-0.2,0.1c-0.2,0-0.3,0.1-0.3,0.3c-0.1,0-0.1,0-0.2,0c-0.1-0.1-0.3,0-0.4,0.2
			c0,0.1-0.1,0.2-0.1,0.3c-0.1,0-0.1-0.1-0.2-0.1c-0.2-0.2-0.5,0.1-0.5,0.3c0,0.2,0,0.4,0,0.5c0,0-0.1,0-0.1,0
			c-0.2,0-0.4,0.1-0.4,0.3c0,0.2,0,0.4,0,0.5c-0.2-0.1-0.3-0.2-0.5-0.3c-0.2-0.1-0.4,0-0.5,0.2c-0.1,0.3-0.1,0.6-0.1,0.9
			c-0.1-0.1-0.2-0.2-0.3-0.2c-0.3-0.2-0.6,0-0.6,0.3c0,0.2,0.1,0.4,0.1,0.5C55,27.1,54.8,27,54.7,27c-0.2,0-0.4,0.1-0.5,0.3l0,0
			c-0.2-0.3-0.6,0-0.6,0.3c0,0.1,0,0.2,0,0.4c-0.2,0.1-0.4,0.3-0.5,0.5c-0.2,0.4-0.5,0-0.6-0.1c-0.2-0.2-0.4-0.3-0.6-0.3
			c-0.2,0-0.4,0.1-0.5,0.2c-0.1,0.1-0.1,0.2-0.2,0.3c0,0.1-0.2-0.1-0.3-0.1c-0.4-0.2-0.7,0-0.8,0.3l0-0.1c-0.2-0.2-0.5-0.1-0.6,0.1
			c-0.1,0.2-0.1,0.6-0.4,0.5c-0.2-0.1-0.5-0.2-0.7-0.4c-0.2-0.1-0.5,0-0.5,0.3c0,0.1,0,0.3,0.1,0.4c-0.3-0.1-0.5-0.2-0.8-0.4
			c-0.2-0.1-0.4,0-0.5,0.2c0,0.1,0,0.1-0.1,0.2c-0.2-0.1-0.4-0.1-0.5,0.1c-0.1,0.1-0.1,0.2-0.1,0.3l-0.1,0.1c-0.1,0.2-0.1,0.2-0.1,0
			c-0.2-0.2-0.4-0.4-0.6-0.6c-0.1-0.1-0.4,0-0.5,0.1c-0.1,0.1-0.1,0.3-0.2,0.4c-0.3-0.3-0.5-0.7-0.8-1.1c-0.1-0.1-0.4-0.1-0.5,0
			c-0.1,0.1-0.3,0.5-0.4,0.5c-0.2-0.2-0.3-0.5-0.4-0.7c-0.2-0.2-0.4-0.2-0.6,0c-0.1,0.1-0.1,0.2-0.2,0.3c0-0.1-0.1-0.2-0.2-0.3
			c-0.1-0.2-0.4-0.2-0.5-0.1C41,29,41,29.2,40.9,29.3c-0.2-0.3-0.3-0.7-0.5-1.1C40.3,28,40,28,39.9,28.2c-0.1,0.1-0.2,0.2-0.3,0.3
			c-0.1-0.2-0.1-0.5-0.2-0.7c-0.1-0.2-0.4-0.2-0.5-0.1c-0.1,0.1-0.2,0.3-0.3,0.4c-0.1-0.5,0-1-0.3-1.4c-0.1-0.2-0.3-0.2-0.5-0.1
			l0-0.1c0-0.2-0.3-0.4-0.5-0.3c-0.1,0.1-0.2,0.1-0.3,0.2c0-0.2,0.1-0.4,0-0.7c0-0.2-0.3-0.4-0.5-0.3c-0.2,0.1-0.3,0.3-0.5,0.5
			c0.1-0.3,0.2-0.6,0.2-0.9c0-0.3-0.4-0.4-0.6-0.2c-0.1,0.1-0.2,0.2-0.2,0.3c0.1-0.3,0.2-0.5,0.2-0.8c0-0.3-0.3-0.4-0.5-0.3
			c-0.2,0.1-0.4,0.2-0.6,0.3c0.1-0.2,0.1-0.5,0.2-0.7c0.1-0.3-0.2-0.5-0.5-0.4c-0.7,0.3-1.3,0.7-1.9,1c-0.4,0.2,0,0.8,0.3,0.6
			c0.4-0.2,0.8-0.5,1.2-0.7c-0.1,0.2-0.1,0.4-0.2,0.6c-0.1,0.2,0.2,0.5,0.4,0.4c0.2-0.1,0.4-0.2,0.6-0.3c-0.1,0.4-0.3,0.7-0.3,1.1
			c0,0.2,0.2,0.4,0.4,0.3c0.1-0.1,0.3-0.1,0.4-0.2c0,0.1,0,0.3-0.1,0.4c0,0.2,0.2,0.3,0.3,0.3c0.3,0,0.5-0.1,0.7-0.3
			c0,0.2-0.1,0.4-0.1,0.6c0,0.3,0.3,0.4,0.5,0.3c0.1-0.1,0.3-0.1,0.4-0.2c0,0.1,0,0.1,0,0.2c0,0.3,0.4,0.4,0.6,0.2
			c0,0,0.1-0.1,0.1-0.1c0.1,0.5,0,1.1,0.3,1.5c0.1,0.2,0.4,0.2,0.5,0.1c0.1-0.1,0.2-0.2,0.3-0.4c0.1,0.3,0.1,0.5,0.3,0.7
			c0.2,0.2,0.4,0.2,0.6,0c0.1-0.1,0.1-0.2,0.2-0.3c0.2,0.4,0.3,0.8,0.7,1.1c0.2,0.1,0.4,0.1,0.5-0.1c0.1-0.1,0.1-0.2,0.1-0.3
			c0,0.1,0.1,0.2,0.2,0.3c0.2,0.2,0.4,0.2,0.6,0c0.1-0.1,0.2-0.2,0.2-0.4c0.2,0.3,0.3,0.5,0.6,0.6c0.4,0.1,0.6-0.1,0.8-0.4
			c0.3,0.4,0.5,0.8,1,1.1c0.2,0.1,0.4,0,0.5-0.1c0.1-0.1,0.1-0.2,0.2-0.4c0.2,0.2,0.4,0.5,0.7,0.5C46.4,31,46.5,30.8,46.6,30.6z"/>
		<path fill="#F7F8F3" d="M34.5,46.8v-1v-2.2v-0.9V41v-0.8v-0.2c0-0.4-0.1-0.8-0.2-1.1c-0.1-0.2-0.1-0.4-0.2-0.6
			c-0.2-0.4-0.4-0.7-0.6-1.1c-0.1-0.2-0.3-0.4-0.5-0.6c-0.4-0.4-0.8-0.8-1.3-1.2c-0.3-0.2-0.6-0.4-0.9-0.6l0,0l-0.8-0.5l-4,4
			l-0.4,0.4l0.4,0.3l0.7,0.5c0.5,0.4,1,0.8,1.2,1.2c0.2,0.2,0.2,0.4,0.3,0.6c0,0,0,0.1,0,0.1v2.4v0.8v7.6v0.9v2.1L26,57.6
			c-0.5-0.4-0.8-0.8-1-1.1c-0.2-0.3-0.2-0.5-0.2-0.5v-0.2v-4.7v-0.8v-3.7v-0.8v-2.9l-2.4-3l-0.4-0.6L21.8,39l-0.5,0.6l-0.7,0.8
			l-2,2.5v1.7v0.7v4.2v0.7v5v0.5L17.3,57l-0.6,0.6c0,0-0.1-0.1-0.1-0.1c-0.2-0.2-0.3-0.3-0.5-0.4c-0.6-0.6-0.6-1-0.6-1.1v-4v-0.7
			v-4.7v-0.7v-4.2v0c0-0.2,0-0.4,0-0.6c-0.3-2.1-1.8-4-3.2-4.9l-0.8-0.5L10,37.1l-0.7,0.7l-2.6,2.6l1.1,0.8c0.6,0.5,1.1,1,1.3,1.4
			c0.1,0.2,0.2,0.3,0.2,0.5v0.1v5.2V49v5.8v0.7v1.9c0,1.3,0.6,2.6,1.7,3.7c0.1,0.1,0.3,0.3,0.4,0.4c0.3,0.3,0.6,0.5,1,0.8
			c1.4,1,2.9,1.5,2.9,1.5l0.7,0.3l3.6-3.7c0.1,0.1,0.2,0.2,0.3,0.4c0.1,0.2,0.3,0.3,0.4,0.4c1.4,1.4,3.3,2.2,4,2.5
			c0.1,0.1,0.2,0.1,0.3,0.1l0.3,0.1l0.4,0.1l9.1-9.2v-4v-1.1V46.8z M33.4,54.5l-8.2,8.3c0,0-4.2-1.5-5.2-4.2l-4.2,4.2
			c0,0-5.3-2-5.3-5.4c0,0,0-12.1,0-14.3c0-1.1-1-2.1-2-2.8l3.1-3.1c1.4,0.9,2.7,2.7,2.7,4.5c0,0,0,12.1,0,14.3
			c0,1.2,1.3,2.4,2.4,3.1l3-3V43.3l2-2.4l1.9,2.4c0,0,0,10.5,0,12.7c0,1.2,1.3,2.4,2.4,3.1l3.3-3.3V41.5c0-1.1-1-2.1-2-2.8l2.8-2.8
			c1.4,0.9,3.1,2.3,3.1,4.2V54.5z"/>
		<path fill="#F7F8F3" d="M64.9,37.7l-0.6,0.5l-0.5,0.4l1.2,0.8c1,0.7,1.3,1.2,1.3,1.4v0.2v0.7v2.7v0.8v3.2v0.8v0.4l-2.6,2.3
			l1.2,0.8c0.1,0.1,0.2,0.2,0.3,0.2c0.8,0.6,1,1,1,1.2v0.1v5.3c0,0.2,0,0.3,0,0.5c0.2,1.3,1,2.5,2.6,3.6c0.2,0.2,0.5,0.3,0.8,0.5
			l0.7,0.4l3.1-2.8l0.5-0.4l0.8-0.8l-1.2-0.8c-1-0.7-1.3-1.2-1.3-1.4v-8.8L73,49l0.5-0.5l1-0.9c0.6,0.4,0.9,0.8,1,1.1v0.9v0.7v5.9
			l0,0v3c0,2.2,1.7,4,3.1,4.9l0.7,0.4l3.1-2.8l0.4-0.4l1.1-1l-1.2-0.8c-1-0.7-1.3-1.2-1.3-1.4v-4.2v-0.7v-5.3v-0.2
			c0-0.1,0-0.3,0-0.4v-0.1v-4.7v-0.6v-2.1c0-0.8-0.2-1.6-0.6-2.3c-0.1-0.2-0.3-0.5-0.4-0.7c-0.6-0.8-1.4-1.5-2.1-1.9l-0.7-0.4
			l-4.7,4.3l1.2,0.8c0.4,0.3,0.7,0.5,0.9,0.7c0.3,0.3,0.4,0.6,0.4,0.7V41v0.9L75,41.8l-2.1,1.9l-0.5,0.5v-0.7v-3.3v-0.5
			c0-0.1,0-0.1,0-0.2c0-1.2-0.6-2.3-1.3-3.2c-0.2-0.3-0.5-0.5-0.7-0.7c-0.4-0.3-0.8-0.6-1.1-0.8l-0.7-0.4l-1,1L66.8,36L64.9,37.7z
			 M68.7,35.8c1.3,0.8,2.6,2.3,2.6,3.9v7.1l4.1-3.7c0,0,0.6,0.2,1.3,0.5v-2.8c0-0.9-0.9-1.8-1.8-2.4l2.9-2.7
			c1.3,0.8,2.6,2.3,2.6,3.9v7.6c0,0.1,0,0.2,0,0.3V58c0,0.9,0.9,1.8,1.8,2.4l-2.9,2.7c-1.3-0.8-2.6-2.3-2.6-3.9v-5.6l0,0v-5
			c-0.2-0.9-1.2-1.8-2.2-2.4L71.2,49v9.3c0,0.9,0.9,1.8,1.8,2.4l-2.6,2.4c-1.3-0.8-2.9-2-2.9-3.6c0,0,0-3.4,0-5.3
			c0-0.9-0.9-1.8-1.8-2.4l1.8-1.7v-9.2c0-0.9-0.9-1.8-1.8-2.4L68.7,35.8z"/>
	</g>
</g>
<image overflow="visible" width="475" height="473" xlink:href="logo.png"  transform="matrix(0.2568 0 0 0.2568 -533.3345 -32.6206)">
</image>
</svg>
