<?xml version="1.0" encoding="utf-8"?>
<!-- Generator: Adobe Illustrator 17.1.0, SVG Export Plug-In . SVG Version: 6.00 Build 0)  -->
<!DOCTYPE svg PUBLIC "-//W3C//DTD SVG 1.1//EN" "http://www.w3.org/Graphics/SVG/1.1/DTD/svg11.dtd">
<svg version="1.1" id="Layer_1" xmlns="http://www.w3.org/2000/svg" xmlns:xlink="http://www.w3.org/1999/xlink" x="0px" y="0px"
	 viewBox="0.9 334.3 118.9 118.7" enable-background="new 0.9 334.3 118.9 118.7" xml:space="preserve">
<g>
	<g>
		<path d="M20.5,405.2c0,0.1,0.1,0.6,0.8,1.4l3.2-2.4v-6.3l-3.9,2.3V405.2z"/>
		<path d="M48.4,436.2c0-0.8,0-1.5,0-2.2l-1.6,7.7l-0.8-0.1l2.4-11.4c0-0.4,0-0.8,0-1.1c0-0.1,0-0.3,0-0.4c0-0.4,0-0.9,0-1.4v-0.5
			c0-0.3,0-0.4,0-0.6c-0.6-1.6-1.1-3.4-1.6-5.2c-0.5-2.2-0.4-4.3-0.1-6.3l-6.2,17l-0.6-0.4l0.1-0.3l7.2-20c0.1-1,0.1-2,0.1-3
			c-0.1-0.3-0.1-0.6,0-1c0.3-0.6,0.5-1.1,0.8-1.8c0.3-0.9,0.6-1.8,1.1-2.7c0.8-1.3,1.6-2.5,2.5-3.8l2.9-8c-0.1-0.1-0.1-0.3-0.3-0.5
			c-0.1-0.3-0.3-0.6-0.4-0.9l-0.9,1.8l-0.4-0.1h-0.1l-0.4-0.1l1.4-2.5c0-0.3-0.1-0.5-0.1-0.6s0-0.3,0-0.4c0-0.1-0.1-0.1-0.1-0.3
			l-8.7,11.8v5.1l-11.5,11.6l-0.4-0.3l-9.5,13c-0.1-0.1-0.4-0.4-0.5-0.5l9.2-12.8c-0.9-0.4-3.3-1.4-5.1-3.2l-9.1,9.5
			c-0.1-0.3-0.3-0.4-0.4-0.6l9-9.4c-0.1-0.1-0.3-0.3-0.4-0.5l-4.6,4.7l-0.9-0.4c-0.1,0-1.9-0.8-3.7-1.9c-0.5-0.4-0.9-0.6-1.3-1
			l-2,1.4c-0.1-0.3-0.3-0.5-0.3-0.8l1.6-1.3c-1.4-1.4-2.2-3-2.2-4.7v-2.4l-1.8,1c0-0.3-0.1-0.5-0.1-0.8l2-1.1v-7.3l-3.2,1.3
			c0-0.3,0-0.5,0-0.8l3.2-1.3V389l-3.2,0.8c0-0.3,0-0.5,0.1-0.8l2.9-0.8c-0.3-0.5-0.9-1.1-1.6-1.8l-1.4-1l3.3-3.3l-2.4,0.3
			c0-0.3,0.1-0.5,0.3-0.8l2.8-0.3l1.9-1.9l1,0.6c1.9,1.1,3.8,3.5,4,6.2l2.3-0.6l0.1,0.4l0.1,0.4l-2.5,0.6l0,0v5.3l3.9-1.6v-2.2
			l2.5-3.2v-0.4l0,0l-0.1-0.4l0.4-0.1l0.6-0.1l0.6-0.8l0.4,0.5l5.2-1.3l5.1-5.1l1,0.6l0,0l3-0.4c-0.6-0.5-1.1-1-1.8-1.6l-10.3-0.3
			v-0.4l0,0v-0.4h0.4l8.9,0.3c-0.6-0.6-1.3-1.4-1.8-2.3l-23-4c0.1-0.3,0.3-0.5,0.4-0.8l21.9,3.8c-0.6-1-1-1.9-1.3-2.8l-0.6-0.3
			l0.3-0.4l0,0l0.1-0.3l0,0c-0.1-0.8,0-1.5,0.1-2.3c0-0.1,0.1-0.4,0.1-0.5l-0.3-0.1v-0.3v-0.1v-0.6l0.5,0.3c0-0.1,0.1-0.1,0.1-0.3
			c-0.1,0-0.3-0.1-0.3-0.3c-0.1-0.1-0.1-0.1-0.3-0.3c-0.3-0.4-0.3-0.8-0.1-1.1c0.1-0.3,0.3-0.5,0.4-0.6l0.1-0.1l0.1-0.3
			c0-0.1,0-0.1,0.1-0.3l-3.2-2.3l0.3-0.4l0,0l0.1-0.4l3.2,2.2c0.4-0.4,0.8-0.8,1-1c0.6-0.4,1.1-0.4,1.5-0.4c0.1,0,0.3,0,0.5,0h0.1
			c0.1,0,0.1,0,0.3-0.1c0.3-0.3,0.5-0.4,0.9-0.5c0.1-0.1,0.4-0.1,0.6-0.1c0.8,0,1.4,0.5,1.6,1.1c0,0.1,0,0.1,0.1,0.3
			s0.1,0.4,0.1,0.5s0,0.1,0,0.3c1,0.3,2,0.6,2.9,1.4c0.4,0.3,0.9,0.6,1.4,1.1l-5.7-6.5l0.4-0.3l0.3-0.3l0.3,0.3l8.2,9.7
			c0.5,0.4,1.1,0.8,1.8,1.1l-3.7-6.1l0.3-0.3h0.1l0.4-0.3l3.3,5.2l0,0c0-0.4,0.1-0.8,0.4-1l-5.1-11.3l0.3-0.1l0,0l0.4-0.3l5.1,11.4
			h0.1c0.4,0,0.8,0.1,1,0.4l-6.2-21.6c0.3,0,0.5-0.1,0.8-0.1l6.2,21.5c0.1-0.1,0.4-0.3,0.6-0.3H58l-0.9-5.9l0.3-0.1h0.1l0.5-0.3
			l0.9,6.6c0.3,0.3,0.4,0.5,0.5,0.9c0,0.5,0,1.4,0,2.3l0,0v0.3l0,0c0-0.3,0-0.6,0-1c0-0.6,0-1.4,0.1-1.6c0-0.1,0-0.3,0-0.3l0,0v-23
			c0.1,0,0.3,0,0.4,0s0.3,0,0.4,0v22.1c0.1,0,0.1,0,0.3,0c0.1,0,0.3,0,0.4,0s0.1,0,0.3,0l1-7.3l0.5,0.3h0.1l0.3,0.1l-1,7.6
			c0.1,0.1,0.1,0.3,0.1,0.4s0,0.3,0,0.3v0.1c0-0.3,0-0.3,0-0.4c0-0.5,0.4-0.9,0.8-1l5.2-17.8h0.3h0.1H69l-5.1,17.7
			c0.3,0,0.5,0.3,0.8,0.5l4.7-10.5l0.4,0.1c0,0,0,0,0.1,0l0.4,0.1l-5.2,11.8c0,0.1,0,0.3,0,0.4c0.3-0.1,0.5-0.3,0.8-0.5l12.9-20.2
			c0.3,0.1,0.5,0.3,0.8,0.3l-11.9,19.1c0.8-0.6,1.5-1.3,2.2-1.8c0.6-0.6,1.3-1.1,1.9-1.5c0.1,0,0.1-0.1,0.3-0.1l4.3-5.1l0.3,0.4l0,0
			l0.1,0.3l-2.8,3.3c0.4-0.1,0.8-0.3,1.1-0.3c0-0.1,0-0.3,0.1-0.4c0-0.1,0-0.1,0.1-0.3c0.3-0.6,0.9-1,1.6-1c0.3,0,0.4,0,0.6,0.1
			c0.4,0.1,0.6,0.4,0.9,0.6l0,0l9.7-8.7c0.3,0.1,0.5,0.3,0.6,0.5l-9.4,8.2c0.4,0,0.8,0.1,1.1,0.5c0.3,0.3,0.8,0.6,1.1,1.3l1.6-1.1
			l0.3,0.3l0,0l0.3,0.3l-0.4,0.3l-1.5,1.1c0,0.1,0.1,0.3,0.1,0.3l0.1,0.1c0.1,0.1,0.3,0.4,0.4,0.6c0.1,0.4,0.1,0.8-0.1,1.1
			c-0.1,0.1-0.1,0.3-0.3,0.3c-0.1,0.1-0.3,0.1-0.4,0.3c0,0.1,0.1,0.3,0.1,0.4l14.9-7.2c0.3,0.3,0.4,0.4,0.6,0.6l-15.2,7.5
			c0.1,0.9,0.1,1.8,0,2.7l11.8-3.8l0.1,0.4l0.3,0.4l-12.5,4c-0.3,0.9-0.8,1.6-1.3,2.5l23.8-4.2c0.1,0.3,0.3,0.5,0.4,0.8L80,373.7
			c-0.5,0.8-1,1.4-1.6,2l29-1c0.1,0.3,0.3,0.5,0.3,0.8l-30.2,1.1c-0.5,0.5-1,0.9-1.5,1.4l10.4,1.1l1.3-1.3l0.9,0.5
			c0.5,0.3,1,0.6,1.4,1l2,0.3v0.3l0,0l0.1,0.5l-1.4-0.1c0.9,1.1,1.6,2.4,1.6,4l3.3,0.9c-0.3-0.3-0.6-0.5-1.1-0.9l-1.5-1l5.9-5.4
			l0.9,0.5c0.9,0.5,1.9,1.4,2.7,2.4l7,0.8c0.1,0.3,0.1,0.5,0.1,0.8l-6.6-0.6c0.5,0.9,0.8,1.9,0.8,2.9v2.7l6.8,1.6
			c0,0.3,0,0.5,0.1,0.8l-6.8-1.6v5.9l7,2.8c0,0.3,0,0.5,0,0.8l-6.8-2.8v6.7l5.7,3.3c0,0.3-0.1,0.5-0.1,0.8l-5.6-3.2v5.4
			c0,0.3,0.4,0.9,1.6,1.8l1.5,1l-1.4,1.3l1.3,1c-0.1,0.3-0.3,0.5-0.3,0.8l-1.6-1.3l-3.9,3.5l-0.9-0.5c-1.8-1.1-3.9-3.3-3.9-6.2v-3.8
			l0,0v-7.5l-2.9-1.5l-0.8,0.6v11.1c0,0.3,0.4,0.9,1.6,1.8l1.5,1l-1,1l8.4,8.7c-0.1,0.3-0.3,0.4-0.4,0.6l-8.6-8.9l-3.9,3.5l-0.9-0.5
			c-0.4-0.3-0.6-0.4-1-0.6l4.4,6.1l-0.3,0.3l-0.3,0.4l-0.3-0.4l-26.6-36.6c0,0.3,0,0.6,0,0.9l6.7,12.8c0.1,0,0.3,0,0.4,0
			c1.6,0,2.9,1.1,3,2.9c0.1,0.8,0,1.5-0.1,2.2c0,0.3,0,0.4-0.1,0.6c0.3-0.3,0.6-0.5,1.1-0.6h0.1c1.1,0,1.5,1.4,1.8,2.3v0.1
			c0.4,1.5,0.5,3.2,0.3,5.1l2.8,5.3l-0.4,0.1l-0.1-0.4l0,0l0.1,0.4l-0.3,0.1l0-0.4l-2.2-3.9c0,0.1,0,0.3,0,0.3
			c-0.5,2.3-1.5,3.8-3.2,4.7l4,11.1l-0.8,0.1l-0.3-0.3l-3.9-10.6c-0.9,0.4-1.9,0.5-2.8,0.6c-0.1,0-0.1,0-0.3,0c1.1,2.2,1.1,4.8,1,7
			c0,1.4-0.3,2.7-0.9,3.8l2.8,12.9l-0.8,0.1L71,429.6c-0.1,0.1-0.3,0.4-0.4,0.5l-0.1,0.1l0,0l0,0l-0.1,0.1c-0.4,0.4-0.8,0.9-1.3,1.1
			c0,0.3-0.1,0.5-0.3,0.6l-0.4,0.5c-0.4,0.5-0.9,1-1.3,1.5l-0.1,0.1v0.1l0,0c0,0,0,0.1-0.1,0.1v0.1l-0.1,0.1
			c-0.1,0.1-0.3,0.3-0.3,0.3c0,0.1-0.1,0.3-0.1,0.4l-0.1,0.1l-0.1,0.1v0.1c0.3,0.3,0.5,0.8,0.4,1.1s-0.3,0.9-0.4,1.4
			c0,0.3-0.3,0.5-0.4,0.6h-0.1c0.1,0.3,0.3,0.5,0.1,0.8v0.1c0,0.1-0.1,0.3-0.1,0.5s-0.3,0.5-0.4,0.6l0,0c0.1,0.3,0.3,0.5,0.1,0.8
			c0,0.3-0.1,0.6-0.1,0.9s-0.1,0.4-0.3,0.6c0,0.3-0.1,0.4-0.3,0.5c0,0.1,0.1,0.1,0.1,0.3c0.1,0.3,0.3,0.5,0.3,0.8s0,0.5,0,0.9
			c0,0.3-0.1,0.5-0.3,0.8c0,0.1,0,0.1-0.1,0.3c0,0.1-0.1,0.1-0.1,0.3c0.3,0.1,0.4,0.4,0.4,0.6c27.6-2.4,49.4-25.7,49.4-53.9
			c0-29.9-24.3-54.2-54.2-54.2c-29.9,0-54.2,24.3-54.2,54c0,25.8,18.1,47.5,42.3,52.8c0-0.1,0-0.3,0-0.5
			C48.4,442.6,48.4,439.4,48.4,436.2z M50.7,393.7l0.4,0.3h0.1l0.3,0.1l-3.4,6.5l-0.4-0.3l0,0l-0.4-0.1L50.7,393.7z M82.5,439.1
			l-2.7-7.2l0.9,0.1l0.1,0.3l2.4,6.6C82.9,439,82.8,439.1,82.5,439.1z M90.4,434.3l-7.8-14.8l0.8-0.1l0.1,0.3l7.6,14.3
			C90.8,434,90.6,434.2,90.4,434.3z M97.2,428.3l-2.9-4l0.8-0.1l0.1,0.1l2.5,3.4C97.5,428,97.4,428.1,97.2,428.3z M100.8,363.2
			c0.1,0.3,0.4,0.5,0.5,0.6l-3,1l-0.1-0.4l0,0l0.3-0.1l-0.4,0.1l-0.1-0.4L100.8,363.2z M90.5,356.7l-0.3,0.1l-2.8,1.9l-0.3-0.4
			l-0.3-0.3l0.3-0.3l3-2L90.5,356.7z M83.4,348.5c0.3,0.1,0.5,0.3,0.8,0.4l-1.5,1.8l-0.3-0.5l-0.1-0.3L83.4,348.5z M80.1,352.8
			l0.4,0.3l-0.3,0.4l-1.9,2.4l-0.3-0.4l0,0l-0.3-0.3l2.2-2.5L80.1,352.8z M74.1,344.7c0.3,0.1,0.5,0.1,0.8,0.3l-3,7l-0.4-0.3l0,0
			l-0.3-0.1L74.1,344.7z M69.3,343.7c0.3,0,0.5,0.1,0.8,0.1l-0.5,1.8l-0.4-0.4l0,0l-0.3-0.1L69.3,343.7z M63.2,352.9l1.4-9.9
			c0.3,0,0.5,0,0.8,0.1l-1.4,10.3l-0.4-0.1l0,0h-0.4V352.9z M56.9,350.5l0.1,0.4l0.9,6.3l-0.5-0.1l0,0H57l-0.9-6.6h0.4l0,0H56.9z
			 M55.8,343l0.6,4.4l-0.4,0.1l0,0l-0.4,0.1l-0.6-4.7C55.3,343,55.6,343,55.8,343z M33.2,368L33.2,368l-0.1,0.4l-5.9-1.9l0.1-0.4
			l0,0l0.1-0.4l5.9,1.9L33.2,368z M46.4,344.7l2.3,5.2H48h-0.3l-0.1-0.3l-2-4.7C45.8,344.8,46.1,344.8,46.4,344.7z M41.7,346.3
			l7.7,12.3l-0.5,0.1h-0.1l-0.3,0.1l-7.6-12.1C41.2,346.5,41.4,346.3,41.7,346.3z M37,348.4l4.6,5.3l-0.3,0.3l0,0l-0.3,0.3l-4.7-5.6
			C36.5,348.7,36.7,348.5,37,348.4z M36.6,354.9l0.3,0.3L41,359l-0.3,0.3l0,0l-0.3,0.4l-0.3-0.3l-4.3-3.8L36.6,354.9z M32.3,351.1
			l2.2,2l-0.4,0.3l-0.3,0.1l-2.3-2C31.9,351.4,32.1,351.3,32.3,351.1z M27.9,354.4l4.7,3.2l-0.5,0.4l-0.3,0.3l-4.7-3.2
			C27.4,354.8,27.6,354.6,27.9,354.4z M23.6,358.5l10.5,5.1l-0.4,0.4l-0.1,0.3L23.1,359C23.2,358.9,23.3,358.6,23.6,358.5z
			 M19.5,363.2l5.2,1.6l-0.5,0.6l-0.3-0.1l-4.9-1.6C19.3,363.5,19.4,363.3,19.5,363.2z M31.3,379.7L31.3,379.7l0.1,0.5l-11.5,1.1
			v-0.5v-0.4h0.4l11-1.1V379.7z M13.1,374.7l10.9,0.4l-0.1,0.5v0.4l-11.1-0.4C12.8,375.2,12.9,374.9,13.1,374.7z M30.5,433.3
			l-0.5,1.1c-0.3-0.1-0.4-0.3-0.6-0.5l0.8-1.4l0.4,0.4l0.1,0.1L30.5,433.3z M32.7,428.6l-0.4-0.1l0.1-0.4l13-24.7l0.4,0.3l0,0
			l0.4,0.1l-13.3,24.9L32.7,428.6z"/>
		<polygon points="20.5,399.1 24.5,397 24.5,391.6 20.5,393.2 		"/>
		<path d="M44.6,392.3l8.9-9.1v-0.4v-0.1l-8.9,7V392.3z"/>
		<path d="M85,409.6v-6.7l-1.4-1.5l0.3-0.1c-0.1-0.1-0.3-0.3-0.4-0.3l-1.5-1l3.3-2.9v-0.5l-18.6-14.3c-0.1,0-0.3,0-0.4,0.1
			l14.3,14.8l-0.1,0.3l0,0l-0.3,0.5l-14.8-15.3c0,0.1,0,0.3,0,0.4L85,410.2C85,410,85,409.9,85,409.6z"/>
		<path d="M44.6,397.5l8.6-11.9l0,0c0-0.1,0-0.3,0.1-0.4v-0.6l-8.7,9.1L44.6,397.5L44.6,397.5z"/>
		<path d="M85,391.5l-16.8-9.6c-0.1,0-0.4,0.1-0.5,0.1L85,395.6V391.5z"/>
		<path d="M33.8,407.2l2.9-2.9v-2.7l-4,4.2C32.8,406.2,33.2,406.7,33.8,407.2z"/>
		<path d="M22.1,407.2l0.8-0.8L22.1,407.2C21.9,407.2,22.1,407.2,22.1,407.2z"/>
		<path d="M56.1,394.3l0.4-1.6l0,0c-0.4-0.3-0.8-0.5-1.1-0.9l-1.8,4.9C54.2,395.8,55.1,394.9,56.1,394.3z"/>
		<path d="M63.8,391.6l0.9,4.3c0.4,0.4,0.6,0.8,1,1.3l0.1-0.1c0-0.1,0.1-0.1,0.1-0.3l0.1-0.1v-0.1l0,0c0.3-0.3,0.4-0.5,0.5-0.6
			l-2-5.4C64.5,390.8,64.2,391.3,63.8,391.6z"/>
		<path d="M65.2,387.7c0,0.4-0.1,0.8-0.1,1.1l2.3,6.1c0.3-0.1,0.5-0.4,0.8-0.5c0.1,0,0.3,0,0.4,0c0.9,0,1.3,0.8,1.6,2
			c0.3,0.8,0.4,1.4,0.5,2.2c0,0,0.1,0,0.1-0.1l0,0c0,0,0.1,0,0.1-0.1H71h0.1l0,0l-5.9-11.1C65.2,387.3,65.2,387.6,65.2,387.7z"/>
		<path d="M62.9,392.4c-0.1,0.1-0.3,0.3-0.5,0.4c0.1,0.1,0.4,0.4,0.5,0.5v0.1c0,0.1,0.1,0.1,0.1,0.3c0.1,0.3,0.3,0.4,0.4,0.6l-0.4-2
			C63.1,392.4,62.9,392.4,62.9,392.4z"/>
		<polygon points="32.4,398 35.6,395.4 35.8,395.8 35.8,395.8 36.1,396.1 32.4,399 32.4,404.9 36.7,400.5 36.7,390.8 32.4,393.3 		
			"/>
		<path d="M32.4,388.6v3.7l4.3-2.5v-3v-0.1l-0.6,0.3v-0.5v-0.1v-0.3l0.4-0.1c-0.4-0.5-0.9-1-1.5-1.5l-0.9-0.6l-4.4,1.1L32.4,388.6z"
			/>
		<path d="M44.6,388.3l7.7-6.1c-0.3,0-0.4-0.1-0.6-0.1l-7.1,4V388.3z"/>
		<path d="M60.1,334.3c-32.7,0-59.2,26.6-59.2,59.2c0,28.6,20.4,52.5,47.5,58.1c0-0.6,0-1.3,0-1.9c-26.1-5.4-45.6-28.6-45.6-56.2
			c0-31.6,25.8-57.5,57.5-57.5s57.5,25.8,57.5,57.5c0,30-23.2,54.8-52.5,57.2l0,0c0,0.3,0,0.6,0.1,0.9c0,0.3,0,0.4-0.1,0.6
			c0,0.1-0.1,0.1-0.1,0.1l0,0l0,0l0.1,0.1c30.4-2.5,54.4-28,54.4-59.1C119.4,360.9,92.8,334.3,60.1,334.3z"/>
		<path d="M44.2,382.8l4-1.6c-0.5-0.1-0.9-0.4-1.4-0.6l-3.5,0.9C43.7,381.9,43.9,382.3,44.2,382.8z"/>
		<path d="M44.6,385.1v0.3l5.8-3.4c-0.4-0.1-0.6-0.3-1-0.3l-5.1,2C44.6,384,44.6,384.6,44.6,385.1z"/>
		<path d="M85.5,379.9l-10.6-1.1c-0.4,0.3-0.9,0.6-1.4,0.9l9.6,2.4L85.5,379.9z"/>
		<path d="M96.3,395.9c-0.1-0.3-0.5-0.8-1.3-1.4l-1.3,1.1l2.4,1.4v-1.1H96.3z"/>
		<path d="M42.8,380.6l2.9-0.8c-0.5-0.3-1.1-0.6-1.6-1l-2.9,0.3C41.8,379.6,42.3,380.1,42.8,380.6z"/>
		<path d="M85,387.2l-14.8-5.9c-0.1,0-0.3,0.1-0.4,0.1c-0.1,0-0.3,0.1-0.4,0.1l15.6,9V387.2z"/>
		<path d="M85,386.1c0-0.3-0.4-0.9-1.6-1.8l-1.5-1l0.6-0.5l-10-2.4c-0.4,0.1-0.8,0.4-1.1,0.5l13.7,5.6L85,386.1L85,386.1z"/>
		<polygon points="92.5,389.4 93.2,389.6 95.8,387.2 96.3,387.3 96.3,386.2 92.5,385.2 		"/>
		<path d="M65,447.5c0-0.3-0.3-0.5-0.4-0.6c0-0.1,0.1-0.1,0.1-0.3s0-0.1,0.1-0.3c0.1-0.3,0.3-0.4,0.3-0.8c0-0.3,0-0.5,0-0.9
			c0-0.3,0-0.5-0.3-0.8c0-0.1-0.1-0.1-0.1-0.3c0.1-0.1,0.3-0.4,0.3-0.5c0.1-0.1,0.3-0.4,0.3-0.6c0-0.3,0.1-0.6,0.1-0.9
			s0-0.5-0.1-0.8l0,0c0.3-0.1,0.4-0.4,0.4-0.6c0-0.1,0-0.3,0.1-0.5v-0.1c0-0.3,0-0.5-0.1-0.8h0.1c0.3-0.1,0.4-0.4,0.4-0.6
			c0.1-0.5,0.3-1,0.4-1.4c0.1-0.4,0-0.9-0.4-1.1v-0.1l0.1-0.1l0.1-0.1c0.1-0.1,0.1-0.3,0.1-0.4c0.1-0.1,0.3-0.1,0.3-0.3l0.1-0.1
			v-0.1l0.1-0.1l0,0v-0.1l0.1-0.1c0.4-0.5,0.9-1,1.3-1.5l0.4-0.5c0.1-0.3,0.3-0.4,0.3-0.6c0.4-0.4,0.9-0.8,1.3-1.1l0.1-0.1l0,0l0,0
			l0.1-0.1c0.1-0.1,0.3-0.4,0.4-0.5c0.1-0.3,0.3-0.5,0.5-0.6c0-0.1,0.1-0.1,0.1-0.3c0.5-1.1,0.9-2.3,0.9-3.8c0-2.2,0-4.8-1-7
			c0.1,0,0.1,0,0.3,0c0.9-0.1,1.9-0.3,2.8-0.6c0.3-0.1,0.5-0.3,0.8-0.4l0,0c1.8-0.9,2.8-2.4,3.2-4.7c0-0.1,0-0.3,0-0.3
			c0.1-0.5,0.1-0.9,0.3-1.4c0.3-1.9,0.1-3.5-0.3-5.1v-0.1c-0.3-1-0.6-2.3-1.8-2.3h-0.1c-0.5,0-0.9,0.3-1.1,0.6c0-0.3,0-0.4,0.1-0.6
			c0.1-0.8,0.3-1.4,0.1-2.2c-0.1-1.8-1.4-2.9-3-2.9c-0.1,0-0.3,0-0.4,0c-0.3,0-0.6,0.1-0.9,0.1l0,0h-0.1H71c0,0-0.1,0-0.1,0.1l0,0
			c0,0-0.1,0-0.1,0.1c-0.1-0.8-0.3-1.4-0.5-2.2c-0.4-1.1-0.8-2-1.6-2c-0.1,0-0.3,0-0.4,0c-0.3,0.1-0.5,0.3-0.8,0.5
			c-0.3,0.1-0.4,0.4-0.5,0.5l0,0l-0.1,0.1c-0.1,0.3-0.4,0.4-0.5,0.6l0,0v0.1l-0.1,0.1c0,0.1-0.1,0.1-0.1,0.3l-0.1,0.1
			c-0.3-0.4-0.6-0.9-1-1.3v-0.1c-0.4-0.5-0.8-1-1.1-1.5c-0.1-0.3-0.3-0.4-0.4-0.6c0-0.1-0.1-0.1-0.1-0.3v-0.1
			c-0.1-0.3-0.3-0.4-0.5-0.5c0.1-0.1,0.3-0.3,0.5-0.4l0.1-0.1c0.1-0.1,0.1-0.1,0.3-0.3l0,0c0.1-0.1,0.4-0.4,0.5-0.5
			c0.4-0.4,0.6-0.9,0.9-1.4c0.1-0.4,0.3-0.8,0.4-1.1c0-0.1,0-0.1,0-0.3c0.1-0.4,0.1-0.8,0.1-1.1c0-0.1,0-0.3,0-0.5c0-0.5,0-1,0-1.4
			c0-0.1,0-0.3,0-0.4c0-0.3,0-0.6,0-0.9c0-0.5,0-1,0-1.5c0-0.1,0-0.3,0-0.4v-0.1c0.3,0,0.6-0.1,0.9-0.1c0.1,0,0.3,0,0.4-0.1
			c0.4-0.1,0.8-0.1,1.1-0.3c0.1,0,0.4-0.1,0.5-0.1c0.4-0.1,0.8-0.3,1.1-0.4c0.1,0,0.3-0.1,0.4-0.1c0.1,0,0.3-0.1,0.4-0.1
			c0.4-0.1,0.8-0.3,1.1-0.5c0.4-0.1,0.8-0.4,1.1-0.5c0.4-0.3,0.8-0.4,1.1-0.6c0.5-0.3,0.9-0.6,1.4-0.9c0.4-0.3,0.6-0.5,1-0.8
			c0.5-0.4,1-0.9,1.5-1.4c0.3-0.3,0.6-0.6,0.9-0.9c0.5-0.6,1.1-1.3,1.6-2c0.1-0.3,0.3-0.4,0.4-0.6c0.1-0.1,0.1-0.3,0.3-0.4
			c0.5-0.9,1-1.8,1.3-2.5c0.1-0.4,0.3-0.6,0.3-1c0.1-0.9,0.1-1.8,0-2.7v-0.1c0-0.3-0.1-0.4-0.1-0.6c0-0.1-0.1-0.3-0.1-0.4
			c0.1,0,0.3-0.1,0.4-0.3s0.3-0.1,0.3-0.3c0.3-0.4,0.3-0.8,0.1-1.1c-0.1-0.3-0.3-0.5-0.4-0.6l-0.1-0.1c0,0,0-0.1-0.1-0.3l0,0
			c0-0.1-0.1-0.3-0.1-0.4s-0.1-0.3-0.1-0.4c-0.3-0.6-0.8-1-1.1-1.3c-0.4-0.3-0.8-0.4-1.1-0.5c-0.1,0-0.4,0-0.5,0s-0.3,0-0.3,0h-0.1
			c-0.1,0-0.1,0-0.3-0.1l0,0c-0.3-0.1-0.5-0.4-0.9-0.6c-0.3-0.1-0.4-0.1-0.6-0.1c-0.8,0-1.4,0.4-1.6,1c0,0.1-0.1,0.1-0.1,0.3
			c-0.1,0.1-0.1,0.3-0.1,0.4c-0.4,0-0.8,0.1-1.1,0.3c-0.6,0.3-1.4,0.6-2,1c-0.1,0-0.1,0.1-0.3,0.1c-0.5,0.4-1.1,1-1.9,1.5
			c-0.6,0.6-1.4,1.1-2.2,1.8c-0.6,0.5-1.3,0.9-1.9,1.3c-0.3,0.1-0.5,0.3-0.8,0.5c0-0.1,0-0.3,0-0.4c0-0.8,0-0.9,0-1
			c0-0.3-0.1-0.5-0.3-0.6c-0.1-0.3-0.4-0.4-0.8-0.5h-0.1c-0.1,0-0.1,0-0.3,0c-0.3,0-0.4,0-0.5,0.1c-0.4,0.1-0.8,0.5-0.8,1
			c0,0,0,0.1,0,0.4v-0.1c0-0.1,0-0.3,0-0.3c0-0.1,0-0.3-0.1-0.4c-0.1-0.4-0.4-0.5-0.8-0.6c-0.1,0-0.1,0-0.3,0c-0.1,0-0.3,0-0.4,0
			s-0.1,0-0.3,0c-0.4,0.1-0.8,0.4-0.9,0.9l0,0c0,0,0,0.1,0,0.3c0,0.3,0,0.9-0.1,1.6c0,0.4,0,0.8,0,1l0,0l0,0l0,0c0-0.1,0-0.3,0-0.3
			l0,0c0-1,0-1.9,0-2.3c0-0.4-0.1-0.8-0.5-0.9c-0.3-0.1-0.5-0.3-0.8-0.3h-0.1h-0.1c-0.3,0-0.5,0.1-0.6,0.3c-0.3,0.3-0.4,0.5-0.5,0.9
			c0,0.1,0,0.3,0,0.4l0,0c0-0.1,0-0.1,0-0.1c0-0.4-0.1-0.6-0.4-0.8c-0.3-0.3-0.5-0.4-1-0.4h-0.1c-0.4,0-0.6,0.1-0.9,0.3
			c-0.3,0.3-0.4,0.5-0.4,1l0,0c0,0.1,0,0.5,0,0.9c0,0.1,0,0.4,0,0.5c0,0-0.1,0-0.1-0.1c-0.6-0.4-1.3-0.8-1.8-1.1
			c-1.1-0.8-2.2-1.8-3.2-2.5c-0.1-0.1-0.4-0.3-0.5-0.5c-0.5-0.4-0.9-0.8-1.4-1.1c-1-0.8-2-1.1-2.9-1.4c0-0.1,0-0.1,0-0.3
			s0-0.4-0.1-0.5c0-0.1,0-0.1-0.1-0.3c-0.3-0.6-0.9-1.1-1.6-1.1c-0.3,0-0.4,0-0.6,0.1c-0.4,0.1-0.6,0.4-0.9,0.5c0,0.8,0,0.8-0.1,0.8
			h-0.1c-0.1,0-0.4,0-0.5,0c-0.4,0-1,0-1.5,0.5c-0.3,0.3-0.6,0.5-1,1c-0.1,0.1-0.3,0.4-0.4,0.6v0.1c0,0.1,0,0.1-0.1,0.3
			c0,0.1-0.1,0.3-0.1,0.3l-0.1,0.1c-0.1,0.1-0.3,0.4-0.4,0.6c-0.1,0.4-0.1,0.9,0.1,1.1c0.1,0.1,0.1,0.3,0.3,0.3
			c0.1,0.1,0.1,0.1,0.3,0.3c0,0.1-0.1,0.1-0.1,0.3c-0.1,0.3-0.3,0.5-0.3,0.8c0,0.1-0.1,0.4-0.1,0.5c-0.1,0.8-0.3,1.5-0.1,2.3
			c0,0.3,0.1,0.6,0.1,0.9c0.3,0.9,0.6,1.9,1.3,2.8c0.1,0.3,0.3,0.5,0.5,0.8c0,0.1,0.1,0.1,0.1,0.3c0.6,0.9,1.1,1.5,1.8,2.3
			c0.3,0.3,0.5,0.6,0.9,0.9c0.6,0.6,1.1,1.1,1.8,1.6c0.4,0.3,0.6,0.5,1,0.8c0.5,0.4,1.1,0.8,1.6,1c0.4,0.3,0.8,0.4,1.1,0.6
			c0.5,0.3,0.9,0.4,1.4,0.6c0.4,0.1,0.9,0.3,1.3,0.5c0.4,0.1,0.6,0.3,1,0.3c0.4,0.1,0.8,0.3,1.3,0.3c0.3,0,0.4,0.1,0.6,0.1
			c0.4,0.1,0.8,0.1,1.1,0.3l0,0v0.1v0.4v1.4v0.6c0,0.1-0.1,0.3-0.1,0.4l0,0v1.1c0,0.1,0,0.1,0,0.3s0,0.1,0.1,0.3c0,0.1,0,0.3,0,0.4
			c0,0.3,0.1,0.5,0.1,0.6s0.1,0.3,0.1,0.4c0.1,0.3,0.1,0.5,0.3,0.8c0.1,0.3,0.3,0.6,0.4,0.9c0.1,0.1,0.1,0.3,0.3,0.5
			c0.1,0.3,0.4,0.6,0.6,0.9c0.4,0.4,0.6,0.6,1.1,0.9l0,0c0.1,0.1,0.3,0.1,0.4,0.3l0,0c0,0.1,0,0.3,0,0.4s0,0.3,0,0.4
			c-0.3,0.1-0.5,0.4-0.8,0.5c-1,0.8-1.9,1.5-2.7,2.4c-0.4,0.4-0.8,0.9-1,1.3l-0.1,0.3c-0.1,0.3-0.4,0.5-0.5,0.8
			c-0.9,1.3-1.8,2.5-2.5,3.8c-0.5,0.9-0.9,1.8-1.1,2.7c-0.3,0.6-0.4,1.3-0.8,1.8c-0.1,0.4-0.1,0.6,0,1c0,1,0,2-0.1,3
			c-0.1,0.6-0.1,1.3-0.3,1.9c-0.1,0.5-0.1,1.1-0.3,1.8c-0.3,2-0.4,4.2,0.1,6.3c0.4,1.8,1,3.5,1.6,5.2c0,0.3,0,0.4,0,0.6v0.5
			c0,0.5,0,0.9,0,1.4c0,0.1,0,0.3,0,0.4c0,0.4,0,0.8,0,1.1c0,1.3,0,2.5,0,3.8c0,0.8,0,1.5,0,2.2c0,3.2,0,6.5,0,9.7
			c0,0.1,0,0.3,0,0.5c3.8,0.9,7.7,1.3,11.8,1.3C61.8,447.7,63.3,447.6,65,447.5z M62.6,444.3L62.6,444.3c0-0.4,0-0.8,0-1h0.1
			C62.6,443.5,62.6,443.9,62.6,444.3z M63.1,443.3c-0.1,0-0.1,0.1-0.3,0.1c-0.1,0.1,0,0.1,0.1,0.1c0,0,0.1,0,0.1-0.1v0.4
			c-0.1,0-0.1,0.1-0.3,0.1c0,0-0.1,0-0.1,0.1c0-0.4,0-0.6,0-1c0.1-0.1,0.3-0.1,0.4-0.3L63.1,443.3L63.1,443.3z M64.6,435v-0.1
			c0-0.1-0.1,0-0.1,0c0,0.1,0,0.3,0.1,0.4c-0.1,0.3-0.3,0.5-0.5,0.8c0-0.5,0.1-1.1,0.3-1.6c0.1-0.3,0.3-0.4,0.4-0.6l0,0l0,0
			c0.1,0.1,0.3,0.3,0.4,0.3C65,434.5,64.7,434.8,64.6,435z M65.1,434.4c0,0.3,0.1,0.5,0.1,0.8c-0.1,0.3-0.4,0.5-0.5,0.8
			c0-0.3,0-0.4-0.1-0.6C64.8,435,65,434.8,65.1,434.4z M64.6,435.6c0,0.1,0,0.4,0,0.5c-0.1,0.3-0.4,0.5-0.6,0.6c0-0.1,0-0.3,0-0.3
			C64.2,436.2,64.3,435.9,64.6,435.6z M63.8,436.4c-0.1,0.3-0.4,0.6-0.5,0.9l0,0c-0.3,0.3-0.6,0.4-0.9,0.5c0.5-1,1-2,1.6-2.9
			C63.9,435.4,63.8,435.9,63.8,436.4z M63.8,436.9l-0.1,0.1c0-0.1,0.1-0.3,0.1-0.4C63.8,436.8,63.8,436.9,63.8,436.9L63.8,436.9z
			 M63.2,440.4c0.1-0.1,0.1-0.1,0.3-0.3h0.1c0.1,0,0.3-0.1,0.4-0.3c0,0.3,0,0.4,0,0.6c-0.3,0.3-0.5,0.4-0.8,0.5V440.4z M63.1,442.6
			c-0.1,0.1-0.3,0.1-0.3,0.3c0-0.9,0-1.9,0-2.8c0,0.1,0,0.4,0.1,0.5v0.1c0,0.3,0.1,0.5,0.1,0.8c-0.4,0.3-0.3,0.6,0,0.9L63.1,442.6
			L63.1,442.6z M63.1,439.4L63.1,439.4c-0.1,0-0.1,0-0.3,0.1c0-0.1,0-0.1-0.1-0.3c0-0.1,0-0.1,0-0.3c0.1-0.1,0.1-0.1,0.3-0.3v0.6
			H63.1z M63.2,443.7v-0.4l0,0C63.3,443.4,63.3,443.5,63.2,443.7L63.2,443.7z M63.3,442.3h0.1l-0.1,0.1
			C63.3,442.3,63.3,442.3,63.3,442.3z M63.9,443c-0.1,0.1-0.3,0.3-0.5,0.4c0-0.1,0-0.3,0-0.3c0.1-0.1,0.4-0.3,0.5-0.4
			C63.9,442.9,63.9,443,63.9,443z M63.9,442.6c-0.3,0.1-0.4,0.3-0.5,0.4c0-0.1,0-0.3,0-0.5c0.1-0.1,0.3-0.3,0.4-0.4V442
			c0.1,0,0.1-0.1,0.3-0.1C63.9,442.1,63.9,442.4,63.9,442.6z M64.2,442.5L64.2,442.5c0-0.3,0-0.5,0-0.8c0.1,0,0.1-0.1,0.1-0.1
			C64.3,441.9,64.2,442.3,64.2,442.5z M64.6,440.1c-0.1,0.1-0.3,0.3-0.5,0.4c0-0.1,0-0.4,0-0.5c0.3-0.1,0.4-0.3,0.6-0.4
			C64.7,439.7,64.7,439.9,64.6,440.1z M65.1,438.1c-0.4,0.3-0.6,0.5-1,0.8c0-0.1,0-0.3,0-0.4s-0.1-0.1-0.1,0s0,0.3,0,0.5
			c-0.3,0.1-0.4,0.3-0.6,0.4v-0.6h0.1c0.8-0.4,1.3-1,1.9-1.5c0,0.1,0,0.1,0,0.3s0.1,0.1,0.1,0c0-0.3,0.1-0.4,0.1-0.6l0.1-0.1
			C65.3,437.1,65.2,437.6,65.1,438.1z M65.3,435c0-0.3-0.1-0.5-0.1-0.6c0.1,0,0.1,0.1,0.3,0.1c0,0.1,0,0.3,0,0.4
			C65.5,434.9,65.5,434.9,65.3,435z M66,434.2h-0.1l0,0C66,434,66,434,66,434.2L66,434.2z M66.2,433.9c-0.1,0-0.3,0-0.4,0l0,0
			C66,433.8,66.1,433.8,66.2,433.9L66.2,433.9z M71.4,424.9c0,1.3-0.3,2.4-0.9,3.4c-0.3,0.4-0.4,0.6-0.8,1l-0.1,0.1l-0.1,0.1
			c-0.5,0.5-0.9,0.9-1.4,1.4c-0.3,0.1-0.3,0.4-0.1,0.5c-0.5,0.6-1.1,1.4-1.6,2c-0.1,0-0.3,0-0.5,0c0-0.1,0-0.3,0.1-0.4
			c0-0.1-0.1-0.1-0.1,0s-0.1,0.3-0.1,0.4c-0.1,0-0.1,0-0.3,0l0,0c0-0.1-0.1-0.1-0.1-0.1v0.1h-0.1v-0.1c0-0.1-0.1-0.1-0.1,0v0.1l0,0
			c0,0,0,0-0.1,0h-0.1l0,0c0.8-1.1,1.4-2.4,1.9-3.7c0.3,0,0.5-0.1,0.5-0.5c0-0.3,0-0.6,0-0.9c0.3-1,0.4-2.2,0.5-3.3
			c0.1-1.1,0-2.3-0.3-3.3c0.3-0.4,0.6-0.6,0.9-1c0,0.1,0.1,0.3,0.1,0.4s0.3,0,0.1,0c0-0.1-0.1-0.3-0.1-0.5c0.3-0.3,0.4-0.4,0.6-0.6
			c0.1,0.3,0.3,0.5,0.3,0.8c0,0.1,0.3,0,0.1,0c-0.1-0.3-0.3-0.5-0.3-0.9c0.1-0.1,0.3-0.3,0.4-0.4v0.9c0,0.1,0.1,0.1,0.1,0v-1.1
			c0.1-0.1,0.1-0.1,0.3-0.3c0.1,0,0.1,0.1,0.3,0.1s0.1-0.1,0.1-0.1c-0.1,0-0.1-0.1-0.3-0.1c0.1-0.1,0.3-0.3,0.5-0.4
			c0.1-0.1,0-0.1-0.1-0.1c-0.1,0.1-0.4,0.3-0.5,0.4c-0.1-0.1-0.1-0.1-0.3-0.3l0,0c0.1-0.1,0.3-0.1,0.3-0.3c0.1-0.1,0-0.3-0.1-0.1
			c-0.1,0-0.1,0.1-0.3,0.1v-0.5l0,0c0.1,0,0.3-0.1,0.4-0.1C71.4,420.1,71.4,422.8,71.4,424.9z M66.2,414.8c0,0.1,0,0.3,0,0.4
			c-0.1,0-0.3,0.1-0.3,0.1c0-0.1,0-0.4,0-0.5c0.1,0,0.1-0.1,0.3-0.1c0,0,0,0.1,0.1,0.1c0,0,0.1,0,0.1-0.1h0.1l0,0c0,0.1,0,0.4,0,0.5
			l0,0c0-0.1,0-0.1,0-0.3C66.3,414.7,66.2,414.7,66.2,414.8z M66.2,415.3c0,0.1,0,0.3,0,0.4l0,0c-0.1-0.1-0.3-0.1-0.3-0.3l0,0
			C66,415.4,66.1,415.4,66.2,415.3z M66.3,417L66.3,417c0,0.4,0.1,0.5,0.3,0.8c0,0,0,0,0,0.1c0.1,0.1,0.1,0.3,0.3,0.4v0.1
			c0,0-0.1,0-0.1,0.1l0,0c0,0.1-0.1,0.1-0.1,0.3c-0.3-0.6-0.4-1.3-0.6-1.9C66.1,416.8,66.2,417,66.3,417z M66.6,414.5
			c0.1,0,0.3,0,0.3,0l0,0c0,0.1,0,0.3,0,0.4c-0.1,0-0.3,0.1-0.3,0.1C66.6,414.9,66.6,414.8,66.6,414.5L66.6,414.5z M66.9,415.1
			c0,0.1,0,0.1,0,0.3c-0.1,0-0.1,0.1-0.3,0.1c0-0.1,0-0.3,0-0.4C66.6,415.2,66.7,415.2,66.9,415.1z M66.7,415.6L66.7,415.6
			c0,0.3,0.1,0.3,0.1,0.1v-0.1H67c0,0.1,0,0.1,0,0.3c-0.1,0-0.4,0.1-0.5,0.1v-0.1C66.6,415.7,66.7,415.7,66.7,415.6z M67,414.5
			L67,414.5L67,414.5c0,0.1,0,0.3,0,0.4l0,0C67,414.7,67,414.7,67,414.5L67,414.5z M68.1,414.7L68.1,414.7c0,0,0-0.1,0-0.3l0.1-0.1
			c0,0.3,0,0.5,0,0.8l0,0c-0.1,0-0.1,0.1-0.3,0.1c0-0.1,0-0.3,0-0.4h0.1C68.2,414.8,68.2,414.7,68.1,414.7z M68.1,414.3
			c0-0.1,0-0.1,0-0.3c0,0,0.1,0,0.1-0.1c0,0.1,0,0.1,0,0.3C68.1,414.3,68.1,414.3,68.1,414.3z M68.8,416.6c0.1-0.1,0.3-0.1,0.4-0.3
			c0.1-0.1,0.3-0.1,0.4-0.3c0,0.1-0.1,0.3-0.1,0.4c-0.3,0.3-0.6,0.5-0.9,0.8l0,0C68.6,417,68.6,416.8,68.8,416.6L68.8,416.6z
			 M69,418.5c-0.1,0.1-0.1,0.1-0.3,0.3c-0.1-0.1-0.3-0.1-0.4-0.3l0,0C68.6,418.3,68.9,418.5,69,418.5z M67,418.3
			c0.1,0.3,0.4,0.5,0.5,0.9c-0.1,0.1-0.1,0.3-0.3,0.4C67.1,419.2,67,418.8,67,418.3C67,418.5,67,418.5,67,418.3z M66.6,417.2
			c0.1,0.3,0.3,0.5,0.4,0.6l0,0C66.9,417.7,66.7,417.5,66.6,417.2z M68.5,419.6C68.4,419.6,68.4,419.5,68.5,419.6c0-0.1,0.1,0,0.1,0
			c0.1,0,0.1-0.1,0.1-0.1c-0.1,0-0.1-0.1-0.3-0.1l0.1-0.1c0,0.1,0.1,0.3,0.1,0.4c-0.3,0.3-0.4,0.4-0.6,0.6c0-0.1-0.1-0.3-0.1-0.4
			c0.1-0.1,0.1-0.1,0.3-0.3C68.2,419.6,68.2,419.6,68.5,419.6C68.4,419.7,68.5,419.6,68.5,419.6z M68.6,418.7c0,0,0.1,0,0.1,0.1
			l-0.1,0.1C68.6,418.8,68.6,418.7,68.6,418.7z M68.8,419l0.1-0.1c0.1,0.1,0.4,0.1,0.5,0.3l0,0c-0.1,0.1-0.3,0.3-0.5,0.4
			C68.9,419.4,68.8,419.1,68.8,419z M67.5,420.1c0-0.1-0.1-0.3-0.1-0.4c0.1-0.1,0.1-0.3,0.3-0.4c0.1,0.1,0.1,0.3,0.3,0.4
			C67.6,419.9,67.6,420,67.5,420.1z M67.5,420.5c-0.1-0.1-0.3-0.3-0.4-0.4l0,0V420C67.4,420.1,67.4,420.4,67.5,420.5z M67.6,420.2
			c0.1-0.1,0.1-0.1,0.3-0.3c0,0.1,0.1,0.3,0.1,0.4c-0.1,0.1-0.1,0.3-0.3,0.4C67.7,420.5,67.6,420.4,67.6,420.2L67.6,420.2z
			 M67.9,419.6c-0.1-0.1-0.1-0.3-0.3-0.4c0-0.1,0.1-0.1,0.1-0.3c0.1,0.1,0.3,0.3,0.3,0.4S68,419.6,67.9,419.6z M67.6,419.1
			c-0.1-0.1-0.3-0.4-0.3-0.5c0.1,0.1,0.3,0.3,0.4,0.4C67.6,419,67.6,419,67.6,419.1z M67.1,419.7c0,0.1-0.1,0.1-0.1,0.3
			c0,0,0-0.1-0.1-0.1c-0.1-0.3-0.1-0.5-0.3-0.9c0-0.1,0-0.1,0.1-0.3C67,419.1,67,419.5,67.1,419.7z M67.6,420.9L67.6,420.9
			C67.5,421,67.6,421,67.6,420.9l0.1,0.3l0,0l0,0c0,0.1,0.3,0,0.1-0.1c0-0.1-0.1-0.1-0.1-0.3c0.1-0.1,0.1-0.3,0.3-0.4
			c0,0.1,0.1,0.3,0.1,0.4c-0.3,0.4-0.6,0.6-0.9,1c0-0.5-0.1-1-0.3-1.5C67.2,420.5,67.4,420.7,67.6,420.9z M68.2,420.4
			c0.3-0.3,0.4-0.4,0.6-0.6c0,0.1,0.1,0.3,0.1,0.4c-0.3,0.3-0.4,0.4-0.6,0.6C68.4,420.6,68.2,420.5,68.2,420.4z M69,419.6
			c0.3-0.1,0.4-0.4,0.6-0.5v0.5c-0.1,0.1-0.3,0.3-0.4,0.4C69.1,419.9,69,419.7,69,419.6z M69.4,418.8c-0.1,0-0.3-0.1-0.4-0.1
			c0.1,0,0.1-0.1,0.3-0.1C69.3,418.6,69.4,418.7,69.4,418.8z M69.3,418.5c0.1,0,0.1,0,0.3,0v0.5C69.5,418.7,69.4,418.6,69.3,418.5z
			 M68.5,419c-0.1,0.1-0.1,0.1-0.3,0.3c-0.1-0.1-0.3-0.3-0.3-0.3l0,0c0.1-0.1,0.3-0.3,0.4-0.5l0,0C68.4,418.6,68.5,418.8,68.5,419z
			 M68.2,415.3v0.1c-0.1,0-0.3,0.1-0.3,0.1v-0.1C68.1,415.4,68.1,415.4,68.2,415.3z M68.1,418.3c-0.1,0.1-0.3,0.3-0.4,0.4
			c-0.3-0.3-0.4-0.5-0.6-0.9c0.1-0.1,0.1-0.3,0.3-0.4l0,0c0,0,0,0.1,0.1,0.1C67.7,418,68,418.1,68.1,418.3z M67.6,415.7
			C67.6,415.7,67.6,415.8,67.6,415.7c0,0.1-0.1,0.1-0.1,0.1S67.5,415.8,67.6,415.7C67.5,415.7,67.6,415.7,67.6,415.7z M67.5,415.6
			c0-0.1,0-0.3,0-0.4l0,0C67.6,415.3,67.6,415.4,67.5,415.6L67.5,415.6z M67.7,414.9c0-0.1,0-0.1,0-0.3c0,0,0.1,0,0.1-0.1
			c0,0.1,0,0.1,0,0.3C67.9,414.8,67.7,414.9,67.7,414.9z M67.9,415.1c0,0.1,0,0.3,0,0.4h-0.1C67.7,415.3,67.7,415.2,67.9,415.1
			C67.7,415.1,67.9,415.1,67.9,415.1z M67.9,414.4c0,0-0.1,0-0.1,0.1v-0.1c0-0.1-0.1-0.1-0.1,0v0.1l0,0v-0.1c0-0.1-0.1-0.1-0.1,0
			s0,0.1,0,0.3c0,0-0.1,0-0.1,0.1c0-0.1,0-0.1,0-0.3c0,0,0,0,0-0.1c0.3-0.1,0.5-0.1,0.8-0.3C67.9,414.2,67.9,414.3,67.9,414.4z
			 M67.2,415.7c0-0.1,0-0.3,0-0.3s0.1,0,0.1-0.1C67.4,415.4,67.4,415.6,67.2,415.7L67.2,415.7z M67.4,415.8v0.1h-0.1l0,0L67.4,415.8
			C67.2,415.8,67.2,415.8,67.4,415.8z M67.2,415.2c0-0.1,0-0.1,0-0.3c0,0,0.1,0,0.1-0.1c0,0.1,0,0.1,0,0.3
			C67.4,415.1,67.2,415.2,67.2,415.2z M67.2,417.1c0.1,0,0.1,0,0.3-0.1c0,0.1,0,0.1,0,0.3l0,0l0,0c0-0.1-0.3,0-0.1,0.1
			c0,0,0,0.1,0.1,0.1c-0.1,0.1-0.1,0.3-0.3,0.4c-0.1-0.3-0.3-0.4-0.4-0.6c0-0.1-0.1,0-0.1,0c0-0.1-0.1-0.1-0.1-0.3l0,0
			c0.1,0,0.1,0,0.3,0C66.9,417.1,67,417.1,67.2,417.1z M67.1,415.1c0,0.1,0,0.1,0,0.3H67C67,415.2,67,415.1,67.1,415.1L67.1,415.1z
			 M69.8,419.5v-0.1C69.8,419.2,69.8,419.4,69.8,419.5L69.8,419.5z M75.2,407.6c0-0.3,0-0.5,0-0.8c0-0.1,0-0.1,0.1-0.3
			c0,0.1,0,0.1,0,0.3c0,0,0,0.1,0.1,0.1C75.5,407.2,75.3,407.5,75.2,407.6L75.2,407.6z M75.1,408.5L75.1,408.5
			c0,0.3-0.1,0.4-0.1,0.5l0,0C75,408.9,75,408.7,75.1,408.5z M74.7,410.1c0,0.1,0.1,0,0.1,0c0-0.3,0-0.4,0-0.6
			c0.1-0.3,0.1-0.4,0.3-0.6l0,0c0,0.1,0.1,0,0.1,0c0-0.1,0-0.1,0-0.3l0,0v-0.1c0.1-0.4,0.3-0.8,0.5-1.1c0-0.1,0-0.1-0.1-0.1
			c0.1-0.4,0.3-0.6,0.4-1c0-0.1-0.1-0.1-0.1,0c-0.1,0.1-0.1,0.4-0.3,0.5c0-0.1,0-0.4,0-0.5c0.1-0.3,0.1-0.5,0.3-0.8
			c0-0.1-0.1-0.1-0.1,0c0,0.1-0.1,0.3-0.1,0.5c0-0.1,0-0.3,0-0.3c0.4-0.4,0.8-1.1,1.3-1.1c0.4,0,0.6,1.4,0.8,1.6c0.5,2,0.4,4,0,6.2
			c-0.4,1.6-1,3-2.7,3.9c-1.6,0.9-3.8,0.8-5.6,1.4h-0.1c-0.1,0-0.3,0-0.4-0.1c0.3-0.3,0.5-0.4,0.8-0.6l0,0c0.1-0.1,0.3-0.3,0.4-0.3
			v-0.1c0.3-0.3,0.4-0.5,0.6-0.6c0,0.1,0,0.3-0.1,0.4c0,0.1,0.1,0.1,0.1,0c0-0.3,0.1-0.5,0.1-0.8c0-0.1,0.1-0.1,0.1-0.3H71
			c0-0.1,0-0.1,0.1-0.3c0.1-0.3,0.4-0.4,0.5-0.6c0,0.1,0,0.1,0,0.3c-0.3,0.4-0.4,0.8-0.6,1.1c0,0.1,0.1,0.1,0.1,0.1
			c0.3-0.4,0.4-0.8,0.6-1.1h0.1c0.1-0.1,0.1-0.4,0.3-0.5v0.1l-0.1,0.1c-0.1,0.1,0,0.3,0.1,0.1c0.4-0.5,0.9-1,1.1-1.5h0.1
			c0.1-0.3,0.3-0.5,0.4-0.8v-0.1l0,0c0.3-0.4,0.4-0.8,0.6-1.3h0.1c0.1-0.3,0.1-0.4,0.3-0.6C74.7,410,74.7,410,74.7,410.1z
			 M69.6,416.2c0-0.1,0-0.3,0.1-0.4c0.3-0.1,0.4-0.4,0.6-0.5C70.1,415.6,69.9,415.9,69.6,416.2z M71.7,413.9c0-0.1,0-0.3,0-0.3l0,0
			c0.1-0.1,0.3-0.4,0.3-0.5c0,0.1,0,0.3,0,0.3C71.9,413.5,71.8,413.7,71.7,413.9z M72.3,413.3c0.1-0.1,0.1-0.1,0.3-0.3l0,0v-0.1l0,0
			c0.1-0.1,0.1-0.3,0.3-0.4c0,0,0.1,0,0.1-0.1c0.1-0.3,0.3-0.5,0.5-0.8c0,0.1,0.1,0,0.1,0c0-0.1,0-0.3,0-0.5
			c0.1-0.1,0.3-0.3,0.3-0.5c0,0.1,0,0.4,0,0.5l0,0c-0.1,0.1-0.1,0.4-0.3,0.5c-0.4,0.6-0.9,1.4-1.4,2c0-0.1,0-0.1,0-0.3
			C72.2,413.4,72.3,413.3,72.3,413.3z M72.2,413.2c0-0.1,0-0.3,0-0.3c0-0.1,0.1-0.1,0.1-0.3v0.1c0,0,0,0.1,0,0.3
			C72.3,412.9,72.3,413,72.2,413.2z M72.5,412.3c0.1-0.1,0.1-0.3,0.3-0.3c0,0.1,0,0.1,0,0.3c0,0.1-0.1,0.3-0.1,0.3
			C72.5,412.4,72.5,412.4,72.5,412.3L72.5,412.3z M72.8,411.9c0.1-0.1,0.1-0.3,0.3-0.4l0,0C73.1,411.6,72.9,411.8,72.8,411.9
			L72.8,411.9z M73.9,410.9c0-0.1,0-0.3,0-0.4c0,0.1,0,0.1,0,0.3l0,0C74.1,410.7,74.1,410.9,73.9,410.9z M74.2,410L74.2,410
			c0,0,0,0.1,0,0.3l0,0c0,0.1-0.1,0.1-0.1,0.3l0,0C74.2,410.2,74.2,410.1,74.2,410L74.2,410z M74.7,409.2v0.1
			c-0.1,0.1-0.1,0.4-0.3,0.5l0,0v0.1c0-0.1,0-0.3,0-0.4C74.6,409.5,74.6,409.4,74.7,409.2z M74.4,401.1c0.1,1.1-0.3,2.2-0.3,3.3
			c0,1.3,0.3,2.4-0.1,3.7c-0.3,1-1.1,1.8-1.8,2.7c-0.6,0.8-1,1.5-1.5,2.4c-0.6,1.1-1.4,1.9-2.4,2.4c0-0.4,0-0.8,0-1.1
			c0,0,0.1,0,0.1-0.1c0.1,0,0-0.3-0.1-0.1l0,0c0-0.1,0-0.1,0-0.3c0.1,0,0.3-0.1,0.3-0.1c1.4-0.9,2.7-1.9,3.3-3.4
			c0.3-0.5,0.3-0.9,0.4-1.4c0-0.1,0.1-0.3,0.1-0.3c0.1-0.4,0-0.8,0-1.1c0-0.1,0-0.4,0-0.5c0.1-0.1,0.3-0.4,0.4-0.5
			c0.1-0.1-0.1-0.1-0.1-0.1c-0.1,0.1-0.1,0.3-0.3,0.4c0-0.4-0.1-0.6-0.1-1c0.1-0.3,0.1-0.5,0.3-0.8c0-0.1-0.1-0.1-0.1,0l0,0
			c0-0.1-0.1-0.1-0.1,0v0.1v-0.1c0.1-0.1,0.3-0.4,0.3-0.5c0-0.1-0.1-0.1-0.1-0.1c0,0.1-0.1,0.3-0.1,0.4c-0.1-0.4-0.1-0.9-0.1-1.3
			c0.1-0.1,0.3-0.4,0.4-0.5c0.1-0.1-0.1-0.1-0.1-0.1c-0.1,0.1-0.1,0.3-0.3,0.3c0-0.3,0-0.5,0-0.8s0.1-0.4,0.1-0.6
			c0-0.1-0.1-0.1-0.1,0l0,0c0-0.3,0-0.5-0.1-0.8v-0.1c0-0.1,0.1-0.3,0.1-0.4c-0.3-0.4-0.4-0.4-0.4-0.4s0,0.1-0.1,0.1
			c0-0.1,0-0.3-0.1-0.4c0-0.1,0.1-0.3,0.1-0.5c0-0.1-0.1-0.1-0.1,0c0,0.1,0,0.1,0,0.3c0-0.1,0-0.1,0-0.3
			C72.8,399,74.3,399.4,74.4,401.1z M71.3,401.6c0,0.4,0,0.9,0.1,1.3v0.1c0-0.4-0.1-0.8-0.1-1.1C71.3,401.8,71.3,401.8,71.3,401.6z
			 M71.2,401.4c0-0.1,0-0.3,0-0.5c0,0,0-0.1,0.1-0.1c0,0.1,0,0.3,0,0.5C71.3,401.3,71.3,401.4,71.2,401.4z M71.4,403.3
			c0,0.1,0,0.4,0,0.5s-0.1,0.3-0.1,0.3c0-0.1,0-0.3-0.1-0.5C71.3,403.5,71.4,403.4,71.4,403.3z M72.3,406.8l-0.1,0.1
			c0-0.1-0.1-0.4-0.1-0.5s0.1-0.3,0.1-0.5C72.2,406.3,72.3,406.6,72.3,406.8z M72.2,405.2c0-0.1,0.1-0.1,0.1-0.3
			c0,0.1-0.1,0.3-0.1,0.4C72.2,405.2,72.2,405.2,72.2,405.2z M72.3,407.1L72.3,407.1c0,0.1,0,0.3,0,0.3v0.1
			C72.3,407.3,72.3,407.3,72.3,407.1C72.3,407.2,72.3,407.1,72.3,407.1z M71.9,406.2v-0.1c0-0.3,0.1-0.4,0.3-0.6c0,0.1,0,0.1,0,0.3
			C72,405.8,71.9,406.1,71.9,406.2z M71.8,405.7c0-0.1,0-0.1-0.1-0.3l0,0c0.1-0.1,0.3-0.4,0.4-0.5v0.1
			C71.9,405.3,71.8,405.6,71.8,405.7z M71.8,404.9c0-0.1,0-0.3,0-0.4c0-0.1,0.1-0.3,0.1-0.4c0,0.1,0,0.1,0,0.3s0,0.1,0,0.3
			S71.8,404.9,71.8,404.9z M71.7,404.3c0-0.1,0-0.3,0-0.4s0.1-0.3,0.1-0.4c0,0.1,0,0.3,0,0.4S71.8,404.2,71.7,404.3z M71.7,405.2
			L71.7,405.2l-0.1-0.1v-0.1C71.7,405.1,71.7,405.1,71.7,405.2L71.7,405.2z M71.5,403.5c0-0.1,0-0.4,0-0.5s0.1-0.3,0.1-0.5
			c0,0.3,0,0.4,0,0.6C71.7,403.3,71.7,403.4,71.5,403.5z M71.5,404.5c0,0,0,0.1-0.1,0.1c0-0.1,0-0.1-0.1-0.3c0-0.1,0-0.1,0.1-0.3
			C71.5,404.3,71.5,404.4,71.5,404.5z M71.5,402.5c0-0.4,0-0.9,0-1.3c0-0.1,0.1-0.3,0.1-0.4c0,0.4,0,0.8,0.1,1.1l0,0
			C71.7,402.1,71.5,402.4,71.5,402.5z M71.4,400.9c0-0.1,0-0.3,0-0.4s0-0.1,0.1-0.3c0,0.1,0,0.3,0.1,0.4
			C71.5,400.6,71.5,400.8,71.4,400.9z M71.3,399.5c0,0.1,0.1,0.4,0.1,0.5v0.1l0,0c0-0.1-0.1-0.1-0.1,0s0,0.3,0,0.4
			c0,0,0,0.1-0.1,0.1c0-0.4,0-0.6,0-1C71.2,399.5,71.3,399.5,71.3,399.5z M71.2,403.2L71.2,403.2v0.1c0-0.4-0.1-0.6-0.1-1v-0.1
			C71.2,402.5,71.2,402.9,71.2,403.2z M71,401.4c0,0.1,0,0.4,0,0.5v0.1c0-0.1,0-0.3,0-0.4S71,401.4,71,401.4z M71,399.6
			c0,0.4,0,0.9,0,1.4c0,0.1-0.1,0.1-0.1,0.3c0-0.5-0.1-1-0.3-1.5C70.8,399.7,70.9,399.6,71,399.6z M67.6,396.3
			c0.3-0.3,0.5-0.6,0.8-0.8c0.1,0,0.5,1.1,0.5,1.3c0.8,2.5,0.9,5.2,1.4,7.7c0.3,1.4,1,2.8,0.9,4.2c-0.1,1.4-1.1,2.7-2.3,3.4
			c-0.8,0.5-2.5,2-3.4,1l0,0V413c0-0.3-0.1-0.4-0.3-0.5c-0.1-0.4-0.1-1-0.1-1.4c0.5-0.3,0.9-0.6,1.3-1c0,0.1,0.1,0.3,0.1,0.3
			c0,0.1,0.3,0,0.1-0.1c-0.1-0.1-0.1-0.3-0.3-0.4c0.3-0.3,0.5-0.6,0.6-1l0.1,0.1c0.1,0.1,0.3,0,0.1-0.1c0-0.1-0.1-0.1-0.1-0.3
			c0.3-0.4,0.4-0.9,0.6-1.3c0.5,0,0.8-0.9,0.1-1c-0.1,0-0.4-0.1-0.5-0.1c0.1-0.1,0.1-0.3,0.3-0.4v0.1c0,0.1,0.3,0,0.1,0
			c0-0.1,0-0.1-0.1-0.3v-0.1c0-0.1-0.1-0.3-0.1-0.4c0.1-0.3,0.3-0.5,0.4-0.9c0-0.1-0.1-0.1-0.1,0c-0.1,0.3-0.3,0.5-0.3,0.6
			c0-0.3-0.1-0.5-0.1-0.6c0.1-0.1,0.1-0.3,0.3-0.4c0-0.1-0.1-0.1-0.1-0.1c0,0.1-0.1,0.1-0.1,0.3c0-0.1,0-0.4-0.1-0.5
			c0.1-0.1,0.1-0.3,0.3-0.4c0.1,0.4,0.1,0.8,0.4,1.1c0,0.1,0.3,0,0.1,0c-0.1-0.4-0.3-0.9-0.4-1.4c0.1-0.3,0.3-0.6,0.4-0.9
			c0-0.1-0.1-0.1-0.1-0.1c-0.1,0.3-0.3,0.4-0.4,0.6c0-0.1,0-0.3,0-0.4c0.1-0.4,0.4-0.8,0.5-1c0-0.1-0.1-0.1-0.1-0.1
			c-0.1,0.3-0.3,0.5-0.4,0.9c0-0.4,0-0.8,0-1.1c0.1-0.5,0.3-0.9,0.3-1.4c0-0.1-0.1-0.1-0.1,0c0,0.3,0,0.5-0.1,0.8c0-0.4,0-0.8,0-1.1
			c0-0.1-0.1-0.1-0.1,0c0,0.5,0,1,0.1,1.5c0-0.3-0.1-0.5-0.1-0.8c0-0.5,0-1.1,0-1.6c0.1-0.3,0.4-0.5,0.6-0.6c0.1-0.1,0-0.3-0.1-0.1
			c-0.1,0.1-0.4,0.4-0.5,0.5c0-0.1,0-0.4,0-0.5l0.1-0.1c0.1-0.1,0-0.3-0.1-0.1l0,0l0,0c0,0,0-0.1-0.1-0.1
			C67.2,396.8,67.5,396.6,67.6,396.3z M65.6,414.7c0-0.1,0-0.1,0-0.3c0.1,0,0.1,0,0.3,0v0.1C65.7,414.7,65.6,414.7,65.6,414.7z
			 M65.7,414.8c0,0.1,0,0.3,0,0.4C65.7,415.1,65.7,414.9,65.7,414.8L65.7,414.8z M65,410c-0.1-0.3-0.1-0.5-0.1-0.8
			c0.1-0.1,0.3-0.3,0.4-0.5c0,0.3,0.1,0.5,0.1,0.8C65.2,409.6,65.1,409.9,65,410z M65.1,410.6L65.1,410.6c0-0.1-0.1-0.1-0.1-0.3
			v-0.1C65,410.5,65,410.5,65.1,410.6z M64.8,410.1l-0.1,0.1c-0.1,0-0.3,0-0.4,0c0-0.1-0.1-0.4-0.1-0.5c0.1-0.1,0.4-0.4,0.5-0.5
			C64.7,409.6,64.7,409.9,64.8,410.1z M65.6,408.1c-0.1,0.1-0.3,0.4-0.4,0.5c0.1-0.3,0.3-0.4,0.4-0.6V408.1L65.6,408.1z M67.1,404.2
			c0-0.1,0.1-0.1,0.1-0.3c0,0.3,0.1,0.4,0.1,0.6c-0.1,0.3-0.3,0.5-0.4,0.8c0-0.3,0-0.5,0-0.6C67,404.4,67,404.3,67.1,404.2z
			 M67,398.7l0.1-0.1c0,0.3,0,0.5,0,0.8C67,399.1,67,398.9,67,398.7z M67.2,402.6c0-0.4,0-0.8,0-1.1c0-0.1,0.1-0.1,0.1-0.3
			c0,0.4,0,0.6,0,1C67.4,402.4,67.4,402.5,67.2,402.6z M67.5,402.6c0,0.1,0,0.3,0,0.4c-0.1,0.1-0.1,0.3-0.3,0.4v-0.1
			c0,0,0-0.1-0.1,0c0-0.1,0-0.1,0-0.3C67.4,402.9,67.4,402.8,67.5,402.6z M67.2,401.1c0-0.3,0-0.4-0.1-0.6l0,0c0,0.1,0,0.1,0,0.3
			s0.1,0.1,0.1,0l0,0C67.4,400.9,67.2,401,67.2,401.1z M67.4,404.8c0,0.3,0.1,0.4,0.1,0.6c-0.1,0.3-0.4,0.5-0.5,0.9
			c0-0.3-0.1-0.4-0.1-0.6C67.1,405.3,67.2,405.1,67.4,404.8z M66,409.4c-0.1,0.1-0.3,0.3-0.4,0.5c0-0.1-0.1-0.3-0.1-0.4
			c0.1-0.1,0.3-0.3,0.3-0.5C65.8,409.1,66,409.2,66,409.4z M66,408.9c0.1-0.1,0.1-0.4,0.3-0.5c0.1,0.1,0.1,0.3,0.3,0.4
			c-0.1,0.1-0.3,0.4-0.4,0.5C66,409.1,66,409,66,408.9z M65.6,410.2c0,0.1,0.3,0,0.1-0.1V410c0.1-0.1,0.3-0.3,0.4-0.5
			c0.1,0.1,0.1,0.3,0.3,0.4c-0.3,0.4-0.6,0.6-0.9,0.9l0,0c0-0.1-0.1-0.1-0.1-0.3C65.3,410.5,65.5,410.4,65.6,410.2L65.6,410.2z
			 M66.2,409.4c0.1-0.1,0.3-0.4,0.4-0.5c0.1,0.1,0.1,0.3,0.3,0.4c-0.1,0.3-0.3,0.4-0.4,0.6C66.3,409.7,66.2,409.6,66.2,409.4z
			 M66.6,408.7c0.1-0.1,0.1-0.1,0.1-0.3c0,0.1,0.1,0.3,0.1,0.4s-0.1,0.1-0.1,0.3C66.9,409,66.7,408.9,66.6,408.7z M67,408.2
			c0.1-0.3,0.3-0.5,0.4-0.8l0,0c0.1,0,0.3,0,0.3,0c-0.1,0.4-0.4,0.8-0.5,1.1C67,408.6,67,408.3,67,408.2z M67.4,406.6h-0.1
			c0.1-0.3,0.3-0.6,0.5-0.9c0,0.1,0,0.1,0.1,0.3C67.6,406.1,67.5,406.3,67.4,406.6z M67.2,407.5c-0.1,0.1-0.3,0.4-0.3,0.5
			c0-0.1,0-0.3,0-0.4c0-0.1-0.1-0.1-0.1,0c0,0.1,0,0.4,0.1,0.5c-0.1,0.1-0.1,0.3-0.3,0.4c-0.1-0.1-0.1-0.3-0.3-0.4
			c0-0.1,0.1-0.3,0.1-0.4c0-0.1-0.1-0.1-0.1,0c0,0.1-0.1,0.1-0.1,0.3c0-0.1-0.1-0.1-0.1-0.3h0.1c0.1-0.1,0.4-0.3,0.6-0.3h0.1
			C67,407.5,67.1,407.5,67.2,407.5z M66.1,408.2c-0.1,0.1-0.1,0.3-0.3,0.5c0-0.1-0.1-0.4-0.1-0.5l0.1-0.1l0,0l0,0
			C66,408,66,408.1,66.1,408.2z M65.7,408.9c-0.1,0.1-0.3,0.3-0.3,0.5c0-0.3-0.1-0.5-0.1-0.8c0.1-0.1,0.1-0.3,0.3-0.3
			C65.6,408.5,65.7,408.6,65.7,408.9z M65.3,409.6c0,0.1,0.1,0.3,0.1,0.4c-0.1,0.1-0.3,0.4-0.4,0.5c0-0.1-0.1-0.3-0.1-0.3
			C65.1,410,65.2,409.9,65.3,409.6z M65.1,410.7c0,0,0,0.1,0.1,0.1l0,0c0,0-0.1,0-0.1,0.1C65.1,411,65.1,410.9,65.1,410.7
			L65.1,410.7z M66.9,397.3C66.9,397.3,67,397.2,66.9,397.3C67,397.2,67,397.3,66.9,397.3c0.1,0.1,0,0.1,0,0.3
			C66.9,397.5,66.9,397.5,66.9,397.3L66.9,397.3z M66.9,397.8l0.1-0.1c0,0.1,0,0.4,0,0.5s-0.1,0.1-0.1,0.3v-0.1
			C66.9,398.2,66.9,398,66.9,397.8z M66.7,405.6c-0.1,0.3-0.3,0.5-0.4,0.8c0,0.1,0.1,0.1,0.1,0.1c0.1-0.1,0.1-0.4,0.3-0.5
			c0,0.1,0.1,0.4,0.1,0.5l0,0l0,0c-0.3,0-0.5,0-0.8,0.1c0.3-0.5,0.4-0.9,0.5-1.4C66.7,405.3,66.7,405.4,66.7,405.6z M66.7,398.3v0.4
			c0,0,0,0.1-0.1,0.1c0-0.1-0.1-0.3-0.1-0.4c0.1-0.1,0.1-0.3,0.3-0.4C66.6,398.2,66.6,398.3,66.7,398.3z M66.3,398.2
			c0.1-0.1,0.1-0.3,0.3-0.4v0.1C66.5,398.1,66.3,398.2,66.3,398.2L66.3,398.2L66.3,398.2z M76.1,360.9L76.1,360.9
			c0-0.1,0-0.1,0.1-0.3c0.1-0.3,0.5-0.4,0.8-0.4c0.3,0.1,0.4,0.3,0.5,0.4c0.3,0.3,0.6,0.4,1,0.4c0.5,0,1,0,1.4,0.3
			c0.4,0.3,0.8,0.8,0.9,1.1c0.1,0.3,0.1,0.6,0.4,1c0.1,0.1,0.3,0.3,0.4,0.5c0,0.1,0,0.1-0.1,0.1v0.1c-0.3,0-0.9,0.1-1.1,0
			c-0.1-0.1-0.1-0.3-0.1-0.4v-0.1c0.3-0.3,0.4-0.8,0.4-1c0-0.1-0.3-0.1-0.3,0c0,0.3,0,0.6-0.3,0.9c-0.1-0.3-0.3-0.4-0.5-0.5
			c0,0-0.1,0-0.1-0.1c-0.3-0.1-0.5-0.3-0.8-0.5c-0.3-0.1-0.5-0.3-0.8-0.4l0,0c0-0.5-0.3-0.8-0.8-0.9c-0.1,0-0.3,0.1-0.1,0.3
			c0.3,0.1,0.5,0.4,0.5,0.6c-0.4-0.1-0.8-0.3-1.3-0.3l0,0l0,0C76.2,361.5,76.1,361.3,76.1,360.9C76.1,361,76.1,360.9,76.1,360.9z
			 M37.6,363.5c0.1-0.1,0.3-0.4,0.4-0.5c0.3-0.3,0.3-0.6,0.4-1s0.6-0.9,1-1.1c0.4-0.3,0.9-0.3,1.4-0.3c0.4,0,0.8-0.1,1-0.4
			c0.1-0.1,0.4-0.3,0.5-0.4c0.3-0.1,0.8,0.1,0.8,0.4c0,0.1,0,0.1,0,0.3l0,0v0.1c0,0.3-0.1,0.5-0.3,0.6l0,0l0,0c-0.4,0-0.9,0-1.3,0.1
			c0-0.3,0.3-0.5,0.5-0.6c0.1,0,0.1-0.3-0.1-0.3c-0.4,0.1-0.8,0.5-0.8,0.9l0,0c-0.3,0.1-0.5,0.3-0.8,0.4c-0.3,0.1-0.5,0.3-0.8,0.4
			c0,0,0,0.1-0.1,0.1c-0.3,0.1-0.4,0.4-0.5,0.5c-0.1-0.3-0.1-0.6-0.1-0.9c0-0.1-0.3-0.1-0.3,0c0,0.4,0,0.8,0.3,1.1v0.1
			c0,0.1,0,0.3-0.1,0.3c-0.3,0.3-0.9,0.1-1.1,0c0,0-0.1,0,0-0.1C37.6,363.7,37.5,363.7,37.6,363.5z M39.4,372.5
			c-4.7-6.6,1.4-10,1.4-10c1.1-0.5,3-1.1,5.7,0.8c2,1.5,4.8,4.7,8.6,6.1c0-0.3,0-0.5,0-0.8c0-0.1,0.1-2.2,0.1-2.3
			c0-0.3,0-0.3,0.3-0.3c0.1,0,0.1,0,0.1,0.1s0,2.3,0,2.4c0,0.3,0,0.6,0,0.9c0.6,0.3,1.4,0.4,2,0.4c0-0.8,0.1-3,0.1-3.5
			c0-0.1,0-0.1,0-0.3s0-0.1,0.1-0.1H58c0.1,0,0.1,0,0.1,0.1c0,0.6,0,2.5,0,3.8l0,0c0.4,0,0.6,0,1,0c0.4,0,0.9,0,1.3,0
			c0-0.3,0-0.4,0-0.6c0-0.4,0.1-2.8,0.1-3.2v-0.1c0,0,0-0.1,0.1-0.1s0.1,0,0.3,0c0,0,0.1,0,0.1,0.1s0,0.1,0,0.3c0,0.5,0,2.4,0,3.5
			c0.8-0.1,1.4-0.3,2-0.4c0-0.3,0-0.5,0-0.8c0-0.1,0.1-2.4,0.1-2.5c0,0,0-0.1,0.1-0.1c0.1,0,0.1,0,0.3,0c0.1,0,0.1,0,0.1,0.1
			s0,2.4,0,2.7c0,0.1,0,0.3,0,0.4c3.7-1.4,6.5-4.6,8.4-5.9c2.7-2,4.7-1.4,5.7-0.8c0,0,6.1,3.4,1.4,10c-3,4.3-6.6,6.6-10,7.8
			c-3.4,1.3-7,1.4-10,1.8C53.2,381.5,45.5,381.3,39.4,372.5z M49.6,427.5c0-0.4,0-0.9,0-1.3c-0.6-1.8-1.3-3.5-1.6-5.3
			c-1-4.3,0.6-8.6,0.5-12.9c0-0.1,0-0.3-0.1-0.3c0.8-1.4,1-3,1.8-4.4c0.9-1.6,2-3.2,3.2-4.7c1.1-1.5,2.5-2.9,4.3-4v3.4l0,0
			c0,0.1,0.1,0.3,0.3,0.5c0.1-0.1,0.1-0.1,0.3-0.3l0,0v-3.2h-0.3c0-0.8,0-1.4,0.1-1.8c0-0.3,0-0.5,0-0.8v-0.1h-0.1
			c0-0.1,0-0.1,0-0.3h-0.1c-0.3-0.1-0.5-0.3-0.8-0.5c-0.8-0.5-1.3-1-1.6-1.8c-0.3-0.5-0.4-1-0.6-1.5c-0.1-0.4-0.1-0.6-0.3-1
			c0-0.3,0-0.4-0.1-0.6c0,0,0-0.1-0.1-0.1v-1.3c0.1,0,0.1-0.1,0.1-0.1c0-0.3,0-0.5,0-0.8c0-0.6,0-1.1,0.1-1.8
			c0.6,0.1,1.1,0.1,1.8,0.1c0,0.1,0,0.3,0,0.4v0.1c0,0.3,0.3,0.4,0.5,0.3c0,0,0.1,0,0.1-0.1c0,0,0.1-0.1,0.1-0.3s0-0.3,0-0.4
			c0.5,0,0.9,0,1.3,0c0.1,0,0.3,0,0.5,0c0,0.1,0,0.4,0,0.5c0,0.3,0.1,0.5,0.3,0.6c0.1,0.1,0.1,0.1,0.3,0c0.1-0.1,0.3-0.4,0.3-0.6
			s0-0.4,0-0.6c0.6,0,1.1,0,1.8,0c0,0.1,0,0.3,0,0.4v0.1c0,0.1,0.1,0.3,0.3,0.3h0.1c0.1,0,0.3-0.1,0.3-0.4c0-0.1,0-0.3,0-0.4
			s0-0.1,0-0.3c0.6-0.1,1.3-0.1,1.8-0.3c0,1.1,0,2.3,0,3.4c0,0.6,0,1.3,0,1.8c0,0.4-0.1,0.9-0.1,1.3c-0.3,0.9-0.6,1.8-1.4,2.4l0,0
			c-0.1,0.1-0.3,0.1-0.4,0.3c-0.3,0.3-0.6,0.5-1,0.6c-0.1,0-0.1,0.1-0.1,0.1v0.1l0,0l0,0v0.8c0.4,0.1,0.6,0.4,0.9,0.8l0,0l0,0
			c1,1.8,2.5,3.2,3.5,4.9c1.6,3.2,0.3,6.8-1.5,9.5c-0.3,0.4,0.3,0.9,0.6,0.8c-0.1,0.1-0.4,0.4-0.5,0.5c-0.3-0.8-0.5-1.6-0.8-2.5
			c-0.3-1.1-0.4-2.4-0.6-3.5c-0.1-1-0.5-1.9-0.8-2.9l0.1-0.1c0.3-0.4,0.5-0.6,0.9-0.8c0.3-0.1,0.4-0.4,0.4-0.6
			c-0.1-0.3-0.4-0.5-0.6-0.4c-0.5,0.1-0.9,0.5-1.3,0.9c-0.1-0.1-0.3-0.4-0.4-0.5l0,0c-0.6-0.9-1.5-1.3-2.7-0.5
			c-0.3,0.1-0.5,0.4-0.6,0.5c-0.1-0.1-0.1-0.3-0.3-0.5l0,0c-0.1-0.4-0.3-0.9-0.3-1.4c0-0.6-1-0.6-1,0c-0.1,0.9,0.3,1.6,0.6,2.4
			c0,0.1,0.1,0.3,0.3,0.3c-0.4,0.5-0.6,1-0.9,1.5c0-0.4,0-0.9,0.1-1.3c0-0.1-0.1-0.1-0.1,0c-0.1,0.5-0.1,1.1-0.1,1.6
			c-0.3,0.6-0.5,1.4-0.6,2c0-0.1,0-0.1,0-0.3c0.3-0.5,0.4-1.1,0.5-1.8c0-0.1-0.1-0.1-0.1,0c-0.1,0.5-0.3,0.9-0.4,1.4
			c0-0.5-0.1-0.9-0.1-1.4c0-0.1-0.1-0.1-0.1,0c0,0.6,0.1,1.1,0.1,1.8c-0.1,0.4-0.3,0.6-0.4,1c0-0.1,0-0.1,0-0.3s-0.1,0-0.1,0
			c0,0.1,0.1,0.3,0.1,0.5c-0.1,0.3-0.3,0.5-0.4,0.8c0-0.3-0.1-0.6-0.1-1c0-0.1-0.1-0.1-0.1,0c0,0.4,0.1,0.8,0.1,1.3
			c-0.1,0.3-0.3,0.5-0.4,0.8c-0.1-0.3-0.1-0.6-0.3-0.9c0-0.1-0.3,0-0.1,0c0.1,0.4,0.1,0.8,0.3,1.1c-0.1,0.3-0.3,0.4-0.4,0.5
			c-0.1,0-0.1-0.1-0.1-0.3c-0.4-0.5-1.3,0-0.9,0.5c0.1,0.1,0.3,0.3,0.3,0.4c0,0.5,0,1.1,0,1.6c0,0.1-0.1,0.1-0.1,0.3
			s0.1,0.1,0.1,0.1l0,0c0,0.3,0,0.5,0,0.8c-0.3,0.3-0.5,0.5-0.8,0.9c-0.1,0.1,0,0.3,0.1,0.1c0.3-0.3,0.4-0.5,0.6-0.8
			c0.1,0.9,0.1,1.9,0.3,2.8c-0.4,0.5-0.8,1.1-1.3,1.6c-0.1,0.1,0.1,0.1,0.1,0.1c0.4-0.5,0.8-1,1.1-1.5c0,0.4,0.1,0.8,0.1,1.3
			c-0.1,0.1-0.3,0.4-0.3,0.5s0.1,0.1,0.1,0.1c0.1-0.1,0.1-0.3,0.3-0.4c0.1,0.4,0.1,0.9,0.3,1.3v0.1c0,0.1,0,0.1,0.1,0.1
			c0,0.3,0.1,0.6,0.1,0.9c0,0.1,0.1,0.1,0.1,0c0,0.1-0.1,0.1-0.1,0.3c-0.3,0.6-0.5,1.4-0.5,2.2c-0.1,0.6,0.9,0.6,1,0
			c0.3-1.9,1.8-3.3,1.8-5.3c0-1.1-0.1-2.3-0.1-3.3c0-1.3,0-2.5,0.3-3.8c0.3-2.3,0.6-4.4,1.8-6.5c0-0.1,0.1-0.1,0.1-0.3
			c0.4-0.6,1.1-1.8,1.9-1.8c0.1,0,0.4,0.1,0.5,0.3c0.5,0.4,0.8,1.1,1,1.9c0,0.3,0.1,0.4,0.1,0.5c0.6,2,0.6,4.3,1.4,6.3
			c0.3,0.8,0.5,1.4,0.6,2.2c-0.1,0.1-0.1,0.1-0.3,0.3c-0.1,0.1,0,0.3,0.1,0.1l0.1-0.1c0.1,0.4,0.3,0.6,0.3,1
			c0.4,1.1,0.5,2.4,0.9,3.5c0,0.1-0.1,0.1-0.3,0.1c-0.1,0,0,0.3,0.1,0.1c0,0,0.1,0,0.1-0.1c0.5,1.9,1.3,3.7,1.6,5.7
			c-0.1,0.1-0.1,0.3,0,0.5c0.1,0.1,0.1,0.4,0.3,0.5c0,0.1,0,0.3,0,0.5c0.1,1.9-0.3,3.9-0.3,5.8c-0.1,0.6-0.4,1.1-0.6,1.8
			c-1.1,2.8-3.2,5.1-4.3,7.8c-0.3,0.1-0.3,0.4-0.3,0.5c-0.1,0.1-0.1,0.4-0.1,0.5c-0.3,0.6,0.8,0.9,1,0.3c0-0.1,0.1-0.3,0.1-0.4
			c0.3,0,0.4,0,0.6-0.1v0.1c-0.4,0.3-0.8,0.6-1.1,1c-0.1,0.1,0,0.3,0.1,0.1c0.4-0.4,0.6-0.6,1-1v0.1c0,1.3,0,2.5,0,3.8h-0.1
			c0-0.8-0.1-1.6-0.1-2.4c0-0.1-0.1-0.1-0.1,0c0.1,0.9,0.1,1.6,0.3,2.5c-0.3,0.1-0.4,0.3-0.6,0.4c-0.1,0,0,0.3,0.1,0.1
			s0.4-0.3,0.5-0.3c0,0.3,0,0.6,0,1c-0.8,0-1.4,0-2.2,0c-3.7,0-7.2-0.4-10.8-1.1c0-4.7,0-9.4,0.1-14c0,0.1,0,0.1,0.1,0.3
			C49.6,428.7,49.6,428.1,49.6,427.5z M53.6,416.8c0.1-0.4,0.3-0.6,0.4-1c0.1-0.3,0.3-0.5,0.5-0.9c0,0.1,0,0.3,0,0.5
			c0,0.1,0.1,0.1,0.1,0c0-0.3,0-0.5,0-0.8c0,0,0-0.1,0.1-0.1c0-0.1,0-0.1-0.1-0.1c0-0.9,0-1.6,0-2.5l0,0c0,1.1,0.1,2.3,0.1,3.4
			c0,1-0.6,1.8-1,2.7l0,0C53.7,417.5,53.6,417.1,53.6,416.8z M54.5,409.2L54.5,409.2L54.5,409.2c0.1,0.1,0.1,0.4,0,0.6l-0.1,0.1
			c0-0.3,0-0.4,0-0.6l0,0C54.5,409.4,54.5,409.2,54.5,409.2z M54.5,410.1c0,0.5-0.1,1.1-0.1,1.6c0,0,0,0.1-0.1,0.1
			c0-0.5,0-1,0.1-1.6C54.3,410.2,54.5,410.2,54.5,410.1z M54.3,412.1c0,0.4,0,0.8,0,1.1l0,0c0,0,0,0.1-0.1,0.1
			C54.2,413,54.2,412.6,54.3,412.1L54.3,412.1z M53.4,413c0-0.5,0-0.9,0.1-1.4c0.3-0.3,0.4-0.6,0.6-1c0,0.5,0,1-0.1,1.5
			C53.8,412.4,53.7,412.6,53.4,413z M54.1,412.4c0,0.4,0,0.8,0,1.3c-0.3,0.3-0.4,0.6-0.6,0.9c0-0.3,0-0.5,0-0.8c0-0.1,0-0.4,0-0.5
			C53.7,413,53.8,412.8,54.1,412.4z M53.6,411.3c0-0.4,0-0.9,0-1.3c0.3-0.1,0.4-0.4,0.6-0.5c0,0.3,0,0.5,0,0.8
			C53.9,410.6,53.8,410.9,53.6,411.3z M54.2,409.2c-0.3,0.1-0.4,0.3-0.6,0.5c0-0.3,0-0.5,0-0.8l0,0
			C53.8,409.1,53.9,409.1,54.2,409.2C54.2,409.2,54.2,409.2,54.2,409.2z M53.9,408c-0.1,0-0.1-0.1-0.3-0.1l0,0
			c-0.1,0-0.1-0.1-0.3-0.1c0.1-0.1,0.3-0.3,0.4-0.4C53.8,407.5,53.8,407.7,53.9,408z M53.9,407c0.1-0.3,0.3-0.5,0.4-0.8
			c0.1,0.4,0.1,0.9,0.3,1.3c-0.1,0.1-0.3,0.3-0.5,0.4C54.1,407.6,53.9,407.3,53.9,407z M53.6,408.9L53.6,408.9l-0.1,0.1v-0.1
			C53.4,408.9,53.4,408.9,53.6,408.9z M53.4,409.1c0,0.3,0,0.5,0,0.9l-0.1,0.1C53.3,409.7,53.3,409.5,53.4,409.1L53.4,409.1z
			 M53.4,410.1c0,0.5,0,0.9-0.1,1.4l0,0C53.3,411.1,53.3,410.6,53.4,410.1L53.4,410.1z M53.3,415.2c0,0.1,0.1,0.1,0.1,0
			c0-0.1,0-0.3,0-0.4c0.1-0.3,0.4-0.6,0.5-0.9l0,0c0,0.1,0.1,0.1,0.1,0s0-0.3,0-0.4c0,0,0-0.1,0.1-0.1c0,0.4,0,0.6,0,1
			c0,0.1-0.1,0.3-0.1,0.4c0-0.1,0.1-0.3,0.1-0.4s-0.1-0.1-0.1-0.1c-0.1,0.4-0.4,0.9-0.5,1.3c-0.1,0.1-0.1,0.4-0.3,0.5
			C53.4,415.9,53.3,415.7,53.3,415.2C53.3,415.3,53.3,415.3,53.3,415.2z M54.7,408.2c-0.1,0-0.3-0.1-0.5-0.1
			c0.1-0.1,0.3-0.3,0.4-0.4h0.1v-0.1l0,0C54.7,407.7,54.7,408,54.7,408.2z M54.7,407.3c-0.1-0.5-0.1-0.9-0.3-1.4
			c0.1-0.3,0.3-0.5,0.4-0.8c0,0.4,0.1,0.6,0.1,1c0,0.3-0.1,0.6-0.1,0.9C54.7,407.2,54.7,407.3,54.7,407.3z M55,405.1
			c0.1-0.3,0.3-0.5,0.4-0.9c0,0.1,0,0.3,0,0.4c-0.1,0.4-0.1,0.9-0.3,1.3C55,405.6,55,405.3,55,405.1z M53.2,409.4c0,0.3,0,0.5,0,0.8
			c-0.1,0.1-0.3,0.3-0.4,0.5c0-0.3,0-0.5,0-0.8C52.8,409.6,53.1,409.5,53.2,409.4z M52.7,409.6c0-0.4,0-0.9,0-1.3
			c0.1,0.1,0.4,0.3,0.5,0.4c0,0.1,0,0.3,0,0.4C53.1,409.2,52.8,409.4,52.7,409.6z M53.2,410.4c0,0.5,0,0.9,0,1.4
			c-0.1,0.1-0.3,0.3-0.4,0.4c0-0.5-0.1-0.9-0.1-1.4C52.9,410.6,53.1,410.5,53.2,410.4z M52.9,412.4c0.1-0.1,0.3-0.3,0.3-0.4
			c0,0.4,0,0.9,0,1.3c-0.1,0.1-0.1,0.1-0.3,0.3C52.9,413.2,52.9,412.8,52.9,412.4L52.9,412.4z M53.3,413.5c0,0.1,0,0.1,0,0.3
			c0,0.4,0,0.8,0,1.1c0-0.4-0.1-0.8-0.1-1C53.2,413.8,53.2,413.7,53.3,413.5z"/>
		<path d="M65,452.5L65,452.5c0-0.1,0.1-0.1,0.1-0.3c0.1-0.1,0.1-0.4,0.1-0.6c0-0.3,0-0.6-0.1-0.9l0,0c-1.6,0.1-3.2,0.3-4.8,0.3
			c-4,0-8-0.4-11.8-1.3c0,0.6,0,1.3,0,1.9c3.8,0.8,7.8,1.1,11.9,1.1c1.6,0,3.3-0.1,4.8-0.3C65,452.6,65,452.5,65,452.5L65,452.5z"/>
		<path d="M60,413.9c-1-0.3-1.9-0.3-2.9-0.4c-0.6,0-0.6,1,0,1c0.9,0.1,1.8,0.1,2.7,0.3C60.4,415.1,60.7,414,60,413.9z"/>
		<path d="M57.5,405.1c1-0.1,2,0.3,3-0.1c1.1-0.5,0.5-2.4,0.1-3.2c-0.4-1-1.4-1.4-2.3-0.6c-0.8,0.6-1.3,1.9-1.3,2.8
			c0,0.1,0,0.3,0.1,0.3C56.9,404.4,56.9,405.1,57.5,405.1z M58.1,403.9c0-0.6,0.3-1.4,0.8-1.9c0.1-0.1,0.3-0.4,0.5-0.4
			c0.3,0,0.4,0.6,0.5,0.9c0.1,0.4,0.3,0.8,0.3,1.1S60,404,59.6,404c-0.5,0-0.9,0-1.4-0.1C58.1,404,58.1,403.9,58.1,403.9z"/>
		<path d="M57,409.7c1.5,0.1,2.9,0.1,4.4,0.5c0.6,0.3,0.9-0.8,0.3-1c-1.5-0.5-3.2-0.5-4.7-0.6C56.4,408.6,56.4,409.6,57,409.7z"/>
		<path d="M77.4,372.3c-0.3,0.5-0.6,1-1,1.4c-0.4,0.4,0.3,1,0.6,0.6c0.5-0.5,0.9-1,1.1-1.6C78.4,372.3,77.6,371.8,77.4,372.3z"/>
		<path d="M56.5,379.7c-2,0-4-0.5-5.9-1.1c-1.6-0.6-3.5-1.3-4.8-2.4c-0.4-0.4-1,0.3-0.6,0.6c1.4,1.3,3.3,1.8,4.9,2.5
			c2,0.8,4.3,1.3,6.5,1.3C57,380.6,57,379.7,56.5,379.7z"/>
		<path d="M59.9,373c0.1,0.1,0.1,0.1,0.3,0.3c0.3,0.1,0.5,0,0.6-0.3c0-0.3,0-0.4,0.1-0.6c0.5,0.3,0.9,0.4,1.5,0.4
			c0.3,0,0.5-0.3,0.4-0.5v-0.1c0.3,0.1,0.5,0.1,0.8,0.1c0.4,0,0.6-0.4,0.8-0.6h0.1c0.1,0.1,0.5,0.1,0.6-0.1c0.1-0.3,0.1-0.5,0.4-0.3
			c0.3,0.1,0.4,0.1,0.6,0.1s0.4-0.1,0.5-0.3c0.3-0.3,0.1-0.5,0.5-0.3c0.3,0.3,0.8,0.8,1.3,0.5c0.3-0.1,0.4-0.1,0.6-0.4
			c0.1-0.1,0.3-0.6,0.4-0.5c0.3,0.1,0.5-0.1,0.5-0.3s0-0.3,0-0.4c0.1,0,0.3-0.1,0.3-0.3s0.1-0.1,0.1-0.3l0,0
			c0.3,0.3,0.5,0.4,0.8,0.5c0.3,0.1,0.5-0.1,0.5-0.4s0-0.4,0-0.6c0,0,0.1,0,0.1,0.1c0.1,0.1,0.5,0.1,0.6-0.1
			c0.1-0.4,0.1-0.8,0.3-1.3c0.3,0.1,0.5,0.3,0.8,0.4c0.3,0.1,0.5,0,0.6-0.3c0.1-0.3,0.1-0.6,0.1-0.9h0.1c0.3,0.1,0.5-0.1,0.5-0.4
			c0-0.1,0-0.4,0-0.5h0.1c0.3,0.1,0.5-0.1,0.5-0.3s0-0.3,0.1-0.3c0.5,0.1,0.8-0.1,0.9-0.6h0.1c0.6-0.1,1.3-0.1,1.6,0.4
			c0.5,0.5,0.6,1.1,0.8,1.8c0.1,0.5,0.9,0.3,0.8-0.3c-0.1-0.8-0.4-1.6-1-2.3s-1.5-0.6-2.4-0.5c-0.1,0-0.3,0.1-0.3,0.1
			c-0.3,0-0.4,0.1-0.4,0.4c-0.1,0-0.1,0-0.3,0c-0.1-0.1-0.4,0-0.5,0.3c0,0.1-0.1,0.3-0.1,0.4c-0.1,0-0.1-0.1-0.3-0.1
			c-0.3-0.3-0.6,0.1-0.6,0.4s0,0.5,0,0.6h-0.1c-0.3,0-0.5,0.1-0.5,0.4s0,0.5,0,0.6c-0.3-0.1-0.4-0.3-0.6-0.4c-0.3-0.1-0.5,0-0.6,0.3
			c-0.1,0.4-0.1,0.8-0.1,1.1c-0.1-0.1-0.3-0.3-0.4-0.3c-0.4-0.3-0.8,0-0.8,0.4c0,0.3,0.1,0.5,0.1,0.6c-0.3-0.1-0.5-0.3-0.6-0.3
			c-0.3,0-0.5,0.1-0.6,0.4l0,0c-0.3-0.4-0.8,0-0.8,0.4c0,0.1,0,0.3,0,0.5c-0.3,0.1-0.5,0.4-0.6,0.6c-0.3,0.5-0.6,0-0.8-0.1
			c-0.3-0.3-0.5-0.4-0.8-0.4s-0.5,0.1-0.6,0.3c-0.1,0.1-0.1,0.3-0.3,0.4c0,0.1-0.3-0.1-0.4-0.1c-0.5-0.3-0.9,0-1,0.4v-0.1
			c-0.3-0.3-0.6-0.1-0.8,0.1s-0.1,0.8-0.5,0.6c-0.3-0.1-0.6-0.3-0.9-0.5c-0.3-0.1-0.6,0-0.6,0.4c0,0.1,0,0.4,0.1,0.5
			c-0.4-0.1-0.6-0.3-1-0.5c-0.3-0.1-0.5,0-0.6,0.3c0,0.1,0,0.1-0.1,0.3c-0.3-0.1-0.5-0.1-0.6,0.1c-0.1,0.1-0.1,0.3-0.1,0.4l-0.1,0.1
			c-0.1,0.3-0.1,0.3-0.1,0c-0.3-0.3-0.5-0.5-0.8-0.8c-0.1-0.1-0.5,0-0.6,0.1s-0.1,0.4-0.3,0.5c-0.4-0.4-0.6-0.9-1-1.4
			c-0.1-0.1-0.5-0.1-0.6,0s-0.4,0.6-0.5,0.6c-0.3-0.3-0.4-0.6-0.5-0.9c-0.3-0.3-0.5-0.3-0.8,0c-0.1,0.1-0.1,0.3-0.3,0.4
			c0-0.1-0.1-0.3-0.3-0.4c-0.1-0.3-0.5-0.3-0.6-0.1c0.1,0.5,0.1,0.8,0,0.9c-0.3-0.4-0.4-0.9-0.6-1.4c-0.1-0.3-0.5-0.3-0.6,0
			c-0.1,0.1-0.3,0.3-0.4,0.4c-0.1-0.3-0.1-0.6-0.3-0.9c-0.1-0.3-0.5-0.3-0.6-0.1s-0.3,0.4-0.4,0.5c-0.1-0.6,0-1.3-0.4-1.8
			c-0.1-0.3-0.4-0.3-0.6-0.1v-0.1c0-0.3-0.4-0.5-0.6-0.4c-0.1,0.1-0.3,0.1-0.4,0.3c0-0.3,0.1-0.5,0-0.9c0-0.3-0.4-0.5-0.6-0.4
			c-0.3,0.1-0.4,0.4-0.6,0.6c0.1-0.4,0.3-0.8,0.3-1.1s-0.5-0.5-0.8-0.3c-0.1,0.1-0.3,0.3-0.3,0.4c0.1-0.4,0.3-0.6,0.3-1
			s-0.4-0.5-0.6-0.4c-0.3,0.1-0.5,0.3-0.8,0.4c0.1-0.3,0.1-0.6,0.3-0.9c0.1-0.4-0.3-0.6-0.6-0.5c-0.9,0.4-1.6,0.9-2.4,1.3
			c-0.5,0.3,0,1,0.4,0.8c0.5-0.3,1-0.6,1.5-0.9c-0.1,0.3-0.1,0.5-0.3,0.8c-0.1,0.3,0.3,0.6,0.5,0.5c0.3-0.1,0.5-0.3,0.8-0.4
			c-0.1,0.5-0.4,0.9-0.4,1.4c0,0.3,0.3,0.5,0.5,0.4c0.1-0.1,0.4-0.1,0.5-0.3c0,0.1,0,0.4-0.1,0.5c0,0.3,0.3,0.4,0.4,0.4
			c0.4,0,0.6-0.1,0.9-0.4c0,0.3-0.1,0.5-0.1,0.8c0,0.4,0.4,0.5,0.6,0.4c0.1-0.1,0.4-0.1,0.5-0.3c0,0.1,0,0.1,0,0.3
			c0,0.4,0.5,0.5,0.8,0.3l0.1-0.1c0.1,0.6,0,1.4,0.4,1.9c0.1,0.3,0.5,0.3,0.6,0.1s0.3-0.3,0.4-0.5c0.1,0.4,0.1,0.6,0.4,0.9
			c0.3,0.3,0.5,0.3,0.8,0c0.1-0.1,0.1-0.3,0.3-0.4c0.3,0.5,0.4,1,0.9,1.4c0.3,0.1,0.5,0.1,0.6-0.1c0.1-0.1,0.1-0.3,0.1-0.4
			c0,0.1,0.1,0.3,0.3,0.4c0.3,0.3,0.5,0.3,0.8,0c0.1-0.1,0.3-0.3,0.3-0.5c0.3,0.4,0.4,0.6,0.8,0.8c0.5,0.1,0.8-0.1,1-0.5
			c0.4,0.5,0.6,1,1.3,1.4c0.3,0.1,0.5,0,0.6-0.1s0.1-0.3,0.3-0.5c0.3,0.3,0.5,0.6,0.9,0.6C59.6,373.5,59.8,373.3,59.9,373z"/>
		<path d="M44.6,393.5v-1.3v-2.8v-1.1v-2.2v-1v-0.3c0-0.5-0.1-1-0.3-1.4c-0.1-0.3-0.1-0.5-0.3-0.8c-0.3-0.5-0.5-0.9-0.8-1.4
			c-0.1-0.3-0.4-0.5-0.6-0.8c-0.5-0.5-1-1-1.6-1.5c-0.4-0.3-0.8-0.5-1.1-0.8l0,0l-1-0.6l-5.1,5.1l-0.5,0.5l0.5,0.4l0.9,0.6
			c0.6,0.5,1.3,1,1.5,1.5c0.3,0.3,0.3,0.5,0.4,0.8v0.1v3v1v9.6v1.1v2.7l-2.8,3c-0.6-0.5-1-1-1.3-1.4c-0.3-0.4-0.3-0.6-0.3-0.6v-0.3
			V399v-1v-4.7v-1v-3.7l-3-3.8l-0.5-0.8l-0.3-0.4l-0.6,0.8l-0.9,1l-2.5,3.2v2.2v0.9v5.3v0.9v6.3v0.6l-1.6,1.6l-0.8,0.8l-0.1-0.1
			c-0.3-0.3-0.4-0.4-0.6-0.5c-0.8-0.8-0.8-1.3-0.8-1.4v-5.1v-0.9v-5.9v-0.9v-5.3l0,0c0-0.3,0-0.5,0-0.8c-0.4-2.7-2.3-5.1-4-6.2
			l-1-0.6l-1.9,1.8l-0.9,0.9l-3.3,3.3l1.4,1c0.8,0.6,1.4,1.3,1.6,1.8c0.1,0.3,0.3,0.4,0.3,0.6v0.1v6.6v0.8v7.3v0.9v2.4
			c0,1.6,0.8,3.3,2.2,4.7c0.1,0.1,0.4,0.4,0.5,0.5c0.4,0.4,0.8,0.6,1.3,1c1.8,1.3,3.7,1.9,3.7,1.9l0.9,0.4l4.6-4.7
			c0.1,0.1,0.3,0.3,0.4,0.5s0.4,0.4,0.5,0.5c1.8,1.8,4.2,2.8,5.1,3.2c0.1,0.1,0.3,0.1,0.4,0.1l0.4,0.1l0.5,0.1l11.5-11.6v-5.1v-1.4
			v-3.7H44.6z M43.2,403.3l-10.4,10.5c0,0-5.3-1.9-6.6-5.3l-5.3,5.3c0,0-6.7-2.5-6.7-6.8c0,0,0-15.3,0-18.1c0-1.4-1.3-2.7-2.5-3.5
			l3.9-3.9c1.8,1.1,3.4,3.4,3.4,5.7c0,0,0,15.3,0,18.1c0,1.5,1.6,3,3,3.9l3.8-3.8v-16.2l2.5-3l2.4,3c0,0,0,13.3,0,16.1
			c0,1.5,1.6,3,3,3.9l4.2-4.2v-18.1c0-1.4-1.3-2.7-2.5-3.5l3.5-3.5c1.8,1.1,3.9,2.9,3.9,5.3v18.2H43.2z"/>
		<path d="M83.1,382l-0.8,0.6l-0.6,0.5l1.5,1c1.3,0.9,1.6,1.5,1.6,1.8v0.3v0.9v3.4v1v4v1v0.5l-3.3,2.9l1.5,1
			c0.1,0.1,0.3,0.3,0.4,0.3c1,0.8,1.3,1.3,1.3,1.5v0.1v6.7c0,0.3,0,0.4,0,0.6c0.3,1.6,1.3,3.2,3.3,4.6c0.3,0.3,0.6,0.4,1,0.6
			l0.9,0.5l3.9-3.5l0.6-0.5l1-1l-1.5-1c-1.3-0.9-1.6-1.5-1.6-1.8V397l1-0.6l0.6-0.6l1.3-1.1c0.8,0.5,1.1,1,1.3,1.4v1.1v0.9v7.5l0,0
			v3.8c0,2.8,2.2,5.1,3.9,6.2l0.9,0.5l3.9-3.5l0.5-0.5l1.4-1.3l-1.5-1c-1.3-0.9-1.6-1.5-1.6-1.8v-5.3v-0.9v-6.7v-0.3
			c0-0.1,0-0.4,0-0.5V394v-5.9v-0.8v-2.7c0-1-0.3-2-0.8-2.9c-0.1-0.3-0.4-0.6-0.5-0.9c-0.8-1-1.8-1.9-2.7-2.4l-0.9-0.5l-5.9,5.4
			l1.5,1c0.5,0.4,0.9,0.6,1.1,0.9c0.4,0.4,0.5,0.8,0.5,0.9l0,0v1.1l-0.5-0.1l-2.7,2.4l-0.6,0.6v-0.9v-4.2v-0.6c0-0.1,0-0.1,0-0.3
			c0-1.5-0.8-2.9-1.6-4c-0.3-0.4-0.6-0.6-0.9-0.9c-0.5-0.4-1-0.8-1.4-1l-0.9-0.5l-1.3,1.3l-1,0.8L83.1,382z M87.9,379.6
			c1.6,1,3.3,2.9,3.3,4.9v9l5.2-4.7c0,0,0.8,0.3,1.6,0.6v-3.5c0-1.1-1.1-2.3-2.3-3l3.7-3.4c1.6,1,3.3,2.9,3.3,4.9v9.6
			c0,0.1,0,0.3,0,0.4v13.3c0,1.1,1.1,2.3,2.3,3l-3.7,3.4c-1.6-1-3.3-2.9-3.3-4.9v-7.1l0,0v-6.3c-0.3-1.1-1.5-2.3-2.8-3l-4.2,3.5
			v11.8c0,1.1,1.1,2.3,2.3,3l-3.3,3c-1.6-1-3.7-2.5-3.7-4.6c0,0,0-4.3,0-6.7c0-1.1-1.1-2.3-2.3-3l2.3-2.2v-11.6c0-1.1-1.1-2.3-2.3-3
			L87.9,379.6z"/>
	</g>
</g>
<image overflow="visible" enable-background="new    " width="475" height="473" xlink:href="logo.png"  transform="matrix(2.4692 0 0 2.4692 -4957.7163 94.3403)">
</image>
</svg>
