<?xml version="1.0" encoding="utf-8"?>
<!-- Generator: Adobe Illustrator 17.1.0, SVG Export Plug-In . SVG Version: 6.00 Build 0)  -->
<!DOCTYPE svg PUBLIC "-//W3C//DTD SVG 1.1//EN" "http://www.w3.org/Graphics/SVG/1.1/DTD/svg11.dtd">
<svg version="1.1" id="Layer_1" xmlns="http://www.w3.org/2000/svg" xmlns:xlink="http://www.w3.org/1999/xlink" x="0px" y="0px"
	 viewBox="0 0 216 216" enable-background="new 0 0 216 216" xml:space="preserve">
<image overflow="visible" enable-background="new    " width="475" height="473" xlink:href="logo.png"  transform="matrix(0.5926 0 0 0.5926 -1230.7719 -75.2783)">
</image>
<g>
	<g>
		<path fill="#020200" d="M123.5,65.8c0,0.1,0.1,0.3,0.4,0.8l1.7-1.3v-3.4l-2.1,1.2V65.8z"/>
		<path fill="#020200" d="M138.6,82.7c0-0.4,0-0.8,0-1.2l-0.9,4.2l-0.4-0.1l1.3-6.2c0-0.2,0-0.4,0-0.6c0-0.1,0-0.1,0-0.2
			c0-0.2,0-0.5,0-0.8v-0.3c0-0.1,0-0.2,0-0.3c-0.3-0.9-0.6-1.9-0.9-2.8c-0.3-1.2-0.2-2.3-0.1-3.4l-3.4,9.2l-0.3-0.2l0.1-0.1
			l3.9-10.9c0.1-0.6,0.1-1.1,0.1-1.7c-0.1-0.1-0.1-0.3,0-0.6c0.1-0.3,0.3-0.6,0.4-1c0.1-0.5,0.3-1,0.6-1.4c0.4-0.7,0.9-1.4,1.4-2.1
			L142,58c-0.1-0.1-0.1-0.1-0.1-0.3c-0.1-0.1-0.1-0.3-0.2-0.5l-0.5,1l-0.2-0.1h-0.1l-0.2-0.1l0.8-1.4c0-0.1-0.1-0.3-0.1-0.3
			s0-0.1,0-0.2c0-0.1-0.1-0.1-0.1-0.1l-4.7,6.4v2.8l-6.3,6.3l-0.2-0.1l-5.2,7.1c-0.1-0.1-0.2-0.2-0.3-0.3l5-6.9
			c-0.5-0.2-1.8-0.8-2.8-1.7l-5,5.2c-0.1-0.1-0.1-0.2-0.2-0.3l4.9-5.1c-0.1-0.1-0.1-0.1-0.2-0.3l-2.5,2.5l-0.5-0.2c-0.1,0-1-0.4-2-1
			c-0.3-0.2-0.5-0.3-0.7-0.6l-1.1,0.8c-0.1-0.1-0.1-0.3-0.1-0.4l0.9-0.7c-0.8-0.8-1.2-1.7-1.2-2.5v-1.3l-1,0.6
			c0-0.1-0.1-0.3-0.1-0.4l1.1-0.6v-4l-1.7,0.7c0-0.1,0-0.3,0-0.4l1.7-0.7V57l-1.7,0.4c0-0.1,0-0.3,0.1-0.4l1.6-0.4
			c-0.1-0.3-0.5-0.6-0.9-1l-0.8-0.6l1.8-1.8l-1.3,0.1c0-0.1,0.1-0.3,0.1-0.4l1.5-0.1l1-1l0.6,0.3c1,0.6,2.1,1.9,2.2,3.4l1.2-0.3
			l0.1,0.2l0.1,0.2l-1.4,0.3l0,0v2.9l2.1-0.9v-1.2l1.4-1.7v-0.2l0,0l-0.1-0.2l0.2-0.1l0.3-0.1l0.3-0.4l0.2,0.3l2.8-0.7l2.8-2.8
			l0.6,0.3l0,0l1.7-0.2c-0.3-0.3-0.6-0.6-1-0.9l-5.6-0.1v-0.2l0,0v-0.2h0.2l4.8,0.1c-0.3-0.3-0.7-0.8-1-1.2l-12.5-2.2
			c0.1-0.1,0.1-0.3,0.2-0.4L133,48c-0.3-0.6-0.6-1-0.7-1.5l-0.3-0.1l0.1-0.2l0,0l0.1-0.1l0,0c-0.1-0.4,0-0.8,0.1-1.2
			c0-0.1,0.1-0.2,0.1-0.3l-0.1-0.1v-0.1v-0.1v-0.3l0.3,0.1c0-0.1,0.1-0.1,0.1-0.1c-0.1,0-0.1-0.1-0.1-0.1c-0.1-0.1-0.1-0.1-0.1-0.1
			c-0.1-0.2-0.1-0.4-0.1-0.6c0.1-0.1,0.1-0.3,0.2-0.3l0.1-0.1l0.1-0.1c0-0.1,0-0.1,0.1-0.1l-1.7-1.2l0.1-0.2l0,0l0.1-0.2l1.7,1.2
			c0.2-0.2,0.4-0.4,0.6-0.6c0.3-0.2,0.6-0.2,0.8-0.2c0.1,0,0.1,0,0.3,0h0.1c0.1,0,0.1,0,0.1-0.1c0.1-0.1,0.3-0.2,0.5-0.3
			c0.1-0.1,0.2-0.1,0.3-0.1c0.4,0,0.8,0.3,0.9,0.6c0,0.1,0,0.1,0.1,0.1c0.1,0.1,0.1,0.2,0.1,0.3s0,0.1,0,0.1
			c0.6,0.1,1.1,0.3,1.6,0.8c0.2,0.1,0.5,0.3,0.8,0.6l-3.1-3.5l0.2-0.1l0.1-0.1l0.1,0.1l4.5,5.3c0.3,0.2,0.6,0.4,1,0.6l-2-3.3
			l0.1-0.1h0.1l0.2-0.1l1.8,2.8l0,0c0-0.2,0.1-0.4,0.2-0.6l-2.8-6.1l0.1-0.1l0,0l0.2-0.1l2.8,6.2h0.1c0.2,0,0.4,0.1,0.6,0.2
			l-3.4-11.8c0.1,0,0.3-0.1,0.4-0.1l3.4,11.7c0.1-0.1,0.2-0.1,0.3-0.1h0.1l-0.5-3.2l0.1-0.1h0.1l0.3-0.1l0.5,3.6
			c0.1,0.1,0.2,0.3,0.3,0.5c0,0.3,0,0.8,0,1.2l0,0V46l0,0c0-0.1,0-0.3,0-0.6c0-0.3,0-0.8,0.1-0.9c0-0.1,0-0.1,0-0.1l0,0V31.9
			c0.1,0,0.1,0,0.2,0c0.1,0,0.1,0,0.2,0v12c0.1,0,0.1,0,0.1,0c0.1,0,0.1,0,0.2,0c0.1,0,0.1,0,0.1,0l0.6-4l0.3,0.1h0.1l0.1,0.1
			l-0.6,4.1c0.1,0.1,0.1,0.1,0.1,0.2c0,0.1,0,0.1,0,0.1v0.1c0-0.1,0-0.1,0-0.2c0-0.3,0.2-0.5,0.4-0.6l2.8-9.7h0.1h0.1h0.3l-2.8,9.6
			c0.1,0,0.3,0.1,0.4,0.3l2.5-5.7l0.2,0.1c0,0,0,0,0.1,0l0.2,0.1l-2.8,6.4c0,0.1,0,0.1,0,0.2c0.1-0.1,0.3-0.1,0.4-0.3l7-11
			c0.1,0.1,0.3,0.1,0.4,0.1l-6.5,10.4c0.4-0.3,0.8-0.7,1.2-1c0.3-0.3,0.7-0.6,1-0.8c0.1,0,0.1-0.1,0.1-0.1l2.3-2.8l0.1,0.2l0,0
			l0.1,0.1l-1.5,1.8c0.2-0.1,0.4-0.1,0.6-0.1c0-0.1,0-0.1,0.1-0.2c0-0.1,0-0.1,0.1-0.1c0.1-0.3,0.5-0.6,0.9-0.6c0.1,0,0.2,0,0.3,0.1
			c0.2,0.1,0.3,0.2,0.5,0.3l0,0l5.3-4.7c0.1,0.1,0.3,0.1,0.3,0.3l-5.1,4.5c0.2,0,0.4,0.1,0.6,0.3c0.1,0.1,0.4,0.3,0.6,0.7l0.9-0.6
			l0.1,0.1l0,0l0.1,0.1l-0.2,0.1l-0.8,0.6c0,0.1,0.1,0.1,0.1,0.1l0.1,0.1c0.1,0.1,0.1,0.2,0.2,0.3c0.1,0.2,0.1,0.4-0.1,0.6
			C157,43.9,157,44,157,44c-0.1,0.1-0.1,0.1-0.2,0.1c0,0.1,0.1,0.1,0.1,0.2l8.1-3.9c0.1,0.1,0.2,0.2,0.3,0.3l-8.3,4.1
			c0.1,0.5,0.1,1,0,1.4l6.4-2.1l0.1,0.2l0.1,0.2l-6.8,2.2c-0.1,0.5-0.4,0.9-0.7,1.4l12.9-2.3c0.1,0.1,0.1,0.3,0.2,0.4l-13.5,2.4
			c-0.3,0.4-0.6,0.8-0.9,1.1l15.8-0.6c0.1,0.1,0.1,0.3,0.1,0.4l-16.4,0.6c-0.3,0.3-0.6,0.5-0.8,0.8l5.6,0.6l0.7-0.7l0.5,0.3
			c0.3,0.1,0.6,0.3,0.8,0.6l1.1,0.1v0.1l0,0l0.1,0.3l-0.8-0.1c0.5,0.6,0.9,1.3,0.9,2.2l1.8,0.5c-0.1-0.1-0.3-0.3-0.6-0.5l-0.8-0.6
			l3.2-3l0.5,0.3c0.5,0.3,1,0.8,1.4,1.3l3.8,0.4c0.1,0.1,0.1,0.3,0.1,0.4l-3.6-0.3c0.3,0.5,0.4,1,0.4,1.6v1.4l3.7,0.9
			c0,0.1,0,0.3,0.1,0.4l-3.7-0.9v3.2l3.8,1.5c0,0.1,0,0.3,0,0.4l-3.7-1.5v3.6l3.1,1.8c0,0.1-0.1,0.3-0.1,0.4l-3-1.7v3
			c0,0.1,0.2,0.5,0.9,1l0.8,0.6l-0.8,0.7l0.7,0.6c-0.1,0.1-0.1,0.3-0.1,0.4l-0.9-0.7l-2.1,1.9l-0.5-0.3c-1-0.6-2.1-1.8-2.1-3.4v-2.1
			l0,0v-4.1L163,61l-0.4,0.3v6.1c0,0.1,0.2,0.5,0.9,1l0.8,0.6l-0.6,0.6l4.5,4.7c-0.1,0.1-0.1,0.2-0.2,0.3l-4.7-4.8l-2.1,1.9
			l-0.5-0.3c-0.2-0.1-0.3-0.2-0.6-0.3l2.4,3.3l-0.1,0.1l-0.1,0.2l-0.1-0.2l-14.4-19.9c0,0.1,0,0.3,0,0.5l3.6,6.9c0.1,0,0.1,0,0.2,0
			c0.9,0,1.6,0.6,1.7,1.6c0.1,0.4,0,0.8-0.1,1.2c0,0.1,0,0.2-0.1,0.3c0.1-0.1,0.3-0.3,0.6-0.3h0.1c0.6,0,0.8,0.8,1,1.2v0.1
			c0.2,0.8,0.3,1.7,0.1,2.8l1.5,2.9l-0.2,0.1l-0.1-0.2l0,0l0.1,0.2l-0.1,0.1l0-0.2l-1.2-2.1c0,0.1,0,0.1,0,0.1
			c-0.3,1.2-0.8,2.1-1.7,2.5l2.2,6.1l-0.4,0.1l-0.1-0.1l-2.1-5.8c-0.5,0.2-1,0.3-1.5,0.3c-0.1,0-0.1,0-0.1,0
			c0.6,1.2,0.6,2.6,0.6,3.8c0,0.8-0.1,1.4-0.5,2.1l1.5,7l-0.4,0.1l-1.4-6.6c-0.1,0.1-0.1,0.2-0.2,0.3l-0.1,0.1l0,0l0,0l-0.1,0.1
			c-0.2,0.2-0.4,0.5-0.7,0.6c0,0.1-0.1,0.3-0.1,0.3l-0.2,0.3c-0.2,0.3-0.5,0.6-0.7,0.8l-0.1,0.1v0.1l0,0c0,0,0,0.1-0.1,0.1v0.1
			l-0.1,0.1c-0.1,0.1-0.1,0.1-0.1,0.1c0,0.1-0.1,0.1-0.1,0.2l-0.1,0.1l-0.1,0.1v0.1c0.1,0.1,0.3,0.4,0.2,0.6s-0.1,0.5-0.2,0.8
			c0,0.1-0.1,0.3-0.2,0.3H148c0.1,0.1,0.1,0.3,0.1,0.4v0.1c0,0.1-0.1,0.1-0.1,0.3s-0.1,0.3-0.2,0.3l0,0c0.1,0.1,0.1,0.3,0.1,0.4
			c0,0.1-0.1,0.3-0.1,0.5c0,0.1-0.1,0.2-0.1,0.3c0,0.1-0.1,0.2-0.1,0.3c0,0.1,0.1,0.1,0.1,0.1c0.1,0.1,0.1,0.3,0.1,0.4
			c0,0.1,0,0.3,0,0.5c0,0.1-0.1,0.3-0.1,0.4c0,0.1,0,0.1-0.1,0.1c0,0.1-0.1,0.1-0.1,0.1c0.1,0.1,0.2,0.2,0.2,0.3
			c15-1.3,26.8-14,26.8-29.3c0-16.2-13.2-29.4-29.4-29.4c-16.2,0-29.4,13.2-29.4,29.4c0,14,9.8,25.8,23,28.7c0-0.1,0-0.1,0-0.3
			C138.6,86.2,138.6,84.4,138.6,82.7z M139.9,59.6l0.2,0.1h0.1l0.1,0.1l-1.9,3.5l-0.2-0.1l0,0l-0.2-0.1L139.9,59.6z M157.2,84.3
			l-1.4-3.9l0.5,0.1l0.1,0.1l1.3,3.6C157.4,84.2,157.3,84.3,157.2,84.3z M161.5,81.7l-4.3-8l0.4-0.1l0.1,0.1l4.1,7.8
			C161.7,81.5,161.6,81.6,161.5,81.7z M165.2,78.4l-1.6-2.2l0.4-0.1l0.1,0.1l1.4,1.9C165.3,78.2,165.2,78.3,165.2,78.4z M167.1,43
			c0.1,0.1,0.2,0.3,0.3,0.3l-1.7,0.6l-0.1-0.2l0,0l0.1-0.1l-0.2,0.1l-0.1-0.2L167.1,43z M161.5,39.5l-0.1,0.1l-1.5,1l-0.1-0.2
			l-0.1-0.1l0.1-0.1l1.7-1.1L161.5,39.5z M157.7,35c0.1,0.1,0.3,0.1,0.4,0.2l-0.8,1l-0.1-0.3l-0.1-0.1L157.7,35z M155.9,37.4
			l0.2,0.1l-0.1,0.2l-1,1.3l-0.1-0.2l0,0l-0.1-0.1L155.9,37.4L155.9,37.4z M152.6,33c0.1,0.1,0.3,0.1,0.4,0.1l-1.7,3.8l-0.2-0.1l0,0
			l-0.1-0.1L152.6,33z M150,32.4c0.1,0,0.3,0.1,0.4,0.1l-0.3,1l-0.2-0.2l0,0l-0.1-0.1L150,32.4z M146.7,37.4l0.8-5.4
			c0.1,0,0.3,0,0.4,0.1l-0.8,5.6l-0.2-0.1l0,0h-0.2V37.4z M143.2,36.1l0.1,0.2l0.5,3.4l-0.3-0.1l0,0h-0.2l-0.5-3.6h0.2l0,0H143.2z
			 M142.7,32.1l0.3,2.4l-0.2,0.1l0,0l-0.2,0.1l-0.3-2.5C142.4,32.1,142.5,32.1,142.7,32.1z M130.4,45.6L130.4,45.6l-0.1,0.2l-3.2-1
			l0.1-0.2l0,0l0.1-0.2l3.2,1L130.4,45.6z M137.5,33l1.2,2.8h-0.3h-0.1l-0.1-0.1l-1.1-2.5C137.2,33,137.4,33,137.5,33z M135,33.9
			l4.2,6.7l-0.3,0.1h-0.1l-0.1,0.1l-4.1-6.6C134.7,33.9,134.8,33.9,135,33.9z M132.4,35l2.5,2.9l-0.1,0.1l0,0l-0.1,0.1l-2.5-3
			C132.2,35.2,132.3,35,132.4,35z M132.2,38.5l0.1,0.1l2.3,2.1l-0.1,0.1l0,0l-0.1,0.2l-0.1-0.1l-2.3-2.1L132.2,38.5z M129.9,36.5
			l1.2,1.1l-0.2,0.1l-0.1,0.1l-1.2-1.1C129.7,36.6,129.7,36.5,129.9,36.5z M127.5,38.3L130,40l-0.3,0.2l-0.1,0.1l-2.5-1.7
			C127.2,38.5,127.3,38.3,127.5,38.3z M125.1,40.5l5.7,2.8l-0.2,0.2l-0.1,0.1l-5.7-2.8C124.9,40.7,125,40.5,125.1,40.5z M122.9,43
			l2.8,0.9l-0.3,0.3l-0.1-0.1l-2.7-0.9C122.8,43.2,122.9,43.1,122.9,43z M129.3,52L129.3,52l0.1,0.3l-6.3,0.6v-0.3v-0.2h0.2l6-0.6
			V52z M119.4,49.3l5.9,0.2l-0.1,0.3V50l-6.1-0.2C119.3,49.5,119.4,49.4,119.4,49.3z M128.9,81.1l-0.3,0.6c-0.1-0.1-0.2-0.1-0.3-0.3
			l0.4-0.8l0.2,0.2L129,81L128.9,81.1z M130.1,78.6l-0.2-0.1l0.1-0.2l7.1-13.4l0.2,0.1l0,0l0.2,0.1l-7.2,13.5L130.1,78.6z"/>
		<polygon fill="#020200" points="123.5,62.5 125.6,61.4 125.6,58.5 123.5,59.3 		"/>
		<path fill="#020200" d="M136.6,58.8l4.8-5v-0.2v-0.1l-4.8,3.8V58.8z"/>
		<path fill="#020200" d="M158.5,68.2v-3.6l-0.8-0.8l0.1-0.1c-0.1-0.1-0.1-0.1-0.2-0.1l-0.8-0.6l1.8-1.6v-0.3l-10.1-7.8
			c-0.1,0-0.1,0-0.2,0.1l7.8,8l-0.1,0.1l0,0l-0.1,0.3l-8-8.3c0,0.1,0,0.1,0,0.2l10.7,14.8C158.5,68.5,158.5,68.4,158.5,68.2z"/>
		<path fill="#020200" d="M136.6,61.6l4.7-6.5l0,0c0-0.1,0-0.1,0.1-0.2v-0.3l-4.7,5C136.6,59.6,136.6,61.6,136.6,61.6z"/>
		<path fill="#020200" d="M158.5,58.4l-9.1-5.2c-0.1,0-0.2,0.1-0.3,0.1l9.4,7.4V58.4z"/>
		<path fill="#020200" d="M130.7,66.9l1.6-1.6v-1.4l-2.2,2.3C130.2,66.4,130.4,66.7,130.7,66.9z"/>
		<path fill="#020200" d="M124.3,66.9l0.4-0.4L124.3,66.9C124.2,66.9,124.3,66.9,124.3,66.9z"/>
		<path fill="#020200" d="M142.8,59.9L143,59l0,0c-0.2-0.1-0.4-0.3-0.6-0.5l-1,2.7C141.8,60.8,142.3,60.3,142.8,59.9z"/>
		<path fill="#020200" d="M147,58.5l0.5,2.3c0.2,0.2,0.3,0.4,0.6,0.7l0.1-0.1c0-0.1,0.1-0.1,0.1-0.1l0.1-0.1v-0.1l0,0
			c0.1-0.1,0.2-0.3,0.3-0.3l-1.1-3C147.4,58,147.2,58.3,147,58.5z"/>
		<path fill="#020200" d="M147.8,56.4c0,0.2-0.1,0.4-0.1,0.6l1.2,3.3c0.1-0.1,0.3-0.2,0.4-0.3c0.1,0,0.1,0,0.2,0
			c0.5,0,0.7,0.4,0.9,1.1c0.1,0.4,0.2,0.8,0.3,1.2c0,0,0.1,0,0.1-0.1l0,0c0,0,0.1,0,0.1-0.1h0.1h0.1l0,0l-3.2-6.1
			C147.8,56.1,147.8,56.3,147.8,56.4z"/>
		<path fill="#020200" d="M146.5,58.9c-0.1,0.1-0.1,0.1-0.3,0.2c0.1,0.1,0.2,0.2,0.3,0.3v0.1c0,0.1,0.1,0.1,0.1,0.1
			c0.1,0.1,0.1,0.2,0.2,0.3L146.5,58.9C146.6,58.9,146.5,58.9,146.5,58.9z"/>
		<polygon fill="#020200" points="129.9,61.9 131.7,60.5 131.8,60.8 131.8,60.8 131.9,60.9 129.9,62.5 129.9,65.7 132.3,63.3 
			132.3,58 129.9,59.4 		"/>
		<path fill="#020200" d="M129.9,56.8v2l2.3-1.4v-1.7v-0.1l-0.3,0.1v-0.3v-0.1v-0.1l0.2-0.1c-0.2-0.3-0.5-0.6-0.8-0.8l-0.5-0.3
			l-2.4,0.6L129.9,56.8z"/>
		<path fill="#020200" d="M136.6,56.7l4.2-3.3c-0.1,0-0.2-0.1-0.3-0.1l-3.9,2.2V56.7z"/>
		<path fill="#020200" d="M145,27.3c-17.7,0-32.2,14.4-32.2,32.2c0,15.5,11.1,28.5,25.8,31.6c0-0.3,0-0.7,0-1
			c-14.2-3-24.8-15.5-24.8-30.5c0-17.2,14-31.2,31.2-31.2s31.2,14,31.2,31.2c0,16.3-12.6,29.8-28.5,31.1l0,0c0,0.1,0,0.3,0.1,0.5
			c0,0.1,0,0.2-0.1,0.3c0,0.1-0.1,0.1-0.1,0.1l0,0l0,0l0.1,0.1c16.5-1.4,29.6-15.2,29.6-32.1C177.2,41.8,162.8,27.3,145,27.3z"/>
		<path fill="#020200" d="M136.3,53.7l2.2-0.9c-0.3-0.1-0.5-0.2-0.8-0.3l-1.9,0.5C136.1,53.2,136.2,53.4,136.3,53.7z"/>
		<path fill="#020200" d="M136.6,54.9V55l3.2-1.9c-0.2-0.1-0.3-0.1-0.6-0.1l-2.8,1.1C136.6,54.4,136.6,54.6,136.6,54.9z"/>
		<path fill="#020200" d="M158.8,52.1l-5.8-0.6c-0.2,0.1-0.5,0.3-0.8,0.5l5.2,1.3L158.8,52.1z"/>
		<path fill="#020200" d="M164.7,60.8c-0.1-0.1-0.3-0.4-0.7-0.8l-0.7,0.6l1.3,0.8L164.7,60.8L164.7,60.8z"/>
		<path fill="#020200" d="M135.6,52.5l1.6-0.4c-0.3-0.1-0.6-0.3-0.9-0.6l-1.6,0.1C135,51.9,135.3,52.2,135.6,52.5z"/>
		<path fill="#020200" d="M158.5,56.1l-8-3.2c-0.1,0-0.1,0.1-0.2,0.1c-0.1,0-0.1,0.1-0.2,0.1l8.5,4.9V56.1z"/>
		<path fill="#020200" d="M158.5,55.5c0-0.1-0.2-0.5-0.9-1l-0.8-0.6l0.3-0.3l-5.4-1.3c-0.2,0.1-0.4,0.2-0.6,0.3l7.4,3V55.5
			L158.5,55.5z"/>
		<polygon fill="#020200" points="162.6,57.2 163,57.4 164.4,56.1 164.7,56.1 164.7,55.5 162.6,55 		"/>
		<path fill="#020200" d="M147.6,88.8c0-0.1-0.1-0.3-0.2-0.3c0-0.1,0.1-0.1,0.1-0.1c0-0.1,0-0.1,0.1-0.1c0.1-0.1,0.1-0.2,0.1-0.4
			c0-0.1,0-0.3,0-0.5c0-0.1,0-0.3-0.1-0.4c0-0.1-0.1-0.1-0.1-0.1c0.1-0.1,0.1-0.2,0.1-0.3c0.1-0.1,0.1-0.2,0.1-0.3s0.1-0.3,0.1-0.5
			c0-0.1,0-0.3-0.1-0.4l0,0c0.1-0.1,0.2-0.2,0.2-0.3c0-0.1,0-0.1,0.1-0.3v-0.1c0-0.1,0-0.3-0.1-0.4h0.1c0.1-0.1,0.2-0.2,0.2-0.3
			c0.1-0.3,0.1-0.6,0.2-0.8c0.1-0.2,0-0.5-0.2-0.6v-0.1l0.1-0.1l0.1-0.1c0.1-0.1,0.1-0.1,0.1-0.2c0.1-0.1,0.1-0.1,0.1-0.1l0.1-0.1
			v-0.1l0.1-0.1l0,0v-0.1l0.1-0.1c0.2-0.3,0.5-0.6,0.7-0.8l0.2-0.3c0.1-0.1,0.1-0.2,0.1-0.3c0.2-0.2,0.5-0.4,0.7-0.6l0.1-0.1l0,0
			l0,0l0.1-0.1c0.1-0.1,0.1-0.2,0.2-0.3c0.1-0.1,0.1-0.3,0.3-0.3c0-0.1,0.1-0.1,0.1-0.1c0.3-0.6,0.5-1.2,0.5-2.1
			c0-1.2,0-2.6-0.6-3.8c0.1,0,0.1,0,0.1,0c0.5-0.1,1-0.1,1.5-0.3c0.1-0.1,0.3-0.1,0.4-0.2l0,0c1-0.5,1.5-1.3,1.7-2.5
			c0-0.1,0-0.1,0-0.1c0.1-0.3,0.1-0.5,0.1-0.8c0.1-1,0.1-1.9-0.1-2.8v-0.1c-0.1-0.6-0.3-1.2-1-1.2h-0.1c-0.3,0-0.5,0.1-0.6,0.3
			c0-0.1,0-0.2,0.1-0.3c0.1-0.4,0.1-0.8,0.1-1.2c-0.1-1-0.8-1.6-1.7-1.6c-0.1,0-0.1,0-0.2,0c-0.1,0-0.3,0.1-0.5,0.1l0,0H151h-0.1
			c0,0-0.1,0-0.1,0.1l0,0c0,0-0.1,0-0.1,0.1c-0.1-0.4-0.1-0.8-0.3-1.2c-0.2-0.6-0.4-1.1-0.9-1.1c-0.1,0-0.1,0-0.2,0
			c-0.1,0.1-0.3,0.1-0.4,0.3c-0.1,0.1-0.2,0.2-0.3,0.3l0,0l-0.1,0.1c-0.1,0.1-0.2,0.2-0.3,0.3l0,0v0.1l-0.1,0.1
			c0,0.1-0.1,0.1-0.1,0.1l-0.1,0.1c-0.1-0.2-0.3-0.5-0.6-0.7v-0.1c-0.2-0.3-0.4-0.6-0.6-0.8c-0.1-0.1-0.1-0.2-0.2-0.3
			c0-0.1-0.1-0.1-0.1-0.1V59c-0.1-0.1-0.1-0.2-0.3-0.3c0.1-0.1,0.1-0.1,0.3-0.2l0.1-0.1c0.1-0.1,0.1-0.1,0.1-0.1l0,0
			c0.1-0.1,0.2-0.2,0.3-0.3c0.2-0.2,0.3-0.5,0.5-0.8c0.1-0.2,0.1-0.4,0.2-0.6c0-0.1,0-0.1,0-0.1c0.1-0.2,0.1-0.4,0.1-0.6
			c0-0.1,0-0.1,0-0.3c0-0.3,0-0.6,0-0.8c0-0.1,0-0.1,0-0.2c0-0.1,0-0.3,0-0.5c0-0.3,0-0.6,0-0.8c0-0.1,0-0.1,0-0.2v-0.1
			c0.1,0,0.3-0.1,0.5-0.1c0.1,0,0.1,0,0.2-0.1c0.2-0.1,0.4-0.1,0.6-0.1c0.1,0,0.2-0.1,0.3-0.1c0.2-0.1,0.4-0.1,0.6-0.2
			c0.1,0,0.1-0.1,0.2-0.1c0.1,0,0.1-0.1,0.2-0.1c0.2-0.1,0.4-0.1,0.6-0.3c0.2-0.1,0.4-0.2,0.6-0.3c0.2-0.1,0.4-0.2,0.6-0.3
			c0.3-0.1,0.5-0.3,0.8-0.5c0.2-0.1,0.3-0.3,0.6-0.4c0.3-0.2,0.6-0.5,0.8-0.8c0.1-0.1,0.3-0.3,0.5-0.5c0.3-0.3,0.6-0.7,0.9-1.1
			c0.1-0.1,0.1-0.2,0.2-0.3c0.1-0.1,0.1-0.1,0.1-0.2c0.3-0.5,0.6-1,0.7-1.4c0.1-0.2,0.1-0.3,0.1-0.6c0.1-0.5,0.1-1,0-1.4v-0.1
			c0-0.1-0.1-0.2-0.1-0.3c0-0.1-0.1-0.1-0.1-0.2c0.1,0,0.1-0.1,0.2-0.1c0.1-0.1,0.1-0.1,0.1-0.1c0.1-0.2,0.1-0.4,0.1-0.6
			c-0.1-0.1-0.1-0.3-0.2-0.3l-0.1-0.1c0,0,0-0.1-0.1-0.1l0,0c0-0.1-0.1-0.1-0.1-0.2c0-0.1-0.1-0.1-0.1-0.2c-0.1-0.3-0.4-0.6-0.6-0.7
			s-0.4-0.2-0.6-0.3c-0.1,0-0.2,0-0.3,0s-0.1,0-0.1,0h-0.1c-0.1,0-0.1,0-0.1-0.1l0,0c-0.1-0.1-0.3-0.2-0.5-0.3
			c-0.1-0.1-0.2-0.1-0.3-0.1c-0.4,0-0.8,0.2-0.9,0.6c0,0.1-0.1,0.1-0.1,0.1c-0.1,0.1-0.1,0.1-0.1,0.2c-0.2,0-0.4,0.1-0.6,0.1
			c-0.3,0.1-0.8,0.3-1.1,0.6c-0.1,0-0.1,0.1-0.1,0.1c-0.3,0.2-0.6,0.6-1,0.8c-0.3,0.3-0.8,0.6-1.2,1c-0.3,0.3-0.7,0.5-1,0.7
			c-0.1,0.1-0.3,0.1-0.4,0.3c0-0.1,0-0.1,0-0.2c0-0.4,0-0.5,0-0.6c0-0.1-0.1-0.3-0.1-0.3c-0.1-0.1-0.2-0.2-0.4-0.3h-0.1
			c-0.1,0-0.1,0-0.1,0c-0.1,0-0.2,0-0.3,0.1c-0.2,0.1-0.4,0.3-0.4,0.6c0,0,0,0.1,0,0.2v-0.1c0-0.1,0-0.1,0-0.1c0-0.1,0-0.1-0.1-0.2
			c-0.1-0.2-0.2-0.3-0.4-0.3c-0.1,0-0.1,0-0.1,0c-0.1,0-0.1,0-0.2,0c-0.1,0-0.1,0-0.1,0c-0.2,0.1-0.4,0.2-0.5,0.5l0,0
			c0,0,0,0.1,0,0.1c0,0.1,0,0.5-0.1,0.9c0,0.2,0,0.4,0,0.6l0,0l0,0l0,0c0-0.1,0-0.1,0-0.1l0,0c0-0.6,0-1,0-1.2s-0.1-0.4-0.3-0.5
			c-0.1-0.1-0.3-0.1-0.4-0.1H144h-0.1c-0.1,0-0.3,0.1-0.3,0.1c-0.1,0.1-0.2,0.3-0.3,0.5c0,0.1,0,0.1,0,0.2l0,0c0-0.1,0-0.1,0-0.1
			c0-0.2-0.1-0.3-0.2-0.4c-0.1-0.1-0.3-0.2-0.6-0.2h-0.1c-0.2,0-0.3,0.1-0.5,0.1c-0.1,0.1-0.2,0.3-0.2,0.6l0,0c0,0.1,0,0.3,0,0.5
			c0,0.1,0,0.2,0,0.3c0,0-0.1,0-0.1-0.1c-0.3-0.2-0.7-0.4-1-0.6c-0.6-0.4-1.2-1-1.7-1.4c-0.1-0.1-0.2-0.1-0.3-0.3
			c-0.3-0.2-0.5-0.4-0.8-0.6c-0.6-0.4-1.1-0.6-1.6-0.8c0-0.1,0-0.1,0-0.1s0-0.2-0.1-0.3c0-0.1,0-0.1-0.1-0.1
			c-0.1-0.3-0.5-0.6-0.9-0.6c-0.1,0-0.2,0-0.3,0.1c-0.2,0.1-0.3,0.2-0.5,0.3c0,0.4,0,0.4-0.1,0.4h-0.1c-0.1,0-0.2,0-0.3,0
			c-0.2,0-0.6,0-0.8,0.3c-0.1,0.1-0.3,0.3-0.6,0.6c-0.1,0.1-0.1,0.2-0.2,0.3v0.1c0,0.1,0,0.1-0.1,0.1c0,0.1-0.1,0.1-0.1,0.1
			l-0.1,0.1c-0.1,0.1-0.1,0.2-0.2,0.3c-0.1,0.2-0.1,0.5,0.1,0.6c0.1,0.1,0.1,0.1,0.1,0.1c0.1,0.1,0.1,0.1,0.1,0.1
			c0,0.1-0.1,0.1-0.1,0.1c-0.1,0.1-0.1,0.3-0.1,0.4c0,0.1-0.1,0.2-0.1,0.3c-0.1,0.4-0.1,0.8-0.1,1.2c0,0.1,0.1,0.3,0.1,0.5
			c0.1,0.5,0.3,1,0.7,1.5c0.1,0.1,0.1,0.3,0.3,0.4c0,0.1,0.1,0.1,0.1,0.1c0.3,0.5,0.6,0.8,1,1.2c0.1,0.1,0.3,0.3,0.5,0.5
			c0.3,0.3,0.6,0.6,1,0.9c0.2,0.1,0.3,0.3,0.6,0.4c0.3,0.2,0.6,0.4,0.9,0.6c0.2,0.1,0.4,0.2,0.6,0.3c0.3,0.1,0.5,0.2,0.8,0.3
			c0.2,0.1,0.5,0.1,0.7,0.3c0.2,0.1,0.3,0.1,0.6,0.1c0.2,0.1,0.4,0.1,0.7,0.1c0.1,0,0.2,0.1,0.3,0.1c0.2,0.1,0.4,0.1,0.6,0.1l0,0
			v0.1v0.2v0.8v0.3c0,0.1-0.1,0.1-0.1,0.2l0,0v0.6c0,0.1,0,0.1,0,0.1s0,0.1,0.1,0.1c0,0.1,0,0.1,0,0.2c0,0.1,0.1,0.3,0.1,0.3
			c0,0.1,0.1,0.1,0.1,0.2c0.1,0.1,0.1,0.3,0.1,0.4c0.1,0.1,0.1,0.3,0.2,0.5c0.1,0.1,0.1,0.1,0.1,0.3c0.1,0.1,0.2,0.3,0.3,0.5
			c0.2,0.2,0.3,0.3,0.6,0.5l0,0c0.1,0.1,0.1,0.1,0.2,0.1l0,0c0,0.1,0,0.1,0,0.2s0,0.1,0,0.2c-0.1,0.1-0.3,0.2-0.4,0.3
			c-0.6,0.4-1,0.8-1.4,1.3c-0.2,0.2-0.4,0.5-0.6,0.7l-0.1,0.1c-0.1,0.1-0.2,0.3-0.3,0.4c-0.5,0.7-1,1.4-1.4,2.1
			c-0.3,0.5-0.5,1-0.6,1.4c-0.1,0.3-0.2,0.7-0.4,1c-0.1,0.2-0.1,0.3,0,0.6c0,0.6,0,1.1-0.1,1.7c-0.1,0.3-0.1,0.7-0.1,1
			c-0.1,0.3-0.1,0.6-0.1,1c-0.1,1.1-0.2,2.3,0.1,3.4c0.2,1,0.6,1.9,0.9,2.8c0,0.1,0,0.2,0,0.3v0.3c0,0.3,0,0.5,0,0.8
			c0,0.1,0,0.1,0,0.2c0,0.2,0,0.4,0,0.6c0,0.7,0,1.4,0,2.1c0,0.4,0,0.8,0,1.2c0,1.7,0,3.5,0,5.3c0,0.1,0,0.1,0,0.3
			c2.1,0.5,4.2,0.7,6.4,0.7C145.9,89,146.7,88.9,147.6,88.8z M146.3,87.1L146.3,87.1c0-0.2,0-0.4,0-0.6h0.1
			C146.3,86.7,146.3,86.9,146.3,87.1z M146.6,86.5c-0.1,0-0.1,0.1-0.1,0.1c-0.1,0.1,0,0.1,0.1,0.1C146.5,86.7,146.6,86.7,146.6,86.5
			l0,0.3c-0.1,0-0.1,0.1-0.1,0.1c0,0-0.1,0-0.1,0.1c0-0.2,0-0.3,0-0.6c0.1-0.1,0.1-0.1,0.2-0.1C146.6,86.3,146.6,86.5,146.6,86.5z
			 M147.4,82.1L147.4,82.1C147.4,81.9,147.4,82,147.4,82.1c-0.1,0-0.1,0.1,0,0.1c-0.1,0.1-0.1,0.3-0.3,0.4c0-0.3,0.1-0.6,0.1-0.9
			c0.1-0.1,0.1-0.2,0.2-0.3l0,0l0,0c0.1,0.1,0.1,0.1,0.2,0.1C147.6,81.8,147.5,81.9,147.4,82.1z M147.7,81.7c0,0.1,0.1,0.3,0.1,0.4
			c-0.1,0.1-0.2,0.3-0.3,0.4c0-0.1,0-0.2-0.1-0.3C147.6,82.1,147.6,81.9,147.7,81.7z M147.4,82.3c0,0.1,0,0.2,0,0.3
			c-0.1,0.1-0.2,0.3-0.3,0.3c0-0.1,0-0.1,0-0.1C147.2,82.7,147.3,82.6,147.4,82.3z M147,82.8c-0.1,0.1-0.2,0.3-0.3,0.5l0,0
			c-0.1,0.1-0.3,0.2-0.5,0.3c0.3-0.6,0.6-1.1,0.9-1.6C147.1,82.3,147,82.6,147,82.8z M147,83.1L147,83.1c-0.1,0,0-0.1,0-0.1
			C147,83,147,83.1,147,83.1L147,83.1z M146.7,85c0.1-0.1,0.1-0.1,0.1-0.1h0.1c0.1,0,0.1-0.1,0.2-0.1c0,0.1,0,0.2,0,0.3
			c-0.1,0.1-0.3,0.2-0.4,0.3V85z M146.6,86.2c-0.1,0.1-0.1,0.1-0.1,0.1c0-0.5,0-1,0-1.5c0,0.1,0,0.2,0.1,0.3v0.1
			c0,0.1,0.1,0.3,0.1,0.4c-0.2,0.1-0.1,0.3,0,0.5C146.6,86.1,146.6,86.2,146.6,86.2z M146.6,84.4L146.6,84.4c-0.1,0-0.1,0-0.1,0.1
			c0-0.1,0-0.1-0.1-0.1c0-0.1,0-0.1,0-0.1c0.1-0.1,0.1-0.1,0.1-0.1L146.6,84.4L146.6,84.4z M146.7,86.8v-0.2l0,0
			C146.7,86.6,146.7,86.7,146.7,86.8L146.7,86.8z M146.7,86L146.7,86L146.7,86C146.7,86,146.7,86,146.7,86z M147.1,86.4
			c-0.1,0.1-0.1,0.1-0.3,0.2c0-0.1,0-0.1,0-0.1c0.1-0.1,0.2-0.1,0.3-0.2C147.1,86.3,147.1,86.4,147.1,86.4z M147.1,86.2
			c-0.1,0.1-0.2,0.1-0.3,0.2c0-0.1,0-0.1,0-0.3c0.1-0.1,0.1-0.1,0.2-0.2v-0.1c0.1,0,0.1-0.1,0.1-0.1
			C147.1,85.9,147.1,86.1,147.1,86.2z M147.2,86.1L147.2,86.1c0-0.1,0-0.3,0-0.4c0.1,0,0.1-0.1,0.1-0.1
			C147.3,85.8,147.2,86,147.2,86.1z M147.4,84.8c-0.1,0.1-0.1,0.1-0.3,0.2c0-0.1,0-0.2,0-0.3c0.1-0.1,0.2-0.1,0.3-0.2
			C147.5,84.6,147.5,84.7,147.4,84.8z M147.7,83.7c-0.2,0.1-0.3,0.3-0.6,0.4c0-0.1,0-0.1,0-0.2c0-0.1-0.1-0.1-0.1,0s0,0.1,0,0.3
			c-0.1,0.1-0.2,0.1-0.3,0.2v-0.3h0.1c0.4-0.2,0.7-0.6,1-0.8c0,0.1,0,0.1,0,0.1s0.1,0.1,0.1,0c0-0.1,0.1-0.2,0.1-0.3L148,83
			C147.8,83.2,147.8,83.5,147.7,83.7z M147.8,82.1c0-0.1-0.1-0.3-0.1-0.3c0.1,0,0.1,0.1,0.1,0.1C147.9,81.9,147.9,81.9,147.8,82.1
			C147.9,82,147.9,82,147.8,82.1z M148.2,81.6L148.2,81.6L148.2,81.6C148.2,81.5,148.2,81.5,148.2,81.6L148.2,81.6z M148.3,81.5
			c-0.1,0-0.1,0-0.2,0l0,0C148.2,81.4,148.2,81.4,148.3,81.5L148.3,81.5z M151.1,76.6c0,0.7-0.1,1.3-0.5,1.9
			c-0.1,0.2-0.2,0.3-0.4,0.6l-0.1,0.1l-0.1,0.1c-0.3,0.3-0.5,0.5-0.8,0.8c-0.1,0.1-0.1,0.2-0.1,0.3c-0.3,0.3-0.6,0.8-0.9,1.1
			c-0.1,0-0.1,0-0.3,0c0-0.1,0-0.1,0.1-0.2c0-0.1-0.1-0.1-0.1,0s-0.1,0.1-0.1,0.2c-0.1,0-0.1,0-0.1,0l0,0c0-0.1-0.1-0.1-0.1-0.1v0.1
			h-0.1v-0.1c0-0.1-0.1-0.1-0.1,0v0.1l0,0c0,0,0,0-0.1,0h-0.1l0,0c0.4-0.6,0.8-1.3,1-2c0.1,0,0.3-0.1,0.3-0.3c0-0.1,0-0.3,0-0.5
			c0.1-0.6,0.2-1.2,0.3-1.8s0-1.2-0.1-1.8c0.1-0.2,0.3-0.3,0.5-0.6c0,0.1,0.1,0.1,0.1,0.2c0,0.1,0.1,0,0.1,0c0-0.1-0.1-0.1-0.1-0.3
			c0.1-0.1,0.2-0.2,0.3-0.3c0.1,0.1,0.1,0.3,0.1,0.4c0,0.1,0.1,0,0.1,0c-0.1-0.1-0.1-0.3-0.1-0.5c0.1-0.1,0.1-0.1,0.2-0.2v0.5
			c0,0.1,0.1,0.1,0.1,0v-0.6c0.1-0.1,0.1-0.1,0.1-0.1c0.1,0,0.1,0.1,0.1,0.1s0.1-0.1,0.1-0.1c-0.1,0-0.1-0.1-0.1-0.1
			c0.1-0.1,0.1-0.1,0.3-0.2c0.1-0.1,0-0.1-0.1-0.1c-0.1,0.1-0.2,0.1-0.3,0.2c-0.1-0.1-0.1-0.1-0.1-0.1l0,0c0.1-0.1,0.1-0.1,0.1-0.1
			c0.1-0.1,0-0.1-0.1-0.1c-0.1,0-0.1,0.1-0.1,0.1v-0.3l0,0c0.1,0,0.1-0.1,0.2-0.1C151.1,74,151.1,75.4,151.1,76.6z M148.3,71.1
			c0,0.1,0,0.1,0,0.2c-0.1,0-0.1,0.1-0.1,0.1c0-0.1,0-0.2,0-0.3C148.2,71.1,148.2,71,148.3,71.1C148.3,71,148.3,71.1,148.3,71.1
			c0.1,0,0.1,0,0.1-0.1h0.1l0,0c0,0.1,0,0.2,0,0.3l0,0c0-0.1,0-0.1,0-0.1C148.4,71,148.3,71,148.3,71.1z M148.3,71.3
			c0,0.1,0,0.1,0,0.2l0,0c-0.1-0.1-0.1-0.1-0.1-0.1l0,0C148.2,71.4,148.2,71.4,148.3,71.3z M148.4,72.2L148.4,72.2
			c0,0.2,0.1,0.3,0.1,0.4c0,0,0,0,0,0.1c0.1,0.1,0.1,0.1,0.1,0.2V73c0,0-0.1,0-0.1,0.1l0,0c0,0.1-0.1,0.1-0.1,0.1
			c-0.1-0.3-0.2-0.7-0.3-1C148.2,72.2,148.3,72.2,148.4,72.2z M148.5,70.9c0.1,0,0.1,0,0.1,0l0,0c0,0.1,0,0.1,0,0.2
			c-0.1,0-0.1,0.1-0.1,0.1C148.5,71.1,148.5,71.1,148.5,70.9L148.5,70.9z M148.7,71.2c0,0.1,0,0.1,0,0.1c-0.1,0-0.1,0.1-0.1,0.1
			c0-0.1,0-0.1,0-0.2C148.5,71.3,148.6,71.3,148.7,71.2z M148.6,71.5L148.6,71.5C148.6,71.6,148.7,71.6,148.6,71.5L148.6,71.5h0.1
			c0,0.1,0,0.1,0,0.1c-0.1,0-0.2,0.1-0.3,0.1v-0.1C148.5,71.6,148.6,71.6,148.6,71.5z M148.7,70.9L148.7,70.9L148.7,70.9
			c0,0.1,0,0.1,0,0.2l0,0C148.7,71,148.7,71,148.7,70.9L148.7,70.9z M149.3,71L149.3,71c0,0,0-0.1,0-0.1l0.1-0.1c0,0.1,0,0.3,0,0.4
			l0,0c-0.1,0-0.1,0.1-0.1,0.1C149.3,71.2,149.3,71.1,149.3,71L149.3,71C149.4,71.1,149.4,71,149.3,71z M149.3,70.8
			c0-0.1,0-0.1,0-0.1c0,0,0.1,0,0.1-0.1C149.4,70.7,149.4,70.7,149.3,70.8C149.3,70.8,149.3,70.8,149.3,70.8z M149.7,72
			c0.1-0.1,0.1-0.1,0.2-0.1c0.1-0.1,0.1-0.1,0.2-0.1c0,0.1-0.1,0.1-0.1,0.2c-0.1,0.1-0.3,0.3-0.5,0.4l0,0
			C149.6,72.2,149.6,72.2,149.7,72L149.7,72z M149.8,73.1c-0.1,0.1-0.1,0.1-0.1,0.1c-0.1-0.1-0.1-0.1-0.2-0.1l0,0
			C149.6,73,149.8,73.1,149.8,73.1z M148.7,73c0.1,0.1,0.2,0.3,0.3,0.5c-0.1,0.1-0.1,0.1-0.1,0.2C148.8,73.5,148.7,73.3,148.7,73
			C148.7,73.1,148.7,73.1,148.7,73z M148.5,72.4c0.1,0.1,0.1,0.3,0.2,0.3l0,0C148.7,72.7,148.6,72.5,148.5,72.4z M149.6,73.7
			C149.5,73.7,149.5,73.6,149.6,73.7C149.6,73.6,149.6,73.7,149.6,73.7c0.1,0,0.1-0.1,0.1-0.1c-0.1,0-0.1-0.1-0.1-0.1l0.1-0.1
			c0,0.1,0.1,0.1,0.1,0.2c-0.1,0.1-0.2,0.2-0.3,0.3c0-0.1-0.1-0.1-0.1-0.2c0.1-0.1,0.1-0.1,0.1-0.1
			C149.4,73.7,149.4,73.7,149.6,73.7C149.5,73.8,149.6,73.7,149.6,73.7z M149.6,73.2C149.6,73.2,149.7,73.2,149.6,73.2v0.1
			C149.6,73.3,149.6,73.2,149.6,73.2z M149.7,73.3L149.7,73.3c0.1,0,0.3,0,0.3,0.1l0,0c-0.1,0.1-0.1,0.1-0.3,0.2
			C149.8,73.5,149.7,73.4,149.7,73.3z M149,74c0-0.1-0.1-0.1-0.1-0.2c0.1-0.1,0.1-0.1,0.1-0.2c0.1,0.1,0.1,0.1,0.1,0.2
			C149.1,73.8,149.1,73.9,149,74z M149,74.2c-0.1-0.1-0.1-0.1-0.2-0.2l0,0v-0.1C148.9,74,148.9,74.1,149,74.2z M149.1,74
			c0.1-0.1,0.1-0.1,0.1-0.1c0,0.1,0.1,0.1,0.1,0.2c-0.1,0.1-0.1,0.1-0.1,0.2C149.1,74.2,149.1,74.1,149.1,74L149.1,74z M149.2,73.7
			c-0.1-0.1-0.1-0.1-0.1-0.2c0-0.1,0.1-0.1,0.1-0.1c0.1,0.1,0.1,0.1,0.1,0.2C149.3,73.6,149.3,73.7,149.2,73.7z M149.1,73.4
			c-0.1-0.1-0.1-0.2-0.1-0.3C149,73.2,149.1,73.3,149.1,73.4C149.1,73.3,149.1,73.3,149.1,73.4z M148.8,73.8c0,0.1-0.1,0.1-0.1,0.1
			c0,0,0-0.1-0.1-0.1c-0.1-0.1-0.1-0.3-0.1-0.5c0-0.1,0-0.1,0.1-0.1C148.7,73.4,148.7,73.6,148.8,73.8z M149.1,74.4L149.1,74.4
			C149,74.4,149.1,74.4,149.1,74.4l0.1,0.1l0,0l0,0c0,0.1,0.1,0,0.1-0.1C149.2,74.4,149.1,74.4,149.1,74.4c0.1-0.1,0.1-0.2,0.2-0.3
			c0,0.1,0.1,0.1,0.1,0.2c-0.1,0.2-0.3,0.3-0.5,0.6c0-0.3-0.1-0.6-0.1-0.8C148.9,74.2,148.9,74.3,149.1,74.4z M149.4,74.1
			c0.1-0.1,0.2-0.2,0.3-0.3c0,0.1,0.1,0.1,0.1,0.2c-0.1,0.1-0.2,0.2-0.3,0.3C149.5,74.2,149.4,74.2,149.4,74.1z M149.8,73.7
			c0.1-0.1,0.2-0.2,0.3-0.3v0.3c-0.1,0.1-0.1,0.1-0.2,0.2C149.9,73.8,149.8,73.8,149.8,73.7z M150,73.3c-0.1,0-0.1-0.1-0.2-0.1
			c0.1,0,0.1-0.1,0.1-0.1C150,73.1,150,73.2,150,73.3z M150,73.1c0.1,0,0.1,0,0.1,0v0.3C150.1,73.2,150,73.1,150,73.1z M149.6,73.3
			c-0.1,0.1-0.1,0.1-0.1,0.1c-0.1-0.1-0.1-0.1-0.1-0.1l0,0c0.1-0.1,0.1-0.1,0.2-0.3l0,0C149.5,73.1,149.6,73.3,149.6,73.3z
			 M149.4,71.3L149.4,71.3c-0.1,0.1-0.1,0.1-0.1,0.1v-0.1C149.3,71.4,149.3,71.4,149.4,71.3z M149.3,73c-0.1,0.1-0.1,0.1-0.2,0.2
			c-0.1-0.1-0.2-0.3-0.3-0.5c0.1-0.1,0.1-0.1,0.1-0.2l0,0c0,0,0,0.1,0.1,0.1C149.1,72.8,149.3,72.9,149.3,73z M149.1,71.6
			C149.1,71.6,149.1,71.6,149.1,71.6C149.1,71.6,149,71.6,149.1,71.6C149,71.6,149,71.6,149.1,71.6C149,71.6,149.1,71.6,149.1,71.6z
			 M149,71.5c0-0.1,0-0.1,0-0.2l0,0C149.1,71.3,149.1,71.4,149,71.5L149,71.5z M149.1,71.1c0-0.1,0-0.1,0-0.1c0,0,0.1,0,0.1-0.1
			C149.2,71,149.2,71,149.1,71.1C149.2,71.1,149.1,71.1,149.1,71.1z M149.2,71.2c0,0.1,0,0.1,0,0.2h-0.1
			C149.1,71.3,149.1,71.3,149.2,71.2C149.1,71.2,149.2,71.2,149.2,71.2z M149.2,70.9C149.2,70.9,149.1,70.9,149.2,70.9L149.2,70.9
			c-0.1-0.1-0.1-0.1-0.1,0v0.1l0,0v-0.1c0-0.1-0.1-0.1-0.1,0c0,0.1,0,0.1,0,0.1c0,0-0.1,0-0.1,0.1c0-0.1,0-0.1,0-0.1c0,0,0,0,0-0.1
			c0.1-0.1,0.3-0.1,0.4-0.1C149.2,70.7,149.2,70.8,149.2,70.9z M148.9,71.6c0-0.1,0-0.1,0-0.1s0.1,0,0.1-0.1
			C148.9,71.4,148.9,71.5,148.9,71.6L148.9,71.6z M148.9,71.6L148.9,71.6L148.9,71.6L148.9,71.6L148.9,71.6
			C148.9,71.6,148.9,71.6,148.9,71.6z M148.9,71.3c0-0.1,0-0.1,0-0.1c0,0,0.1,0,0.1-0.1C148.9,71.1,148.9,71.1,148.9,71.3
			C148.9,71.2,148.9,71.3,148.9,71.3z M148.9,72.3c0.1,0,0.1,0,0.1-0.1c0,0.1,0,0.1,0,0.1l0,0l0,0c0-0.1-0.1,0-0.1,0.1
			c0,0,0,0.1,0.1,0.1c-0.1,0.1-0.1,0.1-0.1,0.2c-0.1-0.1-0.1-0.2-0.2-0.3c0-0.1-0.1,0-0.1,0c0-0.1-0.1-0.1-0.1-0.1l0,0
			c0.1,0,0.1,0,0.1,0C148.7,72.3,148.7,72.3,148.9,72.3z M148.8,71.2c0,0.1,0,0.1,0,0.1h-0.1C148.7,71.3,148.7,71.2,148.8,71.2
			L148.8,71.2z M150.2,73.6L150.2,73.6C150.2,73.5,150.2,73.5,150.2,73.6L150.2,73.6z M153.2,67.1c0-0.1,0-0.3,0-0.4
			c0-0.1,0-0.1,0.1-0.1c0,0.1,0,0.1,0,0.1c0,0,0,0.1,0.1,0.1C153.3,66.9,153.3,67.1,153.2,67.1L153.2,67.1z M153.1,67.6L153.1,67.6
			c0,0.1-0.1,0.2-0.1,0.3l0,0C153.1,67.8,153.1,67.8,153.1,67.6z M152.9,68.5C152.9,68.6,153,68.5,152.9,68.5
			c0.1-0.1,0.1-0.2,0.1-0.3c0.1-0.1,0.1-0.2,0.1-0.3l0,0c0,0.1,0.1,0,0.1,0c0-0.1,0-0.1,0-0.1l0,0v-0.1c0.1-0.2,0.1-0.4,0.3-0.6
			c0-0.1,0-0.1-0.1-0.1c0.1-0.2,0.1-0.3,0.2-0.6c0-0.1-0.1-0.1-0.1,0c-0.1,0.1-0.1,0.2-0.1,0.3c0-0.1,0-0.2,0-0.3
			c0.1-0.1,0.1-0.3,0.1-0.4c0-0.1-0.1-0.1-0.1,0c0,0.1-0.1,0.1-0.1,0.3c0-0.1,0-0.1,0-0.1c0.2-0.2,0.4-0.6,0.7-0.6
			c0.2,0,0.3,0.8,0.4,0.9c0.3,1.1,0.2,2.2,0,3.4c-0.2,0.9-0.6,1.7-1.4,2.1c-0.9,0.5-2.1,0.4-3,0.8H150c-0.1,0-0.1,0-0.2-0.1
			c0.1-0.1,0.3-0.2,0.4-0.3l0,0c0.1-0.1,0.1-0.1,0.2-0.1V72c0.1-0.1,0.2-0.3,0.3-0.3c0,0.1,0,0.1-0.1,0.2c0,0.1,0.1,0.1,0.1,0
			c0-0.1,0.1-0.3,0.1-0.4c0-0.1,0.1-0.1,0.1-0.1h0.1c0-0.1,0-0.1,0.1-0.1c0.1-0.1,0.2-0.2,0.3-0.3c0,0.1,0,0.1,0,0.1
			c-0.1,0.2-0.2,0.4-0.3,0.6c0,0.1,0.1,0.1,0.1,0.1c0.1-0.2,0.2-0.4,0.3-0.6h0.1c0.1-0.1,0.1-0.2,0.1-0.3v0.1l-0.1,0.1
			c-0.1,0.1,0,0.1,0.1,0.1c0.2-0.3,0.5-0.6,0.6-0.8h0.1c0.1-0.1,0.1-0.3,0.2-0.4v-0.1l0,0c0.1-0.2,0.2-0.4,0.3-0.7h0.1
			c0.1-0.1,0.1-0.2,0.1-0.3C152.9,68.5,152.9,68.5,152.9,68.5z M150.2,71.8c0-0.1,0-0.1,0.1-0.2c0.1-0.1,0.2-0.2,0.3-0.3
			C150.4,71.5,150.3,71.7,150.2,71.8z M151.3,70.6c0-0.1,0-0.1,0-0.1l0,0c0.1-0.1,0.1-0.2,0.1-0.3c0,0.1,0,0.1,0,0.1
			C151.4,70.4,151.3,70.5,151.3,70.6z M151.6,70.2c0.1-0.1,0.1-0.1,0.1-0.1l0,0V70l0,0c0.1-0.1,0.1-0.1,0.1-0.2c0,0,0.1,0,0.1-0.1
			c0.1-0.1,0.1-0.3,0.3-0.4c0,0.1,0.1,0,0.1,0c0-0.1,0-0.1,0-0.3c0.1-0.1,0.1-0.1,0.1-0.3c0,0.1,0,0.2,0,0.3l0,0
			c-0.1,0.1-0.1,0.2-0.1,0.3c-0.2,0.3-0.5,0.8-0.8,1.1C151.5,70.4,151.5,70.4,151.6,70.2C151.5,70.3,151.6,70.2,151.6,70.2z
			 M151.5,70.2c0-0.1,0-0.1,0-0.1c0-0.1,0.1-0.1,0.1-0.1V70C151.6,70,151.6,70,151.5,70.2C151.6,70,151.6,70.1,151.5,70.2z
			 M151.8,69.7c0.1-0.1,0.1-0.1,0.1-0.1c0,0.1,0,0.1,0,0.1s-0.1,0.1-0.1,0.1C151.8,69.8,151.8,69.8,151.8,69.7L151.8,69.7z
			 M151.9,69.5c0.1-0.1,0.1-0.1,0.1-0.2l0,0C152,69.3,152,69.4,151.9,69.5L151.9,69.5z M152.5,68.9c0-0.1,0-0.1,0-0.2
			C152.5,68.8,152.5,68.8,152.5,68.9L152.5,68.9C152.6,68.9,152.6,68.9,152.5,68.9z M152.6,68.5L152.6,68.5c0,0,0,0.1,0,0.1l0,0
			c0,0.1-0.1,0.1-0.1,0.1l0,0C152.6,68.6,152.6,68.5,152.6,68.5L152.6,68.5z M152.9,68L152.9,68c-0.1,0.1-0.1,0.3-0.1,0.3l0,0v0.1
			c0-0.1,0-0.1,0-0.2C152.9,68.2,152.9,68.1,152.9,68z M152.8,63.6c0.1,0.6-0.1,1.2-0.1,1.8c0,0.7,0.1,1.3-0.1,2
			c-0.1,0.6-0.6,1-1,1.4c-0.3,0.4-0.6,0.8-0.8,1.3c-0.3,0.6-0.8,1-1.3,1.3c0-0.2,0-0.4,0-0.6c0,0,0.1,0,0.1-0.1c0.1,0,0-0.1-0.1-0.1
			l0,0c0-0.1,0-0.1,0-0.1c0.1,0,0.1-0.1,0.1-0.1c0.8-0.5,1.4-1,1.8-1.9c0.1-0.3,0.1-0.5,0.2-0.8c0-0.1,0.1-0.1,0.1-0.1
			c0.1-0.2,0-0.4,0-0.6c0-0.1,0-0.2,0-0.3c0.1-0.1,0.1-0.2,0.2-0.3c0.1-0.1-0.1-0.1-0.1-0.1c-0.1,0.1-0.1,0.1-0.1,0.2
			c0-0.2-0.1-0.3-0.1-0.6c0.1-0.1,0.1-0.3,0.1-0.4c0-0.1-0.1-0.1-0.1,0l0,0c0-0.1-0.1-0.1-0.1,0v0.1v-0.1c0.1-0.1,0.1-0.2,0.1-0.3
			c0-0.1-0.1-0.1-0.1-0.1c0,0.1-0.1,0.1-0.1,0.2c-0.1-0.2-0.1-0.5-0.1-0.7c0.1-0.1,0.1-0.2,0.2-0.3c0.1-0.1-0.1-0.1-0.1-0.1
			c-0.1,0.1-0.1,0.1-0.1,0.1c0-0.1,0-0.3,0-0.4s0.1-0.2,0.1-0.3c0-0.1-0.1-0.1-0.1,0l0,0c0-0.1,0-0.3-0.1-0.4v-0.1
			c0-0.1,0.1-0.1,0.1-0.2c-0.1-0.2-0.2-0.2-0.2-0.2s0,0.1-0.1,0.1c0-0.1,0-0.1-0.1-0.2c0-0.1,0.1-0.1,0.1-0.3c0-0.1-0.1-0.1-0.1,0
			c0,0.1,0,0.1,0,0.1c0-0.1,0-0.1,0-0.1C151.9,62.5,152.7,62.7,152.8,63.6z M151.1,63.9c0,0.2,0,0.5,0.1,0.7v0.1
			c0-0.2-0.1-0.4-0.1-0.6C151.1,64,151.1,64,151.1,63.9z M151,63.8c0-0.1,0-0.1,0-0.3c0,0,0-0.1,0.1-0.1
			C151.1,63.5,151.1,63.6,151,63.8C151.1,63.7,151.1,63.8,151,63.8z M151.1,64.8c0,0.1,0,0.2,0,0.3c0,0.1-0.1,0.1-0.1,0.1
			c0-0.1,0-0.1-0.1-0.3C151.1,64.9,151.1,64.9,151.1,64.8z M151.6,66.7L151.6,66.7c-0.1,0-0.1-0.1-0.1-0.2c0-0.1,0.1-0.1,0.1-0.3
			C151.5,66.5,151.6,66.6,151.6,66.7z M151.5,65.8c0-0.1,0.1-0.1,0.1-0.1C151.6,65.8,151.5,65.8,151.5,65.8S151.5,65.8,151.5,65.8z
			 M151.6,66.9L151.6,66.9c0,0.1,0,0.1,0,0.1v0.1C151.6,67,151.6,67,151.6,66.9C151.6,66.9,151.6,66.9,151.6,66.9z M151.4,66.4
			L151.4,66.4c0-0.2,0.1-0.3,0.1-0.4c0,0.1,0,0.1,0,0.1C151.5,66.2,151.4,66.3,151.4,66.4z M151.3,66.1c0-0.1,0-0.1-0.1-0.1l0,0
			c0.1-0.1,0.1-0.2,0.2-0.3v0.1C151.4,65.9,151.3,66,151.3,66.1z M151.3,65.7c0-0.1,0-0.1,0-0.2s0.1-0.1,0.1-0.2c0,0.1,0,0.1,0,0.1
			c0,0.1,0,0.1,0,0.1S151.3,65.7,151.3,65.7z M151.3,65.4c0-0.1,0-0.1,0-0.2s0.1-0.1,0.1-0.2c0,0.1,0,0.1,0,0.2
			S151.3,65.3,151.3,65.4z M151.3,65.8L151.3,65.8L151.3,65.8l-0.1-0.1C151.3,65.8,151.3,65.8,151.3,65.8L151.3,65.8z M151.2,64.9
			c0-0.1,0-0.2,0-0.3s0.1-0.1,0.1-0.3c0,0.1,0,0.2,0,0.3C151.3,64.8,151.3,64.9,151.2,64.9z M151.2,65.5
			C151.2,65.5,151.2,65.6,151.2,65.5c-0.1,0-0.1,0-0.1-0.1c0-0.1,0-0.1,0.1-0.1C151.2,65.4,151.2,65.4,151.2,65.5z M151.2,64.4
			c0-0.2,0-0.5,0-0.7c0-0.1,0.1-0.1,0.1-0.2c0,0.2,0,0.4,0.1,0.6l0,0C151.3,64.2,151.2,64.3,151.2,64.4z M151.1,63.5
			c0-0.1,0-0.1,0-0.2c0-0.1,0-0.1,0.1-0.1c0,0.1,0,0.1,0.1,0.2C151.2,63.4,151.2,63.4,151.1,63.5z M151.1,62.7
			c0,0.1,0.1,0.2,0.1,0.3v0.1l0,0c0-0.1-0.1-0.1-0.1,0s0,0.1,0,0.2c0,0,0,0.1-0.1,0.1C151,63.2,151,63,151.1,62.7
			C151,62.7,151.1,62.7,151.1,62.7z M151,64.7L151,64.7L151,64.7c0-0.1-0.1-0.3-0.1-0.5v-0.1C151,64.4,151,64.6,151,64.7z
			 M150.9,63.8c0,0.1,0,0.2,0,0.3v0.1c0-0.1,0-0.1,0-0.2C150.9,63.8,150.9,63.8,150.9,63.8z M150.9,62.8c0,0.2,0,0.5,0,0.8
			c0,0.1-0.1,0.1-0.1,0.1c0-0.3-0.1-0.6-0.1-0.8C150.8,62.9,150.9,62.8,150.9,62.8z M149.1,61c0.1-0.1,0.3-0.3,0.4-0.4
			c0.1,0,0.3,0.6,0.3,0.7c0.4,1.4,0.5,2.8,0.8,4.2c0.1,0.8,0.6,1.5,0.5,2.3c-0.1,0.8-0.6,1.4-1.2,1.9c-0.4,0.3-1.4,1.1-1.9,0.6l0,0
			v-0.1c0-0.1-0.1-0.2-0.1-0.3c-0.1-0.2-0.1-0.6-0.1-0.8c0.3-0.1,0.5-0.3,0.7-0.6c0,0.1,0.1,0.1,0.1,0.1c0,0.1,0.1,0,0.1-0.1
			c-0.1-0.1-0.1-0.1-0.1-0.2c0.1-0.1,0.3-0.3,0.3-0.6l0.1,0.1c0.1,0.1,0.1,0,0.1-0.1c0-0.1-0.1-0.1-0.1-0.1c0.1-0.2,0.2-0.5,0.3-0.7
			c0.3,0,0.4-0.5,0.1-0.6c-0.1,0-0.2-0.1-0.3-0.1c0.1-0.1,0.1-0.1,0.1-0.2v0.1c0,0.1,0.1,0,0.1,0c0-0.1,0-0.1-0.1-0.1V66
			c0-0.1-0.1-0.1-0.1-0.2c0.1-0.1,0.1-0.3,0.2-0.5c0-0.1-0.1-0.1-0.1,0c-0.1,0.1-0.1,0.3-0.1,0.3c0-0.1-0.1-0.3-0.1-0.3
			c0.1-0.1,0.1-0.1,0.1-0.2c0-0.1-0.1-0.1-0.1-0.1c0,0.1-0.1,0.1-0.1,0.1c0-0.1,0-0.2-0.1-0.3c0.1-0.1,0.1-0.1,0.1-0.2
			c0.1,0.2,0.1,0.4,0.2,0.6c0,0.1,0.1,0,0.1,0c-0.1-0.2-0.1-0.5-0.2-0.8c0.1-0.1,0.1-0.3,0.2-0.5c0-0.1-0.1-0.1-0.1-0.1
			c-0.1,0.1-0.1,0.2-0.2,0.3c0-0.1,0-0.1,0-0.2c0.1-0.2,0.2-0.4,0.3-0.6c0-0.1-0.1-0.1-0.1-0.1c-0.1,0.1-0.1,0.3-0.2,0.5
			c0-0.2,0-0.4,0-0.6c0.1-0.3,0.1-0.5,0.1-0.8c0-0.1-0.1-0.1-0.1,0c0,0.1,0,0.3-0.1,0.4c0-0.2,0-0.4,0-0.6c0-0.1-0.1-0.1-0.1,0
			c0,0.3,0,0.6,0.1,0.8c0-0.1-0.1-0.3-0.1-0.4c0-0.3,0-0.6,0-0.9c0.1-0.1,0.2-0.3,0.3-0.3c0.1-0.1,0-0.1-0.1-0.1
			c-0.1,0.1-0.2,0.2-0.3,0.3c0-0.1,0-0.2,0-0.3l0.1-0.1c0.1-0.1,0-0.1-0.1-0.1l0,0l0,0c0,0,0-0.1-0.1-0.1
			C148.9,61.3,149,61.2,149.1,61z M148,71c0-0.1,0-0.1,0-0.1c0.1,0,0.1,0,0.1,0v0.1C148,71,148,71,148,71z M148,71.1
			c0,0.1,0,0.1,0,0.2C148,71.2,148,71.1,148,71.1L148,71.1z M147.6,68.5c-0.1-0.1-0.1-0.3-0.1-0.4c0.1-0.1,0.1-0.1,0.2-0.3
			c0,0.1,0.1,0.3,0.1,0.4C147.8,68.2,147.7,68.4,147.6,68.5z M147.7,68.8L147.7,68.8c0-0.1-0.1-0.1-0.1-0.1v-0.1
			C147.6,68.7,147.6,68.7,147.7,68.8z M147.6,68.5L147.6,68.5c-0.1,0.1-0.2,0.1-0.3,0.1c0-0.1-0.1-0.2-0.1-0.3
			c0.1-0.1,0.2-0.2,0.3-0.3C147.5,68.2,147.5,68.4,147.6,68.5z M148,67.4c-0.1,0.1-0.1,0.2-0.2,0.3C147.8,67.6,147.9,67.5,148,67.4
			L148,67.4L148,67.4z M148.8,65.3c0-0.1,0.1-0.1,0.1-0.1c0,0.1,0.1,0.2,0.1,0.3c-0.1,0.1-0.1,0.3-0.2,0.4c0-0.1,0-0.3,0-0.3
			C148.7,65.4,148.7,65.4,148.8,65.3z M148.7,62.3L148.7,62.3c0.1,0.1,0.1,0.2,0.1,0.3C148.7,62.5,148.7,62.4,148.7,62.3z
			 M148.9,64.5c0-0.2,0-0.4,0-0.6c0-0.1,0.1-0.1,0.1-0.1c0,0.2,0,0.3,0,0.6C148.9,64.3,148.9,64.4,148.9,64.5z M149,64.5
			c0,0.1,0,0.1,0,0.2c-0.1,0.1-0.1,0.1-0.1,0.2v-0.1c0,0,0-0.1-0.1,0c0-0.1,0-0.1,0-0.1C148.9,64.6,148.9,64.5,149,64.5z
			 M148.9,63.6c0-0.1,0-0.2-0.1-0.3l0,0c0,0.1,0,0.1,0,0.1s0.1,0.1,0.1,0l0,0C148.9,63.5,148.9,63.6,148.9,63.6z M148.9,65.6
			c0,0.1,0.1,0.2,0.1,0.3c-0.1,0.1-0.2,0.3-0.3,0.5c0-0.1-0.1-0.2-0.1-0.3C148.8,65.9,148.9,65.8,148.9,65.6z M148.2,68.1
			c-0.1,0.1-0.1,0.1-0.2,0.3c0-0.1-0.1-0.1-0.1-0.2c0.1-0.1,0.1-0.1,0.1-0.3C148.1,68,148.2,68,148.2,68.1z M148.2,67.8
			c0.1-0.1,0.1-0.2,0.1-0.3c0.1,0.1,0.1,0.1,0.1,0.2c-0.1,0.1-0.1,0.2-0.2,0.3C148.2,68,148.2,67.9,148.2,67.8z M148,68.6
			C148,68.7,148.1,68.6,148,68.6l0.1-0.1c0.1-0.1,0.1-0.1,0.2-0.3c0.1,0.1,0.1,0.1,0.1,0.2c-0.1,0.2-0.3,0.3-0.5,0.5l0,0
			c0-0.1-0.1-0.1-0.1-0.1C147.8,68.7,147.9,68.7,148,68.6L148,68.6z M148.3,68.1c0.1-0.1,0.1-0.2,0.2-0.3c0.1,0.1,0.1,0.1,0.1,0.2
			c-0.1,0.1-0.1,0.2-0.2,0.3C148.4,68.3,148.3,68.2,148.3,68.1z M148.5,67.8c0.1-0.1,0.1-0.1,0.1-0.1c0,0.1,0.1,0.1,0.1,0.2
			c0,0.1-0.1,0.1-0.1,0.1C148.7,67.9,148.6,67.8,148.5,67.8z M148.7,67.5c0.1-0.1,0.1-0.3,0.2-0.4l0,0c0.1,0,0.1,0,0.1,0
			c-0.1,0.2-0.2,0.4-0.3,0.6C148.7,67.7,148.7,67.6,148.7,67.5z M148.9,66.6L148.9,66.6c0-0.1,0.1-0.3,0.2-0.5c0,0.1,0,0.1,0.1,0.1
			C149.1,66.3,149,66.5,148.9,66.6z M148.9,67.1c-0.1,0.1-0.1,0.2-0.1,0.3c0-0.1,0-0.1,0-0.2c0-0.1-0.1-0.1-0.1,0
			c0,0.1,0,0.2,0.1,0.3c-0.1,0.1-0.1,0.1-0.1,0.2c-0.1-0.1-0.1-0.1-0.1-0.2c0-0.1,0.1-0.1,0.1-0.2s-0.1-0.1-0.1,0s-0.1,0.1-0.1,0.1
			c0-0.1-0.1-0.1-0.1-0.1h0.1c0.1-0.1,0.2-0.1,0.3-0.1H148.9C148.7,67.1,148.8,67.1,148.9,67.1z M148.2,67.5
			c-0.1,0.1-0.1,0.1-0.1,0.3c0-0.1-0.1-0.2-0.1-0.3l0.1-0.1l0,0l0,0C148.2,67.4,148.2,67.4,148.2,67.5z M148,67.8
			c-0.1,0.1-0.1,0.1-0.1,0.3c0-0.1-0.1-0.3-0.1-0.4c0.1-0.1,0.1-0.1,0.1-0.1C148,67.6,148,67.7,148,67.8z M147.8,68.2
			c0,0.1,0.1,0.1,0.1,0.2c-0.1,0.1-0.1,0.2-0.2,0.3c0-0.1-0.1-0.1-0.1-0.1C147.7,68.5,147.8,68.4,147.8,68.2z M147.7,68.9
			C147.7,68.9,147.7,68.9,147.7,68.9L147.7,68.9c0.1,0.1,0,0.1,0,0.1C147.7,69,147.7,68.9,147.7,68.9L147.7,68.9z M148.7,61.6
			C148.7,61.6,148.7,61.5,148.7,61.6C148.7,61.5,148.7,61.6,148.7,61.6c0.1,0.1,0,0.1,0,0.1C148.7,61.6,148.7,61.6,148.7,61.6
			L148.7,61.6z M148.7,61.9L148.7,61.9c0.1,0,0.1,0.1,0.1,0.2c0,0.1-0.1,0.1-0.1,0.1v-0.1C148.7,62.1,148.7,61.9,148.7,61.9z
			 M148.6,66c-0.1,0.1-0.1,0.3-0.2,0.4c0,0.1,0.1,0.1,0.1,0.1c0.1-0.1,0.1-0.2,0.1-0.3c0,0.1,0.1,0.2,0.1,0.3l0,0l0,0
			c-0.1,0-0.3,0-0.4,0.1c0.1-0.3,0.2-0.5,0.3-0.8C148.6,65.9,148.6,66,148.6,66z M148.6,62.1v0.2c0,0,0,0.1-0.1,0.1
			c0-0.1-0.1-0.1-0.1-0.2c0.1-0.1,0.1-0.1,0.1-0.2C148.5,62.1,148.5,62.1,148.6,62.1z M148.4,62.1c0.1-0.1,0.1-0.1,0.1-0.2v0.1
			C148.5,62,148.4,62.1,148.4,62.1L148.4,62.1L148.4,62.1z M153.7,41.8L153.7,41.8c0-0.1,0-0.1,0.1-0.1c0.1-0.1,0.3-0.2,0.4-0.2
			c0.1,0.1,0.2,0.1,0.3,0.2c0.1,0.1,0.3,0.2,0.6,0.2c0.3,0,0.6,0,0.8,0.1c0.2,0.1,0.4,0.4,0.5,0.6c0.1,0.1,0.1,0.3,0.2,0.6
			c0.1,0.1,0.1,0.1,0.2,0.3c0,0.1,0,0.1-0.1,0.1v0.1c-0.1,0-0.5,0.1-0.6,0c-0.1-0.1-0.1-0.1-0.1-0.2v-0.1c0.1-0.1,0.2-0.4,0.2-0.6
			c0-0.1-0.1-0.1-0.1,0c0,0.1,0,0.3-0.1,0.5c-0.1-0.1-0.1-0.2-0.3-0.3c0,0-0.1,0-0.1-0.1c-0.1-0.1-0.3-0.1-0.4-0.3
			c-0.1-0.1-0.3-0.1-0.4-0.2l0,0c0-0.3-0.1-0.4-0.4-0.5c-0.1,0-0.1,0.1-0.1,0.1c0.1,0.1,0.3,0.2,0.3,0.3c-0.2-0.1-0.4-0.1-0.7-0.1
			l0,0l0,0C153.7,42.1,153.7,42,153.7,41.8C153.7,41.8,153.7,41.8,153.7,41.8z M132.8,43.2c0.1-0.1,0.1-0.2,0.2-0.3
			c0.1-0.1,0.1-0.3,0.2-0.6c0.1-0.2,0.3-0.5,0.6-0.6c0.2-0.1,0.5-0.1,0.8-0.1c0.2,0,0.4-0.1,0.6-0.2c0.1-0.1,0.2-0.1,0.3-0.2
			c0.1-0.1,0.4,0.1,0.4,0.2c0,0.1,0,0.1,0,0.1l0,0v0.1c0,0.1-0.1,0.3-0.1,0.3l0,0l0,0c-0.2,0-0.5,0-0.7,0.1c0-0.1,0.1-0.3,0.3-0.3
			c0.1,0,0.1-0.1-0.1-0.1c-0.2,0.1-0.4,0.3-0.4,0.5l0,0c-0.1,0.1-0.3,0.1-0.4,0.2c-0.1,0.1-0.3,0.1-0.4,0.2c0,0,0,0.1-0.1,0.1
			c-0.1,0.1-0.2,0.2-0.3,0.3c-0.1-0.1-0.1-0.3-0.1-0.5c0-0.1-0.1-0.1-0.1,0c0,0.2,0,0.4,0.1,0.6V43c0,0.1,0,0.1-0.1,0.1
			C133.3,43.3,132.9,43.2,132.8,43.2c0-0.1-0.1-0.1,0-0.1C132.8,43.3,132.7,43.3,132.8,43.2z M133.7,48.1c-2.5-3.6,0.8-5.4,0.8-5.4
			c0.6-0.3,1.7-0.6,3.1,0.4c1.1,0.8,2.6,2.5,4.7,3.3c0-0.1,0-0.3,0-0.4c0-0.1,0.1-1.2,0.1-1.2c0-0.1,0-0.1,0.1-0.1
			c0.1,0,0.1,0,0.1,0.1c0,0.1,0,1.2,0,1.3c0,0.1,0,0.3,0,0.5c0.3,0.1,0.8,0.2,1.1,0.2c0-0.4,0.1-1.7,0.1-1.9c0-0.1,0-0.1,0-0.1
			s0-0.1,0.1-0.1h0.1c0.1,0,0.1,0,0.1,0.1c0,0.3,0,1.4,0,2.1l0,0c0.2,0,0.3,0,0.6,0s0.5,0,0.7,0c0-0.1,0-0.2,0-0.3
			c0-0.2,0.1-1.5,0.1-1.7v-0.1c0,0,0-0.1,0.1-0.1c0.1,0,0.1,0,0.1,0c0,0,0.1,0,0.1,0.1s0,0.1,0,0.1c0,0.3,0,1.3,0,1.9
			c0.4-0.1,0.8-0.1,1.1-0.2c0-0.1,0-0.3,0-0.4c0-0.1,0.1-1.3,0.1-1.4c0,0,0-0.1,0.1-0.1c0.1,0,0.1,0,0.1,0c0.1,0,0.1,0,0.1,0.1
			s0,1.3,0,1.4c0,0.1,0,0.1,0,0.2c2-0.8,3.5-2.5,4.5-3.2c1.4-1.1,2.5-0.8,3.1-0.4c0,0,3.3,1.9,0.8,5.4c-1.7,2.3-3.6,3.6-5.4,4.3
			c-1.9,0.7-3.8,0.8-5.4,1C141.2,53,137,52.8,133.7,48.1z M139.3,77.9c0-0.2,0-0.5,0-0.7c-0.3-1-0.7-1.9-0.9-2.9
			c-0.6-2.3,0.3-4.7,0.3-7c0-0.1,0-0.1-0.1-0.1c0.4-0.8,0.6-1.7,1-2.4c0.5-0.9,1.1-1.7,1.7-2.5s1.4-1.6,2.3-2.2v1.9l0,0
			c0,0.1,0.1,0.1,0.1,0.3c0.1-0.1,0.1-0.1,0.1-0.1l0,0v-1.7h-0.1c0-0.4,0-0.8,0.1-1c0-0.1,0-0.3,0-0.4v-0.1h-0.1c0-0.1,0-0.1,0-0.1
			h-0.1c-0.1-0.1-0.3-0.1-0.4-0.3c-0.4-0.3-0.7-0.6-0.9-1c-0.1-0.3-0.2-0.6-0.3-0.8c-0.1-0.2-0.1-0.3-0.1-0.6c0-0.1,0-0.2-0.1-0.3
			c0,0,0-0.1-0.1-0.1V55c0.1,0,0.1-0.1,0.1-0.1c0-0.1,0-0.3,0-0.4c0-0.3,0-0.6,0.1-1c0.3,0.1,0.6,0.1,1,0.1c0,0.1,0,0.1,0,0.2v0.1
			c0,0.1,0.1,0.2,0.3,0.1c0,0,0.1,0,0.1-0.1c0,0,0.1-0.1,0.1-0.1c0-0.1,0-0.1,0-0.2c0.3,0,0.5,0,0.7,0c0.1,0,0.1,0,0.3,0
			c0,0.1,0,0.2,0,0.3c0,0.1,0.1,0.3,0.1,0.3c0.1,0.1,0.1,0.1,0.1,0c0.1-0.1,0.1-0.2,0.1-0.3s0-0.2,0-0.3c0.3,0,0.6,0,1,0
			c0,0.1,0,0.1,0,0.2v0.1c0,0.1,0.1,0.1,0.1,0.1h0.1c0.1,0,0.1-0.1,0.1-0.2c0-0.1,0-0.1,0-0.2c0-0.1,0-0.1,0-0.1
			c0.3-0.1,0.7-0.1,1-0.1c0,0.6,0,1.2,0,1.9c0,0.3,0,0.7,0,1c0,0.2-0.1,0.5-0.1,0.7c-0.1,0.5-0.3,1-0.8,1.3l0,0
			c-0.1,0.1-0.1,0.1-0.2,0.1c-0.1,0.1-0.3,0.3-0.6,0.3c-0.1,0-0.1,0.1-0.1,0.1v0.1l0,0l0,0v0.4c0.2,0.1,0.3,0.2,0.5,0.4l0,0l0,0
			c0.6,1,1.4,1.7,1.9,2.7c0.9,1.7,0.1,3.7-0.8,5.2c-0.1,0.2,0.1,0.5,0.3,0.4c-0.1,0.1-0.2,0.2-0.3,0.3c-0.1-0.4-0.3-0.9-0.4-1.4
			c-0.1-0.6-0.2-1.3-0.3-1.9c-0.1-0.6-0.3-1-0.4-1.6l0.1-0.1c0.1-0.2,0.3-0.3,0.5-0.4c0.1-0.1,0.2-0.2,0.2-0.3
			c-0.1-0.1-0.2-0.3-0.3-0.2c-0.3,0.1-0.5,0.3-0.7,0.5c-0.1-0.1-0.1-0.2-0.2-0.3l0,0c-0.3-0.5-0.8-0.7-1.4-0.3
			c-0.1,0.1-0.3,0.2-0.3,0.3c-0.1-0.1-0.1-0.1-0.1-0.3l0,0c-0.1-0.2-0.1-0.5-0.1-0.8c0-0.3-0.6-0.3-0.6,0c-0.1,0.5,0.1,0.9,0.3,1.3
			c0,0.1,0.1,0.1,0.1,0.1c-0.2,0.3-0.3,0.6-0.5,0.8c0-0.2,0-0.5,0.1-0.7c0-0.1-0.1-0.1-0.1,0c-0.1,0.3-0.1,0.6-0.1,0.9
			c-0.1,0.3-0.3,0.8-0.3,1.1c0-0.1,0-0.1,0-0.1c0.1-0.3,0.2-0.6,0.3-1c0-0.1-0.1-0.1-0.1,0c-0.1,0.3-0.1,0.5-0.2,0.8
			c0-0.3-0.1-0.5-0.1-0.8c0-0.1-0.1-0.1-0.1,0c0,0.3,0.1,0.6,0.1,1c-0.1,0.2-0.1,0.3-0.2,0.6c0-0.1,0-0.1,0-0.1c0-0.1-0.1,0-0.1,0
			c0,0.1,0.1,0.1,0.1,0.3c-0.1,0.1-0.1,0.3-0.2,0.4c0-0.1-0.1-0.3-0.1-0.6c0-0.1-0.1-0.1-0.1,0c0,0.2,0.1,0.4,0.1,0.7
			c-0.1,0.1-0.1,0.3-0.2,0.4c-0.1-0.1-0.1-0.3-0.1-0.5c0-0.1-0.1,0-0.1,0c0.1,0.2,0.1,0.4,0.1,0.6c-0.1,0.1-0.1,0.2-0.2,0.3
			c-0.1,0-0.1-0.1-0.1-0.1c-0.2-0.3-0.7,0-0.5,0.3c0.1,0.1,0.1,0.1,0.1,0.2c0,0.3,0,0.6,0,0.9c0,0.1-0.1,0.1-0.1,0.1
			c0,0.1,0.1,0.1,0.1,0.1l0,0c0,0.1,0,0.3,0,0.4c-0.1,0.1-0.3,0.3-0.4,0.5c-0.1,0.1,0,0.1,0.1,0.1c0.1-0.1,0.2-0.3,0.3-0.4
			c0.1,0.5,0.1,1,0.1,1.5c-0.2,0.3-0.4,0.6-0.7,0.9c-0.1,0.1,0.1,0.1,0.1,0.1c0.2-0.3,0.4-0.6,0.6-0.8c0,0.2,0.1,0.4,0.1,0.7
			c-0.1,0.1-0.1,0.2-0.1,0.3s0.1,0.1,0.1,0.1c0.1-0.1,0.1-0.1,0.1-0.2c0.1,0.2,0.1,0.5,0.1,0.7v0.1c0,0.1,0,0.1,0.1,0.1
			c0,0.1,0.1,0.3,0.1,0.5c0,0.1,0.1,0.1,0.1,0c0,0.1-0.1,0.1-0.1,0.1c-0.1,0.3-0.3,0.8-0.3,1.2c-0.1,0.3,0.5,0.3,0.6,0
			c0.1-1,1-1.8,1-2.9c0-0.6-0.1-1.2-0.1-1.8c0-0.7,0-1.4,0.1-2.1c0.1-1.2,0.3-2.4,1-3.5c0-0.1,0.1-0.1,0.1-0.1c0.2-0.3,0.6-1,1-1
			c0.1,0,0.2,0.1,0.3,0.1c0.3,0.2,0.4,0.6,0.6,1c0,0.1,0.1,0.2,0.1,0.3c0.3,1.1,0.3,2.3,0.8,3.4c0.1,0.4,0.3,0.8,0.3,1.2
			c-0.1,0.1-0.1,0.1-0.1,0.1s0,0.1,0.1,0.1l0.1-0.1c0.1,0.2,0.1,0.3,0.1,0.6c0.2,0.6,0.3,1.3,0.5,1.9c0,0.1-0.1,0.1-0.1,0.1
			c-0.1,0,0,0.1,0.1,0.1c0,0,0.1,0,0.1-0.1c0.3,1,0.7,2,0.9,3.1c-0.1,0.1-0.1,0.1,0,0.3c0.1,0.1,0.1,0.2,0.1,0.3c0,0.1,0,0.1,0,0.3
			c0.1,1-0.1,2.1-0.1,3.2c-0.1,0.3-0.2,0.6-0.3,1c-0.6,1.5-1.7,2.8-2.3,4.3c-0.1,0.1-0.1,0.2-0.1,0.3c-0.1,0.1-0.1,0.2-0.1,0.3
			c-0.1,0.3,0.4,0.5,0.6,0.1c0-0.1,0.1-0.1,0.1-0.2c0.1,0,0.2,0,0.3-0.1v0.1c-0.2,0.1-0.4,0.3-0.6,0.6c-0.1,0.1,0,0.1,0.1,0.1
			c0.2-0.2,0.3-0.3,0.6-0.6v0.1c0,0.7,0,1.4,0,2.1h-0.1c0-0.4-0.1-0.9-0.1-1.3c0-0.1-0.1-0.1-0.1,0c0.1,0.5,0.1,0.9,0.1,1.4
			c-0.1,0.1-0.2,0.1-0.3,0.2c-0.1,0,0,0.1,0.1,0.1c0.1-0.1,0.2-0.1,0.3-0.1c0,0.1,0,0.3,0,0.6c-0.4,0-0.8,0-1.2,0
			c-2,0-3.9-0.2-5.8-0.6c0-2.5,0-5.1,0.1-7.6c0,0.1,0,0.1,0.1,0.1C139.3,78.6,139.3,78.3,139.3,77.9z M141.4,72.2
			c0.1-0.2,0.1-0.3,0.2-0.6c0.1-0.1,0.1-0.3,0.3-0.5c0,0.1,0,0.1,0,0.3c0,0.1,0.1,0.1,0.1,0c0-0.1,0-0.3,0-0.4c0,0,0-0.1,0.1-0.1
			c0-0.1,0-0.1-0.1-0.1c0-0.5,0-0.9,0-1.4l0,0c0,0.6,0.1,1.2,0.1,1.9c0,0.6-0.3,1-0.6,1.4l0,0C141.5,72.5,141.4,72.3,141.4,72.2z
			 M141.9,68L141.9,68L141.9,68c0.1,0.1,0.1,0.2,0,0.3l-0.1,0.1C141.8,68.3,141.8,68.2,141.9,68L141.9,68
			C141.9,68.1,141.9,68,141.9,68z M141.9,68.5c0,0.3-0.1,0.6-0.1,0.9c0,0,0,0.1-0.1,0.1C141.8,69.2,141.8,68.9,141.9,68.5
			C141.8,68.6,141.9,68.6,141.9,68.5z M141.8,69.6c0,0.2,0,0.4,0,0.6l0,0c0,0,0,0.1-0.1,0.1C141.8,70.1,141.8,69.9,141.8,69.6
			L141.8,69.6z M141.4,70.1c0-0.3,0-0.5,0.1-0.8c0.1-0.1,0.2-0.3,0.3-0.6c0,0.3,0,0.6-0.1,0.8C141.6,69.8,141.5,69.9,141.4,70.1z
			 M141.7,69.8c0,0.2,0,0.4,0,0.7c-0.1,0.1-0.2,0.3-0.3,0.5c0-0.1,0-0.3,0-0.4c0-0.1,0-0.2,0-0.3C141.5,70.1,141.6,70,141.7,69.8z
			 M141.4,69.1c0-0.2,0-0.5,0-0.7c0.1-0.1,0.2-0.2,0.3-0.3c0,0.1,0,0.3,0,0.4C141.6,68.8,141.6,68.9,141.4,69.1z M141.8,68
			c-0.1,0.1-0.2,0.1-0.3,0.3c0-0.1,0-0.3,0-0.4l0,0C141.6,68,141.6,68,141.8,68C141.8,68,141.8,68,141.8,68z M141.6,67.4
			c-0.1,0-0.1-0.1-0.1-0.1l0,0c-0.1,0-0.1-0.1-0.1-0.1c0.1-0.1,0.1-0.1,0.2-0.2C141.6,67.1,141.6,67.2,141.6,67.4z M141.6,66.8
			c0.1-0.1,0.1-0.3,0.2-0.4c0.1,0.2,0.1,0.5,0.1,0.7c-0.1,0.1-0.1,0.1-0.3,0.2C141.7,67.1,141.6,67,141.6,66.8z M141.4,67.8
			L141.4,67.8L141.4,67.8L141.4,67.8C141.4,67.8,141.4,67.8,141.4,67.8z M141.4,68c0,0.1,0,0.3,0,0.5l-0.1,0.1
			C141.3,68.3,141.3,68.2,141.4,68L141.4,68z M141.4,68.5c0,0.3,0,0.5-0.1,0.8l0,0C141.3,69.1,141.3,68.8,141.4,68.5L141.4,68.5z
			 M141.3,71.3C141.3,71.3,141.4,71.3,141.3,71.3c0.1-0.1,0.1-0.1,0.1-0.2c0.1-0.1,0.2-0.3,0.3-0.5l0,0c0,0.1,0.1,0.1,0.1,0
			c0-0.1,0-0.1,0-0.2c0,0,0-0.1,0.1-0.1c0,0.2,0,0.3,0,0.6c0,0.1-0.1,0.1-0.1,0.2c0-0.1,0.1-0.1,0.1-0.2s-0.1-0.1-0.1-0.1
			c-0.1,0.2-0.2,0.5-0.3,0.7c-0.1,0.1-0.1,0.2-0.1,0.3C141.4,71.7,141.3,71.6,141.3,71.3C141.3,71.3,141.3,71.3,141.3,71.3z
			 M142.1,67.5c-0.1,0-0.1-0.1-0.3-0.1c0.1-0.1,0.1-0.1,0.2-0.2h0.1v-0.1l0,0C142.1,67.2,142.1,67.4,142.1,67.5z M142.1,67
			c-0.1-0.3-0.1-0.5-0.1-0.8c0.1-0.1,0.1-0.3,0.2-0.4c0,0.2,0.1,0.3,0.1,0.6c0,0.1-0.1,0.3-0.1,0.5C142.1,66.9,142.1,67,142.1,67z
			 M142.2,65.8c0.1-0.1,0.1-0.3,0.2-0.5c0,0.1,0,0.1,0,0.2c-0.1,0.2-0.1,0.5-0.1,0.7C142.2,66,142.2,65.9,142.2,65.8z M141.2,68.1
			c0,0.1,0,0.3,0,0.4c-0.1,0.1-0.1,0.1-0.2,0.3c0-0.1,0-0.3,0-0.4C141,68.2,141.2,68.2,141.2,68.1z M141,68.2c0-0.2,0-0.5,0-0.7
			c0.1,0.1,0.2,0.1,0.3,0.2c0,0.1,0,0.1,0,0.2C141.2,68,141,68.1,141,68.2z M141.2,68.7c0,0.3,0,0.5,0,0.8c-0.1,0.1-0.1,0.1-0.2,0.2
			c0-0.3-0.1-0.5-0.1-0.8C141.1,68.8,141.2,68.7,141.2,68.7z M141.1,69.8c0.1-0.1,0.1-0.1,0.1-0.2c0,0.2,0,0.5,0,0.7
			c-0.1,0.1-0.1,0.1-0.1,0.1C141.1,70.2,141.1,70,141.1,69.8L141.1,69.8z M141.3,70.4c0,0.1,0,0.1,0,0.1c0,0.2,0,0.4,0,0.6
			c0-0.2-0.1-0.4-0.1-0.6C141.2,70.5,141.2,70.5,141.3,70.4z"/>
		<path fill="#020200" d="M147.6,91.6L147.6,91.6c0-0.1,0.1-0.1,0.1-0.1c0.1-0.1,0.1-0.2,0.1-0.3c0-0.1,0-0.3-0.1-0.5l0,0
			c-0.9,0.1-1.7,0.1-2.6,0.1c-2.2,0-4.3-0.2-6.4-0.7c0,0.3,0,0.7,0,1c2.1,0.4,4.3,0.6,6.5,0.6c0.9,0,1.8-0.1,2.6-0.1
			C147.6,91.6,147.6,91.6,147.6,91.6L147.6,91.6z"/>
		<path fill="#020200" d="M144.9,70.6c-0.6-0.1-1-0.1-1.6-0.2c-0.3,0-0.3,0.6,0,0.6c0.5,0.1,1,0.1,1.4,0.1
			C145.1,71.2,145.3,70.7,144.9,70.6z"/>
		<path fill="#020200" d="M143.6,65.8c0.6-0.1,1.1,0.1,1.7-0.1c0.6-0.3,0.3-1.3,0.1-1.7c-0.2-0.6-0.8-0.8-1.2-0.3
			c-0.4,0.3-0.7,1-0.7,1.5c0,0.1,0,0.1,0.1,0.1C143.2,65.4,143.2,65.8,143.6,65.8z M143.9,65.2c0-0.3,0.1-0.8,0.4-1
			c0.1-0.1,0.1-0.2,0.3-0.2c0.1,0,0.2,0.3,0.3,0.5c0.1,0.2,0.1,0.4,0.1,0.6c0,0.2-0.1,0.2-0.3,0.2C144.5,65.2,144.3,65.2,143.9,65.2
			C143.9,65.2,143.9,65.2,143.9,65.2z"/>
		<path fill="#020200" d="M143.3,68.3c0.8,0.1,1.6,0.1,2.4,0.3c0.3,0.1,0.5-0.4,0.1-0.6c-0.8-0.3-1.7-0.3-2.5-0.3
			C142.9,67.7,142.9,68.2,143.3,68.3z"/>
		<path fill="#020200" d="M154.4,48c-0.1,0.3-0.3,0.6-0.6,0.8s0.1,0.6,0.3,0.3c0.3-0.3,0.5-0.6,0.6-0.9
			C154.9,48,154.5,47.7,154.4,48z"/>
		<path fill="#020200" d="M143,52c-1.1,0-2.2-0.3-3.2-0.6c-0.9-0.3-1.9-0.7-2.6-1.3c-0.2-0.2-0.6,0.1-0.3,0.3c0.8,0.7,1.8,1,2.7,1.4
			c1.1,0.4,2.3,0.7,3.5,0.7C143.3,52.5,143.3,52,143,52z"/>
		<path fill="#020200" d="M144.9,48.4c0.1,0.1,0.1,0.1,0.1,0.1c0.1,0.1,0.3,0,0.3-0.1c0-0.1,0-0.2,0.1-0.3c0.3,0.1,0.5,0.2,0.8,0.2
			c0.1,0,0.3-0.1,0.2-0.3v-0.1c0.1,0.1,0.3,0.1,0.4,0.1c0.2,0,0.3-0.2,0.4-0.3h0.1c0.1,0.1,0.3,0.1,0.3-0.1c0.1-0.1,0.1-0.3,0.2-0.1
			c0.1,0.1,0.2,0.1,0.3,0.1c0.1,0,0.2-0.1,0.3-0.1c0.1-0.1,0.1-0.3,0.3-0.1c0.1,0.1,0.4,0.4,0.7,0.3c0.1-0.1,0.2-0.1,0.3-0.2
			c0.1-0.1,0.1-0.3,0.2-0.3c0.1,0.1,0.3-0.1,0.3-0.1c0-0.1,0-0.1,0-0.2c0.1,0,0.1-0.1,0.1-0.1c0-0.1,0.1-0.1,0.1-0.1l0,0
			c0.1,0.1,0.3,0.2,0.4,0.3c0.1,0.1,0.3-0.1,0.3-0.2c0-0.1,0-0.2,0-0.3c0,0,0.1,0,0.1,0.1c0.1,0.1,0.3,0.1,0.3-0.1
			c0.1-0.2,0.1-0.4,0.1-0.7c0.1,0.1,0.3,0.1,0.4,0.2c0.1,0.1,0.3,0,0.3-0.1c0.1-0.1,0.1-0.3,0.1-0.5h0.1c0.1,0.1,0.3-0.1,0.3-0.2
			c0-0.1,0-0.2,0-0.3h0.1c0.1,0.1,0.3-0.1,0.3-0.1s0-0.1,0.1-0.1c0.3,0.1,0.4-0.1,0.5-0.3h0.1c0.3-0.1,0.7-0.1,0.9,0.2
			c0.3,0.3,0.3,0.6,0.4,1c0.1,0.3,0.5,0.1,0.4-0.1c-0.1-0.4-0.2-0.9-0.6-1.2c-0.3-0.3-0.8-0.3-1.3-0.3c-0.1,0-0.1,0.1-0.1,0.1
			c-0.1,0-0.2,0.1-0.2,0.2c-0.1,0-0.1,0-0.1,0c-0.1-0.1-0.2,0-0.3,0.1c0,0.1-0.1,0.1-0.1,0.2c-0.1,0-0.1-0.1-0.1-0.1
			c-0.1-0.1-0.3,0.1-0.3,0.2c0,0.1,0,0.3,0,0.3h-0.1c-0.1,0-0.3,0.1-0.3,0.2c0,0.1,0,0.3,0,0.3c-0.1-0.1-0.2-0.1-0.3-0.2
			c-0.1-0.1-0.3,0-0.3,0.1c-0.1,0.2-0.1,0.4-0.1,0.6c-0.1-0.1-0.1-0.1-0.2-0.1c-0.2-0.1-0.4,0-0.4,0.2c0,0.1,0.1,0.3,0.1,0.3
			c-0.1-0.1-0.3-0.1-0.3-0.1c-0.1,0-0.3,0.1-0.3,0.2l0,0c-0.1-0.2-0.4,0-0.4,0.2c0,0.1,0,0.1,0,0.3c-0.1,0.1-0.3,0.2-0.3,0.3
			c-0.1,0.3-0.3,0-0.4-0.1c-0.1-0.1-0.3-0.2-0.4-0.2c-0.1,0-0.3,0.1-0.3,0.1c-0.1,0.1-0.1,0.1-0.1,0.2c0,0.1-0.1-0.1-0.2-0.1
			c-0.3-0.1-0.5,0-0.6,0.2v-0.1c-0.1-0.1-0.3-0.1-0.4,0.1c-0.1,0.1-0.1,0.4-0.3,0.3c-0.1-0.1-0.3-0.1-0.5-0.3
			c-0.1-0.1-0.3,0-0.3,0.2c0,0.1,0,0.2,0.1,0.3c-0.2-0.1-0.3-0.1-0.6-0.3c-0.1-0.1-0.3,0-0.3,0.1c0,0.1,0,0.1-0.1,0.1
			c-0.1-0.1-0.3-0.1-0.3,0.1c-0.1,0.1-0.1,0.1-0.1,0.2l-0.1,0.1c-0.1,0.1-0.1,0.1-0.1,0c-0.1-0.1-0.3-0.3-0.4-0.4
			c-0.1-0.1-0.3,0-0.3,0.1c-0.1,0.1-0.1,0.2-0.1,0.3c-0.2-0.2-0.3-0.5-0.6-0.8c-0.1-0.1-0.3-0.1-0.3,0c-0.1,0.1-0.2,0.3-0.3,0.3
			c-0.1-0.1-0.2-0.3-0.3-0.5c-0.1-0.1-0.3-0.1-0.4,0c-0.1,0.1-0.1,0.1-0.1,0.2c0-0.1-0.1-0.1-0.1-0.2c-0.1-0.1-0.3-0.1-0.3-0.1
			c0.1,0.3,0.1,0.4,0,0.5c-0.1-0.2-0.2-0.5-0.3-0.8c-0.1-0.1-0.3-0.1-0.3,0c-0.1,0.1-0.1,0.1-0.2,0.2c-0.1-0.1-0.1-0.3-0.1-0.5
			c-0.1-0.1-0.3-0.1-0.3-0.1c-0.1,0.1-0.1,0.2-0.2,0.3c-0.1-0.3,0-0.7-0.2-1c-0.1-0.1-0.2-0.1-0.3-0.1v-0.1c0-0.1-0.2-0.3-0.3-0.2
			c-0.1,0.1-0.1,0.1-0.2,0.1c0-0.1,0.1-0.3,0-0.5c0-0.1-0.2-0.3-0.3-0.2c-0.1,0.1-0.2,0.2-0.3,0.3c0.1-0.2,0.1-0.4,0.1-0.6
			s-0.3-0.3-0.4-0.1c-0.1,0.1-0.1,0.1-0.1,0.2c0.1-0.2,0.1-0.3,0.1-0.6c0-0.2-0.2-0.3-0.3-0.2c-0.1,0.1-0.3,0.1-0.4,0.2
			c0.1-0.1,0.1-0.3,0.1-0.5c0.1-0.2-0.1-0.3-0.3-0.3c-0.5,0.2-0.9,0.5-1.3,0.7c-0.3,0.1,0,0.6,0.2,0.4c0.3-0.1,0.6-0.3,0.8-0.5
			c-0.1,0.1-0.1,0.3-0.1,0.4c-0.1,0.1,0.1,0.3,0.3,0.3c0.1-0.1,0.3-0.1,0.4-0.2c-0.1,0.3-0.2,0.5-0.2,0.8c0,0.1,0.1,0.3,0.3,0.2
			c0.1-0.1,0.2-0.1,0.3-0.1c0,0.1,0,0.2-0.1,0.3c0,0.1,0.1,0.2,0.2,0.2c0.2,0,0.3-0.1,0.5-0.2c0,0.1-0.1,0.3-0.1,0.4
			c0,0.2,0.2,0.3,0.3,0.2c0.1-0.1,0.2-0.1,0.3-0.1c0,0.1,0,0.1,0,0.1c0,0.2,0.3,0.3,0.4,0.1l0.1-0.1c0.1,0.3,0,0.8,0.2,1
			c0.1,0.1,0.3,0.1,0.3,0.1c0.1-0.1,0.1-0.1,0.2-0.3c0.1,0.2,0.1,0.3,0.2,0.5c0.1,0.1,0.3,0.1,0.4,0c0.1-0.1,0.1-0.1,0.1-0.2
			c0.1,0.3,0.2,0.6,0.5,0.8c0.1,0.1,0.3,0.1,0.3-0.1c0.1-0.1,0.1-0.1,0.1-0.2c0,0.1,0.1,0.1,0.1,0.2c0.1,0.1,0.3,0.1,0.4,0
			c0.1-0.1,0.1-0.1,0.1-0.3c0.1,0.2,0.2,0.3,0.4,0.4c0.3,0.1,0.4-0.1,0.6-0.3c0.2,0.3,0.3,0.6,0.7,0.8c0.1,0.1,0.3,0,0.3-0.1
			c0.1-0.1,0.1-0.1,0.1-0.3c0.1,0.1,0.3,0.3,0.5,0.3C144.7,48.6,144.8,48.5,144.9,48.4z"/>
		<path fill="#020200" d="M136.6,59.5v-0.7v-1.5v-0.6v-1.2V55v-0.1c0-0.3-0.1-0.6-0.1-0.8c-0.1-0.1-0.1-0.3-0.1-0.4
			c-0.1-0.3-0.3-0.5-0.4-0.8c-0.1-0.1-0.2-0.3-0.3-0.4c-0.3-0.3-0.6-0.6-0.9-0.8c-0.2-0.1-0.4-0.3-0.6-0.4l0,0l-0.6-0.3l-2.8,2.8
			l-0.3,0.3l0.3,0.2l0.5,0.3c0.3,0.3,0.7,0.6,0.8,0.8c0.1,0.1,0.1,0.3,0.2,0.4v0.1v1.7V58v5.2v0.6v1.4l-1.5,1.7
			c-0.3-0.3-0.6-0.6-0.7-0.8c-0.1-0.2-0.1-0.3-0.1-0.3v-0.1v-3.2v-0.6v-2.5v-0.6v-2l-1.7-2.1l-0.3-0.4l-0.1-0.2l-0.3,0.4l-0.5,0.6
			l-1.4,1.7V58v0.5v2.9v0.5v3.4v0.3l-0.9,0.9l-0.4,0.4l-0.1-0.1c-0.1-0.1-0.2-0.2-0.3-0.3c-0.4-0.4-0.4-0.7-0.4-0.8v-2.8v-0.5v-3.2
			v-0.5V56l0,0c0-0.1,0-0.3,0-0.4c-0.2-1.4-1.2-2.8-2.2-3.4l-0.6-0.3l-1,1l-0.5,0.5l-1.8,1.8l0.8,0.6c0.4,0.3,0.8,0.7,0.9,1
			c0.1,0.1,0.1,0.2,0.1,0.3V57v3.6V61v4v0.5v1.3c0,0.9,0.4,1.8,1.2,2.5c0.1,0.1,0.2,0.2,0.3,0.3c0.2,0.2,0.4,0.3,0.7,0.6
			c1,0.7,2,1,2,1l0.5,0.2l2.5-2.5c0.1,0.1,0.1,0.1,0.2,0.3c0.1,0.1,0.2,0.2,0.3,0.3c1,1,2.3,1.5,2.8,1.7c0.1,0.1,0.1,0.1,0.2,0.1
			l0.2,0.1l0.3,0.1l6.3-6.3v-2.8v-0.8L136.6,59.5L136.6,59.5z M135.8,64.8l-5.6,5.7c0,0-2.9-1-3.6-2.9l-2.9,2.9c0,0-3.6-1.4-3.6-3.7
			c0,0,0-8.3,0-9.8c0-0.8-0.7-1.4-1.4-1.9l2.1-2.1c1,0.6,1.9,1.9,1.9,3.1c0,0,0,8.3,0,9.8c0,0.8,0.9,1.7,1.7,2.1l2.1-2.1v-8.8
			l1.4-1.7l1.3,1.7c0,0,0,7.2,0,8.7c0,0.8,0.9,1.7,1.7,2.1l2.3-2.3v-9.8c0-0.8-0.7-1.4-1.4-1.9l1.9-1.9c1,0.6,2.1,1.6,2.1,2.9v9.9
			H135.8z"/>
		<path fill="#020200" d="M157.5,53.3l-0.4,0.3l-0.3,0.3l0.8,0.6c0.7,0.5,0.9,0.8,0.9,1v0.1V56v1.9v0.6v2.2v0.6v0.3l-1.8,1.6
			l0.8,0.6c0.1,0.1,0.1,0.1,0.2,0.1c0.6,0.4,0.7,0.7,0.7,0.8v0.1v3.6c0,0.1,0,0.2,0,0.3c0.1,0.9,0.7,1.7,1.8,2.5
			c0.1,0.1,0.3,0.2,0.6,0.3l0.5,0.3l2.1-1.9l0.3-0.3l0.6-0.6l-0.8-0.6c-0.7-0.5-0.9-0.8-0.9-1v-6.1L163,61l0.3-0.3l0.7-0.6
			c0.4,0.3,0.6,0.6,0.7,0.8v0.6v0.5V66l0,0V68c0,1.5,1.2,2.8,2.1,3.4l0.5,0.3l2.1-1.9l0.3-0.3l0.8-0.7l-0.8-0.6
			c-0.7-0.5-0.9-0.8-0.9-1v-2.9v-0.5v-3.6v-0.1c0-0.1,0-0.2,0-0.3v-0.1v-3.2v-0.4v-1.4c0-0.6-0.1-1.1-0.4-1.6
			c-0.1-0.1-0.2-0.3-0.3-0.5c-0.4-0.6-1-1-1.4-1.3l-0.5-0.3l-3.2,3l0.8,0.6c0.3,0.2,0.5,0.3,0.6,0.5c0.2,0.2,0.3,0.4,0.3,0.5v0v0.6
			l-0.3-0.1l-1.4,1.3l-0.3,0.3v-0.5V55v-0.3c0-0.1,0-0.1,0-0.1c0-0.8-0.4-1.6-0.9-2.2c-0.1-0.2-0.3-0.3-0.5-0.5
			c-0.3-0.2-0.6-0.4-0.8-0.6L160,51l-0.7,0.7l-0.6,0.4L157.5,53.3z M160.1,51.9c0.9,0.6,1.8,1.6,1.8,2.7v4.9l2.8-2.5
			c0,0,0.4,0.1,0.9,0.3v-1.9c0-0.6-0.6-1.2-1.2-1.7l2-1.9c0.9,0.6,1.8,1.6,1.8,2.7v5.2c0,0.1,0,0.1,0,0.2v7.2c0,0.6,0.6,1.2,1.2,1.7
			l-2,1.9c-0.9-0.6-1.8-1.6-1.8-2.7v-3.9l0,0v-3.4c-0.1-0.6-0.8-1.2-1.5-1.7l-2.3,1.9v6.4c0,0.6,0.6,1.2,1.2,1.7l-1.8,1.7
			c-0.9-0.6-2-1.4-2-2.5c0,0,0-2.3,0-3.6c0-0.6-0.6-1.2-1.2-1.7l1.2-1.2v-6.3c0-0.6-0.6-1.2-1.2-1.7L160.1,51.9z"/>
	</g>
</g>
</svg>
