<?xml version="1.0" encoding="utf-8"?>
<!-- Generator: Adobe Illustrator 17.1.0, SVG Export Plug-In . SVG Version: 6.00 Build 0)  -->
<!DOCTYPE svg PUBLIC "-//W3C//DTD SVG 1.1//EN" "http://www.w3.org/Graphics/SVG/1.1/DTD/svg11.dtd">
<svg version="1.1" id="Layer_1" xmlns="http://www.w3.org/2000/svg" xmlns:xlink="http://www.w3.org/1999/xlink" x="0px" y="0px"
	 viewBox="-143.8 289.2 49.5 49.5" enable-background="new -143.8 289.2 49.5 49.5" xml:space="preserve">
<path id="twitter-4-icon" fill="#F9FAF5" d="M-119,289.2c-13.7,0-24.8,11.1-24.8,24.8s11.1,24.8,24.8,24.8s24.8-11.1,24.8-24.8
	S-105.3,289.2-119,289.2z M-106.6,309.7c0.4,8.1-5.7,17.1-16.3,17.1c-3.2,0-6.3-0.9-8.8-2.6c3,0.4,6.1-0.5,8.5-2.4
	c-2.5,0-4.6-1.7-5.4-4c0.9,0.2,1.8,0.1,2.6-0.1c-2.8-0.6-4.7-3-4.6-5.7c0.8,0.4,1.7,0.7,2.6,0.7c-2.6-1.7-3.3-5.1-1.8-7.7
	c2.8,3.5,7.1,5.8,11.8,6c-0.8-3.6,1.9-7.1,5.6-7.1c1.6,0,3.1,0.7,4.2,1.8c1.3-0.3,2.5-0.7,3.6-1.4c-0.4,1.3-1.3,2.5-2.5,3.2
	c1.2-0.1,2.3-0.4,3.3-0.9C-104.5,307.9-105.4,308.9-106.6,309.7z"/>
</svg>
