<?xml version="1.0" encoding="utf-8"?>
<!-- Generator: Adobe Illustrator 17.1.0, SVG Export Plug-In . SVG Version: 6.00 Build 0)  -->
<!DOCTYPE svg PUBLIC "-//W3C//DTD SVG 1.1//EN" "http://www.w3.org/Graphics/SVG/1.1/DTD/svg11.dtd">
<svg version="1.1" id="Layer_1" xmlns="http://www.w3.org/2000/svg" xmlns:xlink="http://www.w3.org/1999/xlink" x="0px" y="0px"
	 viewBox="1315.5 -591.6 1149.6 814.8" enable-background="new 1315.5 -591.6 1149.6 814.8" xml:space="preserve">
<g>
	<path d="M1993.7,44.3L1993.7,44.3C1993.7,44.3,1993.7,43.5,1993.7,44.3C1993.7,43.5,1993.7,43.5,1993.7,44.3L1993.7,44.3z"/>
	<path d="M1993.7,44.3L1993.7,44.3L1993.7,44.3L1993.7,44.3z"/>
	<path d="M1945.6,65.4c-0.8-6.7-2.5-12.7-3.4-19.4c-0.8-4.2-1.7-7.6-1.7-11.8c0-2.5-0.8-5.9-0.8-8.4c0-1.7-0.8-4.2-0.8-5.9
		s-0.8-3.4-0.8-5.9c0-1.7,0-2.5,0-4.2l0,0l0,0c-0.8,0-1.7,0.8-2.5,0.8c0.8,3.4,1.7,5.9,1.7,9.3c0.8,4.2,1.7,8.4,2.5,12.7
		c0,1.7,0.8,3.4,1.7,5.1s0.8,4.2,1.7,5.9c0.8,4.2,1.7,8.4,1.7,11.8C1943.9,59.5,1944.8,62.9,1945.6,65.4c0,1.7,0,3.4,0.8,5.1
		C1945.6,68.8,1945.6,67.1,1945.6,65.4z"/>
	<path d="M2010.6,40.1C2010.6,40.1,2010.6,41,2010.6,40.1C2010.6,41,2010.6,41,2010.6,40.1c0,0,0,0,0-0.8
		C2009.7,39.3,2009.7,40.1,2010.6,40.1z"/>
	<path d="M2002.1,87.4L2002.1,87.4L2002.1,87.4L2002.1,87.4z"/>
	<path d="M1993.7,43.5L1993.7,43.5L1993.7,43.5z"/>
	<path d="M1770.2,181c0-4.2,0-9.3,0-13.5c0-5.1,0-10.1,0-15.2c0-10.1,0-21.1,0-31.2c0-5.1,0-11,0-16s0.8-10.1,0.8-15.2
		c0-5.1,0-10.1,0-16c0-2.5,0-5.1,0.8-7.6c0-2.5,0.8-5.1,0.8-7.6c0-2.5,0.8-4.2,0.8-6.7c0-2.5,0-4.2,0-6.7c0-5.1,0.8-10.1,1.7-15.2
		c0.8-5.9,0.8-11,2.5-16.9c0.8-5.1,2.5-9.3,3.4-14.3c0-1.7,0.8-3.4,0.8-5.9c0-0.8,0-1.7,0-2.5c-2.5-0.8-5.1-1.7-7.6-2.5
		c0,0.8,0,1.7,0,2.5c-0.8,3.4-0.8,6.7-1.7,10.1c-0.8,8.4-1.7,16-2.5,24.5c-0.8,4.2-0.8,8.4-1.7,12.7c-0.8,4.2-1.7,8.4-2.5,13.5
		s-0.8,9.3-1.7,14.3c-0.8,5.1-0.8,11-0.8,16c0,2.5,0,5.9,0,8.4s-0.8,5.1-0.8,7.6c-0.8,5.1-0.8,10.1-1.7,16c0,2.5,0,5.1,0,7.6
		c0,2.5-0.8,5.1-0.8,7.6c-0.8,3.4-0.8,7.6-0.8,11c0,3.4-0.8,6.7-0.8,10.1c0,3.4,0,7.6,0,11c0,3.4,0,6.7,0,10.1
		c0,2.5,0.8,4.2,1.7,6.7c0.8,0.8,0.8,1.7,1.7,2.5l0.8,0.8c0.8,0.8,0.8,0.8,1.7,1.7c1.7,0.8,3.4,1.7,5.1,2.5c0.8,0,0.8,0,1.7,0
		C1770.2,182.7,1770.2,181.8,1770.2,181z"/>
	<path d="M1697.6-37.5c0,0.8,0,2.5,0,3.4c0,2.5-0.8,5.1-0.8,7.6c0,1.7-0.8,4.2-1.7,5.9c-0.8,4.2-2.5,8.4-3.4,12.7
		c-0.8,3.4-0.8,6.7-1.7,10.1c-0.8,4.2-0.8,7.6-1.7,11.8v0.8c0.8-3.4,1.7-7.6,2.5-11c0.8-2.5,0.8-5.1,1.7-7.6s1.7-5.1,1.7-7.6
		c1.7-5.1,2.5-10.1,4.2-15.2c0.8-2.5,0.8-5.1,1.7-6.7c0-0.8,0-1.7,0.8-2.5C1700.2-36.6,1699.3-37.5,1697.6-37.5z"/>
	<path d="M1554.2,68c0-1.7,0-3.4,0-5.1c0-1.7,0-2.5,0-4.2c0-5.1,0-11,0-16s0-11,0-16s0-10.1-0.8-15.2c0-5.1,0-11,0-16s0-11,0-16
		s0.8-10.1,0.8-16c0-11,0-21.9,0-32.1c0-10.1,0-20.2,0.8-31.2c0-2.5,0-5.1,0.8-7.6c0-2.5,0.8-5.1,0.8-7.6s0.8-5.1,0.8-7.6
		c0-2.5,0-5.1,0-7.6c-0.8,0-1.7-0.8-2.5-0.8c-3.4-1.7-7.6-3.4-11-5.1c0,1.7,0,3.4,0,5.1c0,2.5,0,5.1-0.8,6.7c0,2.5-0.8,4.2-0.8,6.7
		c-0.8,5.1-0.8,9.3-0.8,14.3c0,4.2-0.8,9.3-0.8,13.5c0,2.5-0.8,5.1-0.8,7.6c0,2.5,0,5.1,0,8.4c0,5.1-0.8,10.1-0.8,16
		c0,5.1,0,10.1,0,15.2c0,5.1-0.8,10.1-0.8,15.2c0,5.1,0,10.1,0,15.2c0,2.5,0,5.1,0,7.6s0,5.1,0,7.6c0,5.1,0,10.1,0,15.2
		c0,5.1,0.8,10.1,0.8,16c0,10.1,0,21.1,0,31.2c0,5.1,0.8,10.1,1.7,15.2c0,2.5,0.8,5.1,0.8,7.6s0,4.2,0,6.7c0,1.7,0.8,2.5,0.8,4.2
		c0-0.8,0.8-0.8,0.8-1.7c3.4-5.9,5.9-11,9.3-16.9c0-0.8,0.8-1.7,0.8-2.5C1553.4,75.5,1553.4,71.3,1554.2,68z"/>
	<path d="M2412.9-51L2412.9-51L2412.9-51L2412.9-51z"/>
	<path d="M2430.6-83.9c-0.8-1.7-1.7-4.2-2.5-5.9c-2.5-5.1-5.9-11-8.4-16c-1.7-5.1-3.4-10.1-5.9-14.3c-0.8-0.8-0.8-2.5-1.7-3.4
		c-0.8-0.8-0.8-1.7-1.7-2.5c-2.5-2.5-5.9-5.1-8.4-7.6c-1.7-1.7-3.4-3.4-5.1-5.1c-0.8-0.8-2.5-2.5-4.2-3.4c-1.7-0.8-4.2-2.5-5.9-3.4
		c-1.7-0.8-4.2-2.5-5.9-4.2c-1.7-1.7-4.2-2.5-6.7-4.2c-2.5-0.8-4.2-2.5-6.7-3.4c-4.2-2.5-8.4-5.1-13.5-6.7c-1.7-0.8-2.5-0.8-4.2-1.7
		l0,0l0,0c-0.8,0-0.8,0-1.7-0.8c-4.2-1.7-9.3-2.5-14.3-3.4c-2.5-0.8-5.1-0.8-7.6-1.7c-1.7,0-3.4-0.8-5.9-0.8
		c-7.6-0.8-14.3-1.7-21.9-1.7c-3.4,0-7.6,0-11,0c-3.4,0-6.7,0-9.3,0c-3.4,0.8-5.9,0.8-9.3,1.7c-3.4,0.8-7.6,1.7-11,2.5
		c-3.4,0.8-6.7,1.7-10.1,2.5c-3.4,0.8-5.9,1.7-9.3,2.5c-1.7,0.8-3.4,0.8-5.1,1.7c-0.8,0-0.8,0-1.7,0.8c-0.8,0-0.8,0.8-1.7,0.8
		c-4.2,2.5-9.3,5.1-13.5,7.6c-0.8,0.8-2.5,0.8-3.4,1.7c-0.8,0.8-2.5,0.8-3.4,1.7c-2.5,0.8-4.2,2.5-6.7,3.4c-2.5,0.8-4.2,2.5-6.7,4.2
		l0,0c-1.7,1.7-4.2,2.5-6.7,4.2h-0.8l-0.8,0.8c-4.2,1.7-7.6,4.2-11.8,5.9c-4.2,2.5-9.3,4.2-13.5,6.7c-4.2,1.7-9.3,4.2-15.2,7.6
		c-5.1,2.5-9.3,5.1-13.5,7.6c-3.4,2.5-7.6,5.1-11.8,7.6c-4.2,2.5-8.4,4.2-11.8,6.7c-4.2,2.5-8.4,4.2-12.7,6.7l-2.5,1.7
		c-3.4,1.7-6.7,3.4-9.3,5.9h-0.8c-3.4,1.7-6.7,4.2-10.1,5.9c-4.2,2.5-8.4,4.2-11.8,5.9c-4.2,1.7-8.4,4.2-11.8,5.9
		c-3.4,2.5-6.7,4.2-10.1,6.7c-2.5,1.7-5.1,4.2-8.4,5.9l-0.8,0.8c-2.5,1.7-5.1,4.2-7.6,5.9c-3.4,2.5-7.6,4.2-11,5.9
		c-1.7,0.8-2.5,0.8-4.2,1.7c0.8,0-0.8,0.8-1.7,0.8h-0.8l0,0l-1.7,0.8c-1.7,0.8-3.4,1.7-5.1,1.7c-0.8,0-0.8,0-1.7,0.8
		c-1.7,0.8-4.2,0.8-5.9,1.7c-2.5,0.8-5.1,1.7-7.6,1.7c-1.7,0.8-3.4,0.8-5.1,1.7c-3.4,0.8-6.7,1.7-9.3,1.7h-0.8c-0.8,0-1.7,0-2.5,0
		c-4.2,0.8-9.3,1.7-13.5,2.5c-5.1,0.8-9.3,1.7-13.5,2.5c-5.9,0.8-11,1.7-15.2,1.7c-2.5,0-4.2,0-7.6,0c-1.7,0-2.5,0-4.2,0h-2.5
		c-5.1,0-10.1,0-15.2,0c-5.1,0-11,0-16,0c-4.2,0-7.6-0.8-11.8-0.8h-1.7c-0.8,0-1.7,0-2.5,0c-6.7-0.8-12.7-0.8-18.6-1.7
		s-11.8-1.7-16.9-2.5c-2.5-0.8-5.1-0.8-8.4-1.7c-0.8,0-2.5-0.8-3.4-0.8l0,0c-0.8,0-1.7-0.8-2.5-0.8c-2.5-0.8-5.1-1.7-7.6-1.7h-0.8
		l0,0c-2.5-0.8-4.2-0.8-6.7-1.7c-2.5-0.8-5.1-1.7-6.7-1.7c-3.4-0.8-6.7-1.7-9.3-2.5c-2.5-0.8-5.1-1.7-8.4-2.5
		c-2.5-0.8-4.2-1.7-6.7-2.5h-0.8l0,0c-4.2-1.7-9.3-2.5-14.3-4.2c-2.5-0.8-4.2-1.7-6.7-2.5l-1.7-0.8c-2.5-0.8-5.9-2.5-8.4-3.4
		c-5.1-2.5-9.3-5.1-13.5-7.6c-2.5-1.7-4.2-3.4-6.7-4.2l0,0h-0.8l-0.8-0.8c-1.7-0.8-3.4-1.7-5.1-2.5c-5.1-3.4-10.1-5.9-15.2-7.6
		l-2.5-0.8l0,0c-4.2-1.7-8.4-4.2-12.7-6.7c-5.1-2.5-9.3-5.9-14.3-8.4l-2.5-1.7c-3.4-2.5-7.6-5.1-11-7.6c-4.2-2.5-7.6-5.1-11-6.7
		c-5.1-2.5-8.4-5.1-12.7-8.4c-2.5-1.7-4.2-3.4-6.7-5.1l-0.8-0.8c-0.8-0.8-2.5-1.7-3.4-2.5c-3.4-2.5-6.7-5.1-10.1-7.6
		c-4.2-2.5-7.6-5.1-11.8-7.6l0,0c-5.9-3.4-12.7-7.6-18.6-11.8c-3.4-2.5-6.7-5.1-10.1-7.6l-1.7-0.8l-0.8-4.2
		c-3.4-3.4-7.6-5.9-11.8-9.3c-0.8-0.8-2.5-1.7-3.4-2.5c-1.7-0.8-2.5-1.7-4.2-2.5l-0.8-0.8c-2.5-1.7-5.1-2.5-7.6-4.2l0,0l-1.7-0.8
		c-6.7-3.4-12.7-5.9-19.4-8.4c-4.2-1.7-7.6-2.5-11-2.5c-2.5,0-5.9,0-8.4,0c-0.8,0-1.7,0-2.5,0h-0.8c-0.8,0-1.7,0-2.5,0h-1.7h-1.7
		c-2.5,0-5.9,0-8.4,0c-8.4,0-16,0-23.6,0.8c-1.7,0-3.4,0.8-5.1,0.8l0,0c-5.1,1.7-8.4,2.5-13.5,4.2c-1.7,0.8-4.2,1.7-5.9,2.5l0,0
		c-1.7,0.8-3.4,1.7-5.9,2.5l-2.5,0.8l-0.8,0.8c-2.5,0.8-5.9,2.5-8.4,4.2c-2.5,1.7-5.1,2.5-8.4,4.2h-0.8c0.8,1.7-0.8,1.7-1.7,2.5
		c-1.7,0.8-3.4,1.7-5.1,3.4l-0.8,0.8c-0.8,0.8-1.7,0.8-3.4,1.7c-2.5,1.7-4.2,3.4-5.9,5.1l0,0c-0.8,0.8-1.7,1.7-3.4,2.5
		c-3.4,2.5-5.9,5.1-8.4,8.4c0,0.8-0.8,0.8-0.8,1.7c-2.5,5.9-5.1,11.8-7.6,16.9c-1.7,2.5-2.5,5.1-3.4,6.7l-0.8,0.8
		c0,0.8-0.8,0.8-0.8,1.7c0,0-0.8,0.8-0.8,0.8l-0.8,0.8l0,0c-0.8,0.8-0.8,1.7-1.7,2.5c0,0.8-0.8,1.7-0.8,2.5
		c-0.8,2.5-1.7,4.2-2.5,5.9c0,0.8,0,1.7-0.8,2.5c-0.8,1.7-0.8,3.4-1.7,5.1c0,3.4,0,6.7,0,10.1v0.8v0.8c0,1.7,0,4.2,0,5.9l0,0
		c0,2.5,0,5.1,0,7.6c0,1.7,0,2.5,0.8,4.2l0,0c0,0.8,0,2.5,0,3.4c0,1.7,0,4.2,0,5.9v1.7c0,3.4,0.8,5.9,0.8,9.3l0,0
		c0.8,5.1,1.7,10.1,2.5,14.3l0,0c0.8,2.5,0.8,5.1,1.7,6.7c0.8,2.5,2.5,5.9,4.2,9.3l0.8,1.7v0.8c0.8,1.7,1.7,2.5,1.7,4.2
		c3.4,1.7,3.4,2.5,4.2,4.2l0,0l0,0c0.8,1.7,1.7,2.5,1.7,4.2c0.8,0.8,0.8,2.5,1.7,3.4l0,0l0,0c0.8,1.7,2.5,4.2,3.4,5.9l0.8,0.8
		c0.8,1.7,1.7,4.2,2.5,5.9s2.5,4.2,3.4,5.9l0.8,0.8c1.7,2.5,3.4,5.1,4.2,6.7c0.8,0.8,0.8,0.8,1.7,1.7l0,0c0.8,1.7,2.5,2.5,3.4,4.2
		c1.7,1.7,2.5,4.2,4.2,5.9l0,0l0,0c1.7,2.5,2.5,5.1,4.2,6.7c0.8,0.8,1.7,2.5,2.5,3.4l0.8,0.8c0.8,0.8,1.7,2.5,2.5,3.4
		c0.8,0.8,2.5,2.5,3.4,3.4l0,0c0.8,0.8,0.8,0.8,1.7,1.7c0.8,0.8,1.7,1.7,2.5,2.5l0,0c0.8,0.8,1.7,1.7,2.5,2.5
		c2.5,2.5,5.1,4.2,6.7,5.9c2.5,1.7,4.2,2.5,6.7,3.4l0,0l1.7,0.8c0.8,0.8,2.5,1.7,4.2,2.5c0.8,0.8,1.7,2.5,3.4,3.4
		c2.5,2.5,5.1,5.1,7.6,6.7l2.5,1.7c1.7,1.7,4.2,3.4,5.9,5.1c0.8,0.8,2.5,2.5,3.4,3.4s2.5,1.7,3.4,3.4l0.8,0.8
		c2.5,1.7,4.2,4.2,6.7,5.9l1.7,1.7c1.7,1.7,3.4,4.2,5.9,5.9c0.8,0.8,1.7,1.7,1.7,2.5c0.8,0.8,1.7,0.8,2.5,1.7c0.8,0,0.8,0.8,1.7,0.8
		l0.8,0.8l0.8,0.8c0.8,0,0.8,0.8,1.7,0.8c0.8,0.8,1.7,1.7,1.7,2.5l0,0c0.8,0.8,0.8,1.7,0.8,3.4c0.8,0.8,1.7,0.8,2.5,1.7
		c2.5,1.7,5.1,3.4,7.6,5.1l0,0c1.7,0.8,2.5,1.7,4.2,2.5c1.7,0.8,3.4,2.5,5.1,3.4l0,0c2.5,1.7,5.1,3.4,6.7,4.2
		c0.8,0.8,1.7,0.8,3.4,1.7c3.4,1.7,6.7,4.2,10.1,5.9c4.2,2.5,8.4,5.1,13.5,8.4c3.4,1.7,6.7,3.4,10.1,5.9l0,0l2.5,1.7
		c0.8,0,0.8,0.8,1.7,0.8l0,0l0,0l0,0l0,0c1.7,0.8,2.5,1.7,4.2,2.5c2.5,0.8,5.1,2.5,7.6,3.4c1.7,0.8,3.4,1.7,5.1,1.7
		c3.4,1.7,5.9,2.5,9.3,4.2c4.2,1.7,8.4,3.4,11.8,5.1l0,0c4.2,1.7,9.3,3.4,13.5,4.2c5.1,1.7,10.1,2.5,15.2,4.2
		c3.4,0.8,6.7,1.7,10.1,2.5l0,0c1.7,0.8,3.4,0.8,5.1,1.7c11.8,3.4,21.9,6.7,32.1,10.1c5.9,1.7,11,3.4,16,5.1
		c5.9,1.7,11,3.4,15.2,5.1c5.1,1.7,11,2.5,17.7,3.4l3.4,0.8h0.8c4.2,0.8,7.6,1.7,11.8,1.7c3.4,0,5.9,0.8,9.3,0.8c0.8,0,2.5,0,4.2,0
		c0.8,0,1.7,0,2.5,0c0.8,0,1.7,0,2.5,0c14.3,0,28.7,0,42.2,0c14.3,0,28.7,0,42.2,0c19.4,0,34.6,0,49.8,0c13.5,0,24.5,0,34.6-0.8
		c2.5,0,5.9,0,9.3,0c2.5,0,5.1,0,7.6,0c3.4,0,6.7,0,10.1,0l0,0c1.7,0,4.2,0,5.9,0c5.9,0,11.8-0.8,17.7-0.8c5.1,0,10.1-0.8,16-0.8
		c2.5,0,4.2,0,6.7,0h0.8c2.5,0,5.9,0,8.4,0c5.9,0,11-0.8,16-0.8c2.5,0,5.1-0.8,7.6-0.8c2.5-0.8,5.1-0.8,7.6-1.7l0,0l0,0
		c1.7-0.8,3.4-0.8,5.9-1.7c2.5-0.8,5.9-1.7,9.3-2.5l1.7-0.8c4.2-0.8,8.4-1.7,12.7-3.4c4.2-1.7,9.3-2.5,13.5-4.2
		c4.2-1.7,8.4-3.4,11.8-5.1c4.2-1.7,9.3-4.2,14.3-5.9c4.2-1.7,9.3-3.4,13.5-5.1l0,0l0,0c3.4-0.8,7.6-2.5,11-4.2
		c1.7-0.8,3.4-1.7,5.1-1.7c2.5-1.7,5.1-2.5,6.7-3.4c3.4-1.7,6.7-3.4,11-5.1c2.5-0.8,5.9-2.5,8.4-3.4l0.8-0.8l3.4-0.8
		c4.2-1.7,9.3-4.2,13.5-5.9c3.4-1.7,6.7-3.4,10.1-5.1c5.1-2.5,10.1-5.9,15.2-7.6c4.2-1.7,9.3-3.4,16-5.1c4.2-1.7,8.4-2.5,11.8-4.2
		c2.5-0.8,5.1-2.5,7.6-3.4l3.4-1.7l2.5-3.4c1.7-0.8,3.4-1.7,5.1-2.5c4.2-2.5,8.4-4.2,12.7-5.9l2.5-1.7l0,0c3.4-1.7,6.7-2.5,10.1-4.2
		c3.4-1.7,6.7-3.4,10.1-5.9c2.5-1.7,5.1-4.2,7.6-5.9c3.4-2.5,5.9-5.1,9.3-7.6c5.1-4.2,11-7.6,16.9-11c1.7-0.8,3.4-1.7,5.1-2.5
		c2.5-1.7,5.9-4.2,8.4-5.9c2.5-2.5,5.9-5.9,9.3-8.4c1.7-1.7,2.5-2.5,4.2-4.2l0,0c0.8-0.8,2.5-2.5,3.4-3.4c2.5-2.5,5.1-5.9,8.4-8.4
		c3.4-2.5,5.9-5.1,10.1-7.6c0.8-0.8,1.7-0.8,1.7-1.7h0.8c2.5-1.7,5.1-3.4,6.7-5.1c2.5-2.5,5.9-5.1,9.3-8.4c1.7-2.5,4.2-4.2,6.7-7.6
		l0.8-0.8c1.7-1.7,2.5-3.4,4.2-5.1l0.8-1.7c0.8-1.7,2.5-3.4,3.4-4.2c3.4-5.1,7.6-9.3,11-13.5c2.5-2.5,4.2-5.1,5.1-6.7
		c1.7-2.5,3.4-5.1,4.2-6.7c3.4-5.1,5.9-9.3,7.6-14.3c0.8-2.5,1.7-5.1,2.5-6.7c0-1.7,0.8-3.4,0.8-4.2c0.8-4.2,0.8-8.4,0.8-11.8
		c0-4.2,0-8.4,0-12.7c0-3.4,0-6.7,0-11C2432.3-78.8,2431.5-81.3,2430.6-83.9z M1474.9-89.8c1.7-0.8,3.4-1.7,5.1-1.7
		c2.5,0,5.1,0.8,6.7,2.5c1.7,1.7,4.2,3.4,5.1,5.1c0.8,1.7,1.7,3.4,1.7,5.1c0,0.8,0,0.8,0,1.7c0,1.7,0,3.4,0,4.2c0,1.7,0,2.5-0.8,4.2
		c0,0.8,0,1.7-0.8,2.5c0,1.7-0.8,2.5-1.7,4.2c-0.8,1.7-1.7,2.5-2.5,3.4c-1.7,1.7-3.4,2.5-5.1,3.4c-1.7,0.8-3.4,1.7-5.1,1.7
		s-3.4,0.8-5.1,0.8c-3.4,0-6.7-0.8-9.3-1.7c-2.5-0.8-5.9-3.4-6.7-5.9c-0.8-1.7-0.8-2.5-1.7-3.4c0-0.8-0.8-2.5,0-3.4
		c0-2.5,0-5.1,0.8-7.6c0.8-2.5,1.7-5.1,3.4-6.7c1.7-1.7,3.4-4.2,5.1-5.9c1.7-1.7,4.2-2.5,6.7-2.5
		C1472.4-90.6,1474.1-89.8,1474.9-89.8z M1405.8-132.8c-1.7,1.7-3.4,3.4-5.9,5.9c-0.8,0.8-1.7,1.7-2.5,3.4c-1.7,1.7-2.5,3.4-4.2,5.9
		c-0.8,0.8-1.7,1.7-2.5,1.7s-2.5,0-3.4,0c-1.7-0.8-3.4-3.4-1.7-5.1c2.5-4.2,5.9-7.6,9.3-11c3.4-3.4,5.9-5.9,9.3-9.3
		c4.2-4.2,10.1-7.6,16-10.1c1.7-0.8,4.2-1.7,6.7-2.5c1.7-0.8,4.2-1.7,5.9-2.5c4.2-1.7,9.3-4.2,13.5-5.9c1.7-0.8,4.2-1.7,5.9-1.7
		c2.5-0.8,5.1-0.8,6.7-1.7c0.8,0,1.7-0.8,3.4-0.8c0.8,0,1.7-0.8,2.5-0.8h0.8c0.8,0,1.7,0.8,2.5,1.7c0.8,0.8,0.8,1.7,0.8,3.4
		c0,0.8-0.8,1.7-1.7,2.5c-1.7,0.8-4.2,1.7-6.7,2.5c-0.8,0-1.7,0-1.7,0.8c-1.7,0-2.5,0.8-4.2,0.8c-2.5,0.8-5.1,1.7-7.6,2.5
		c-5.1,2.5-11,5.1-16,7.6c-5.9,2.5-11.8,5.1-16.9,8.4C1410.8-137.9,1408.3-134.5,1405.8-132.8z M1469,62.9c-0.8,1.7-4.2,2.5-5.9,1.7
		c-1.7-0.8-4.2-2.5-5.9-3.4c-1.7-0.8-2.5-1.7-4.2-2.5c-1.7-0.8-2.5-1.7-4.2-3.4c-3.4-2.5-6.7-5.9-10.1-9.3c-1.7-1.7-3.4-3.4-5.1-5.1
		s-3.4-3.4-5.1-5.1s-3.4-3.4-5.1-5.1c-1.7-1.7-3.4-3.4-5.1-5.1c-3.4-3.4-6.7-6.7-10.1-11c0-0.8,0-2.5,0-3.4c0-0.8,0.8-1.7,1.7-2.5
		c0.8,0,1.7-0.8,2.5-0.8h0.8c0.8,0,1.7,0.8,2.5,1.7c0.8,0.8,1.7,1.7,2.5,2.5c0.8,0.8,0.8,1.7,1.7,1.7c3.4,3.4,6.7,6.7,9.3,9.3
		c3.4,3.4,6.7,6.7,9.3,10.1c1.7,1.7,3.4,3.4,5.1,5.1c1.7,1.7,2.5,2.5,4.2,4.2c0.8,0.8,2.5,1.7,3.4,3.4c0.8,0.8,1.7,1.7,2.5,1.7
		c1.7,1.7,4.2,3.4,5.9,5.1c1.7,0.8,4.2,2.5,5.9,3.4C1469,57.8,1469.9,60.4,1469,62.9z M1485.1,52.8c-0.8,0.8-1.7,1.7-2.5,1.7
		s-2.5,0-3.4,0c-2.5-1.7-5.9-3.4-8.4-5.9c-1.7-1.7-3.4-2.5-5.1-4.2s-3.4-3.4-5.1-4.2c-0.8-0.8-1.7-1.7-2.5-2.5
		c-0.8-0.8-0.8-0.8-1.7-1.7c-3.4-3.4-6.7-6.7-10.1-10.1c-1.7-1.7-3.4-3.4-5.9-5.1c-1.7-1.7-3.4-3.4-5.9-4.2c-1.7-1.7-1.7-4.2,0-5.9
		c0.8-0.8,1.7-0.8,3.4-0.8c0.8,0,2.5,0.8,3.4,0.8c1.7,1.7,4.2,3.4,5.9,5.1c1.7,1.7,3.4,3.4,5.1,5.1c3.4,3.4,6.7,5.9,10.1,9.3
		c1.7,1.7,3.4,3.4,5.1,4.2c0.8,0.8,1.7,1.7,2.5,1.7c0.8,0.8,1.7,0.8,2.5,1.7c3.4,2.5,6.7,5.9,10.1,8.4c0.8,0.8,1.7,0.8,2.5,1.7
		c0.8,0.8,1.7,1.7,1.7,2.5C1485.1,51.1,1485.1,51.9,1485.1,52.8z M1491,24.1c-0.8,1.7-4.2,2.5-5.9,1.7c-3.4-1.7-7.6-4.2-11-5.9
		c-3.4-2.5-6.7-4.2-9.3-6.7c-2.5-2.5-5.9-4.2-8.4-6.7c-1.7-0.8-2.5-2.5-4.2-3.4c-0.8-0.8-1.7-0.8-2.5-1.7c-0.8,0-0.8-0.8-1.7-0.8
		c-3.4-2.5-6.7-4.2-10.1-6.7c-0.8-0.8-1.7-1.7-1.7-2.5c0-0.8,0.8-1.7,1.7-2.5c0.8-0.8,1.7-0.8,3.4-0.8c0.8,0,1.7,0,2.5,0.8
		c0,0,0.8,0,0.8,0.8c0.8,0.8,1.7,0.8,2.5,1.7c2.5,1.7,5.1,3.4,7.6,5.1c1.7,0.8,2.5,1.7,4.2,2.5c0.8,0.8,2.5,1.7,3.4,3.4
		c5.1,3.4,10.1,7.6,15.2,11c1.7,0.8,3.4,2.5,5.9,3.4c2.5,1.7,4.2,2.5,6.7,3.4C1491,19.9,1491.8,22.4,1491,24.1z M1500.2-10.5
		c-0.8,0.8-1.7,1.7-2.5,1.7s-2.5,0-3.4,0c-3.4-2.5-7.6-4.2-11-6.7c-3.4-1.7-7.6-4.2-11-5.9c-1.7-0.8-2.5-3.4-1.7-5.1
		c0.8-0.8,2.5-1.7,4.2-1.7c0.8,0,1.7,0,2.5,0.8c3.4,1.7,7.6,4.2,11,5.9c4.2,1.7,7.6,4.2,11,6.7c0.8,0.8,1.7,1.7,1.7,2.5
		C1501.1-12.2,1500.2-11.3,1500.2-10.5z M1594.7-106.6c0.8,0,1.7-0.8,2.5-0.8c1.7,0,3.4,0.8,4.2,1.7c0.8,0.8,1.7,1.7,2.5,2.5
		c0.8,0.8,0.8,0.8,1.7,1.7c1.7,2.5,4.2,4.2,5.9,6.7c1.7,1.7,2.5,2.5,4.2,4.2c1.7,1.7,2.5,3.4,3.4,5.1c0.8,1.7,0.8,4.2-1.7,5.1
		c-2.5,0.8-5.1,0.8-5.9-1.7c-0.8-1.7-2.5-3.4-3.4-5.1c-2.5-2.5-4.2-4.2-6.7-6.7c-2.5-2.5-5.1-5.1-6.7-8.4
		C1591.3-102.4,1592.2-105,1594.7-106.6z M1592.2-83.9c0.8,0,1.7-0.8,2.5-0.8c1.7,0,3.4,0.8,4.2,1.7c1.7,1.7,2.5,4.2,3.4,5.9
		c1.7,2.5,2.5,4.2,4.2,6.7c0.8,0.8,0.8,1.7,0.8,3.4c0,0.8-0.8,1.7-1.7,2.5c-1.7,0.8-5.1,0.8-5.9-1.7c-1.7-2.5-2.5-5.1-4.2-6.7
		c-0.8-1.7-2.5-4.2-3.4-5.9C1589.7-80.5,1590.5-83,1592.2-83.9z M1588.8-64.5c0.8,0,1.7,0,2.5,0.8c0.8,0.8,1.7,1.7,1.7,2.5
		c0.8,1.7,1.7,3.4,2.5,5.9c0.8,1.7-0.8,4.2-3.4,5.1c-0.8,0-2.5,0-3.4,0c-0.8-0.8-1.7-1.7-1.7-2.5c-0.8-1.7-1.7-3.4-2.5-5.9
		c-0.8-1.7,0.8-4.2,3.4-5.1C1588-64.5,1588-64.5,1588.8-64.5z M1732.2-28.2c-2.5,3.4-7.6,5.1-11.8,2.5c-1.7-0.8-2.5-1.7-4.2-2.5
		c-0.8,2.5-0.8,4.2-1.7,6.7c-0.8,5.1-2.5,10.1-3.4,14.3c-0.8,2.5-1.7,5.1-2.5,7.6s-0.8,5.1-1.7,7.6c-0.8,2.5-0.8,5.1-1.7,7.6
		s-0.8,5.1-1.7,7.6c-0.8,5.1-1.7,10.1-3.4,16c-0.8,2.5-1.7,5.9-2.5,8.4c-0.8,2.5-0.8,5.1-1.7,6.7c-2.5,11-4.2,21.9-6.7,32.1
		c-1.7,5.1-2.5,11-4.2,16c-1.7,5.1-2.5,10.1-4.2,15.2c-1.7,5.1-3.4,10.1-5.1,15.2c-0.8,2.5-1.7,5.1-2.5,8.4
		c-0.8,2.5-1.7,5.1-2.5,7.6c-0.8,2.5-1.7,5.1-2.5,7.6s-1.7,5.1-2.5,8.4c-0.8,1.7-1.7,3.4-2.5,5.1c0,0.8-0.8,0.8-0.8,1.7
		c-0.8,0.8-1.7,2.5-3.4,3.4c-1.7,0.8-2.5,0.8-5.1,0.8c-1.7,0-3.4,0-4.2-0.8c-1.7-0.8-3.4-2.5-4.2-4.2c-0.8-2.5-2.5-4.2-3.4-6.7
		s-2.5-4.2-3.4-6.7c-1.7-2.5-2.5-5.1-4.2-8.4c-0.8-2.5-1.7-5.1-3.4-7.6c-0.8-2.5-2.5-5.1-3.4-7.6c-0.8-2.5-1.7-5.1-2.5-6.7
		c-0.8-2.5-1.7-5.9-2.5-8.4c-0.8-2.5-1.7-5.1-1.7-7.6c-0.8-2.5-0.8-5.1-1.7-7.6c-0.8-5.1-1.7-11-2.5-16c0-2.5-0.8-5.1-1.7-7.6
		c-0.8-2.5-0.8-5.1-1.7-7.6c-1.7-5.1-2.5-10.1-4.2-16c-1.7-5.1-2.5-10.1-3.4-16c-0.8-5.1-2.5-10.1-3.4-16c-0.8-5.1-1.7-10.1-2.5-16
		c0-1.7-0.8-2.5-0.8-4.2c-0.8,2.5-2.5,5.1-3.4,7.6c-1.7,3.4-2.5,6.7-4.2,10.1c-1.7,5.1-4.2,9.3-6.7,14.3c-0.8,2.5-2.5,5.1-3.4,7.6
		c-0.8,2.5-1.7,5.1-2.5,7.6c-2.5,5.1-4.2,11-5.9,16c-1.7,4.2-3.4,8.4-5.1,11.8c0,0.8,0,0.8-0.8,1.7v0.8c-2.5,5.1-5.1,11-8.4,16
		c-1.7,2.5-2.5,5.1-4.2,6.7c-1.7,2.5-2.5,4.2-4.2,6.7c-0.8,0.8-1.7,2.5-1.7,3.4s-0.8,1.7-0.8,2.5c-0.8,0.8-0.8,2.5-1.7,3.4
		c-0.8,0.8-2.5,2.5-4.2,3.4c-1.7,0.8-2.5,0.8-4.2,0.8s-3.4-0.8-4.2-0.8c-0.8-0.8-2.5-1.7-3.4-2.5c-0.8-0.8-0.8-2.5-1.7-3.4
		c0-0.8,0-0.8,0-1.7c-0.8-4.2-1.7-9.3-3.4-14.3c-0.8-2.5-0.8-5.1-1.7-7.6c-0.8-3.4-0.8-5.9-0.8-9.3c0-5.1-0.8-10.1-1.7-15.2
		c-0.8-5.1-0.8-10.1-0.8-15.2c0-5.1,0-10.1,0-15.2c0-10.1-0.8-21.1-0.8-31.2c0-2.5,0-5.1,0-7.6s0-5.1,0-7.6c0-5.1,0-10.1,0-16
		c0-5.1,0-10.1,0-15.2c0-5.1,0.8-10.1,0.8-15.2c0-5.1,0-11,0-16s0-11,0.8-16c0-5.1,0.8-10.1,1.7-15.2c0-5.1,0-11,0.8-16
		c0-2.5,0.8-5.1,0.8-7.6c0-2.5,0.8-5.1,0.8-7.6s0.8-5.1,0.8-7.6c0-3.4,0-5.9,0-9.3l-0.8-0.8c-5.1-3.4-10.1-6.7-14.3-10.1
		c-3.4-2.5-3.4-7.6,0-11c1.7-1.7,3.4-2.5,5.9-2.5c2.5,0,4.2,0.8,5.9,2.5s3.4,2.5,5.1,3.4c3.4,2.5,7.6,5.1,11,7.6
		c4.2,2.5,7.6,5.1,11.8,6.7c4.2,1.7,8.4,4.2,13.5,5.9c2.5,0.8,4.2,1.7,6.7,2.5c0.8,0,1.7,0.8,2.5,0.8s1.7,0.8,2.5,0.8
		c1.7,0.8,2.5,1.7,4.2,2.5c4.2,1.7,5.1,6.7,3.4,10.1c-2.5,3.4-6.7,4.2-11,3.4c0,0,0,0,0,0.8c0,3.4-0.8,5.9-0.8,9.3
		c-0.8,5.1-0.8,10.1-0.8,16c0,5.1,0,10.1,0,15.2c0,11,0,21.1,0,32.1c0,5.9,0,11,0,16.9c0,5.1-0.8,11-0.8,16s0,10.1,0,15.2
		c0,5.1,0,10.1,0,16c0,5.1,0,11,0,16c0,1.7,0,3.4,0,5.1c1.7-4.2,3.4-8.4,5.9-12.7c2.5-5.1,4.2-11,6.7-16c1.7-5.1,4.2-9.3,5.9-14.3
		c0.8-2.5,1.7-5.1,2.5-7.6c0.8-1.7,0.8-3.4,1.7-4.2c0.8-0.8,0.8-1.7,1.7-2.5c1.7-0.8,2.5-1.7,4.2-1.7c1.7-0.8,5.1,0,6.7,0.8
		c0.8,0.8,1.7,0.8,2.5,1.7c1.7,1.7,1.7,2.5,2.5,4.2c0,0.8,0.8,1.7,0.8,1.7c1.7,5.1,3.4,11,4.2,16.9c0.8,3.4,1.7,5.9,1.7,9.3
		c0,2.5,0.8,5.1,0.8,7.6c0.8,2.5,0.8,5.1,1.7,8.4c0.8,2.5,0.8,5.1,1.7,8.4c0.8,2.5,0.8,5.1,1.7,7.6c0.8,5.1,2.5,11,3.4,16
		c0.8,2.5,0.8,5.1,1.7,7.6c0.8,2.5,1.7,5.1,1.7,7.6c0.8,5.1,2.5,11,3.4,16s1.7,10.1,2.5,15.2c0.8,2.5,0.8,5.1,1.7,8.4
		c0.8,2.5,1.7,5.1,2.5,7.6c0.8,2.5,1.7,5.1,2.5,6.7c0.8,2.5,1.7,5.1,2.5,8.4c0,0,0,0.8,0.8,0.8c0.8-2.5,0.8-5.9,1.7-8.4
		c0.8-4.2,0.8-8.4,1.7-11.8c0.8-5.1,1.7-9.3,2.5-13.5c0.8-2.5,0.8-4.2,1.7-6.7c0.8-1.7,0.8-4.2,1.7-5.9c0.8-1.7,0.8-4.2,1.7-6.7
		c0.8-1.7,0.8-4.2,1.7-5.9c0.8-5.1,2.5-10.1,3.4-15.2c0.8-5.1,1.7-10.1,3.4-15.2c0.8-2.5,0.8-5.1,1.7-7.6c0.8-2.5,0.8-5.1,1.7-8.4
		c0.8-4.2,1.7-9.3,2.5-13.5c0.8-7.6,1.7-16,3.4-23.6c0.8-4.2,1.7-7.6,2.5-11s1.7-6.7,2.5-11c0-2.5,0.8-5.9,0.8-8.4
		c0-1.7,0-2.5,0-4.2s0-2.5,0-4.2c-0.8,0-1.7-0.8-3.4-0.8c-0.8,0-2.5-0.8-3.4-0.8c-1.7,0-2.5-0.8-3.4-1.7c-0.8-0.8-0.8-0.8-1.7-1.7
		c-0.8-1.7-1.7-4.2-0.8-5.9s1.7-3.4,4.2-4.2c0.8-0.8,2.5-0.8,4.2-0.8c0.8,0,1.7,0,1.7,0c5.1,1.7,9.3,3.4,14.3,5.9
		c4.2,1.7,7.6,4.2,11,5.9c0.8,0.8,2.5,1.7,3.4,1.7c1.7-0.8,3.4-0.8,5.1,0c1.7,0.8,4.2,1.7,5.1,3.4c0.8,0.8,0.8,2.5,0.8,3.4
		c3.4,1.7,5.9,3.4,9.3,5.1C1733-35.8,1734.7-31.6,1732.2-28.2z M2291.4-64.5c0-2.5,0.8-5.1,1.7-7.6c0.8-3.4,2.5-6.7,3.4-11
		c1.7-4.2,6.7-6.7,11-5.9c1.7,0.8,3.4,1.7,4.2,2.5c0.8-1.7,1.7-3.4,4.2-4.2c1.7-0.8,3.4-0.8,4.2-0.8c3.4,0,6.7,1.7,8.4,4.2
		c0.8,0.8,0.8,1.7,1.7,2.5c0.8,1.7,1.7,2.5,2.5,4.2c0.8,0.8,0.8,1.7,0.8,2.5c0,0.8,0.8,2.5,0.8,4.2c0,2.5,0,4.2-0.8,6.7
		c-0.8,1.7-0.8,2.5-1.7,4.2c0,0.8-0.8,1.7-1.7,2.5c-1.7,2.5-3.4,4.2-5.9,5.1c-0.8,0.8-1.7,0.8-3.4,1.7c-3.4,0.8-5.9,2.5-9.3,2.5
		c-2.5,0-5.1,0-7.6-0.8c-1.7,0-2.5-0.8-4.2-1.7c-1.7-0.8-2.5-1.7-3.4-2.5c-0.8-0.8-1.7-1.7-1.7-2.5c-0.8-0.8-0.8-1.7-1.7-2.5
		S2291.4-63.6,2291.4-64.5z M2028.3,37.6c1.7-1.7,4.2-3.4,5.9-5.1c2.5-1.7,4.2-4.2,6.7-5.9c0.8-0.8,1.7-0.8,3.4-0.8
		c0.8,0,2.5,0,3.4,0.8c1.7,1.7,1.7,4.2,0,5.9c-2.5,2.5-4.2,4.2-6.7,6.7c-1.7,1.7-3.4,3.4-5.1,4.2c-0.8,0.8-1.7,0.8-3.4,0.8
		c-0.8,0-2.5-0.8-3.4-0.8C2026.6,41.8,2026.6,39.3,2028.3,37.6z M2052.7,51.9c1.7-0.8,3.4-2.5,5.1-3.4c1.7-0.8,2.5-1.7,4.2-2.5
		c0.8-0.8,2.5-1.7,3.4-2.5c0.8-0.8,1.7-0.8,3.4-0.8c0.8,0,2.5,0,3.4,0.8c1.7,1.7,1.7,4.2,0,5.9c-0.8,0.8-1.7,1.7-3.4,2.5
		c-0.8,0.8-1.7,0.8-2.5,1.7c-0.8,0.8-1.7,0.8-2.5,1.7c-1.7,0.8-3.4,2.5-5.1,3.4c-4.2,2.5-7.6,4.2-11,6.7c-0.8,0.8-2.5,0.8-3.4,0
		c-2.5,0-3.4,0-3.4-0.8c-0.8-0.8-0.8-1.7-0.8-3.4c0-0.8,0.8-1.7,1.7-2.5C2046,57,2049.4,54.5,2052.7,51.9z M1908.5,169.2
		c0,2.5,0,5.1-0.8,7.6c0,1.7-0.8,4.2-0.8,5.9c-0.8,1.7-0.8,3.4-1.7,5.1c-0.8,1.7-1.7,3.4-3.4,5.1c-0.8,0.8-1.7,2.5-3.4,3.4
		c-0.8,0.8-1.7,1.7-2.5,1.7c-1.7,0.8-3.4,1.7-5.1,2.5c-1.7,0.8-3.4,0.8-5.9,0.8c-2.5,0-5.9,0-8.4,0s-5.9,0-8.4,0.8
		c-5.9,0-11,0-16.9,0.8c-2.5,0-5.9,0.8-8.4,0.8c-2.5,0-5.9,0-8.4,0c-5.9,0-11.8,0-17.7,0c-5.9,0-11.8,0-16.9,0
		c-3.4,0-5.9-0.8-9.3-0.8c-3.4-0.8-6.7-0.8-11-1.7c-2.5,0-5.9-0.8-8.4-1.7c-1.7,0-2.5-0.8-4.2-0.8c-1.7-0.8-3.4-0.8-5.9-1.7
		c-3.4-0.8-5.9-2.5-8.4-5.1c-1.7-0.8-2.5-2.5-4.2-3.4c-1.7-1.7-2.5-3.4-4.2-5.1c-2.5-5.1-4.2-11-4.2-16.9c0-5.1,0-9.3,0-14.3
		c0-5.1,0-9.3,0.8-14.3c0-2.5,0.8-5.1,0.8-7.6s0.8-5.1,0.8-7.6c0-3.4,0.8-6.7,0.8-9.3c0-3.4,0.8-6.7,0.8-10.1c0.8-5.1,0.8-11,1.7-16
		c0-2.5,0-5.1,0-7.6c0-2.5,0-5.9,0.8-8.4c0-5.1,0.8-10.1,1.7-15.2c0.8-5.9,1.7-11.8,2.5-17.7c0.8-5.1,1.7-9.3,1.7-14.3
		c0.8-5.1,0.8-10.1,1.7-15.2c0.8-5.9,1.7-11.8,2.5-17.7c0.8-2.5,0.8-5.9,1.7-8.4c-0.8,0-1.7-0.8-3.4-0.8c-0.8-0.8-2.5-0.8-4.2-0.8
		s-4.2-1.7-5.1-3.4c-0.8-1.7-1.7-4.2-0.8-5.9s1.7-3.4,4.2-4.2c1.7-0.8,2.5-0.8,4.2-0.8c0.8,0,1.7,0,2.5,0c1.7,0,3.4,0.8,5.1,0.8
		c1.7,0.8,3.4,0.8,5.1,1.7c0,0,0,0,0.8,0s1.7,0,2.5,0c0.8,0,1.7,0,2.5,0c1.7,0.8,3.4,1.7,5.1,3.4c2.5,0.8,4.2,1.7,6.7,2.5h0.8
		c0.8,0,1.7,0,2.5,0c2.5,0.8,4.2,0.8,6.7,1.7c2.5,0.8,5.1,1.7,7.6,3.4c3.4,1.7,5.9,3.4,9.3,4.2h0.8c2.5,0.8,4.2,1.7,5.1,3.4
		c0.8,1.7,1.7,4.2,0.8,5.9c-0.8,3.4-5.9,6.7-10.1,5.1c-2.5-0.8-5.1-1.7-7.6-2.5c0,3.4-0.8,6.7-1.7,10.1c-0.8,2.5-0.8,4.2-1.7,6.7
		c-0.8,2.5-0.8,4.2-1.7,6.7c-0.8,7.6-1.7,14.3-2.5,21.9c0,4.2-0.8,7.6-0.8,11.8c0,3.4-0.8,7.6-1.7,11c-0.8,10.1-0.8,19.4-0.8,29.5
		c0,5.1-0.8,10.1-0.8,15.2c0,5.1,0,10.1,0,15.2c0,5.1,0,10.1,0,15.2c0,5.1,0,10.1,0,15.2c0,5.1,0,10.1,0,15.2c0,2.5,0,5.1,0,7.6
		c0,1.7,0,3.4,0,5.1c0,0.8,0,1.7,0.8,2.5c0,0.8,0.8,0.8,0.8,1.7l0.8,0.8h0.8c4.2,0.8,8.4,0.8,12.7,0.8c5.1,0,10.1,0,14.3,0
		c5.9,0,11.8,0,16.9,0c2.5,0,5.9,0,8.4,0c2.5,0,5.9,0,8.4-0.8c5.9,0,11,0,16.9-0.8c3.4,0,5.9,0,9.3-0.8c2.5,0,5.1,0,6.7,0
		c0.8,0,0.8,0,1.7,0c0,0,0.8,0,0.8-0.8c0,0,0,0,0.8-0.8c0.8-0.8,1.7-1.7,2.5-3.4c0.8-1.7,0.8-3.4,1.7-5.1c0.8-5.1,0.8-11,0-16.9
		c-0.8-3.4-0.8-5.9-1.7-9.3c-0.8-3.4-1.7-7.6-3.4-11c-2.5-10.1-5.1-21.1-6.7-31.2c-2.5-11-4.2-21.1-6.7-32.1c-0.8-5.1-2.5-11-3.4-16
		s-1.7-10.1-2.5-15.2c-0.8-5.1-1.7-11-2.5-16c-0.8-2.5-0.8-5.1-1.7-7.6c0-0.8-0.8-2.5-0.8-3.4s-0.8-2.5-0.8-3.4s0-0.8,0-1.7
		c0-0.8-0.8-1.7-0.8-2.5c-2.5,0-5.1,0-6.7,0c-4.2,0-8.4-3.4-8.4-7.6s4.2-7.6,8.4-7.6c5.9,0,11.8-0.8,16.9-0.8c2.5,0,5.1,0,8.4,0
		c1.7,0,2.5,0,4.2,0c0.8,0,1.7,0,1.7,0c1.7,0,2.5,0,4.2,0.8c1.7,0,4.2,1.7,5.1,3.4c0.8,1.7,1.7,4.2,0.8,5.9s-1.7,3.4-4.2,4.2
		c-1.7,0.8-2.5,0.8-4.2,0.8h-0.8c-1.7,0-2.5,0-4.2,0c-1.7,0-2.5,0-4.2,0v0.8c0,0.8,0,1.7,0,2.5c0.8,4.2,1.7,7.6,2.5,11.8
		c0,3.4,0,5.1,0,7.6s0.8,4.2,0.8,6.7c0.8,4.2,1.7,8.4,2.5,12.7s1.7,9.3,2.5,13.5c0.8,5.1,1.7,10.1,3.4,15.2c0.8,5.1,2.5,10.1,3.4,16
		c2.5,11,4.2,21.1,6.7,32.1c1.7,5.1,2.5,11,4.2,16c1.7,5.9,2.5,11,3.4,16.9C1908.5,163.3,1908.5,165.8,1908.5,169.2z M2105.9,148.1
		c-0.8,2.5-1.7,5.1-2.5,6.7c-0.8,1.7-1.7,4.2-3.4,5.9s-2.5,4.2-4.2,5.9c-1.7,1.7-3.4,2.5-5.1,4.2c-2.5,1.7-4.2,2.5-7.6,3.4
		c-2.5,0.8-5.1,1.7-7.6,1.7s-5.1,0-7.6,0c-1.7,0-3.4,0-5.1,0c-1.7,0-4.2,0-5.9-0.8c-0.8,0-1.7-0.8-3.4-0.8
		c-3.4-0.8-6.7-2.5-10.1-4.2c-5.9-3.4-11-6.7-16-10.1c-2.5-1.7-4.2-3.4-5.9-5.1c-1.7-1.7-4.2-3.4-5.9-5.1c-4.2-3.4-8.4-7.6-12.7-11
		c-1.7-1.7-4.2-4.2-5.9-5.9c-1.7-1.7-3.4-3.4-5.9-5.1c-1.7-0.8-3.4-2.5-5.9-3.4c-1.7-0.8-3.4-1.7-5.9-2.5c-1.7-0.8-3.4-1.7-5.9-1.7
		c-1.7-0.8-4.2-0.8-5.9-1.7c0,0.8,0,2.5,0.8,3.4c0.8,5.1,1.7,10.1,1.7,15.2c0.8,5.1,0.8,10.1,1.7,15.2c0,2.5,0,5.1,0.8,7.6
		c0,1.7,0.8,4.2,0.8,5.9c1.7,7.6,3.4,14.3,5.1,21.9c0.8,0,0.8,0,1.7,0c0.8-0.8,2.5-0.8,3.4-0.8c0.8,0,1.7,0,2.5,0
		c1.7,0.8,4.2,1.7,5.1,3.4c0.8,1.7,1.7,4.2,0.8,5.9s-1.7,3.4-4.2,4.2c-1.7,0.8-2.5,0.8-4.2,1.7c-0.8,0-2.5,0-3.4,0s-1.7,0-2.5,0
		c-1.7,0-3.4,0-4.2,0c-3.4,0-6.7,0-10.1,0.8c-6.7,0.8-13.5,1.7-20.2,2.5c-4.2,0-8.4-3.4-8.4-7.6c0-1.7,0.8-4.2,2.5-5.1
		c1.7-1.7,3.4-1.7,5.9-2.5c1.7,0,4.2,0,5.9-0.8c1.7,0,3.4-0.8,5.1-0.8c0-0.8-0.8-2.5-0.8-3.4c-0.8-2.5-0.8-4.2-0.8-6.7
		c-0.8-2.5-0.8-5.1-1.7-7.6c-0.8-2.5-1.7-5.1-1.7-7.6c-1.7-5.1-2.5-10.1-4.2-15.2c-0.8-2.5-0.8-5.1-1.7-7.6
		c-0.8-2.5-1.7-5.9-1.7-8.4c-0.8-1.7-1.7-5.1-1.7-7.6c-0.8-2.5-0.8-5.1-1.7-7.6c-0.8-5.1-2.5-11-3.4-16c-0.8-5.1-1.7-10.1-2.5-16
		c-0.8-2.5-0.8-5.1-1.7-7.6c0-1.7-0.8-2.5-0.8-4.2c0-0.8-0.8-2.5-0.8-3.4c-0.8-5.1-1.7-11-2.5-16c-0.8-3.4-1.7-7.6-2.5-11
		c-0.8-1.7-0.8-4.2-1.7-5.9s-0.8-4.2-0.8-5.9c-0.8-4.2-1.7-7.6-2.5-11.8v-0.8c-0.8,0.8-1.7,0.8-2.5,1.7c-0.8,0-1.7,0.8-2.5,0.8
		c-1.7,0.8-3.4,0.8-5.1,0.8c-1.7,0-2.5-0.8-4.2-0.8c-1.7-0.8-3.4-2.5-4.2-4.2c0-1.7,0-2.5,0-4.2c0.8-2.5,2.5-3.4,4.2-5.1
		c0,0,0.8,0,0.8-0.8c0.8-0.8,1.7-0.8,2.5-1.7c1.7-0.8,3.4-2.5,5.9-3.4c1.7-0.8,2.5-1.7,4.2-2.5l0,0c0,0,0,0,0.8-0.8c0,0,0,0,0.8-0.8
		c1.7-1.7,3.4-2.5,5.9-2.5c0.8,0,0.8-0.8,1.7-0.8c1.7-0.8,2.5-0.8,4.2-0.8c0.8,0,1.7,0,2.5,0l0,0c0.8,0,1.7-0.8,3.4-0.8
		c3.4-1.7,5.9-2.5,9.3-3.4c1.7-0.8,2.5-0.8,4.2-0.8c1.7,0,2.5-0.8,4.2-0.8c1.7,0,2.5-0.8,4.2-0.8c1.7,0,2.5-0.8,4.2-0.8
		c2.5-0.8,5.9-0.8,8.4-1.7c0.8,0,1.7,0,1.7,0l0,0c0.8,0,1.7,0,2.5,0s1.7,0,2.5,0c1.7,0,2.5,0,4.2,0c2.5,0.8,4.2,1.7,5.9,2.5
		c1.7,0.8,4.2,2.5,5.1,4.2c2.5,2.5,4.2,5.1,5.9,8.4c1.7,2.5,2.5,5.9,4.2,9.3c0.8,2.5,1.7,5.1,1.7,7.6c0.8,5.9,1.7,11,2.5,16.9
		c0,2.5,0.8,4.2,0.8,6.7l0,0c0,0.8,0,1.7,0,1.7l0,0l0,0l0,0v0.8l0,0c0,0.8,0,1.7,0,2.5c0,0.8,0,1.7,0,2.5c0,0.8,0,2.5,0.8,3.4
		c0.8,4.2,1.7,8.4,1.7,12.7c0.8,5.1,2.5,10.1,3.4,15.2c0.8,2.5,0.8,5.9,1.7,8.4c0,2.5,0,4.2-1.7,6.7c-0.8,1.7-2.5,3.4-4.2,4.2
		c-2.5,1.7-5.1,3.4-8.4,5.1c-3.4,1.7-6.7,2.5-10.1,4.2c-1.7,0.8-3.4,0.8-5.1,1.7c1.7,0.8,4.2,1.7,5.9,2.5c3.4,1.7,5.9,3.4,8.4,5.9
		c1.7,1.7,4.2,3.4,5.9,5.1c1.7,1.7,3.4,4.2,5.9,5.9c4.2,4.2,8.4,7.6,12.7,11c1.7,1.7,3.4,3.4,5.9,5.1c1.7,1.7,3.4,2.5,5.9,4.2
		c5.9,3.4,11,7.6,16.9,10.1c1.7,0.8,4.2,0.8,5.9,1.7c4.2,0,7.6,0.8,11.8,0c0.8,0,2.5-0.8,3.4-0.8c1.7-0.8,2.5-0.8,3.4-1.7
		s1.7-1.7,2.5-2.5c0.8-0.8,1.7-2.5,2.5-3.4c0.8-2.5,1.7-5.1,3.4-7.6c0.8-1.7,1.7-3.4,4.2-4.2c1.7-0.8,4.2-1.7,6.7-0.8
		c1.7,0.8,4.2,1.7,5.1,3.4C2105.9,143.9,2106.7,146.4,2105.9,148.1z M2198.7,125.3c0,1.7-0.8,3.4-0.8,5.1c-0.8,3.4-2.5,5.9-5.1,8.4
		c-0.8,0.8-2.5,1.7-4.2,2.5c-0.8,0.8-2.5,0.8-4.2,1.7c-0.8,0-2.5,0.8-3.4,0.8c-1.7,0-3.4,0.8-5.1,0.8c-2.5,1.7-5.9,2.5-9.3,0.8
		c-2.5,0-5.9,0-8.4,0c-5.1,0-9.3-0.8-13.5-1.7c-1.7-0.8-3.4-0.8-5.1-1.7c-2.5-0.8-4.2-1.7-6.7-2.5c-0.8-0.8-1.7-0.8-2.5-1.7
		c-2.5-1.7-5.1-4.2-8.4-5.9c-2.5-1.7-4.2-3.4-6.7-5.1c-5.1-5.1-9.3-11-12.7-16.9c-1.7-2.5-3.4-4.2-5.1-6.7c-1.7-2.5-3.4-5.1-5.1-8.4
		c-0.8-2.5-1.7-4.2-1.7-6.7c-0.8,0-1.7,0-1.7,0c-2.5,0-4.2-0.8-5.9-2.5c-3.4-2.5-3.4-7.6,0-11c2.5-2.5,5.9-5.1,8.4-7.6
		c2.5-2.5,5.9-5.1,8.4-7.6c1.7-1.7,4.2-2.5,5.9-2.5c2.5,0,4.2,0.8,5.9,2.5c1.7,1.7,2.5,3.4,2.5,5.1c0,1.7,0,2.5-0.8,3.4
		c-0.8,0.8-0.8,0.8-1.7,1.7c-2.5,2.5-5.1,5.1-7.6,6.7c0.8,0.8,0.8,1.7,1.7,2.5c0.8,3.4,1.7,6.7,2.5,10.1c1.7,2.5,3.4,5.1,5.1,6.7
		c0.8,1.7,2.5,3.4,3.4,5.1c2.5,3.4,5.1,7.6,7.6,11c4.2,4.2,9.3,7.6,13.5,11c1.7,0.8,4.2,2.5,5.9,3.4c3.4,0.8,6.7,1.7,10.1,2.5
		c3.4,0,6.7,0,10.1,0c0.8,0,1.7,0,2.5,0c0-0.8,0-0.8,0-1.7c0-2.5,0-5.1,0-7.6s-0.8-4.2-1.7-6.7s-0.8-4.2-1.7-6.7
		c-0.8-2.5-0.8-5.1-1.7-6.7c-0.8-2.5-1.7-5.1-2.5-6.7c-0.8-2.5-1.7-5.1-2.5-6.7c-0.8-2.5-1.7-5.1-3.4-6.7c-1.7-4.2-3.4-8.4-5.1-12.7
		c-1.7-3.4-3.4-5.9-5.1-8.4c-1.7-3.4-3.4-6.7-5.1-10.1c-1.7-3.4-3.4-6.7-5.9-10.1c-0.8-1.7-1.7-3.4-2.5-4.2
		c-0.8-0.8-1.7-2.5-2.5-3.4c-1.7-1.7-3.4-3.4-5.9-5.1c-0.8-0.8-2.5-1.7-4.2-2.5c-1.7-0.8-2.5-0.8-4.2-1.7s-2.5-0.8-4.2-0.8
		c-0.8,0-1.7-0.8-2.5-0.8c-2.5,0-4.2-0.8-6.7-0.8s-5.9-0.8-8.4-1.7s-5.9-0.8-8.4-1.7c-6.7-0.8-13.5-1.7-20.2-4.2
		c-5.1-1.7-8.4-5.1-11.8-9.3c-2.5-2.5-4.2-5.9-4.2-10.1c-0.8-2.5-0.8-5.1-0.8-7.6c0-5.9,0.8-11,3.4-16c1.7-2.5,2.5-5.9,4.2-8.4
		c1.7-2.5,2.5-4.2,4.2-6.7c1.7-2.5,3.4-4.2,5.1-5.9c2.5-2.5,4.2-5.1,6.7-6.7c4.2-3.4,10.1-6.7,16-8.4c1.7,0,2.5,0,4.2,0
		c0.8,0,2.5,0,3.4,0c2.5,0,5.1,0.8,6.7,1.7c2.5,0.8,5.1,1.7,6.7,3.4c0.8,0.8,2.5,0.8,3.4,1.7c2.5,1.7,5.9,3.4,8.4,5.9
		c4.2,3.4,8.4,7.6,12.7,11.8c1.7,1.7,4.2,3.4,5.9,5.1c2.5,2.5,4.2,4.2,6.7,6.7l0,0c1.7-0.8,4.2-2.5,5.9-3.4c0.8-0.8,2.5-0.8,4.2-0.8
		c0.8,0,1.7,0,2.5,0c1.7,0.8,4.2,1.7,5.1,3.4c0.8,1.7,1.7,4.2,0.8,5.9c-0.8,1.7-1.7,3.4-4.2,4.2c-3.4,2.5-7.6,4.2-11,6.7
		s-6.7,4.2-10.1,6.7c-4.2,1.7-9.3,0.8-11.8-2.5s-0.8-8.4,3.4-10.1c0.8,0,0.8-0.8,1.7-0.8c-1.7-1.7-3.4-4.2-5.9-5.9s-5.1-4.2-6.7-5.9
		c-2.5-1.7-4.2-4.2-6.7-6.7c-1.7-1.7-4.2-3.4-5.9-5.1c-1.7-0.8-2.5-1.7-4.2-2.5c-1.7-0.8-3.4-1.7-5.1-2.5c-0.8,0-2.5-0.8-3.4-0.8
		s-2.5,0-3.4,0c-0.8,0-0.8,0-1.7,0s-0.8,0.8-1.7,0.8c1.7,0.8,2.5,2.5,3.4,4.2c0,1.7,0,2.5,0,4.2c0,0.8-0.8,0.8-0.8,1.7
		c0,0.8-0.8,1.7-0.8,2.5c-0.8,1.7-0.8,3.4-1.7,5.1c0,3.4,0,7.6,0,11c0.8,2.5,0.8,4.2,1.7,6.7c0.8,1.7,1.7,3.4,3.4,5.1
		c0.8,1.7,1.7,3.4,3.4,5.1c0.8,0.8,1.7,1.7,2.5,2.5c0.8,0.8,1.7,1.7,2.5,1.7c1.7,0.8,3.4,2.5,4.2,3.4c3.4,1.7,5.9,3.4,9.3,5.1
		c0.8,0,1.7,0.8,2.5,0.8s1.7,0.8,2.5,0.8c1.7,0.8,3.4,0.8,5.1,0.8c0.8,0,1.7,0.8,2.5,0.8c3.4,0.8,7.6,0.8,11,1.7
		c2.5,0.8,5.9,1.7,8.4,2.5c4.2,0.8,7.6,2.5,11.8,4.2c5.1,2.5,9.3,5.1,14.3,8.4c3.4,2.5,7.6,4.2,11,6.7c1.7,0.8,2.5,1.7,4.2,3.4
		c1.7,1.7,4.2,4.2,5.1,6.7c1.7,3.4,3.4,5.9,4.2,9.3c1.7,5.1,2.5,11,3.4,16c0,2.5,0,5.1,0,7.6c0,2.5,0,5.1,0,7.6c0,5.1,0,10.1,0,14.3
		c0,5.1,0,10.1,0,15.2C2198.7,116,2198.7,120.3,2198.7,125.3z M2223.1,61.2c-0.8,0.8-1.7,1.7-2.5,1.7s-2.5,0-3.4,0
		c-0.8-0.8-1.7-1.7-1.7-2.5c0-0.8,0-2.5,0.8-3.4c3.4-3.4,5.9-6.7,9.3-10.1c2.5-2.5,5.1-5.1,7.6-8.4c0.8-0.8,0.8-1.7,1.7-2.5
		c0.8-0.8,1.7-1.7,2.5-1.7h0.8c0.8,0,1.7,0,2.5,0.8c0.8,0.8,1.7,1.7,1.7,2.5c0,0.8,0,2.5-0.8,3.4c-1.7,1.7-2.5,3.4-4.2,5.1
		c-0.8,0.8-0.8,0.8-1.7,1.7c-1.7,1.7-2.5,3.4-4.2,4.2C2229,54.5,2226.5,57.8,2223.1,61.2C2224,61.2,2223.1,61.2,2223.1,61.2z
		 M2250.1,67.1c-2.5,2.5-5.1,5.1-7.6,7.6s-5.1,5.9-8.4,8.4c-0.8,0.8-1.7,0.8-3.4,0.8c-0.8,0-2.5,0-3.4-0.8c-0.8-0.8-1.7-1.7-1.7-2.5
		c0-0.8,0.8-1.7,1.7-2.5c2.5-3.4,5.1-5.9,8.4-9.3c2.5-2.5,5.1-5.1,7.6-7.6c0.8-0.8,1.7-0.8,3.4-0.8c0.8,0,2.5,0,3.4,0.8
		c0.8,0.8,1.7,1.7,1.7,2.5C2251,65.4,2251,66.3,2250.1,67.1z M2336.1,52.8c-1.7,1.7-3.4,2.5-5.1,4.2c-0.8,0.8-1.7,0.8-2.5,1.7
		c-0.8,0.8-2.5,0.8-3.4,1.7c-1.7,0.8-4.2,2.5-5.9,3.4c-2.5,1.7-5.9,4.2-8.4,6.7c-3.4,2.5-5.9,5.1-9.3,7.6c-3.4,2.5-8.4,2.5-11.8,0
		c-3.4-2.5-3.4-7.6,0-11c4.2-3.4,8.4-6.7,12.7-10.1c-0.8-1.7-2.5-2.5-3.4-4.2c-0.8-0.8-0.8-1.7-1.7-2.5c-1.7-1.7-2.5-3.4-4.2-5.9
		c-2.5-2.5-5.1-5.1-6.7-7.6c-1.7-2.5-4.2-5.1-5.9-7.6c-2.5-2.5-4.2-5.1-6.7-7.6c-4.2-4.2-8.4-8.4-12.7-12.7
		c-3.4-4.2-6.7-8.4-10.1-13.5c-1.7-2.5-3.4-4.2-5.1-6.7c-1.7-2.5-3.4-4.2-5.1-6.7c-1.7-1.7-3.4-4.2-5.1-5.9
		c-1.7-1.7-3.4-4.2-5.1-5.9c-3.4-5.1-6.7-9.3-9.3-14.3c-3.4-4.2-6.7-8.4-9.3-13.5c-1.7-2.5-3.4-4.2-5.1-6.7
		c-1.7-2.5-3.4-4.2-5.1-6.7c-1.7-1.7-3.4-4.2-4.2-5.9c-1.7-2.5-4.2-5.1-5.9-7.6c-3.4-3.4-7.6-6.7-11-10.1l0,0
		c-5.1,3.4-10.1,6.7-15.2,10.1c-3.4,2.5-6.7,5.1-11,6.7c-0.8,0.8-2.5,1.7-3.4,1.7l0.8,0.8c2.5,1.7,5.1,4.2,7.6,6.7
		c2.5,3.4,0.8,8.4-3.4,10.1s-9.3,0.8-11.8-2.5l0,0c-0.8-0.8-2.5-2.5-4.2-3.4c-1.7-0.8-3.4-2.5-5.1-3.4c-2.5-1.7-4.2-3.4-6.7-5.9
		c-1.7-1.7-2.5-3.4-2.5-5.1c0-1.7,0.8-4.2,2.5-5.1c1.7-1.7,4.2-2.5,5.9-2.5c0.8,0,0.8,0,1.7,0c0.8,0,1.7-0.8,2.5-0.8
		c1.7-0.8,2.5-1.7,4.2-1.7c2.5-1.7,5.1-3.4,7.6-5.1c2.5-1.7,5.1-3.4,7.6-5.1c2.5-1.7,4.2-2.5,6.7-4.2c5.9-4.2,11.8-8.4,17.7-11.8
		c5.9-3.4,11.8-6.7,16.9-11c1.7-1.7,4.2-3.4,5.9-4.2c2.5-1.7,5.1-3.4,7.6-5.1c2.5-1.7,5.1-2.5,7.6-4.2c3.4-1.7,5.9-3.4,9.3-5.1
		c0,0,0.8,0,0.8-0.8c0-1.7,0.8-3.4,2.5-4.2c1.7-1.7,3.4-2.5,5.9-2.5c1.7,0,4.2,0.8,5.9,2.5c3.4,3.4,6.7,6.7,9.3,10.1
		c0.8,1.7,2.5,3.4,3.4,5.1c0.8,2.5,2.5,4.2,3.4,5.9c2.5,3.4,0.8,8.4-3.4,10.1c-4.2,1.7-9.3,0.8-11.8-2.5c-0.8-1.7-2.5-3.4-3.4-5.1
		c-0.8-0.8-1.7-2.5-1.7-3.4c-0.8-0.8-1.7-2.5-2.5-3.4c0,0-0.8,0-0.8,0.8c-3.4,2.5-7.6,4.2-11,5.9c-2.5,1.7-5.1,2.5-7.6,4.2
		c-2.5,1.7-4.2,3.4-5.9,5.1c0,0.8,0.8,0.8,0.8,1.7c1.7,1.7,3.4,3.4,4.2,5.1l0,0c0.8,0.8,0.8,0.8,0.8,1.7l0.8,0.8
		c2.5,2.5,5.1,5.1,7.6,8.4c1.7,2.5,3.4,5.1,5.1,7.6c1.7,2.5,3.4,4.2,4.2,5.9c1.7,2.5,2.5,4.2,4.2,6.7c1.7,2.5,3.4,4.2,4.2,6.7
		c1.7,2.5,2.5,4.2,4.2,6.7c1.7,2.5,3.4,4.2,4.2,6.7c1.7,2.5,2.5,4.2,4.2,6.7c1.7,2.5,3.4,4.2,4.2,6.7c1.7,2.5,3.4,4.2,5.1,6.7
		c3.4,4.2,5.9,8.4,9.3,13.5c1.7,2.5,3.4,5.1,5.1,7.6c1.7,1.7,2.5,4.2,4.2,5.9s3.4,4.2,5.1,5.9c1.7,2.5,2.5,4.2,4.2,6.7
		s3.4,4.2,5.1,6.7c0.8,0.8,1.7,2.5,2.5,3.4c0.8,1.7,1.7,2.5,2.5,4.2c2.5,2.5,4.2,5.1,5.9,7.6c1.7,1.7,3.4,3.4,5.1,5.1
		s2.5,3.4,4.2,5.1c0.8,0.8,0.8,1.7,1.7,2.5c0.8,0.8,1.7,1.7,2.5,3.4c1.7,1.7,2.5,3.4,4.2,4.2c0.8,0,1.7,0,2.5,0
		c2.5,0,4.2,0.8,5.9,2.5C2339.5,45.2,2339.5,50.2,2336.1,52.8z M2422.2-54.3c0,0.8,0,1.7,0,2.5c0,0.8,0,0.8,0,1.7
		c0,0.8,0,1.7-0.8,1.7c0,0.8-0.8,1.7-0.8,1.7c-0.8,1.7-4.2,2.5-5.9,1.7c-2.5-0.8-2.5-3.4-1.7-5.1V-51c0-4.2,0-7.6,0-11.8
		c0-2.5,0-4.2,0-6.7c0-1.7,0-3.4-0.8-5.9c-0.8-2.5-0.8-5.1-1.7-7.6c0-1.7-0.8-2.5-1.7-4.2c0-0.8-0.8-2.5-1.7-3.4
		c0-0.8-0.8-1.7-0.8-2.5c-0.8-0.8-0.8-1.7-1.7-2.5c-0.8-1.7-2.5-3.4-3.4-5.1c-0.8-1.7-2.5-3.4-3.4-5.1c-0.8-1.7-2.5-3.4-4.2-4.2
		l0.8,0.8l-0.8-0.8c-0.8-0.8-0.8-0.8-0.8-1.7v-0.8c0-0.8,0.8-1.7,1.7-2.5c0.8-0.8,1.7-0.8,3.4-0.8c0.8,0,2.5,0,3.4,0.8
		c2.5,2.5,5.1,5.9,7.6,8.4c1.7,2.5,3.4,5.1,5.1,7.6c0.8,0.8,0.8,1.7,1.7,2.5c0.8,1.7,1.7,2.5,1.7,4.2c0,0.8,0.8,1.7,0.8,3.4
		c0,0.8,0.8,2.5,0.8,3.4c0.8,2.5,0.8,4.2,1.7,6.7c0.8,2.5,0.8,4.2,0.8,6.7c0,1.7,0,4.2,0,5.9c0,2.5,0,4.2,0,6.7
		C2422.2-58.6,2422.2-56,2422.2-54.3z"/>
	<path d="M2412.9-51L2412.9-51C2412.9-50.1,2412.9-50.1,2412.9-51C2412.9-50.1,2412.9-50.1,2412.9-51z"/>
	<path d="M2172.5,80.6c0.8,2.5,1.7,5.1,2.5,6.7c1.7,5.1,3.4,9.3,5.1,14.3c0.8,2.5,1.7,5.1,1.7,7.6c0-6.7,0-13.5,0-20.2
		c0-5.1,0-10.1,0-15.2c0-4.2,0-9.3-0.8-13.5c-0.8-4.2-1.7-7.6-3.4-11.8c0-0.8-0.8-0.8-0.8-1.7c-0.8-0.8-0.8-1.7-1.7-2.5
		c-1.7-1.7-2.5-2.5-4.2-3.4c-1.7-0.8-4.2-2.5-5.9-3.4c-1.7-1.7-4.2-2.5-5.9-4.2c-2.5-1.7-5.1-3.4-7.6-5.1c-1.7-0.8-3.4-1.7-5.1-2.5
		c0.8,0.8,0.8,1.7,1.7,2.5c2.5,4.2,5.9,9.3,7.6,13.5c0.8,2.5,2.5,5.1,3.4,6.7c0.8,2.5,2.5,4.2,4.2,6.7c2.5,5.1,5.1,11,6.7,16
		C2170,75.5,2170.8,78.1,2172.5,80.6z"/>
	<path d="M2078-2.9c-0.8-0.8-1.7-1.7-1.7-3.4c-1.7-3.4-4.2-5.9-5.1-10.1c-0.8-3.4-1.7-5.9-1.7-9.3c0-2.5,0-5.1,0-7.6l0,0
		c-0.8,1.7-1.7,2.5-2.5,4.2c0,0,0-0.8,0.8-0.8c-0.8,1.7-1.7,3.4-2.5,5.1c-0.8,1.7-0.8,3.4-1.7,5.1c0,2.5-0.8,5.9,0,8.4
		c0,0.8,0,1.7,0.8,2.5c0.8,0.8,0.8,1.7,1.7,2.5c0.8,0.8,1.7,1.7,3.4,2.5c0.8,0,1.7,0.8,1.7,0.8c3.4,0.8,6.7,1.7,10.1,2.5
		C2079.7-1.2,2078.9-2.1,2078-2.9z"/>
	<path d="M2001.3,87.4C2001.3,87.4,2002.1,87.4,2001.3,87.4c0.8-0.8,0-0.8,0-1.7c-0.8-6.7-3.4-12.7-4.2-19.4
		c-1.7-6.7-2.5-13.5-3.4-20.2c0-0.8,0-0.8,0-1.7l0,0l0,0l0,0l0,0v-0.8l0,0c0-0.8,0-0.8,0-1.7c-0.8-4.2-0.8-7.6-1.7-11.8
		c-0.8-3.4-0.8-7.6-2.5-11c-0.8-3.4-1.7-6.7-3.4-10.1c0-0.8-0.8-0.8-0.8-1.7c-0.8-1.7-1.7-2.5-2.5-4.2c-0.8-0.8-1.7-1.7-1.7-1.7
		c-0.8,0-0.8-0.8-1.7-0.8l0,0c-1.7,0-3.4,0-4.2,0c-2.5,0.8-5.1,0.8-6.7,1.7c-1.7,0-2.5,0.8-4.2,0.8c-1.7,0-2.5,0.8-4.2,0.8
		c-2.5,0.8-5.1,1.7-7.6,2.5c1.7,1.7,2.5,3.4,2.5,5.1s0,3.4,0,5.1c0.8,3.4,0.8,5.9,1.7,9.3c0,2.5,0.8,5.9,0.8,8.4
		c0.8,3.4,0.8,6.7,1.7,10.1c0.8,4.2,1.7,7.6,2.5,11.8s1.7,8.4,1.7,12.7c0.8,3.4,0.8,7.6,1.7,11l0,0c0,2.5,0.8,5.1,0.8,6.7
		c0,2.5,0,4.2,0,6.7s0,4.2,0.8,6.7c0.8,0,1.7-0.8,2.5-0.8c4.2-1.7,8.4-1.7,12.7-3.4c4.2-0.8,7.6-2.5,11.8-3.4
		C1995.4,90.7,1998.7,89,2001.3,87.4z"/>
	<path d="M2277.9,3c-1.7-2.5-2.5-4.2-4.2-6.7c-3.4-4.2-5.9-8.4-9.3-12.7c-3.4-4.2-5.9-9.3-9.3-13.5c-1.7-2.5-3.4-4.2-4.2-6.7
		c-1.7-2.5-3.4-4.2-5.1-6.7c-1.7-1.7-2.5-4.2-4.2-6.7c-1.7-2.5-3.4-4.2-4.2-6.7c-1.7-2.5-3.4-4.2-4.2-6.7c-1.7-2.5-2.5-4.2-4.2-6.7
		c-1.7-2.5-2.5-4.2-4.2-6.7c-0.8-0.8-1.7-2.5-2.5-3.4s-1.7-1.7-2.5-3.4c-1.7-2.5-3.4-4.2-4.2-6.7c-0.8-1.7-2.5-3.4-4.2-5.1
		c-1.7-1.7-3.4-3.4-4.2-5.1l-0.8-0.8l0,0c-1.7-1.7-3.4-4.2-5.1-5.9c-0.8-0.8-1.7-1.7-1.7-2.5c-1.7,0.8-3.4,1.7-5.1,3.4
		c1.7,1.7,4.2,3.4,5.9,5.1c1.7,1.7,4.2,4.2,5.9,5.9c1.7,1.7,2.5,3.4,4.2,5.1c3.4,4.2,5.9,8.4,9.3,12.7c1.7,1.7,3.4,4.2,5.1,5.9
		c1.7,1.7,3.4,4.2,4.2,5.9c2.5,4.2,5.9,7.6,8.4,11.8c1.7,2.5,3.4,4.2,5.1,6.7c1.7,2.5,3.4,5.1,5.1,7.6c3.4,4.2,6.7,8.4,10.1,12.7
		c1.7,2.5,3.4,4.2,5.1,6.7c1.7,2.5,3.4,5.1,5.1,6.7c2.5,4.2,5.9,7.6,9.3,11.8c1.7,1.7,3.4,3.4,4.2,5.1
		C2278.8,4.7,2278.8,3.9,2277.9,3z"/>
	<path d="M2312.5-67.8c0.8,0,1.7-0.8,1.7-0.8l0,0c0,0,0-0.8,0.8-0.8c0-0.8,0.8-1.7,0.8-1.7c0-0.8,0-1.7,0-2.5v-0.8
		c-0.8-0.8-0.8-1.7-1.7-2.5c-0.8,2.5-1.7,4.2-1.7,6.7c0,0.8-0.8,1.7-0.8,2.5l0,0C2311.7-67.8,2311.7-67.8,2312.5-67.8z"/>
	<path d="M1474.1-68.7c0-0.8,0.8-1.7,0.8-2.5c0-0.8,0-1.7,0-2.5c0,0.8-0.8,0.8-0.8,1.7c0,0.8-0.8,1.7-0.8,2.5c0,0.8,0,0.8,0,1.7
		C1474.1-68.7,1474.1-68.7,1474.1-68.7L1474.1-68.7z"/>
	<path d="M1472.4-67.8L1472.4-67.8L1472.4-67.8z"/>
	<path d="M2462.7-171.6c-0.8-0.8-1.7-0.8-3.4-1.7c-0.8,0-1.7,0-2.5,0c-0.8,0-1.7-0.8-2.5-0.8s-1.7-0.8-1.7-0.8c-0.8,0-1.7,0-2.5-0.8
		c-0.8,0-1.7-0.8-2.5-0.8l-0.8-0.8c-0.8-0.8-1.7-2.5-2.5-3.4c0,0-0.8,0-0.8-0.8c-0.8-0.8-1.7-2.5-2.5-4.2s-2.5-3.4-3.4-5.1
		c-0.8-0.8-0.8-1.7-1.7-2.5c-0.8-0.8-0.8-1.7-1.7-2.5s-0.8-1.7-1.7-2.5c-0.8-0.8-1.7-1.7-2.5-2.5c-1.7-1.7-2.5-3.4-4.2-5.1
		c-0.8-1.7-2.5-2.5-3.4-4.2c-0.8-1.7-2.5-2.5-3.4-4.2c-1.7-1.7-4.2-3.4-5.9-4.2c-3.4-2.5-7.6-3.4-11-5.1c-1.7-0.8-3.4-1.7-5.1-1.7
		c-1.7-0.8-3.4-0.8-5.9-1.7c-1.7-0.8-3.4-0.8-5.1-0.8c-2.5-0.8-5.1-0.8-7.6-0.8h0.8c-1.7,0-4.2,0-5.9-0.8c-2.5,0-5.1-0.8-6.7-0.8
		c-2.5-0.8-5.1-0.8-7.6-2.5c-0.8,0-1.7-0.8-2.5-0.8c-1.7-0.8-2.5-1.7-4.2-2.5c-2.5-1.7-5.1-3.4-8.4-5.1c-0.8-0.8-0.8-0.8-1.7-1.7
		c-0.8-0.8-2.5-1.7-4.2-3.4c-1.7-0.8-3.4-1.7-5.1-2.5c-0.8,0-2.5-0.8-4.2-0.8c-0.8,0-0.8,0-1.7,0c-1.7,0-2.5,0-4.2,0.8
		c-2.5,0.8-4.2,1.7-5.9,4.2c-0.8,1.7-1.7,3.4-1.7,5.1c0,0.8,0,2.5,0.8,3.4c0,0.8,0.8,1.7,0.8,3.4c0,1.7,0,3.4,0.8,5.1l0.8,0.8
		c0,0,0,0.8,0.8,0.8c-0.8,0.8-0.8,2.5-0.8,3.4c0,0.8,0,1.7,0,1.7c0,0.8,0.8,2.5,1.7,3.4c0.8,0.8,0.8,0.8,0.8,1.7v0.8v0.8
		c0,0,0,0,0-0.8l0,0c0,0,0,0,0,0.8s0,1.7,0,2.5c0,0.8,0,1.7,0,1.7v0.8c-0.8,0.8-0.8,1.7-1.7,2.5c-0.8,0.8-0.8,1.7-0.8,2.5
		s-0.8,0.8-0.8,1.7c0,0.8-0.8,1.7-0.8,2.5c0,1.7,0.8,3.4,2.5,5.1l0,0l0,0h0.8l0,0c1.7,0,2.5,0,4.2,0l0,0c0.8,0,1.7,0,2.5-0.8l0,0
		c0.8,0,0.8-0.8,1.7-0.8s0.8-0.8,1.7-0.8l0,0l0,0l0,0c0,0,0,0,0-0.8c0,0,0-0.8,0.8-0.8c0,0,0-0.8,0.8-0.8c0,0,0,0,0-0.8l0,0
		c0-0.8,0-0.8,0-1.7l0,0v-0.8c0-0.8-0.8-2.5-0.8-3.4c-0.8-1.7-0.8-2.5-0.8-4.2c0-0.8,0-2.5,0.8-3.4l0.8-0.8l0,0l0.8-0.8l0,0l0.8-0.8
		l0,0c0,0,0.8,0,0.8-0.8l0,0c0,0,0.8,0,0.8-0.8l0,0h0.8l0,0c0,0,0,0,0.8,0l0,0h0.8l0,0c0,0,0,0,0.8,0l0,0c0.8,0,1.7,0,2.5,0
		s1.7,0.8,1.7,0.8h0.8c0,0,0,0,0.8,0c0,0,0.8,0,0.8,0.8l0,0l0.8,0.8c0,0,0,0,0.8,0.8c0,0,0,0,0,0.8l0,0c0,0,0,0,0.8,0.8l0,0
		c0,0,0,0,0.8,0.8l0,0l0.8,0.8l0,0l0.8,0.8l0,0l0,0c0,0.8,0.8,0.8,0.8,1.7l0,0l0,0l0.8,0.8c0,0.8,0.8,0.8,0.8,1.7l0.8,0.8l0.8,0.8
		c0,0.8,0,0.8,0.8,1.7l0,0c0,0,0,0.8,0.8,0.8l0,0v0.8l0,0l0,0v0.8c0.8,2.5,0,4.2-0.8,6.7l0,0l-0.8,0.8l0,0l-0.8,0.8l0,0v0.8
		l-0.8,0.8c-0.8,0.8-0.8,2.5-1.7,3.4c0,0.8-0.8,1.7-0.8,3.4s0,2.5,0.8,3.4c0.8,0.8,1.7,1.7,3.4,2.5c3.4,1.7,7.6,1.7,10.1-0.8
		c0.8-0.8,1.7-1.7,2.5-3.4c0.8-0.8,0.8-2.5,1.7-3.4c0-0.8,0.8-0.8,0.8-1.7c0,0,0,0,0-0.8l0.8-0.8c0.8-0.8,2.5-1.7,3.4-2.5
		c0.8-0.8,1.7-1.7,1.7-2.5c0.8,0,1.7,0,2.5-0.8c1.7,0,2.5,0,4.2,0l0,0c0.8,0,2.5,0.8,3.4,0.8c1.7,0.8,4.2,1.7,5.9,3.4
		c1.7,1.7,3.4,2.5,5.1,4.2l0,0c0.8,0.8,0.8,1.7,1.7,1.7l0,0c-1.7,0-2.5,0-4.2,0.8c-1.7,0-3.4,0.8-5.1,1.7c-0.8,0-1.7,0.8-1.7,0.8
		c-0.8,0-0.8,0.8-1.7,0.8s-0.8,0.8-1.7,0.8c-0.8,0.8-1.7,1.7-1.7,2.5c-0.8,1.7-0.8,2.5-1.7,4.2c0,0,0,0.8-0.8,0.8c0,1.7,0,2.5,0,4.2
		c0,0.8,0.8,2.5,2.5,3.4c2.5,2.5,5.9,2.5,9.3,2.5c2.5,0,5.1-0.8,7.6-0.8c1.7,0,4.2,0,5.9,0l0,0l0.8,0.8c1.7,1.7,3.4,1.7,5.9,2.5l0,0
		c0.8,0,1.7,0,3.4,0c0.8,0,2.5,0.8,3.4,0.8c1.7,0,3.4,0.8,5.1,1.7c2.5,0.8,5.1,1.7,7.6,1.7c0.8,0,2.5,0,3.4,0
		c4.2,0,8.4,0.8,12.7-0.8c2.5-0.8,3.4-1.7,5.1-2.5c0.8-0.8,1.7-1.7,2.5-2.5s0.8-0.8,0.8-1.7c0,0,0.8,0,0.8-0.8
		c0.8-0.8,1.7-0.8,2.5-1.7c1.7-1.7,2.5-2.5,2.5-5.1C2466.9-166.5,2465.2-169.1,2462.7-171.6z M2322.6-214.6L2322.6-214.6
		C2322.6-215.5,2322.6-215.5,2322.6-214.6C2322.6-215.5,2322.6-215.5,2322.6-214.6L2322.6-214.6L2322.6-214.6z"/>
	<path d="M1372.9-167.4c0.8-0.8,0.8-2.5,0.8-3.4c0-1.7-0.8-3.4-2.5-5.1l-0.8-0.8c-2.5-1.7-5.1-3.4-8.4-5.1c-0.8,0-0.8-0.8-1.7-0.8
		s-0.8-0.8-1.7-0.8l0,0c1.7,0,2.5-0.8,4.2-0.8c0.8,0,2.5,0,3.4,0c1.7,0.8,4.2,0.8,5.9,1.7c0.8,0,1.7,0.8,2.5,0.8
		c0.8,0,0.8,0.8,1.7,0.8s0.8,0.8,1.7,0.8c0.8,0.8,2.5,0.8,3.4,1.7c1.7-0.8,3.4-0.8,5.1-0.8s2.5-0.8,4.2-1.7c2.5-1.7,2.5-5.1,2.5-7.6
		c0-1.7-0.8-2.5-2.5-3.4c0,0,0,0-0.8,0c0-0.8-0.8-1.7-1.7-2.5s-1.7-1.7-3.4-1.7c-0.8-0.8-1.7-0.8-2.5-1.7c-0.8-0.8-1.7-1.7-2.5-2.5
		l0,0c0-0.8,0-0.8,0-1.7l0,0c0-1.7,0.8-3.4,0.8-5.1c0,0.8,0,1.7,0,1.7c0-0.8,0-1.7,0.8-1.7c0.8-0.8,0.8-1.7,1.7-2.5l0.8-0.8
		c0,0,0,0,0.8,0c1.7,0,2.5-0.8,4.2-0.8c2.5,0,5.1-0.8,6.7-0.8c0.8,0,1.7,0,1.7,0l0,0c0.8,0,2.5,0,3.4,0c1.7,0,2.5,0,4.2,0
		c2.5,0,5.1,0,6.7-0.8c1.7-0.8,4.2-0.8,5.9-1.7c0.8,0,1.7-0.8,2.5-0.8c0,0.8-0.8,0.8-0.8,1.7l-0.8,0.8c-0.8,0.8-0.8,0.8-1.7,1.7l0,0
		c-0.8,0.8-1.7,0.8-1.7,1.7c-1.7,1.7-3.4,2.5-3.4,5.1c-0.8,1.7,0,4.2,0.8,5.9l0.8,0.8c1.7,1.7,4.2,2.5,6.7,2.5c1.7,0,3.4,0,5.1-0.8
		c0.8,0,0.8-0.8,0.8-0.8c1.7-0.8,2.5-1.7,4.2-2.5c0.8-0.8,0.8-0.8,1.7-1.7c0.8-0.8,1.7-1.7,2.5-1.7c1.7-0.8,3.4-2.5,4.2-4.2
		c1.7-1.7,2.5-2.5,4.2-3.4c0,0,0,0,0.8-0.8l0.8-0.8c0.8-0.8,1.7-1.7,2.5-1.7c0.8-0.8,1.7-1.7,2.5-2.5c0.8-0.8,0.8-1.7,1.7-1.7
		c0.8-0.8,1.7-1.7,2.5-3.4c0.8-0.8,1.7-1.7,3.4-2.5c1.7-1.7,3.4-4.2,4.2-6.7c0.8-0.8,0.8-2.5,0.8-3.4c0-2.5-0.8-5.1-1.7-6.7
		c-1.7-1.7-2.5-2.5-4.2-3.4c-0.8-0.8-2.5-0.8-4.2-1.7c-1.7-0.8-4.2-0.8-5.9-0.8c-0.8,0-2.5,0-3.4,0c-0.8,0-1.7,0-2.5,0
		c-3.4,0-7.6,0.8-10.1,2.5c-1.7,1.7-4.2,3.4-5.9,4.2c-1.7,0.8-2.5,2.5-3.4,4.2l-0.8,0.8c-0.8,0.8-1.7,0.8-2.5,1.7
		c-0.8,0.8-1.7,0.8-2.5,1.7c-0.8,0-1.7,0.8-2.5,0.8s-2.5,0-3.4,0c-1.7,0-4.2-0.8-5.9-1.7c-2.5-0.8-4.2-0.8-6.7-1.7
		c-2.5-0.8-5.1-1.7-7.6-1.7c-3.4-0.8-6.7-0.8-10.1-0.8c-4.2,0-8.4,0-11.8,1.7s-5.9,4.2-7.6,6.7c-1.7,1.7-2.5,4.2-4.2,5.9
		c-0.8,0.8-1.7,1.7-1.7,3.4c-0.8,1.7-1.7,3.4-2.5,5.1c-0.8,1.7-1.7,3.4-1.7,5.1c-0.8,1.7-1.7,2.5-2.5,4.2s-1.7,4.2-3.4,5.9l0,0
		c-0.8,0.8-1.7,1.7-2.5,2.5c-0.8,0.8-1.7,0.8-2.5,1.7c-4.2-2.5-5.1-2.5-5.9-1.7h-0.8c-0.8,0-1.7,0-2.5,0s-2.5,0-3.4,0
		c-0.8,0-0.8,0-1.7,0c-2.5,0-4.2,0.8-5.9,2.5c-1.7,0.8-2.5,2.5-2.5,4.2s0,2.5,0.8,4.2c0,0.8,0.8,1.7,0.8,2.5
		c0.8,0.8,1.7,1.7,2.5,2.5l0.8,0.8c1.7,1.7,3.4,1.7,5.1,2.5c1.7,0.8,4.2,1.7,5.9,1.7c3.4,0.8,6.7,0.8,11,0.8c1.7,0,3.4,0.8,5.1,0.8
		l0,0c2.5,2.5,4.2,2.5,5.9,3.4c0.8,0.8,1.7,0.8,2.5,1.7c1.7,0.8,2.5,2.5,4.2,3.4c0.8,0.8,1.7,0.8,3.4,1.7
		C1367-162.3,1371.2-164,1372.9-167.4z M1416.7-214.6L1416.7-214.6L1416.7-214.6L1416.7-214.6z"/>
	<path d="M1902.6-343.7C1902.6-343.7,1901.7-343.7,1902.6-343.7C1901.7-343.7,1901.7-343.7,1902.6-343.7
		C1901.7-343.7,1902.6-343.7,1902.6-343.7z"/>
	<path d="M1988.6-367.3c2.5,0.8,5.1,1.7,7.6,2.5c0.8,0,0.8,0,1.7,0.8c0.8,0,1.7,0,2.5,0c2.5,0,4.2,0,6.7,0
		c4.2-5.9,8.4-11.8,13.5-17.7c4.2-5.1,7.6-10.1,11.8-15.2c1.7-2.5,4.2-5.1,5.9-7.6c0.8-1.7,2.5-2.5,3.4-4.2c2.5-3.4,4.2-5.9,6.7-9.3
		c2.5-3.4,0.8-8.4-3.4-10.1c-1.7-0.8-2.5-0.8-4.2-0.8c-2.5,0-5.9,1.7-7.6,3.4c-1.7,2.5-3.4,5.9-5.9,8.4c-0.8,0.8-1.7,2.5-2.5,3.4
		c-1.7,2.5-3.4,4.2-5.9,6.7c-1.7,2.5-3.4,4.2-5.1,6.7c-1.7,1.7-3.4,4.2-4.2,5.9c-3.4,5.1-7.6,10.1-11,14.3
		C1995.4-376.6,1992-372.3,1988.6-367.3z"/>
	<path d="M2229-401.9c0.8,1.7,1.7,3.4,2.5,5.1l0,0c0.8,0.8,1.7,2.5,2.5,3.4l0.8-0.8c4.2-2.5,8.4-5.1,13.5-8.4
		c1.7-1.7,4.2-2.5,5.9-4.2c3.4-2.5,7.6-5.1,11-7.6c1.7-0.8,2.5-3.4,2.5-5.1s-0.8-4.2-2.5-5.1c-1.7-1.7-3.4-2.5-5.9-2.5
		c-0.8,0-1.7,0-2.5,0c-1.7,0-2.5,0.8-3.4,1.7s-1.7,1.7-2.5,1.7c-4.2,2.5-9.3,5.9-13.5,8.4c-4.2,2.5-9.3,5.9-13.5,8.4
		C2226.5-404.4,2228.2-403.6,2229-401.9z"/>
	<path d="M2183.5-378.2c-5.1,3.4-10.1,5.9-14.3,9.3c-3.4,2.5-6.7,4.2-10.1,6.7c0.8,0.8,0.8,0.8,1.7,1.7c2.5,2.5,4.2,5.9,6.7,9.3
		c0.8,0,0.8,0.8,1.7,1.7c1.7-0.8,3.4-2.5,5.1-3.4l0,0c5.9-4.2,12.7-8.4,19.4-11.8c5.1-3.4,9.3-5.9,14.3-9.3c0-0.8-0.8-0.8-0.8-1.7
		c0-0.8-0.8-1.7-0.8-2.5c0-1.7-0.8-3.4-0.8-4.2c-0.8-2.5-2.5-4.2-3.4-6.7c-1.7,0.8-3.4,1.7-4.2,3.4
		C2191.9-384.2,2187.7-380.8,2183.5-378.2z"/>
	<path d="M2138.8-222.2c0.8,2.5,1.7,4.2,3.4,6.7c2.5-0.8,4.2-1.7,6.7-2.5c5.1-1.7,9.3-3.4,14.3-5.1c5.1-1.7,9.3-3.4,14.3-5.1
		c5.1-1.7,11-3.4,16-5.1c3.4-0.8,5.9-2.5,9.3-3.4c0.8-0.8,2.5-0.8,3.4-1.7c0.8,0,1.7-0.8,2.5-0.8c1.7-0.8,3.4-1.7,5.1-3.4
		c1.7-0.8,3.4-2.5,4.2-4.2s0-4.2-0.8-5.9s-2.5-2.5-5.1-3.4c-0.8,0-1.7,0-2.5,0c-1.7,0-3.4,0-4.2,0.8c-2.5,1.7-4.2,2.5-6.7,3.4
		c-0.8,0.8-1.7,0.8-3.4,1.7c-1.7,0.8-3.4,1.7-5.1,1.7c-5.1,1.7-9.3,3.4-14.3,5.1c-5.9,1.7-11,4.2-16.9,5.9
		c-5.9,1.7-11.8,4.2-17.7,5.9c-1.7,0.8-4.2,1.7-5.9,2.5C2136.2-226.4,2137.1-224.7,2138.8-222.2z"/>
	<path d="M1752.4-393.4c1.7,1.7,3.4,2.5,5.1,4.2c2.5,3.4,5.9,6.7,8.4,10.1c1.7,1.7,3.4,3.4,4.2,4.2c1.7,0.8,2.5,2.5,3.4,4.2
		c4.2,5.1,8.4,11,12.7,16c1.7,1.7,3.4,3.4,5.1,5.1c4.2-1.7,9.3-3.4,14.3-5.1c0.8,0,1.7-0.8,1.7-0.8c-1.7-2.5-3.4-4.2-5.9-5.9
		c-1.7-2.5-4.2-4.2-5.9-6.7c-1.7-2.5-4.2-5.1-5.9-7.6c-2.5-2.5-4.2-5.9-6.7-8.4c-1.7-1.7-4.2-4.2-5.9-5.9c-0.8-1.7-2.5-2.5-3.4-4.2
		c-0.8-0.8-1.7-1.7-2.5-2.5s-1.7-2.5-2.5-3.4c-1.7-0.8-2.5-2.5-4.2-3.4c-1.7-2.5-4.2-3.4-5.9-3.4c-2.5,0-4.2,0.8-5.9,2.5
		C1749.1-401.9,1749.1-396.8,1752.4-393.4z"/>
	<path d="M1831.7-314.1c-0.8,0.8-2.5,1.7-3.4,2.5c0.8,0,0.8,0,1.7-0.8C1830.9-313.3,1831.7-313.3,1831.7-314.1z"/>
	<path d="M1542.4-452.5c1.7,0.8,3.4,1.7,5.1,3.4c3.4,2.5,5.9,5.9,8.4,8.4c2.5,2.5,5.1,5.1,7.6,8.4c4.2,5.1,9.3,10.1,13.5,15.2
		c0-0.8,0-2.5,0-3.4c0.8-3.4,2.5-5.9,5.1-9.3c0.8-0.8,1.7-2.5,2.5-3.4c-0.8-0.8-1.7-1.7-2.5-2.5c-4.2-5.1-7.6-9.3-11.8-14.3
		c-1.7-2.5-4.2-4.2-5.9-6.7c-0.8-0.8-1.7-1.7-3.4-3.4c-0.8-0.8-2.5-2.5-4.2-3.4c-1.7-1.7-4.2-2.5-6.7-3.4c-0.8-0.8-2.5-0.8-4.2-0.8
		c-2.5,0-5.9,1.7-7.6,3.4C1537.4-459.2,1539-455,1542.4-452.5z"/>
	<path d="M1604.8-388.4c4.2,5.1,8.4,10.1,12.7,14.3c4.2,4.2,8.4,9.3,12.7,13.5c3.4,3.4,5.9,6.7,9.3,10.1c3.4,4.2,6.7,7.6,9.3,11.8
		c1.7,2.5,4.2,5.1,5.9,7.6c2.5,2.5,4.2,5.1,6.7,7.6c1.7,1.7,3.4,3.4,5.1,5.1c1.7,1.7,4.2,4.2,5.9,5.9c2.5,2.5,4.2,4.2,6.7,6.7
		c1.7,1.7,3.4,3.4,5.9,5.9c0.8,0.8,2.5,2.5,3.4,3.4c0,0,0,0.8,0.8,0.8c1.7-1.7,3.4-2.5,5.1-4.2c2.5-1.7,5.1-3.4,8.4-5.1
		c-1.7-1.7-2.5-3.4-4.2-4.2c-3.4-3.4-6.7-6.7-10.1-10.1c-3.4-3.4-6.7-6.7-9.3-9.3c-1.7-1.7-3.4-3.4-5.1-5.1
		c-1.7-1.7-3.4-3.4-4.2-5.1c-1.7-1.7-2.5-3.4-4.2-5.1c-1.7-2.5-4.2-5.1-5.9-7.6c-3.4-5.1-7.6-9.3-11.8-13.5
		c-3.4-4.2-6.7-7.6-10.1-11.8c-3.4-4.2-7.6-7.6-11-11.8s-6.7-8.4-11-12.7c-3.4-4.2-7.6-8.4-11-11.8c-1.7-1.7-3.4-3.4-4.2-5.1
		c-0.8,0.8-1.7,1.7-2.5,2.5c-0.8,0.8-0.8,0.8-1.7,1.7c-0.8,0.8-0.8,0.8-1.7,1.7c-2.5,2.5-5.9,2.5-9.3,1.7
		C1591.3-403.6,1598.1-396,1604.8-388.4z"/>
	<path d="M1520.5-282.1c4.2,1.7,7.6,3.4,11.8,5.1c2.5,0.8,5.1,2.5,7.6,3.4c5.9,2.5,11.8,5.1,17.7,6.7s11.8,3.4,16.9,5.1
		c5.9,1.7,11.8,3.4,17.7,5.1c4.2,0.8,7.6,2.5,11.8,4.2c9.3,3.4,17.7,6.7,27,10.1c3.4,1.7,6.7,2.5,11,4.2c0.8-1.7,2.5-3.4,3.4-5.1
		c1.7-2.5,3.4-5.1,5.1-7.6c-1.7-0.8-3.4-0.8-5.1-1.7c-6.7-2.5-14.3-5.1-21.9-8.4c-5.9-2.5-11-4.2-16.9-6.7c-5.9-1.7-11-4.2-16.9-5.1
		c-5.9-1.7-11.8-3.4-16.9-5.1c-5.9-1.7-11-3.4-16.9-5.9c-4.2-1.7-7.6-3.4-11.8-5.1c-1.7-0.8-3.4-1.7-5.9-2.5
		c-3.4-1.7-6.7-3.4-10.1-5.1c-1.7-0.8-2.5-0.8-4.2-0.8c-2.5,0-5.9,0.8-7.6,3.4C1514.6-288.8,1516.3-283.8,1520.5-282.1z"/>
	<path d="M1879.8-584.9c0,0.8,0,0.8,0,1.7c0,2.5,0.8,5.1,0.8,8.4c0,2.5,0.8,5.1,0.8,8.4c0.8,5.1,0.8,10.1,1.7,15.2
		c0.8,4.2,0.8,8.4,0.8,13.5c-3.4,1.7-4.2,5.1-3.4,8.4c0.8,1.7,0.8,4.2,1.7,5.9c0,2.5,0,5.1,0,8.4c0,2.5,0,5.1,0,7.6
		c0,5.1,0.8,11,0.8,16c0.8,11,1.7,21.1,2.5,32.1c0.8,5.9,0.8,11,1.7,16.9c0,2.5,0,5.1,0,6.7c0,2.5,0,5.9,0,8.4
		c0,11,0.8,21.1,1.7,32.1c0,5.9,0.8,11,0.8,16.9c0,1.7,0,4.2,0.8,5.9l0,0c5.9,0,11,0,16.9,0c0-5.1-0.8-10.1-0.8-15.2
		c0-5.9-0.8-11-0.8-16.9c0-5.1-0.8-10.1-0.8-15.2c0-5.9,0-11,0-16.9s-0.8-11-0.8-16.9c-0.8-11-1.7-21.1-2.5-32.1c0-0.8,0-2.5,0-3.4
		c1.7-1.7,2.5-3.4,2.5-5.1c-0.8-5.9-0.8-11.8-0.8-18.6c0-5.1,0-10.1-0.8-16c0-5.1-0.8-11-0.8-16c0-2.5-0.8-5.1-0.8-7.6
		s-0.8-5.1-0.8-7.6c-0.8-5.9-0.8-11-1.7-16.9c-0.8-5.1-0.8-10.1-1.7-15.2c-1.7,0.8-3.4,1.7-5.9,2.5
		C1887.4-587.4,1884-585.7,1879.8-584.9z"/>
	<path d="M1987.8-502.2c2.5,0.8,4.2,0,6.7-0.8c1.7-0.8,3.4-2.5,4.2-4.2c0.8-3.4,1.7-7.6,2.5-11s1.7-5.9,2.5-9.3
		c0.8-3.4,1.7-5.9,2.5-9.3c0-1.7,0.8-2.5,0.8-4.2c0-0.8,0-1.7,0-1.7c0.8-1.7,0.8-4.2,1.7-5.9c1.7-4.2-1.7-8.4-5.9-9.3
		c-0.8,0-1.7,0-2.5,0c-3.4,0-6.7,2.5-8.4,5.9c-0.8,1.7-0.8,3.4-1.7,5.1c0,0.8,0,1.7-0.8,2.5c0,1.7-0.8,3.4-0.8,4.2
		c-0.8,3.4-1.7,5.9-2.5,9.3c-0.8,3.4-1.7,5.9-2.5,9.3c-0.8,3.4-1.7,7.6-2.5,11c0,1.7,0,4.2,0.8,5.9
		C1984.4-504.8,1986.1-503.1,1987.8-502.2z"/>
	<path d="M2149.7-449.9c0.8,0,1.7,0,2.5,0c1.7,0,2.5-0.8,3.4-1.7c5.9-4.2,11.8-8.4,16.9-12.7c4.2-3.4,8.4-6.7,12.7-10.1
		c0.8-0.8,1.7-1.7,2.5-1.7c2.5-1.7,5.1-4.2,8.4-5.9c1.7-0.8,2.5-3.4,2.5-5.1s-0.8-4.2-2.5-5.1c-1.7-1.7-3.4-2.5-5.9-2.5
		s-4.2,0.8-5.9,2.5c-1.7,0.8-2.5,2.5-4.2,3.4c-2.5,1.7-5.9,4.2-8.4,5.9c-1.7,0.8-2.5,2.5-4.2,3.4c-1.7,0.8-2.5,2.5-4.2,3.4
		c-6.7,5.1-12.7,9.3-19.4,14.3c-1.7,0.8-1.7,2.5-1.7,5.1c0,1.7,0.8,4.2,2.5,5.1C2145.5-450.8,2148-449.9,2149.7-449.9z"/>
	<path d="M1685.8-533.4c0.8,1.7,2.5,3.4,3.4,5.1c1.7,2.5,4.2,5.9,5.9,8.4c2.5,3.4,4.2,5.9,6.7,9.3c0.8,1.7,1.7,2.5,2.5,4.2
		c1.7,2.5,2.5,4.2,4.2,6.7c1.7,3.4,7.6,5.1,11.8,2.5c1.7-0.8,3.4-2.5,4.2-4.2c0.8-1.7,0-4.2-0.8-5.9c-1.7-2.5-2.5-4.2-4.2-6.7
		c-0.8-1.7-1.7-2.5-2.5-4.2c-2.5-3.4-4.2-5.9-6.7-9.3c-1.7-2.5-4.2-5.9-5.9-8.4c-0.8-1.7-2.5-3.4-3.4-5.1c-1.7-2.5-4.2-5.1-5.9-7.6
		c-1.7-1.7-2.5-2.5-5.1-3.4c-0.8,0-1.7,0-2.5,0c-1.7,0-3.4,0-4.2,0.8c-1.7,0.8-3.4,2.5-4.2,4.2c-0.8,1.7,0,4.2,0.8,5.9
		C1681.6-539.4,1684.1-536.8,1685.8-533.4z"/>
	<path d="M1974.3-196.9c1.7,1.7,4.2,3.4,6.7,5.1c2.5,1.7,5.1,4.2,8.4,5.9c2.5,1.7,4.2,3.4,6.7,4.2c3.4,1.7,7.6,3.4,11.8,5.1
		c2.5,0.8,5.1,1.7,7.6,1.7c2.5,0.8,5.1,1.7,7.6,1.7c2.5,0.8,5.1,0.8,7.6,1.7c3.4,2.5,6.7,5.9,9.3,8.4c1.7,1.7,2.5,4.2,4.2,5.9
		c1.7,2.5,3.4,5.1,5.1,7.6c0.8,1.7,1.7,3.4,1.7,5.1c0.8,1.7,1.7,4.2,2.5,5.9c1.7,4.2,2.5,7.6,3.4,11.8c0.8,3.4,0,7.6,0,11l0,0
		c-2.5,0.8-5.9,0.8-8.4,1.7c-1.7,0-4.2,0-6.7,0c-3.4,0-5.9,0-9.3,0c-2.5-0.8-5.1-1.7-7.6-2.5c-1.7-0.8-2.5-0.8-4.2-1.7
		c-0.8-0.8-2.5-0.8-3.4-1.7c-2.5-1.7-5.1-4.2-6.7-6.7l0,0l0,0c1.7-3.4,4.2-5.9,6.7-9.3c2.5-3.4,0.8-8.4-3.4-10.1
		c-1.7-0.8-2.5-0.8-4.2-0.8c-2.5,0-5.9,1.7-7.6,3.4s-2.5,4.2-4.2,5.9c-0.8,1.7-2.5,3.4-3.4,5.1s-1.7,3.4-2.5,5.1
		c-0.8,1.7-1.7,3.4-2.5,5.1c0,0.8-0.8,0.8-0.8,1.7c-2.5,3.4-0.8,8.4,3.4,10.1c1.7,0.8,4.2,1.7,6.7,0.8c1.7,0,3.4-1.7,4.2-2.5
		c0.8,0.8,1.7,1.7,2.5,1.7c1.7,0.8,3.4,2.5,5.1,3.4c2.5,1.7,5.1,2.5,7.6,3.4c1.7,0.8,3.4,1.7,5.1,1.7c0.8,0,1.7,0.8,2.5,0.8
		c2.5,0.8,5.1,0.8,6.7,0.8c3.4,0,7.6,0,11,0c6.7,0,12.7-0.8,19.4-2.5c3.4-0.8,6.7-1.7,10.1-2.5c1.7-0.8,4.2-1.7,5.9-2.5
		c1.7-0.8,3.4-1.7,4.2-3.4c0.8-0.8,2.5-1.7,3.4-2.5c1.7-1.7,4.2-4.2,5.9-6.7s3.4-5.9,4.2-8.4c0.8-1.7,0.8-4.2,0.8-5.9
		c0-0.8,0-1.7,0-2.5c0-1.7-0.8-3.4-0.8-5.1c-0.8-2.5-2.5-5.9-3.4-8.4s-2.5-4.2-4.2-6.7c-1.7-2.5-4.2-5.1-5.9-6.7s-4.2-4.2-6.7-5.9
		c-2.5-1.7-5.1-3.4-8.4-5.1c-2.5-0.8-4.2-2.5-6.7-3.4c-2.5-0.8-4.2-2.5-6.7-3.4c-1.7-0.8-4.2-1.7-6.7-2.5c-3.4-0.8-5.9-2.5-9.3-3.4
		c-1.7-0.8-2.5-1.7-4.2-2.5c-1.7-0.8-3.4-2.5-5.1-3.4c-0.8-0.8-2.5-1.7-3.4-2.5s-1.7-1.7-3.4-2.5s-3.4-2.5-5.1-3.4
		c-1.7-0.8-2.5-1.7-4.2-3.4c-0.8-0.8-1.7-1.7-2.5-2.5c-3.4-4.2-5.9-8.4-7.6-12.7c-1.7-3.4-3.4-7.6-4.2-11.8c0-4.2,0-8.4,0-11.8
		c0-1.7,0-4.2,0.8-5.9c0-0.8,0-0.8,0-1.7h0.8c2.5,0.8,5.9,2.5,8.4,4.2c1.7,0.8,2.5,1.7,4.2,3.4c0.8,0.8,2.5,1.7,3.4,3.4
		c0.8,0.8,1.7,1.7,2.5,3.4c0,1.7,0,3.4,0.8,5.1c1.7,2.5,3.4,5.9,4.2,8.4c0.8,2.5,2.5,4.2,3.4,6.7c0.8,0.8,1.7,2.5,1.7,3.4
		c-1.7,0-3.4,0.8-4.2,1.7c-1.7,1.7-2.5,3.4-2.5,5.1c0,4.2,4.2,7.6,8.4,7.6c9.3,0,18.6,0,27.8,0c4.2,0,8.4-3.4,8.4-7.6
		c0-4.2-4.2-7.6-8.4-7.6c0,0,0,0-0.8,0c-2.5,0-5.1,0-7.6,0c-0.8-1.7-0.8-3.4-1.7-5.9c-0.8-1.7-1.7-2.5-2.5-4.2
		c-2.5-4.2-5.9-8.4-8.4-12.7c-1.7-2.5-2.5-4.2-4.2-6.7c-0.8-0.8-1.7-1.7-2.5-3.4s-2.5-2.5-3.4-4.2c-1.7-1.7-4.2-3.4-5.9-5.1
		c-2.5-1.7-5.1-4.2-8.4-5.1c-2.5-1.7-5.9-2.5-8.4-3.4c-3.4-0.8-6.7-1.7-10.1-1.7c-0.8,0-2.5,0-3.4,0h-0.8h-0.8
		c-2.5,0-5.1,0.8-7.6,1.7c-4.2,1.7-6.7,5.1-9.3,8.4c-0.8,1.7-2.5,4.2-2.5,6.7c-1.7,5.9-2.5,11-3.4,16.9c0,2.5,0,4.2,0,6.7
		c0,2.5,0,5.1,0,7.6C1965-210.4,1967.5-202.8,1974.3-196.9z M1985.3-208.7c-0.8-0.8-1.7-1.7-1.7-2.5c-0.8-1.7-1.7-4.2-1.7-5.9
		c0-2.5,0-5.1,0-8.4c0-0.8,0-2.5,0-3.4c0,2.5,0.8,4.2,1.7,6.7c1.7,5.1,4.2,10.1,6.7,14.3c0.8,1.7,1.7,3.4,2.5,5.1
		C1989.5-204.5,1986.9-207,1985.3-208.7z M2023.2-176.7c0,0,0.8,0,0.8,0.8C2023.2-176.7,2023.2-176.7,2023.2-176.7z M2067.9-152.2
		c1.7,1.7,2.5,2.5,4.2,4.2c0.8,1.7,2.5,2.5,3.4,4.2c0.8,1.7,1.7,2.5,1.7,4.2c0.8,1.7,1.7,3.4,1.7,5.1c0,0.8,0,2.5,0,3.4
		s-0.8,1.7-0.8,3.4c-0.8,1.7-1.7,2.5-2.5,4.2c-0.8,0.8-1.7,1.7-1.7,1.7c0-0.8,0-2.5,0-3.4c-0.8-5.1-1.7-10.1-3.4-15.2
		c0-0.8-0.8-2.5-1.7-3.4c0-0.8-0.8-2.5-0.8-3.4c-0.8-2.5-1.7-5.1-2.5-6.7c0-0.8-0.8-1.7-0.8-2.5
		C2064.5-154.7,2066.2-153.9,2067.9-152.2z M2033.3-188.5L2033.3-188.5c0.8,0,0.8,0.8,1.7,0.8c-0.8-0.8-1.7-1.7-3.4-2.5
		C2032.5-189.3,2032.5-188.5,2033.3-188.5z"/>
	<path d="M1970.9-40c3.4-0.8,5.9-1.7,9.3-3.4h0.8c1.7-0.8,2.5-0.8,3.4-1.7c0.8-0.8,2.5-0.8,3.4-1.7c0.8,0,1.7,0,1.7-0.8
		c0.8,0,0.8-0.8,1.7-0.8c0,0,0.8,0,0.8-0.8c2.5-0.8,4.2-2.5,6.7-3.4c1.7-0.8,3.4-1.7,5.1-2.5c1.7-0.8,2.5-0.8,4.2-1.7
		c0.8,0,0.8-0.8,1.7-0.8c0,0,0.8,0,0.8-0.8c0.8,0,1.7-0.8,2.5-1.7c2.5-1.7,2.5-5.1,2.5-7.6c0-1.7-0.8-2.5-2.5-3.4
		c-1.7-0.8-3.4-2.5-5.1-2.5c0,0,0,0-0.8,0c-1.7,0-2.5,0-4.2,0.8c-0.8,0-2.5,0.8-3.4,1.7c0,1.7-0.8,1.7-0.8,2.5
		c-0.8,0.8-2.5,0.8-3.4,1.7s-1.7,0.8-2.5,1.7c-0.8-2.5-1.7-4.2-2.5-6.7c-1.7-5.1-3.4-9.3-5.1-14.3c-0.8-3.4-2.5-5.9-3.4-9.3
		c-0.8-2.5-2.5-5.1-4.2-7.6c-2.5-4.2-5.1-8.4-7.6-12.7c-0.8-2.5-2.5-5.1-4.2-8.4c-0.8-1.7-1.7-3.4-2.5-5.1c0,0.8,0.8,0.8,0.8,1.7
		c-2.5-5.1-4.2-10.1-5.9-14.3c-2.5-5.1-4.2-10.1-5.9-14.3c-1.7-5.1-4.2-10.1-5.9-15.2c-1.7-5.1-4.2-10.1-5.9-15.2
		c-1.7-5.1-3.4-10.1-5.1-15.2c-0.8-2.5-1.7-5.1-2.5-6.7c-0.8-2.5-1.7-5.1-2.5-7.6c-3.4-10.1-7.6-19.4-12.7-29.5
		c-1.7-5.1-4.2-9.3-5.9-14.3c-1.7-5.1-3.4-9.3-5.9-14.3c-0.8-2.5-1.7-4.2-2.5-6.7c5.1,0,10.1,0,15.2,0c4.2,0,8.4-3.4,8.4-7.6
		s-4.2-7.6-8.4-7.6c-3.4,0-5.9,0-9.3,0c-1.7,0-4.2,0-5.9,0c-2.5,0-5.1,0-6.7,0l-0.8-0.8c-0.8-0.8-2.5-1.7-4.2-2.5
		c-0.8,0-1.7,0-2.5,0s-1.7,0-2.5,0c-2.5,0.8-5.1,2.5-5.9,4.2l0,0c-2.5,0.8-5.1,0.8-7.6,1.7c-2.5,0.8-4.2,1.7-6.7,2.5
		s-5.1,1.7-7.6,2.5c-4.2,0.8-6.7,5.1-5.9,9.3c0.8,4.2,5.9,6.7,10.1,5.1c2.5-0.8,5.1-1.7,7.6-2.5c0.8,0,2.5-0.8,3.4-0.8
		c0,0.8,0,2.5-0.8,3.4c-0.8,4.2-1.7,9.3-3.4,13.5c-0.8,2.5-0.8,5.1-1.7,7.6c-0.8,2.5-1.7,5.1-1.7,7.6c-2.5,10.1-5.1,20.2-8.4,30.4
		c-0.8,2.5-1.7,5.1-1.7,7.6c-0.8,2.5-0.8,5.1-1.7,7.6c-0.8,2.5-1.7,5.1-1.7,7.6c-0.8,2.5-0.8,5.1-1.7,7.6c0,0.8-0.8,2.5-0.8,3.4
		c-3.4,0-6.7,0-11,0.8c-1.7,0-3.4,0.8-4.2,1.7c-1.7,0.8-2.5,2.5-4.2,3.4c-3.4,2.5-3.4,7.6,0,11c1.7,1.7,3.4,2.5,5.9,2.5
		c2.5,0,4.2-0.8,5.9-2.5l0.8-0.8l0,0c0.8,0,0.8,0,1.7,0c-0.8,4.2-2.5,8.4-4.2,12.7c-0.8,2.5-1.7,5.9-2.5,8.4s-1.7,5.1-2.5,7.6
		c-1.7,5.1-3.4,10.1-5.1,15.2c-1.7,5.1-3.4,10.1-5.1,15.2c-1.7,4.2-2.5,9.3-3.4,13.5c-1.7,0.8-2.5,2.5-2.5,3.4
		c-0.8,3.4-2.5,6.7-3.4,9.3c-0.8,1.7-0.8,4.2-0.8,5.9c0,1.7,0,3.4,0,5.1c0,3.4,0,5.9,0,9.3l0,0c-3.4,0-6.7,0-9.3,0l0,0
		c-4.2,0-8.4,3.4-8.4,7.6c0,1.7,0.8,4.2,2.5,5.1c1.7,1.7,3.4,2.5,5.9,2.5l0,0c0.8,0,1.7,0.8,1.7,0.8c3.4,0.8,6.7,0.8,11,1.7
		c3.4,0.8,5.9,0.8,9.3,1.7c3.4,0.8,7.6,0.8,11,0.8c1.7,0,2.5,0,4.2,0c2.5,0,5.1,0,6.7-0.8c2.5-0.8,5.1-2.5,5.9-5.1
		c0.8-2.5,0-5.1-2.5-7.6c-0.8-0.8-2.5-1.7-4.2-2.5c0,0,0,0,0-0.8c0-0.8,0-2.5,0-3.4c0.8-2.5,0.8-5.1,1.7-7.6
		c0.8-2.5,1.7-5.1,1.7-7.6c1.7-5.9,3.4-11,4.2-16.9c0.8-2.5,1.7-5.1,2.5-7.6c0.8-2.5,1.7-5.1,2.5-7.6c0.8-2.5,1.7-5.1,2.5-7.6
		c0.8-2.5,0.8-5.1,1.7-7.6c0.8-5.1,2.5-10.1,3.4-15.2c1.7-5.1,2.5-10.1,4.2-15.2c0.8-4.2,2.5-8.4,3.4-12.7h0.8
		c2.5,0.8,4.2,0.8,6.7,1.7c4.2,0.8,9.3,2.5,13.5,4.2c2.5,0.8,5.1,1.7,6.7,2.5c3.4,0.8,5.9,2.5,9.3,3.4c2.5,1.7,5.9,2.5,8.4,5.1
		c1.7,0.8,2.5,1.7,4.2,2.5c1.7,0.8,3.4,2.5,4.2,4.2c3.4,2.5,6.7,5.9,9.3,8.4c2.5,3.4,5.1,7.6,7.6,11c0.8,1.7,1.7,4.2,3.4,5.9
		c0.8,1.7,1.7,3.4,2.5,5.1c0,0.8,0.8,0.8,0.8,1.7c0.8,1.7,1.7,4.2,2.5,6.7c1.7,5.1,3.4,9.3,5.1,14.3c1.7,5.1,3.4,9.3,5.1,14.3
		c0.8,2.5,1.7,5.1,2.5,7.6c0.8,2.5,2.5,5.1,3.4,7.6l0,0l0,0c-0.8,0.8-2.5,1.7-3.4,2.5l0,0c-0.8,0-2.5,0.8-3.4,0.8
		c-2.5,0.8-4.2,1.7-5.1,3.4c-0.8,1.7-1.7,4.2-0.8,5.9c0.8,2.5,3.4,5.1,6.7,5.1C1968.4-39.2,1970.1-39.2,1970.9-40z M1890.8-266.9
		c-0.8,0-1.7,0.8-2.5,0.8c0-0.8,0-0.8,0-1.7c0-0.8,0-1.7,0.8-2.5C1889.1-269.4,1889.9-268.6,1890.8-266.9z M1848.6-116.8
		c-0.8,2.5-1.7,5.1-2.5,7.6c-0.8,2.5-1.7,5.1-2.5,7.6c-0.8,2.5-1.7,5.1-2.5,7.6c-1.7,5.9-2.5,11-4.2,16.9l0,0c0-0.8,0-1.7-0.8-2.5
		v-0.8c1.7-5.1,2.5-10.1,4.2-15.2c1.7-5.1,2.5-10.1,4.2-15.2c1.7-5.1,3.4-10.1,5.1-15.2c0-0.8,0-0.8,0.8-1.7c0,0.8-0.8,2.5-0.8,3.4
		C1850.3-121.8,1849.5-119.3,1848.6-116.8z M1932.1-159.8c-5.1-3.4-10.1-5.9-16-7.6c-2.5-0.8-5.9-2.5-8.4-3.4
		c-2.5-0.8-5.1-1.7-8.4-2.5c-2.5-0.8-5.1-1.7-8.4-2.5c-2.5-0.8-5.9-1.7-8.4-1.7c-0.8,0-0.8,0-1.7,0c0-1.7,0.8-2.5,0.8-4.2
		c1.7-5.1,2.5-10.1,3.4-14.3c0.8-5.1,2.5-11,4.2-16c0.8-2.5,1.7-5.1,1.7-6.7c0.8-2.5,0.8-5.1,1.7-7.6c0.8-5.1,2.5-10.1,3.4-15.2
		c0-1.7,0.8-3.4,0.8-4.2c2.5,6.7,5.9,13.5,9.3,20.2c1.7,5.1,4.2,9.3,5.9,14.3c0.8,2.5,1.7,5.1,2.5,7.6c0.8,2.5,1.7,5.1,2.5,7.6
		c1.7,5.1,3.4,10.1,5.1,15.2c1.7,5.1,4.2,10.1,5.9,15.2c0.8,2.5,2.5,5.9,3.4,8.4C1932.1-159.8,1932.1-159.8,1932.1-159.8z"/>
	<path d="M1711.1-239.1c-3.4,0.8-5.9,0.8-9.3,1.7c-4.2,0.8-8.4,2.5-12.7,4.2c-1.7,0.8-3.4,1.7-4.2,2.5c-1.7,0.8-3.4,1.7-4.2,2.5
		c-1.7,0.8-4.2,2.5-5.1,3.4c-2.5,2.5-3.4,5.9-1.7,9.3c0.8,1.7,2.5,2.5,5.1,3.4c1.7,0.8,5.1,0,6.7-0.8c0.8,0,1.7-0.8,1.7-1.7
		c2.5-1.7,5.1-2.5,7.6-4.2c0,1.7,0,4.2,0,5.9c0,5.1,0,10.1,0,15.2c0,2.5,0,5.1,0,8.4c0,2.5,0,5.1,0.8,7.6c0,2.5,0,5.1,0.8,8.4
		c0,3.4,0.8,5.9,1.7,9.3c0,1.7,0.8,4.2,0.8,5.9c0.8,3.4,0.8,6.7,0.8,11c0,1.7,0,4.2,0.8,5.9c0,1.7,0.8,4.2,0.8,5.9
		c0.8,4.2,0.8,9.3,0.8,13.5c0,3.4,0,5.9,0,9.3c-0.8-0.8-1.7-0.8-3.4-1.7c-1.7-0.8-3.4-1.7-4.2-1.7c-1.7-0.8-2.5-0.8-3.4-1.7
		c-3.4-2.5-5.9-5.9-9.3-9.3c-1.7-1.7-4.2-2.5-5.9-2.5c-2.5,0-4.2,0.8-5.9,2.5c-1.7,1.7-2.5,3.4-2.5,5.1c0,0.8,0,1.7,0,1.7
		c0,1.7,0.8,2.5,2.5,3.4c5.1,5.1,9.3,11,16,13.5c2.5,0.8,5.1,2.5,7.6,3.4c3.4,1.7,5.9,2.5,9.3,4.2c5.1,1.7,10.1,3.4,16,5.1
		c2.5,0.8,5.9,0.8,8.4,1.7c0.8,0,0.8,0,1.7,0c0,0,0,0,0.8,0c2.5,1.7,5.9,2.5,9.3,3.4s5.9,0.8,9.3,0.8c2.5,0,5.9,0,8.4,0
		c3.4,0,6.7-0.8,10.1-0.8c2.5,0,5.1-0.8,7.6-1.7s4.2-1.7,5.9-2.5c1.7-0.8,3.4-2.5,5.1-3.4c2.5-1.7,4.2-3.4,5.9-5.1s3.4-3.4,5.1-5.1
		s4.2-3.4,5.9-5.9c2.5-2.5,4.2-5.1,5.9-7.6c0.8-1.7,2.5-4.2,3.4-5.9c0.8-0.8,0.8-1.7,1.7-2.5c1.7-2.5,2.5-5.1,4.2-7.6
		c0.8-1.7,1.7-4.2,2.5-6.7c0.8-2.5,0.8-5.1,0.8-7.6c0-0.8,0-2.5,0-3.4c0-2.5,0-5.1,0-7.6c0-2.5-0.8-5.9-0.8-8.4v0.8
		c0-0.8,0-1.7,0-1.7c0-5.1-0.8-10.1-1.7-14.3c-1.7-5.1-2.5-10.1-5.1-15.2c-0.8-1.7-1.7-3.4-2.5-5.1c-0.8-0.8-1.7-2.5-2.5-3.4
		c0,0,0,0-0.8-0.8c-0.8-1.7-1.7-2.5-2.5-4.2s-2.5-2.5-3.4-4.2c-0.8-0.8-1.7-2.5-2.5-3.4c-3.4-3.4-6.7-6.7-10.1-10.1
		c-2.5-2.5-4.2-4.2-6.7-5.9c-2.5-1.7-5.1-2.5-7.6-4.2c-1.7-0.8-3.4-1.7-5.1-2.5c-5.1,3.4-6.7,2.5-7.6,2.5c-3.4-0.8-6.7-0.8-11-1.7
		c-5.9-0.8-11.8-1.7-16.9-1.7l0,0c-2.5,0-5.9,0-8.4,0c-3.4,0-6.7,0.8-10.1,0.8C1714.5-239.1,1712.8-239.1,1711.1-239.1z
		 M1799.7-160.6c0,4.2,0,8.4,0,12.7c-0.8,4.2-1.7,7.6-2.5,11.8c-0.8,2.5-0.8,4.2-1.7,6.7c0,0.8-0.8,1.7-0.8,2.5c0,0,0,0.8-0.8,0.8
		c-0.8,0.8-1.7,2.5-2.5,3.4s-1.7,2.5-2.5,3.4c-1.7,1.7-3.4,3.4-5.1,5.1c-0.8,0.8-2.5,2.5-3.4,3.4c-2.5,1.7-4.2,2.5-6.7,3.4
		c-3.4,0.8-6.7,1.7-10.1,2.5c-3.4,0.8-6.7,1.7-10.1,1.7c-2.5,0-5.1,0-7.6,0c-2.5,0-5.9,0-8.4,0c-1.7,0-2.5,0-4.2-0.8l0,0
		c-0.8,0-0.8-0.8-0.8-0.8c-0.8-0.8-2.5-2.5-3.4-3.4c0-1.7,0-3.4,0-5.1c0-5.1,0-11,0-16c0-1.7,0-3.4,0-5.9c0-3.4,0-6.7,0-10.1
		c0-5.1,0-11,0-16c0-9.3,0-19.4,0-28.7c0-4.2,0-9.3,0-13.5c0-0.8,0-2.5,0-3.4c0-3.4,0-6.7,0.8-10.1c0.8-2.5,0.8-5.9,1.7-8.4
		c1.7,0,3.4,0,5.1,0c4.2,0,7.6,0,11.8,0c2.5,0.8,5.1,0.8,6.7,1.7c5.1,1.7,10.1,5.1,14.3,7.6c6.7,5.1,12.7,10.1,18.6,16
		c0.8,0.8,1.7,1.7,1.7,2.5c0.8,1.7,1.7,4.2,2.5,5.9c0.8,2.5,1.7,5.1,2.5,7.6c1.7,5.1,3.4,10.1,4.2,16c0-0.8,0-1.7,0-1.7
		c0,1.7,0.8,3.4,0.8,4.2C1799.7-163.2,1799.7-162.3,1799.7-160.6z M1713.6-220.5c0,1.7,0,2.5-0.8,4.2c0,1.7-0.8,4.2-0.8,5.9
		s0,4.2,0,5.9c0,3.4,0,5.9,0,9.3c0,5.1,0,10.1,0,15.2c0,1.7,0,3.4,0,5.1c0-1.7,0-4.2-0.8-5.9c0-2.5-0.8-5.1-0.8-7.6
		c0-2.5,0-5.1,0-7.6c0-2.5,0-5.1,0-7.6c0-2.5,0-5.1,0-7.6c0-3.4,0-7.6,0.8-11c0.8,0,1.7,0,2.5,0
		C1714.5-222.2,1714.5-221.4,1713.6-220.5z"/>
	<path d="M2021.5-196.1L2021.5-196.1L2021.5-196.1L2021.5-196.1z"/>
	<path d="M2081.4-304c0,1.7,0.8,4.2,2.5,5.1c0.8,0.8,2.5,1.7,4.2,1.7c0,0,0,0.8,0.8,0.8c0,0,0.8,0,0.8-0.8c2.5,0,5.1-0.8,6.7-2.5
		c1.7-1.7,3.4-4.2,5.9-5.9l0.8-0.8c3.4-1.7,5.9-4.2,9.3-5.9l0,0c0,0,0.8,0,0.8-0.8c1.7-1.7,4.2-2.5,5.9-4.2c1.7-0.8,3.4-1.7,5.9-3.4
		c1.7-1.7,4.2-2.5,5.9-4.2l0,0c1.7-0.8,4.2-2.5,6.7-3.4c0.8-0.8,2.5-1.7,2.5-2.5c0.8,0,0.8-0.8,1.7-0.8l0,0c0,0,0-0.8-0.8-0.8
		c0-1.7,0-3.4-0.8-5.1c-0.8-1.7-2.5-2.5-5.1-3.4l0,0c-0.8-0.8-1.7-1.7-1.7-2.5c-3.4,2.5-6.7,4.2-10.1,6.7l0,0
		c-0.8,0.8-1.7,0.8-2.5,1.7c-0.8,0-0.8,0.8-1.7,0.8c-0.8,0.8-2.5,1.7-3.4,2.5l0,0l0,0c-0.8,0.8-2.5,0.8-3.4,1.7
		c-2.5,1.7-5.1,3.4-6.7,5.1c-1.7,0.8-2.5,1.7-4.2,2.5c-2.5,1.7-4.2,3.4-6.7,5.1c0,0-0.8,0-0.8,0.8c-3.4,1.7-6.7,4.2-9.3,5.9
		c-0.8,0.8-2.5,1.7-3.4,2.5c0.8,0.8,1.7,2.5,2.5,3.4C2081.4-304.9,2081.4-304,2081.4-304z"/>
</g>
</svg>
