<?xml version="1.0" encoding="utf-8"?>
<!-- Generator: Adobe Illustrator 17.1.0, SVG Export Plug-In . SVG Version: 6.00 Build 0)  -->
<!DOCTYPE svg PUBLIC "-//W3C//DTD SVG 1.1//EN" "http://www.w3.org/Graphics/SVG/1.1/DTD/svg11.dtd">
<svg version="1.1" id="Layer_1" xmlns="http://www.w3.org/2000/svg" xmlns:xlink="http://www.w3.org/1999/xlink" x="0px" y="0px"
	 viewBox="0 0 136.4 106.7" enable-background="new 0 0 136.4 106.7" xml:space="preserve">
<g>
	<path d="M80.4,85.5C80.4,85.5,80.4,85.5,80.4,85.5C80.4,85.5,80.4,85.4,80.4,85.5C80.4,85.4,80.4,85.4,80.4,85.5
		C80.4,85.5,80.4,85.5,80.4,85.5z"/>
	<path d="M80.4,85.5C80.4,85.5,80.4,85.5,80.4,85.5C80.4,85.5,80.4,85.5,80.4,85.5C80.4,85.5,80.4,85.5,80.4,85.5z"/>
	<path d="M74.7,88c-0.1-0.8-0.3-1.5-0.4-2.3c-0.1-0.5-0.2-0.9-0.2-1.4c0-0.3-0.1-0.7-0.1-1c0-0.2-0.1-0.5-0.1-0.7
		c0-0.2-0.1-0.4-0.1-0.7c0-0.2,0-0.3,0-0.5c0,0,0,0,0,0c0,0,0,0,0,0c-0.1,0-0.2,0.1-0.3,0.1c0.1,0.4,0.2,0.7,0.2,1.1
		c0.1,0.5,0.2,1,0.3,1.5c0,0.2,0.1,0.4,0.2,0.6c0.1,0.2,0.1,0.5,0.2,0.7c0.1,0.5,0.2,1,0.2,1.4C74.5,87.3,74.6,87.7,74.7,88
		c0,0.2,0,0.4,0.1,0.6C74.7,88.4,74.7,88.2,74.7,88z"/>
	<path d="M82.4,85C82.4,85,82.4,85.1,82.4,85C82.4,85.1,82.4,85.1,82.4,85c0,0,0,0,0-0.1C82.3,84.9,82.3,85,82.4,85z"/>
	<path d="M81.4,90.6C81.4,90.6,81.4,90.6,81.4,90.6C81.4,90.6,81.4,90.6,81.4,90.6C81.4,90.6,81.4,90.6,81.4,90.6z"/>
	<polygon points="80.4,85.4 80.4,85.4 80.4,85.4 	"/>
	<path d="M53.9,101.7c0-0.5,0-1.1,0-1.6c0-0.6,0-1.2,0-1.8c0-1.2,0-2.5,0-3.7c0-0.6,0-1.3,0-1.9c0-0.6,0.1-1.2,0.1-1.8
		c0-0.6,0-1.2,0-1.9c0-0.3,0-0.6,0.1-0.9c0-0.3,0.1-0.6,0.1-0.9c0-0.3,0.1-0.5,0.1-0.8c0-0.3,0-0.5,0-0.8c0-0.6,0.1-1.2,0.2-1.8
		c0.1-0.7,0.1-1.3,0.3-2c0.1-0.6,0.3-1.1,0.4-1.7c0-0.2,0.1-0.4,0.1-0.7c0-0.1,0-0.2,0-0.3c-0.3-0.1-0.6-0.2-0.9-0.3
		c0,0.1,0,0.2,0,0.3c-0.1,0.4-0.1,0.8-0.2,1.2c-0.1,1-0.2,1.9-0.3,2.9c-0.1,0.5-0.1,1-0.2,1.5c-0.1,0.5-0.2,1-0.3,1.6
		c-0.1,0.6-0.1,1.1-0.2,1.7c-0.1,0.6-0.1,1.3-0.1,1.9c0,0.3,0,0.7,0,1c0,0.3-0.1,0.6-0.1,0.9c-0.1,0.6-0.1,1.2-0.2,1.9
		c0,0.3,0,0.6,0,0.9c0,0.3-0.1,0.6-0.1,0.9c-0.1,0.4-0.1,0.9-0.1,1.3c0,0.4-0.1,0.8-0.1,1.2c0,0.4,0,0.9,0,1.3c0,0.4,0,0.8,0,1.2
		c0,0.3,0.1,0.5,0.2,0.8c0.1,0.1,0.1,0.2,0.2,0.3c0,0,0.1,0.1,0.1,0.1c0.1,0.1,0.1,0.1,0.2,0.2c0.2,0.1,0.4,0.2,0.6,0.3
		c0.1,0,0.1,0,0.2,0C53.9,101.9,53.9,101.8,53.9,101.7z"/>
	<path d="M45.3,75.8c0,0.1,0,0.3,0,0.4c0,0.3-0.1,0.6-0.1,0.9c0,0.2-0.1,0.5-0.2,0.7c-0.1,0.5-0.3,1-0.4,1.5
		c-0.1,0.4-0.1,0.8-0.2,1.2c-0.1,0.5-0.1,0.9-0.2,1.4c0,0,0,0.1,0,0.1c0.1-0.4,0.2-0.9,0.3-1.3c0.1-0.3,0.1-0.6,0.2-0.9
		c0.1-0.3,0.2-0.6,0.2-0.9c0.2-0.6,0.3-1.2,0.5-1.8c0.1-0.3,0.1-0.6,0.2-0.8c0-0.1,0-0.2,0.1-0.3C45.6,75.9,45.5,75.8,45.3,75.8z"/>
	<path d="M28.3,88.3c0-0.2,0-0.4,0-0.6c0-0.2,0-0.3,0-0.5c0-0.6,0-1.3,0-1.9c0-0.6,0-1.3,0-1.9c0-0.6,0-1.2-0.1-1.8
		c0-0.6,0-1.3,0-1.9c0-0.6,0-1.3,0-1.9c0-0.6,0.1-1.2,0.1-1.9c0-1.3,0-2.6,0-3.8c0-1.2,0-2.4,0.1-3.7c0-0.3,0-0.6,0.1-0.9
		c0-0.3,0.1-0.6,0.1-0.9c0-0.3,0.1-0.6,0.1-0.9c0-0.3,0-0.6,0-0.9c-0.1,0-0.2-0.1-0.3-0.1c-0.4-0.2-0.9-0.4-1.3-0.6
		c0,0.2,0,0.4,0,0.6c0,0.3,0,0.6-0.1,0.8c0,0.3-0.1,0.5-0.1,0.8c-0.1,0.6-0.1,1.1-0.1,1.7c0,0.5-0.1,1.1-0.1,1.6
		c0,0.3-0.1,0.6-0.1,0.9c0,0.3,0,0.6,0,1c0,0.6-0.1,1.2-0.1,1.9c0,0.6,0,1.2,0,1.8c0,0.6-0.1,1.2-0.1,1.8c0,0.6,0,1.2,0,1.8
		c0,0.3,0,0.6,0,0.9c0,0.3,0,0.6,0,0.9c0,0.6,0,1.2,0,1.8c0,0.6,0.1,1.2,0.1,1.9c0,1.2,0,2.5,0,3.7c0,0.6,0.1,1.2,0.2,1.8
		c0,0.3,0.1,0.6,0.1,0.9c0,0.3,0,0.5,0,0.8c0,0.2,0.1,0.3,0.1,0.5c0-0.1,0.1-0.1,0.1-0.2c0.4-0.7,0.7-1.3,1.1-2
		c0-0.1,0.1-0.2,0.1-0.3C28.2,89.2,28.2,88.7,28.3,88.3z"/>
	<path d="M130.1,74.2C130.1,74.2,130.1,74.2,130.1,74.2C130.1,74.2,130.1,74.2,130.1,74.2C130.1,74.2,130.1,74.2,130.1,74.2z"/>
	<path d="M132.2,70.3c-0.1-0.2-0.2-0.5-0.3-0.7c-0.3-0.6-0.7-1.3-1-1.9c-0.2-0.6-0.4-1.2-0.7-1.7c-0.1-0.1-0.1-0.3-0.2-0.4
		c-0.1-0.1-0.1-0.2-0.2-0.3c-0.3-0.3-0.7-0.6-1-0.9c-0.2-0.2-0.4-0.4-0.6-0.6c-0.1-0.1-0.3-0.3-0.5-0.4c-0.2-0.1-0.5-0.3-0.7-0.4
		c-0.2-0.1-0.5-0.3-0.7-0.5c-0.2-0.2-0.5-0.3-0.8-0.5c-0.3-0.1-0.5-0.3-0.8-0.4c-0.5-0.3-1-0.6-1.6-0.8c-0.2-0.1-0.3-0.1-0.5-0.2
		c0,0,0,0,0,0c0,0,0,0,0,0c-0.1,0-0.1,0-0.2-0.1c-0.5-0.2-1.1-0.3-1.7-0.4c-0.3-0.1-0.6-0.1-0.9-0.2c-0.2,0-0.4-0.1-0.7-0.1
		c-0.9-0.1-1.7-0.2-2.6-0.2c-0.4,0-0.9,0-1.3,0c-0.4,0-0.8,0-1.1,0c-0.4,0.1-0.7,0.1-1.1,0.2c-0.4,0.1-0.9,0.2-1.3,0.3
		c-0.4,0.1-0.8,0.2-1.2,0.3c-0.4,0.1-0.7,0.2-1.1,0.3c-0.2,0.1-0.4,0.1-0.6,0.2c-0.1,0-0.1,0-0.2,0.1c-0.1,0-0.1,0.1-0.2,0.1
		c-0.5,0.3-1.1,0.6-1.6,0.9c-0.1,0.1-0.3,0.1-0.4,0.2c-0.1,0.1-0.3,0.1-0.4,0.2c-0.3,0.1-0.5,0.3-0.8,0.4c-0.3,0.1-0.5,0.3-0.8,0.5
		l0,0c-0.2,0.2-0.5,0.3-0.8,0.5l-0.1,0l-0.1,0.1c-0.5,0.2-0.9,0.5-1.4,0.7c-0.5,0.3-1.1,0.5-1.6,0.8c-0.5,0.2-1.1,0.5-1.8,0.9
		c-0.6,0.3-1.1,0.6-1.6,0.9c-0.4,0.3-0.9,0.6-1.4,0.9c-0.5,0.3-1,0.5-1.4,0.8c-0.5,0.3-1,0.5-1.5,0.8l-0.3,0.2
		c-0.4,0.2-0.8,0.4-1.1,0.7l-0.1,0c-0.4,0.2-0.8,0.5-1.2,0.7c-0.5,0.3-1,0.5-1.4,0.7c-0.5,0.2-1,0.5-1.4,0.7
		c-0.4,0.3-0.8,0.5-1.2,0.8c-0.3,0.2-0.6,0.5-1,0.7l-0.1,0.1c-0.3,0.2-0.6,0.5-0.9,0.7c-0.4,0.3-0.9,0.5-1.3,0.7
		c-0.2,0.1-0.3,0.1-0.5,0.2C82.3,75.9,82.1,76,82,76l-0.1,0l0,0l-0.2,0.1c-0.2,0.1-0.4,0.2-0.6,0.2c-0.1,0-0.1,0-0.2,0.1
		c-0.2,0.1-0.5,0.1-0.7,0.2c-0.3,0.1-0.6,0.2-0.9,0.2c-0.2,0.1-0.4,0.1-0.6,0.2c-0.4,0.1-0.8,0.2-1.1,0.2l-0.1,0c-0.1,0-0.2,0-0.3,0
		c-0.5,0.1-1.1,0.2-1.6,0.3c-0.6,0.1-1.1,0.2-1.6,0.3c-0.7,0.1-1.3,0.2-1.8,0.2c-0.3,0-0.5,0-0.9,0c-0.2,0-0.3,0-0.5,0l-0.3,0
		c-0.6,0-1.2,0-1.8,0c-0.6,0-1.3,0-1.9,0c-0.5,0-0.9-0.1-1.4-0.1l-0.2,0c-0.1,0-0.2,0-0.3,0c-0.8-0.1-1.5-0.1-2.2-0.2
		c-0.7-0.1-1.4-0.2-2-0.3c-0.3-0.1-0.6-0.1-1-0.2c-0.1,0-0.3-0.1-0.4-0.1l0,0c-0.1,0-0.2-0.1-0.3-0.1c-0.3-0.1-0.6-0.2-0.9-0.2
		l-0.1,0l0,0c-0.3-0.1-0.5-0.1-0.8-0.2c-0.3-0.1-0.6-0.2-0.8-0.2c-0.4-0.1-0.8-0.2-1.1-0.3c-0.3-0.1-0.6-0.2-1-0.3
		c-0.3-0.1-0.5-0.2-0.8-0.3l-0.1,0l0,0c-0.5-0.2-1.1-0.3-1.7-0.5c-0.3-0.1-0.5-0.2-0.8-0.3l-0.2-0.1c-0.3-0.1-0.7-0.3-1-0.4
		c-0.6-0.3-1.1-0.6-1.6-0.9c-0.3-0.2-0.5-0.4-0.8-0.5l0,0l-0.1,0l-0.1-0.1c-0.2-0.1-0.4-0.2-0.6-0.3c-0.6-0.4-1.2-0.7-1.8-0.9
		l-0.3-0.1l0,0c-0.5-0.2-1-0.5-1.5-0.8c-0.6-0.3-1.1-0.7-1.7-1l-0.3-0.2c-0.4-0.3-0.9-0.6-1.3-0.9c-0.5-0.3-0.9-0.6-1.3-0.8
		c-0.6-0.3-1-0.6-1.5-1c-0.3-0.2-0.5-0.4-0.8-0.6l-0.1-0.1c-0.1-0.1-0.3-0.2-0.4-0.3c-0.4-0.3-0.8-0.6-1.2-0.9
		c-0.5-0.3-0.9-0.6-1.4-0.9l0,0c-0.7-0.4-1.5-0.9-2.2-1.4c-0.4-0.3-0.8-0.6-1.2-0.9l-0.2-0.1L29.2,61c-0.4-0.4-0.9-0.7-1.4-1.1
		c-0.1-0.1-0.3-0.2-0.4-0.3c-0.2-0.1-0.3-0.2-0.5-0.3l-0.1-0.1c-0.3-0.2-0.6-0.3-0.9-0.5l0,0l-0.2-0.1c-0.8-0.4-1.5-0.7-2.3-1
		c-0.5-0.2-0.9-0.3-1.3-0.3c-0.3,0-0.7,0-1,0c-0.1,0-0.2,0-0.3,0l-0.1,0c-0.1,0-0.2,0-0.3,0l-0.2,0l-0.2,0c-0.3,0-0.7,0-1,0
		c-1,0-1.9,0-2.8,0.1c-0.2,0-0.4,0.1-0.6,0.1l0,0C15,57.7,14.6,57.8,14,58c-0.2,0.1-0.5,0.2-0.7,0.3l0,0c-0.2,0.1-0.4,0.2-0.7,0.3
		l-0.3,0.1l-0.1,0.1c-0.3,0.1-0.7,0.3-1,0.5c-0.3,0.2-0.6,0.3-1,0.5l-0.1,0C10.2,60,10,60,9.9,60.1c-0.2,0.1-0.4,0.2-0.6,0.4
		l-0.1,0.1c-0.1,0.1-0.2,0.1-0.4,0.2c-0.3,0.2-0.5,0.4-0.7,0.6l0,0c-0.1,0.1-0.2,0.2-0.4,0.3c-0.4,0.3-0.7,0.6-1,1
		c0,0.1-0.1,0.1-0.1,0.2c-0.3,0.7-0.6,1.4-0.9,2c-0.2,0.3-0.3,0.6-0.4,0.8c0,0-0.1,0.1-0.1,0.1c0,0.1-0.1,0.1-0.1,0.2
		C5.1,66,5,66.1,5,66.1l-0.1,0.1l0,0c-0.1,0.1-0.1,0.2-0.2,0.3c0,0.1-0.1,0.2-0.1,0.3c-0.1,0.3-0.2,0.5-0.3,0.7c0,0.1,0,0.2-0.1,0.3
		c-0.1,0.2-0.1,0.4-0.2,0.6C4,68.8,4,69.2,4,69.6l0,0.1v0.1c0,0.2,0,0.5,0,0.7l0,0c0,0.3,0,0.6,0,0.9c0,0.2,0,0.3,0.1,0.5l0,0
		c0,0.1,0,0.3,0,0.4c0,0.2,0,0.5,0,0.7l0,0.2c0,0.4,0.1,0.7,0.1,1.1l0,0c0.1,0.6,0.2,1.2,0.3,1.7l0,0c0.1,0.3,0.1,0.6,0.2,0.8
		c0.1,0.3,0.3,0.7,0.5,1.1l0.1,0.2l0,0.1c0.1,0.2,0.2,0.3,0.2,0.5C5.9,78.9,5.9,79,6,79.2l0,0l0,0c0.1,0.2,0.2,0.3,0.2,0.5
		c0.1,0.1,0.1,0.3,0.2,0.4l0,0l0,0c0.1,0.2,0.3,0.5,0.4,0.7l0.1,0.1c0.1,0.2,0.2,0.5,0.3,0.7c0.1,0.2,0.3,0.5,0.4,0.7l0.1,0.1
		c0.2,0.3,0.4,0.6,0.5,0.8c0.1,0.1,0.1,0.1,0.2,0.2l0,0c0.1,0.2,0.3,0.3,0.4,0.5c0.2,0.2,0.3,0.5,0.5,0.7l0,0l0,0
		c0.2,0.3,0.3,0.6,0.5,0.8c0.1,0.1,0.2,0.3,0.3,0.4c0,0,0.1,0.1,0.1,0.1c0.1,0.1,0.2,0.3,0.3,0.4c0.1,0.1,0.3,0.3,0.4,0.4l0,0
		c0.1,0.1,0.1,0.1,0.2,0.2c0.1,0.1,0.2,0.2,0.3,0.3l0,0c0.1,0.1,0.2,0.2,0.3,0.3c0.3,0.3,0.6,0.5,0.8,0.7c0.3,0.2,0.5,0.3,0.8,0.4
		l0,0l0.2,0.1c0.1,0.1,0.3,0.2,0.5,0.3c0.1,0.1,0.2,0.3,0.4,0.4c0.3,0.3,0.6,0.6,0.9,0.8l0.3,0.2c0.2,0.2,0.5,0.4,0.7,0.6
		c0.1,0.1,0.3,0.3,0.4,0.4c0.1,0.1,0.3,0.2,0.4,0.4l0.1,0.1c0.3,0.2,0.5,0.5,0.8,0.7l0.2,0.2c0.2,0.2,0.4,0.5,0.7,0.7
		c0.1,0.1,0.2,0.2,0.2,0.3c0.1,0.1,0.2,0.1,0.3,0.2c0.1,0,0.1,0.1,0.2,0.1l0.1,0.1l0.1,0.1c0.1,0,0.1,0.1,0.2,0.1
		c0.1,0.1,0.2,0.2,0.2,0.3l0,0c0.1,0.1,0.1,0.2,0.1,0.4c0.1,0.1,0.2,0.1,0.3,0.2c0.3,0.2,0.6,0.4,0.9,0.6l0,0
		c0.2,0.1,0.3,0.2,0.5,0.3c0.2,0.1,0.4,0.3,0.6,0.4l0,0c0.3,0.2,0.6,0.4,0.8,0.5c0.1,0.1,0.2,0.1,0.4,0.2c0.4,0.2,0.8,0.5,1.2,0.7
		c0.5,0.3,1,0.6,1.6,1c0.4,0.2,0.8,0.4,1.2,0.7l0,0l0.3,0.2c0.1,0,0.1,0.1,0.2,0.1l0,0c0,0,0,0,0,0l0,0l0,0c0.2,0.1,0.3,0.2,0.5,0.3
		c0.3,0.1,0.6,0.3,0.9,0.4c0.2,0.1,0.4,0.2,0.6,0.2c0.4,0.2,0.7,0.3,1.1,0.5c0.5,0.2,1,0.4,1.4,0.6l0,0c0.5,0.2,1.1,0.4,1.6,0.5
		c0.6,0.2,1.2,0.3,1.8,0.5c0.4,0.1,0.8,0.2,1.2,0.3l0,0c0.2,0.1,0.4,0.1,0.6,0.2c1.4,0.4,2.6,0.8,3.8,1.2c0.7,0.2,1.3,0.4,1.9,0.6
		c0.7,0.2,1.3,0.4,1.8,0.6c0.6,0.2,1.3,0.3,2.1,0.4l0.4,0.1l0.1,0c0.5,0.1,0.9,0.2,1.4,0.2c0.4,0,0.7,0.1,1.1,0.1c0.1,0,0.3,0,0.5,0
		c0.1,0,0.2,0,0.3,0c0.1,0,0.2,0,0.3,0c1.7,0,3.4,0,5,0c1.7,0,3.4,0,5,0c2.3,0,4.1,0,5.9,0c1.6,0,2.9,0,4.1-0.1c0.3,0,0.7,0,1.1,0
		c0.3,0,0.6,0,0.9,0c0.4,0,0.8,0,1.2,0h0c0.2,0,0.5,0,0.7,0c0.7,0,1.4-0.1,2.1-0.1c0.6,0,1.2-0.1,1.9-0.1c0.3,0,0.5,0,0.8,0l0.1,0
		c0.3,0,0.7,0,1,0c0.7,0,1.3-0.1,1.9-0.1c0.3,0,0.6-0.1,0.9-0.1c0.3-0.1,0.6-0.1,0.9-0.2l0,0l0,0c0.2-0.1,0.4-0.1,0.7-0.2
		c0.3-0.1,0.7-0.2,1.1-0.3l0.2-0.1c0.5-0.1,1-0.2,1.5-0.4c0.5-0.2,1.1-0.3,1.6-0.5c0.5-0.2,1-0.4,1.4-0.6c0.5-0.2,1.1-0.5,1.7-0.7
		c0.5-0.2,1.1-0.4,1.6-0.6l0,0l0,0c0.4-0.1,0.9-0.3,1.3-0.5c0.2-0.1,0.4-0.2,0.6-0.2c0.3-0.2,0.6-0.3,0.8-0.4
		c0.4-0.2,0.8-0.4,1.3-0.6c0.3-0.1,0.7-0.3,1-0.4l0.1-0.1l0.4-0.1c0.5-0.2,1.1-0.5,1.6-0.7c0.4-0.2,0.8-0.4,1.2-0.6
		c0.6-0.3,1.2-0.7,1.8-0.9c0.5-0.2,1.1-0.4,1.9-0.6c0.5-0.2,1-0.3,1.4-0.5c0.3-0.1,0.6-0.3,0.9-0.4l0.4-0.2L110,96
		c0.2-0.1,0.4-0.2,0.6-0.3c0.5-0.3,1-0.5,1.5-0.7l0.3-0.2l0,0c0.4-0.2,0.8-0.3,1.2-0.5c0.4-0.2,0.8-0.4,1.2-0.7
		c0.3-0.2,0.6-0.5,0.9-0.7c0.4-0.3,0.7-0.6,1.1-0.9c0.6-0.5,1.3-0.9,2-1.3c0.2-0.1,0.4-0.2,0.6-0.3c0.3-0.2,0.7-0.5,1-0.7
		c0.3-0.3,0.7-0.7,1.1-1c0.2-0.2,0.3-0.3,0.5-0.5l0,0c0.1-0.1,0.3-0.3,0.4-0.4c0.3-0.3,0.6-0.7,1-1c0.4-0.3,0.7-0.6,1.2-0.9
		c0.1-0.1,0.2-0.1,0.2-0.2l0.1,0c0.3-0.2,0.6-0.4,0.8-0.6c0.3-0.3,0.7-0.6,1.1-1c0.2-0.3,0.5-0.5,0.8-0.9l0.1-0.1
		c0.2-0.2,0.3-0.4,0.5-0.6l0.1-0.2c0.1-0.2,0.3-0.4,0.4-0.5c0.4-0.6,0.9-1.1,1.3-1.6c0.3-0.3,0.5-0.6,0.6-0.8
		c0.2-0.3,0.4-0.6,0.5-0.8c0.4-0.6,0.7-1.1,0.9-1.7c0.1-0.3,0.2-0.6,0.3-0.8c0-0.2,0.1-0.4,0.1-0.5c0.1-0.5,0.1-1,0.1-1.4
		c0-0.5,0-1,0-1.5c0-0.4,0-0.8,0-1.3C132.4,70.9,132.3,70.6,132.2,70.3z M18.9,69.6c0.2-0.1,0.4-0.2,0.6-0.2c0.3,0,0.6,0.1,0.8,0.3
		c0.2,0.2,0.5,0.4,0.6,0.6c0.1,0.2,0.2,0.4,0.2,0.6c0,0.1,0,0.1,0,0.2c0,0.2,0,0.4,0,0.5c0,0.2,0,0.3-0.1,0.5c0,0.1,0,0.2-0.1,0.3
		c0,0.2-0.1,0.3-0.2,0.5c-0.1,0.2-0.2,0.3-0.3,0.4c-0.2,0.2-0.4,0.3-0.6,0.4c-0.2,0.1-0.4,0.2-0.6,0.2c-0.2,0-0.4,0.1-0.6,0.1
		c-0.4,0-0.8-0.1-1.1-0.2c-0.3-0.1-0.7-0.4-0.8-0.7c-0.1-0.2-0.1-0.3-0.2-0.4c0-0.1-0.1-0.3,0-0.4c0-0.3,0-0.6,0.1-0.9
		c0.1-0.3,0.2-0.6,0.4-0.8c0.2-0.2,0.4-0.5,0.6-0.7c0.2-0.2,0.5-0.3,0.8-0.3C18.6,69.5,18.8,69.6,18.9,69.6z M10.7,64.5
		c-0.2,0.2-0.4,0.4-0.7,0.7c-0.1,0.1-0.2,0.2-0.3,0.4c-0.2,0.2-0.3,0.4-0.5,0.7c-0.1,0.1-0.2,0.2-0.3,0.2c-0.1,0-0.3,0-0.4,0
		c-0.2-0.1-0.4-0.4-0.2-0.6c0.3-0.5,0.7-0.9,1.1-1.3c0.4-0.4,0.7-0.7,1.1-1.1c0.5-0.5,1.2-0.9,1.9-1.2c0.2-0.1,0.5-0.2,0.8-0.3
		c0.2-0.1,0.5-0.2,0.7-0.3c0.5-0.2,1.1-0.5,1.6-0.7c0.2-0.1,0.5-0.2,0.7-0.2c0.3-0.1,0.6-0.1,0.8-0.2c0.1,0,0.2-0.1,0.4-0.1
		c0.1,0,0.2-0.1,0.3-0.1c0,0,0.1,0,0.1,0c0.1,0,0.2,0.1,0.3,0.2c0.1,0.1,0.1,0.2,0.1,0.4c0,0.1-0.1,0.2-0.2,0.3
		c-0.2,0.1-0.5,0.2-0.8,0.3c-0.1,0-0.2,0-0.2,0.1c-0.2,0-0.3,0.1-0.5,0.1c-0.3,0.1-0.6,0.2-0.9,0.3c-0.6,0.3-1.3,0.6-1.9,0.9
		c-0.7,0.3-1.4,0.6-2,1C11.3,63.9,11,64.3,10.7,64.5z M18.2,87.7c-0.1,0.2-0.5,0.3-0.7,0.2c-0.2-0.1-0.5-0.3-0.7-0.4
		c-0.2-0.1-0.3-0.2-0.5-0.3c-0.2-0.1-0.3-0.2-0.5-0.4c-0.4-0.3-0.8-0.7-1.2-1.1c-0.2-0.2-0.4-0.4-0.6-0.6c-0.2-0.2-0.4-0.4-0.6-0.6
		c-0.2-0.2-0.4-0.4-0.6-0.6c-0.2-0.2-0.4-0.4-0.6-0.6c-0.4-0.4-0.8-0.8-1.2-1.3C11,81.9,11,81.7,11,81.6c0-0.1,0.1-0.2,0.2-0.3
		c0.1,0,0.2-0.1,0.3-0.1c0,0,0.1,0,0.1,0c0.1,0,0.2,0.1,0.3,0.2c0.1,0.1,0.2,0.2,0.3,0.3c0.1,0.1,0.1,0.2,0.2,0.2
		c0.4,0.4,0.8,0.8,1.1,1.1c0.4,0.4,0.8,0.8,1.1,1.2c0.2,0.2,0.4,0.4,0.6,0.6c0.2,0.2,0.3,0.3,0.5,0.5c0.1,0.1,0.3,0.2,0.4,0.4
		c0.1,0.1,0.2,0.2,0.3,0.2c0.2,0.2,0.5,0.4,0.7,0.6c0.2,0.1,0.5,0.3,0.7,0.4C18.2,87.1,18.3,87.4,18.2,87.7z M20.1,86.5
		c-0.1,0.1-0.2,0.2-0.3,0.2c-0.1,0-0.3,0-0.4,0c-0.3-0.2-0.7-0.4-1-0.7c-0.2-0.2-0.4-0.3-0.6-0.5c-0.2-0.2-0.4-0.4-0.6-0.5
		c-0.1-0.1-0.2-0.2-0.3-0.3c-0.1-0.1-0.1-0.1-0.2-0.2c-0.4-0.4-0.8-0.8-1.2-1.2c-0.2-0.2-0.4-0.4-0.7-0.6c-0.2-0.2-0.4-0.4-0.7-0.5
		c-0.2-0.2-0.2-0.5,0-0.7c0.1-0.1,0.2-0.1,0.4-0.1c0.1,0,0.3,0.1,0.4,0.1c0.2,0.2,0.5,0.4,0.7,0.6c0.2,0.2,0.4,0.4,0.6,0.6
		c0.4,0.4,0.8,0.7,1.2,1.1c0.2,0.2,0.4,0.4,0.6,0.5c0.1,0.1,0.2,0.2,0.3,0.2c0.1,0.1,0.2,0.1,0.3,0.2c0.4,0.3,0.8,0.7,1.2,1
		c0.1,0.1,0.2,0.1,0.3,0.2c0.1,0.1,0.2,0.2,0.2,0.3C20.1,86.3,20.1,86.4,20.1,86.5z M20.8,83.1c-0.1,0.2-0.5,0.3-0.7,0.2
		c-0.4-0.2-0.9-0.5-1.3-0.7c-0.4-0.3-0.8-0.5-1.1-0.8c-0.3-0.3-0.7-0.5-1-0.8c-0.2-0.1-0.3-0.3-0.5-0.4c-0.1-0.1-0.2-0.1-0.3-0.2
		c-0.1,0-0.1-0.1-0.2-0.1c-0.4-0.3-0.8-0.5-1.2-0.8c-0.1-0.1-0.2-0.2-0.2-0.3c0-0.1,0.1-0.2,0.2-0.3c0.1-0.1,0.2-0.1,0.4-0.1
		c0.1,0,0.2,0,0.3,0.1c0,0,0.1,0,0.1,0.1c0.1,0.1,0.2,0.1,0.3,0.2c0.3,0.2,0.6,0.4,0.9,0.6c0.2,0.1,0.3,0.2,0.5,0.3
		c0.1,0.1,0.3,0.2,0.4,0.4c0.6,0.4,1.2,0.9,1.8,1.3c0.2,0.1,0.4,0.3,0.7,0.4c0.3,0.2,0.5,0.3,0.8,0.4C20.8,82.6,20.9,82.9,20.8,83.1
		z M21.9,79c-0.1,0.1-0.2,0.2-0.3,0.2c-0.1,0-0.3,0-0.4,0c-0.4-0.3-0.9-0.5-1.3-0.8c-0.4-0.2-0.9-0.5-1.3-0.7
		c-0.2-0.1-0.3-0.4-0.2-0.6c0.1-0.1,0.3-0.2,0.5-0.2c0.1,0,0.2,0,0.3,0.1c0.4,0.2,0.9,0.5,1.3,0.7c0.5,0.2,0.9,0.5,1.3,0.8
		c0.1,0.1,0.2,0.2,0.2,0.3C22,78.8,21.9,78.9,21.9,79z M33.1,67.6c0.1,0,0.2-0.1,0.3-0.1c0.2,0,0.4,0.1,0.5,0.2
		c0.1,0.1,0.2,0.2,0.3,0.3c0.1,0.1,0.1,0.1,0.2,0.2c0.2,0.3,0.5,0.5,0.7,0.8c0.2,0.2,0.3,0.3,0.5,0.5c0.2,0.2,0.3,0.4,0.4,0.6
		c0.1,0.2,0.1,0.5-0.2,0.6c-0.3,0.1-0.6,0.1-0.7-0.2c-0.1-0.2-0.3-0.4-0.4-0.6c-0.3-0.3-0.5-0.5-0.8-0.8c-0.3-0.3-0.6-0.6-0.8-1
		C32.7,68.1,32.8,67.8,33.1,67.6z M32.8,70.3c0.1,0,0.2-0.1,0.3-0.1c0.2,0,0.4,0.1,0.5,0.2c0.2,0.2,0.3,0.5,0.4,0.7
		c0.2,0.3,0.3,0.5,0.5,0.8c0.1,0.1,0.1,0.2,0.1,0.4c0,0.1-0.1,0.2-0.2,0.3c-0.2,0.1-0.6,0.1-0.7-0.2c-0.2-0.3-0.3-0.6-0.5-0.8
		c-0.1-0.2-0.3-0.5-0.4-0.7C32.5,70.7,32.6,70.4,32.8,70.3z M32.4,72.6c0.1,0,0.2,0,0.3,0.1c0.1,0.1,0.2,0.2,0.2,0.3
		c0.1,0.2,0.2,0.4,0.3,0.7c0.1,0.2-0.1,0.5-0.4,0.6c-0.1,0-0.3,0-0.4,0c-0.1-0.1-0.2-0.2-0.2-0.3c-0.1-0.2-0.2-0.4-0.3-0.7
		c-0.1-0.2,0.1-0.5,0.4-0.6C32.3,72.6,32.3,72.6,32.4,72.6z M49.4,76.9c-0.3,0.4-0.9,0.6-1.4,0.3c-0.2-0.1-0.3-0.2-0.5-0.3
		c-0.1,0.3-0.1,0.5-0.2,0.8c-0.1,0.6-0.3,1.2-0.4,1.7c-0.1,0.3-0.2,0.6-0.3,0.9c-0.1,0.3-0.1,0.6-0.2,0.9c-0.1,0.3-0.1,0.6-0.2,0.9
		c-0.1,0.3-0.1,0.6-0.2,0.9c-0.1,0.6-0.2,1.2-0.4,1.9c-0.1,0.3-0.2,0.7-0.3,1c-0.1,0.3-0.1,0.6-0.2,0.8c-0.3,1.3-0.5,2.6-0.8,3.8
		c-0.2,0.6-0.3,1.3-0.5,1.9c-0.2,0.6-0.3,1.2-0.5,1.8c-0.2,0.6-0.4,1.2-0.6,1.8c-0.1,0.3-0.2,0.6-0.3,1c-0.1,0.3-0.2,0.6-0.3,0.9
		c-0.1,0.3-0.2,0.6-0.3,0.9c-0.1,0.3-0.2,0.6-0.3,1c-0.1,0.2-0.2,0.4-0.3,0.6c0,0.1-0.1,0.1-0.1,0.2c-0.1,0.1-0.2,0.3-0.4,0.4
		c-0.2,0.1-0.3,0.1-0.6,0.1c-0.2,0-0.4,0-0.5-0.1c-0.2-0.1-0.4-0.3-0.5-0.5c-0.1-0.3-0.3-0.5-0.4-0.8c-0.1-0.3-0.3-0.5-0.4-0.8
		c-0.2-0.3-0.3-0.6-0.5-1c-0.1-0.3-0.2-0.6-0.4-0.9c-0.1-0.3-0.3-0.6-0.4-0.9c-0.1-0.3-0.2-0.6-0.3-0.8c-0.1-0.3-0.2-0.7-0.3-1
		c-0.1-0.3-0.2-0.6-0.2-0.9c-0.1-0.3-0.1-0.6-0.2-0.9c-0.1-0.6-0.2-1.3-0.3-1.9c0-0.3-0.1-0.6-0.2-0.9c-0.1-0.3-0.1-0.6-0.2-0.9
		c-0.2-0.6-0.3-1.2-0.5-1.9c-0.2-0.6-0.3-1.2-0.4-1.9c-0.1-0.6-0.3-1.2-0.4-1.9c-0.1-0.6-0.2-1.2-0.3-1.9c0-0.2-0.1-0.3-0.1-0.5
		c-0.1,0.3-0.3,0.6-0.4,0.9c-0.2,0.4-0.3,0.8-0.5,1.2c-0.2,0.6-0.5,1.1-0.8,1.7c-0.1,0.3-0.3,0.6-0.4,0.9c-0.1,0.3-0.2,0.6-0.3,0.9
		c-0.3,0.6-0.5,1.3-0.7,1.9c-0.2,0.5-0.4,1-0.6,1.4c0,0.1,0,0.1-0.1,0.2c0,0,0,0.1,0,0.1c-0.3,0.6-0.6,1.3-1,1.9
		c-0.2,0.3-0.3,0.6-0.5,0.8c-0.2,0.3-0.3,0.5-0.5,0.8c-0.1,0.1-0.2,0.3-0.2,0.4c0,0.1-0.1,0.2-0.1,0.3c-0.1,0.1-0.1,0.3-0.2,0.4
		c-0.1,0.1-0.3,0.3-0.5,0.4c-0.2,0.1-0.3,0.1-0.5,0.1c-0.2,0-0.4-0.1-0.5-0.1c-0.1-0.1-0.3-0.2-0.4-0.3c-0.1-0.1-0.1-0.3-0.2-0.4
		c0-0.1,0-0.1,0-0.2c-0.1-0.5-0.2-1.1-0.4-1.7c-0.1-0.3-0.1-0.6-0.2-0.9c-0.1-0.4-0.1-0.7-0.1-1.1c0-0.6-0.1-1.2-0.2-1.8
		c-0.1-0.6-0.1-1.2-0.1-1.8c0-0.6,0-1.2,0-1.8c0-1.2-0.1-2.5-0.1-3.7c0-0.3,0-0.6,0-0.9c0-0.3,0-0.6,0-0.9c0-0.6,0-1.2,0-1.9
		c0-0.6,0-1.2,0-1.8c0-0.6,0.1-1.2,0.1-1.8c0-0.6,0-1.3,0-1.9c0-0.6,0-1.3,0.1-1.9c0-0.6,0.1-1.2,0.2-1.8c0-0.6,0-1.3,0.1-1.9
		c0-0.3,0.1-0.6,0.1-0.9c0-0.3,0.1-0.6,0.1-0.9c0-0.3,0.1-0.6,0.1-0.9c0-0.4,0-0.7,0-1.1c0,0-0.1-0.1-0.1-0.1
		c-0.6-0.4-1.2-0.8-1.7-1.2c-0.4-0.3-0.4-0.9,0-1.3c0.2-0.2,0.4-0.3,0.7-0.3c0.3,0,0.5,0.1,0.7,0.3c0.2,0.2,0.4,0.3,0.6,0.4
		c0.4,0.3,0.9,0.6,1.3,0.9c0.5,0.3,0.9,0.6,1.4,0.8c0.5,0.2,1,0.5,1.6,0.7c0.3,0.1,0.5,0.2,0.8,0.3c0.1,0,0.2,0.1,0.3,0.1
		c0.1,0,0.2,0.1,0.3,0.1c0.2,0.1,0.3,0.2,0.5,0.3c0.5,0.2,0.6,0.8,0.4,1.2c-0.3,0.4-0.8,0.5-1.3,0.4c0,0,0,0,0,0.1
		c0,0.4-0.1,0.7-0.1,1.1c-0.1,0.6-0.1,1.2-0.1,1.9c0,0.6,0,1.2,0,1.8c0,1.3,0,2.5,0,3.8c0,0.7,0,1.3,0,2c0,0.6-0.1,1.3-0.1,1.9
		c0,0.6,0,1.2,0,1.8c0,0.6,0,1.2,0,1.9c0,0.6,0,1.3,0,1.9c0,0.2,0,0.4,0,0.6c0.2-0.5,0.4-1,0.7-1.5c0.3-0.6,0.5-1.3,0.8-1.9
		c0.2-0.6,0.5-1.1,0.7-1.7c0.1-0.3,0.2-0.6,0.3-0.9c0.1-0.2,0.1-0.4,0.2-0.5c0.1-0.1,0.1-0.2,0.2-0.3c0.2-0.1,0.3-0.2,0.5-0.2
		c0.2-0.1,0.6,0,0.8,0.1c0.1,0.1,0.2,0.1,0.3,0.2c0.2,0.2,0.2,0.3,0.3,0.5c0,0.1,0.1,0.2,0.1,0.2c0.2,0.6,0.4,1.3,0.5,2
		c0.1,0.4,0.2,0.7,0.2,1.1c0,0.3,0.1,0.6,0.1,0.9c0.1,0.3,0.1,0.6,0.2,1c0.1,0.3,0.1,0.6,0.2,1c0.1,0.3,0.1,0.6,0.2,0.9
		c0.1,0.6,0.3,1.3,0.4,1.9c0.1,0.3,0.1,0.6,0.2,0.9c0.1,0.3,0.2,0.6,0.2,0.9c0.1,0.6,0.3,1.3,0.4,1.9c0.1,0.6,0.2,1.2,0.3,1.8
		c0.1,0.3,0.1,0.6,0.2,1c0.1,0.3,0.2,0.6,0.3,0.9c0.1,0.3,0.2,0.6,0.3,0.8c0.1,0.3,0.2,0.6,0.3,1c0,0,0,0.1,0.1,0.1
		c0.1-0.3,0.1-0.7,0.2-1c0.1-0.5,0.1-1,0.2-1.4c0.1-0.6,0.2-1.1,0.3-1.6c0.1-0.3,0.1-0.5,0.2-0.8c0.1-0.2,0.1-0.5,0.2-0.7
		c0.1-0.2,0.1-0.5,0.2-0.8c0.1-0.2,0.1-0.5,0.2-0.7c0.1-0.6,0.3-1.2,0.4-1.8c0.1-0.6,0.2-1.2,0.4-1.8c0.1-0.3,0.1-0.6,0.2-0.9
		c0.1-0.3,0.1-0.6,0.2-1c0.1-0.5,0.2-1.1,0.3-1.6c0.1-0.9,0.2-1.9,0.4-2.8c0.1-0.5,0.2-0.9,0.3-1.3c0.1-0.4,0.2-0.8,0.3-1.3
		c0-0.3,0.1-0.7,0.1-1c0-0.2,0-0.3,0-0.5c0-0.2,0-0.3,0-0.5c-0.1,0-0.2-0.1-0.4-0.1c-0.1,0-0.3-0.1-0.4-0.1c-0.2,0-0.3-0.1-0.4-0.2
		c-0.1-0.1-0.1-0.1-0.2-0.2c-0.1-0.2-0.2-0.5-0.1-0.7c0.1-0.2,0.2-0.4,0.5-0.5c0.1-0.1,0.3-0.1,0.5-0.1c0.1,0,0.2,0,0.2,0
		c0.6,0.2,1.1,0.4,1.7,0.7c0.5,0.2,0.9,0.5,1.3,0.7c0.1,0.1,0.3,0.2,0.4,0.2c0.2-0.1,0.4-0.1,0.6,0c0.2,0.1,0.5,0.2,0.6,0.4
		c0.1,0.1,0.1,0.3,0.1,0.4c0.4,0.2,0.7,0.4,1.1,0.6C49.5,76,49.7,76.5,49.4,76.9z M115.7,72.6c0-0.3,0.1-0.6,0.2-0.9
		c0.1-0.4,0.3-0.8,0.4-1.3c0.2-0.5,0.8-0.8,1.3-0.7c0.2,0.1,0.4,0.2,0.5,0.3c0.1-0.2,0.2-0.4,0.5-0.5c0.2-0.1,0.4-0.1,0.5-0.1
		c0.4,0,0.8,0.2,1,0.5c0.1,0.1,0.1,0.2,0.2,0.3c0.1,0.2,0.2,0.3,0.3,0.5c0.1,0.1,0.1,0.2,0.1,0.3c0,0.1,0.1,0.3,0.1,0.5
		c0,0.3,0,0.5-0.1,0.8c-0.1,0.2-0.1,0.3-0.2,0.5c0,0.1-0.1,0.2-0.2,0.3c-0.2,0.3-0.4,0.5-0.7,0.6c-0.1,0.1-0.2,0.1-0.4,0.2
		c-0.4,0.1-0.7,0.3-1.1,0.3c-0.3,0-0.6,0-0.9-0.1c-0.2,0-0.3-0.1-0.5-0.2c-0.2-0.1-0.3-0.2-0.4-0.3c-0.1-0.1-0.2-0.2-0.2-0.3
		c-0.1-0.1-0.1-0.2-0.2-0.3C115.8,72.9,115.7,72.7,115.7,72.6z M84.5,84.7c0.2-0.2,0.5-0.4,0.7-0.6c0.3-0.2,0.5-0.5,0.8-0.7
		c0.1-0.1,0.2-0.1,0.4-0.1c0.1,0,0.3,0,0.4,0.1c0.2,0.2,0.2,0.5,0,0.7c-0.3,0.3-0.5,0.5-0.8,0.8c-0.2,0.2-0.4,0.4-0.6,0.5
		c-0.1,0.1-0.2,0.1-0.4,0.1c-0.1,0-0.3-0.1-0.4-0.1C84.3,85.2,84.3,84.9,84.5,84.7z M87.4,86.4c0.2-0.1,0.4-0.3,0.6-0.4
		c0.2-0.1,0.3-0.2,0.5-0.3c0.1-0.1,0.3-0.2,0.4-0.3c0.1-0.1,0.2-0.1,0.4-0.1c0.1,0,0.3,0,0.4,0.1c0.2,0.2,0.2,0.5,0,0.7
		c-0.1,0.1-0.2,0.2-0.4,0.3c-0.1,0.1-0.2,0.1-0.3,0.2c-0.1,0.1-0.2,0.1-0.3,0.2c-0.2,0.1-0.4,0.3-0.6,0.4c-0.5,0.3-0.9,0.5-1.3,0.8
		c-0.1,0.1-0.3,0.1-0.4,0C86.1,88,86,88,86,87.9c-0.1-0.1-0.1-0.2-0.1-0.4c0-0.1,0.1-0.2,0.2-0.3C86.6,87,87,86.7,87.4,86.4z
		 M70.3,100.3c0,0.3,0,0.6-0.1,0.9c0,0.2-0.1,0.5-0.1,0.7c-0.1,0.2-0.1,0.4-0.2,0.6c-0.1,0.2-0.2,0.4-0.4,0.6
		c-0.1,0.1-0.2,0.3-0.4,0.4c-0.1,0.1-0.2,0.2-0.3,0.2c-0.2,0.1-0.4,0.2-0.6,0.3c-0.2,0.1-0.4,0.1-0.7,0.1c-0.3,0-0.7,0-1,0
		c-0.3,0-0.7,0-1,0.1c-0.7,0-1.3,0-2,0.1c-0.3,0-0.7,0.1-1,0.1c-0.3,0-0.7,0-1,0c-0.7,0-1.4,0-2.1,0c-0.7,0-1.4,0-2,0
		c-0.4,0-0.7-0.1-1.1-0.1c-0.4-0.1-0.8-0.1-1.3-0.2c-0.3,0-0.7-0.1-1-0.2c-0.2,0-0.3-0.1-0.5-0.1c-0.2-0.1-0.4-0.1-0.7-0.2
		c-0.4-0.1-0.7-0.3-1-0.6c-0.2-0.1-0.3-0.3-0.5-0.4c-0.2-0.2-0.3-0.4-0.5-0.6c-0.3-0.6-0.5-1.3-0.5-2c0-0.6,0-1.1,0-1.7
		c0-0.6,0-1.1,0.1-1.7c0-0.3,0.1-0.6,0.1-0.9c0-0.3,0.1-0.6,0.1-0.9c0-0.4,0.1-0.8,0.1-1.1c0-0.4,0.1-0.8,0.1-1.2
		c0.1-0.6,0.1-1.3,0.2-1.9c0-0.3,0-0.6,0-0.9c0-0.3,0-0.7,0.1-1c0-0.6,0.1-1.2,0.2-1.8c0.1-0.7,0.2-1.4,0.3-2.1
		c0.1-0.6,0.2-1.1,0.2-1.7c0.1-0.6,0.1-1.2,0.2-1.8c0.1-0.7,0.2-1.4,0.3-2.1c0.1-0.3,0.1-0.7,0.2-1c-0.1,0-0.2-0.1-0.4-0.1
		C52,78,51.8,78,51.6,78c-0.2,0-0.5-0.2-0.6-0.4c-0.1-0.2-0.2-0.5-0.1-0.7c0.1-0.2,0.2-0.4,0.5-0.5c0.2-0.1,0.3-0.1,0.5-0.1
		c0.1,0,0.2,0,0.3,0c0.2,0,0.4,0.1,0.6,0.1c0.2,0.1,0.4,0.1,0.6,0.2c0,0,0,0,0.1,0c0.1,0,0.2,0,0.3,0c0.1,0,0.2,0,0.3,0
		c0.2,0.1,0.4,0.2,0.6,0.4c0.3,0.1,0.5,0.2,0.8,0.3c0,0,0.1,0,0.1,0c0.1,0,0.2,0,0.3,0c0.3,0.1,0.5,0.1,0.8,0.2
		c0.3,0.1,0.6,0.2,0.9,0.4c0.4,0.2,0.7,0.4,1.1,0.5c0,0,0.1,0,0.1,0c0.3,0.1,0.5,0.2,0.6,0.4c0.1,0.2,0.2,0.5,0.1,0.7
		c-0.1,0.4-0.7,0.8-1.2,0.6c-0.3-0.1-0.6-0.2-0.9-0.3c0,0.4-0.1,0.8-0.2,1.2c-0.1,0.3-0.1,0.5-0.2,0.8c-0.1,0.3-0.1,0.5-0.2,0.8
		c-0.1,0.9-0.2,1.7-0.3,2.6c0,0.5-0.1,0.9-0.1,1.4c0,0.4-0.1,0.9-0.2,1.3c-0.1,1.2-0.1,2.3-0.1,3.5c0,0.6-0.1,1.2-0.1,1.8
		c0,0.6,0,1.2,0,1.8c0,0.6,0,1.2,0,1.8c0,0.6,0,1.2,0,1.8c0,0.6,0,1.2,0,1.8c0,0.3,0,0.6,0,0.9c0,0.2,0,0.4,0,0.6
		c0,0.1,0,0.2,0.1,0.3c0,0.1,0.1,0.1,0.1,0.2c0,0,0.1,0.1,0.1,0.1c0,0,0.1,0,0.1,0c0.5,0.1,1,0.1,1.5,0.1c0.6,0,1.2,0,1.7,0
		c0.7,0,1.4,0,2,0c0.3,0,0.7,0,1,0c0.3,0,0.7,0,1-0.1c0.7,0,1.3,0,2-0.1c0.4,0,0.7,0,1.1-0.1c0.3,0,0.6,0,0.8,0c0.1,0,0.1,0,0.2,0
		c0,0,0.1,0,0.1-0.1c0,0,0,0,0.1-0.1c0.1-0.1,0.2-0.2,0.3-0.4c0.1-0.2,0.1-0.4,0.2-0.6c0.1-0.6,0.1-1.3,0-2
		c-0.1-0.4-0.1-0.7-0.2-1.1c-0.1-0.4-0.2-0.9-0.4-1.3c-0.3-1.2-0.6-2.5-0.8-3.7c-0.3-1.3-0.5-2.5-0.8-3.8c-0.1-0.6-0.3-1.3-0.4-1.9
		c-0.1-0.6-0.2-1.2-0.3-1.8c-0.1-0.6-0.2-1.3-0.3-1.9c-0.1-0.3-0.1-0.6-0.2-0.9c0-0.1-0.1-0.3-0.1-0.4c0-0.1-0.1-0.3-0.1-0.4
		c0-0.1,0-0.1,0-0.2c0-0.1-0.1-0.2-0.1-0.3c-0.3,0-0.6,0-0.8,0c-0.5,0-1-0.4-1-0.9c0-0.5,0.5-0.9,1-0.9c0.7,0,1.4-0.1,2-0.1
		c0.3,0,0.6,0,1,0c0.2,0,0.3,0,0.5,0c0.1,0,0.2,0,0.2,0c0.2,0,0.3,0,0.5,0.1c0.2,0,0.5,0.2,0.6,0.4c0.1,0.2,0.2,0.5,0.1,0.7
		c-0.1,0.2-0.2,0.4-0.5,0.5c-0.2,0.1-0.3,0.1-0.5,0.1c0,0-0.1,0-0.1,0c-0.2,0-0.3,0-0.5,0c-0.2,0-0.3,0-0.5,0c0,0,0,0.1,0,0.1
		c0,0.1,0,0.2,0,0.3c0.1,0.5,0.2,0.9,0.3,1.4C67,83.5,67,83.7,67,84c0,0.3,0.1,0.5,0.1,0.8c0.1,0.5,0.2,1,0.3,1.5
		c0.1,0.5,0.2,1.1,0.3,1.6c0.1,0.6,0.2,1.2,0.4,1.8c0.1,0.6,0.3,1.2,0.4,1.9c0.3,1.3,0.5,2.5,0.8,3.8c0.2,0.6,0.3,1.3,0.5,1.9
		c0.2,0.7,0.3,1.3,0.4,2C70.3,99.6,70.3,99.9,70.3,100.3z M93.7,97.8c-0.1,0.3-0.2,0.6-0.3,0.8c-0.1,0.2-0.2,0.5-0.4,0.7
		c-0.2,0.2-0.3,0.5-0.5,0.7c-0.2,0.2-0.4,0.3-0.6,0.5c-0.3,0.2-0.5,0.3-0.9,0.4c-0.3,0.1-0.6,0.2-0.9,0.2c-0.3,0-0.6,0-0.9,0
		c-0.2,0-0.4,0-0.6,0c-0.2,0-0.5,0-0.7-0.1c-0.1,0-0.2-0.1-0.4-0.1c-0.4-0.1-0.8-0.3-1.2-0.5c-0.7-0.4-1.3-0.8-1.9-1.2
		c-0.3-0.2-0.5-0.4-0.7-0.6c-0.2-0.2-0.5-0.4-0.7-0.6c-0.5-0.4-1-0.9-1.5-1.3c-0.2-0.2-0.5-0.5-0.7-0.7c-0.2-0.2-0.4-0.4-0.7-0.6
		c-0.2-0.1-0.4-0.3-0.7-0.4c-0.2-0.1-0.4-0.2-0.7-0.3c-0.2-0.1-0.4-0.2-0.7-0.2c-0.2-0.1-0.5-0.1-0.7-0.2c0,0.1,0,0.3,0.1,0.4
		c0.1,0.6,0.2,1.2,0.2,1.8c0.1,0.6,0.1,1.2,0.2,1.8c0,0.3,0,0.6,0.1,0.9c0,0.2,0.1,0.5,0.1,0.7c0.2,0.9,0.4,1.7,0.6,2.6
		c0.1,0,0.1,0,0.2,0c0.1-0.1,0.3-0.1,0.4-0.1c0.1,0,0.2,0,0.3,0c0.2,0.1,0.5,0.2,0.6,0.4c0.1,0.2,0.2,0.5,0.1,0.7
		c-0.1,0.2-0.2,0.4-0.5,0.5c-0.2,0.1-0.3,0.1-0.5,0.2c-0.1,0-0.3,0-0.4,0c-0.1,0-0.2,0-0.3,0c-0.2,0-0.4,0-0.5,0
		c-0.4,0-0.8,0-1.2,0.1c-0.8,0.1-1.6,0.2-2.4,0.3c-0.5,0-1-0.4-1-0.9c0-0.2,0.1-0.5,0.3-0.6c0.2-0.2,0.4-0.2,0.7-0.3
		c0.2,0,0.5,0,0.7-0.1c0.2,0,0.4-0.1,0.6-0.1c0-0.1-0.1-0.3-0.1-0.4c-0.1-0.3-0.1-0.5-0.1-0.8c-0.1-0.3-0.1-0.6-0.2-0.9
		c-0.1-0.3-0.2-0.6-0.2-0.9c-0.2-0.6-0.3-1.2-0.5-1.8c-0.1-0.3-0.1-0.6-0.2-0.9c-0.1-0.3-0.2-0.7-0.2-1C74.1,95.7,74,95.3,74,95
		c-0.1-0.3-0.1-0.6-0.2-0.9c-0.1-0.6-0.3-1.3-0.4-1.9c-0.1-0.6-0.2-1.2-0.3-1.9c-0.1-0.3-0.1-0.6-0.2-0.9c0-0.2-0.1-0.3-0.1-0.5
		c0-0.1-0.1-0.3-0.1-0.4c-0.1-0.6-0.2-1.3-0.3-1.9c-0.1-0.4-0.2-0.9-0.3-1.3c-0.1-0.2-0.1-0.5-0.2-0.7c-0.1-0.2-0.1-0.5-0.1-0.7
		c-0.1-0.5-0.2-0.9-0.3-1.4c0,0,0-0.1,0-0.1c-0.1,0.1-0.2,0.1-0.3,0.2c-0.1,0-0.2,0.1-0.3,0.1c-0.2,0.1-0.4,0.1-0.6,0.1
		c-0.2,0-0.3-0.1-0.5-0.1c-0.2-0.1-0.4-0.3-0.5-0.5c0-0.2,0-0.3,0-0.5c0.1-0.3,0.3-0.4,0.5-0.6c0,0,0.1,0,0.1-0.1
		c0.1-0.1,0.2-0.1,0.3-0.2c0.2-0.1,0.4-0.3,0.7-0.4c0.2-0.1,0.3-0.2,0.5-0.3c0,0,0,0,0,0c0,0,0,0,0.1-0.1c0,0,0,0,0.1-0.1
		c0.2-0.2,0.4-0.3,0.7-0.3c0.1,0,0.1-0.1,0.2-0.1c0.2-0.1,0.3-0.1,0.5-0.1c0.1,0,0.2,0,0.3,0c0,0,0,0,0,0c0.1,0,0.2-0.1,0.4-0.1
		c0.4-0.2,0.7-0.3,1.1-0.4c0.2-0.1,0.3-0.1,0.5-0.1c0.2,0,0.3-0.1,0.5-0.1c0.2,0,0.3-0.1,0.5-0.1c0.2,0,0.3-0.1,0.5-0.1
		c0.3-0.1,0.7-0.1,1-0.2c0.1,0,0.2,0,0.2,0c0,0,0,0,0,0c0.1,0,0.2,0,0.3,0c0.1,0,0.2,0,0.3,0c0.2,0,0.3,0,0.5,0
		c0.3,0.1,0.5,0.2,0.7,0.3c0.2,0.1,0.5,0.3,0.6,0.5c0.3,0.3,0.5,0.6,0.7,1c0.2,0.3,0.3,0.7,0.5,1.1c0.1,0.3,0.2,0.6,0.2,0.9
		c0.1,0.7,0.2,1.3,0.3,2c0,0.3,0.1,0.5,0.1,0.8c0,0,0,0,0,0c0,0.1,0,0.2,0,0.2c0,0,0,0,0,0c0,0,0,0,0,0c0,0,0,0,0,0c0,0,0,0.1,0,0.1
		c0,0,0,0,0,0c0,0.1,0,0.2,0,0.3c0,0.1,0,0.2,0,0.3c0,0.1,0,0.3,0.1,0.4c0.1,0.5,0.2,1,0.2,1.5c0.1,0.6,0.3,1.2,0.4,1.8
		c0.1,0.3,0.1,0.7,0.2,1c0,0.3,0,0.5-0.2,0.8c-0.1,0.2-0.3,0.4-0.5,0.5c-0.3,0.2-0.6,0.4-1,0.6c-0.4,0.2-0.8,0.3-1.2,0.5
		c-0.2,0.1-0.4,0.1-0.6,0.2c0.2,0.1,0.5,0.2,0.7,0.3c0.4,0.2,0.7,0.4,1,0.7c0.2,0.2,0.5,0.4,0.7,0.6c0.2,0.2,0.4,0.5,0.7,0.7
		c0.5,0.5,1,0.9,1.5,1.3c0.2,0.2,0.4,0.4,0.7,0.6c0.2,0.2,0.4,0.3,0.7,0.5c0.7,0.4,1.3,0.9,2,1.2c0.2,0.1,0.5,0.1,0.7,0.2
		c0.5,0,0.9,0.1,1.4,0c0.1,0,0.3-0.1,0.4-0.1c0.2-0.1,0.3-0.1,0.4-0.2c0.1-0.1,0.2-0.2,0.3-0.3c0.1-0.1,0.2-0.3,0.3-0.4
		c0.1-0.3,0.2-0.6,0.4-0.9c0.1-0.2,0.2-0.4,0.5-0.5c0.2-0.1,0.5-0.2,0.8-0.1c0.2,0.1,0.5,0.2,0.6,0.4C93.7,97.3,93.8,97.6,93.7,97.8
		z M104.7,95.1c0,0.2-0.1,0.4-0.1,0.6c-0.1,0.4-0.3,0.7-0.6,1c-0.1,0.1-0.3,0.2-0.5,0.3c-0.1,0.1-0.3,0.1-0.5,0.2
		c-0.1,0-0.3,0.1-0.4,0.1c-0.2,0-0.4,0.1-0.6,0.1c-0.3,0.2-0.7,0.3-1.1,0.1c-0.3,0-0.7,0-1,0c-0.6,0-1.1-0.1-1.6-0.2
		c-0.2-0.1-0.4-0.1-0.6-0.2c-0.3-0.1-0.5-0.2-0.8-0.3c-0.1-0.1-0.2-0.1-0.3-0.2c-0.3-0.2-0.6-0.5-1-0.7c-0.3-0.2-0.5-0.4-0.8-0.6
		c-0.6-0.6-1.1-1.3-1.5-2c-0.2-0.3-0.4-0.5-0.6-0.8c-0.2-0.3-0.4-0.6-0.6-1c-0.1-0.3-0.2-0.5-0.2-0.8c-0.1,0-0.2,0-0.2,0
		c-0.3,0-0.5-0.1-0.7-0.3c-0.4-0.3-0.4-0.9,0-1.3c0.3-0.3,0.7-0.6,1-0.9c0.3-0.3,0.7-0.6,1-0.9c0.2-0.2,0.5-0.3,0.7-0.3
		c0.3,0,0.5,0.1,0.7,0.3c0.2,0.2,0.3,0.4,0.3,0.6c0,0.2,0,0.3-0.1,0.4c-0.1,0.1-0.1,0.1-0.2,0.2c-0.3,0.3-0.6,0.6-0.9,0.8
		c0.1,0.1,0.1,0.2,0.2,0.3c0.1,0.4,0.2,0.8,0.3,1.2c0.2,0.3,0.4,0.6,0.6,0.8c0.1,0.2,0.3,0.4,0.4,0.6c0.3,0.4,0.6,0.9,0.9,1.3
		c0.5,0.5,1.1,0.9,1.6,1.3c0.2,0.1,0.5,0.3,0.7,0.4c0.4,0.1,0.8,0.2,1.2,0.3c0.4,0,0.8,0,1.2,0c0.1,0,0.2,0,0.3,0c0-0.1,0-0.1,0-0.2
		c0-0.3,0-0.6,0-0.9c0-0.3-0.1-0.5-0.2-0.8c-0.1-0.3-0.1-0.5-0.2-0.8c-0.1-0.3-0.1-0.6-0.2-0.8c-0.1-0.3-0.2-0.6-0.3-0.8
		c-0.1-0.3-0.2-0.6-0.3-0.8c-0.1-0.3-0.2-0.6-0.4-0.8c-0.2-0.5-0.4-1-0.6-1.5c-0.2-0.4-0.4-0.7-0.6-1c-0.2-0.4-0.4-0.8-0.6-1.2
		c-0.2-0.4-0.4-0.8-0.7-1.2c-0.1-0.2-0.2-0.4-0.3-0.5c-0.1-0.1-0.2-0.3-0.3-0.4c-0.2-0.2-0.4-0.4-0.7-0.6c-0.1-0.1-0.3-0.2-0.5-0.3
		c-0.2-0.1-0.3-0.1-0.5-0.2c-0.2-0.1-0.3-0.1-0.5-0.1c-0.1,0-0.2-0.1-0.3-0.1c-0.3,0-0.5-0.1-0.8-0.1c-0.3,0-0.7-0.1-1-0.2
		c-0.3-0.1-0.7-0.1-1-0.2c-0.8-0.1-1.6-0.2-2.4-0.5c-0.6-0.2-1-0.6-1.4-1.1c-0.3-0.3-0.5-0.7-0.5-1.2c-0.1-0.3-0.1-0.6-0.1-0.9
		c0-0.7,0.1-1.3,0.4-1.9c0.2-0.3,0.3-0.7,0.5-1c0.2-0.3,0.3-0.5,0.5-0.8c0.2-0.3,0.4-0.5,0.6-0.7c0.3-0.3,0.5-0.6,0.8-0.8
		c0.5-0.4,1.2-0.8,1.9-1c0.2,0,0.3,0,0.5,0c0.1,0,0.3,0,0.4,0c0.3,0,0.6,0.1,0.8,0.2c0.3,0.1,0.6,0.2,0.8,0.4
		c0.1,0.1,0.3,0.1,0.4,0.2c0.3,0.2,0.7,0.4,1,0.7c0.5,0.4,1,0.9,1.5,1.4c0.2,0.2,0.5,0.4,0.7,0.6c0.3,0.3,0.5,0.5,0.8,0.8
		c0,0,0,0,0,0c0.2-0.1,0.5-0.3,0.7-0.4c0.1-0.1,0.3-0.1,0.5-0.1c0.1,0,0.2,0,0.3,0c0.2,0.1,0.5,0.2,0.6,0.4c0.1,0.2,0.2,0.5,0.1,0.7
		c-0.1,0.2-0.2,0.4-0.5,0.5c-0.4,0.3-0.9,0.5-1.3,0.8c-0.4,0.3-0.8,0.5-1.2,0.8c-0.5,0.2-1.1,0.1-1.4-0.3c-0.3-0.4-0.1-1,0.4-1.2
		c0.1,0,0.1-0.1,0.2-0.1c-0.2-0.2-0.4-0.5-0.7-0.7c-0.3-0.2-0.6-0.5-0.8-0.7c-0.3-0.2-0.5-0.5-0.8-0.8c-0.2-0.2-0.5-0.4-0.7-0.6
		c-0.2-0.1-0.3-0.2-0.5-0.3c-0.2-0.1-0.4-0.2-0.6-0.3c-0.1,0-0.3-0.1-0.4-0.1c-0.1,0-0.3,0-0.4,0c-0.1,0-0.1,0-0.2,0
		c-0.1,0-0.1,0.1-0.2,0.1c0.2,0.1,0.3,0.3,0.4,0.5c0,0.2,0,0.3,0,0.5c0,0.1-0.1,0.1-0.1,0.2c0,0.1-0.1,0.2-0.1,0.3
		c-0.1,0.2-0.1,0.4-0.2,0.6c0,0.4,0,0.9,0,1.3c0.1,0.3,0.1,0.5,0.2,0.8c0.1,0.2,0.2,0.4,0.4,0.6c0.1,0.2,0.2,0.4,0.4,0.6
		c0.1,0.1,0.2,0.2,0.3,0.3c0.1,0.1,0.2,0.2,0.3,0.2c0.2,0.1,0.4,0.3,0.5,0.4c0.4,0.2,0.7,0.4,1.1,0.6c0.1,0,0.2,0.1,0.3,0.1
		c0.1,0,0.2,0.1,0.3,0.1c0.2,0.1,0.4,0.1,0.6,0.1c0.1,0,0.2,0.1,0.3,0.1c0.4,0.1,0.9,0.1,1.3,0.2c0.3,0.1,0.7,0.2,1,0.3
		c0.5,0.1,0.9,0.3,1.4,0.5c0.6,0.3,1.1,0.6,1.7,1c0.4,0.3,0.9,0.5,1.3,0.8c0.2,0.1,0.3,0.2,0.5,0.4c0.2,0.2,0.5,0.5,0.6,0.8
		c0.2,0.4,0.4,0.7,0.5,1.1c0.2,0.6,0.3,1.3,0.4,1.9c0,0.3,0,0.6,0,0.9c0,0.3,0,0.6,0,0.9c0,0.6,0,1.2,0,1.7c0,0.6,0,1.2,0,1.8
		C104.7,94,104.7,94.5,104.7,95.1z M107.6,87.5c-0.1,0.1-0.2,0.2-0.3,0.2c-0.1,0-0.3,0-0.4,0c-0.1-0.1-0.2-0.2-0.2-0.3
		c0-0.1,0-0.3,0.1-0.4c0.4-0.4,0.7-0.8,1.1-1.2c0.3-0.3,0.6-0.6,0.9-1c0.1-0.1,0.1-0.2,0.2-0.3c0.1-0.1,0.2-0.2,0.3-0.2
		c0,0,0.1,0,0.1,0c0.1,0,0.2,0,0.3,0.1c0.1,0.1,0.2,0.2,0.2,0.3c0,0.1,0,0.3-0.1,0.4c-0.2,0.2-0.3,0.4-0.5,0.6
		c-0.1,0.1-0.1,0.1-0.2,0.2c-0.2,0.2-0.3,0.4-0.5,0.5C108.3,86.7,108,87.1,107.6,87.5C107.7,87.5,107.6,87.5,107.6,87.5z
		 M110.8,88.2c-0.3,0.3-0.6,0.6-0.9,0.9c-0.3,0.3-0.6,0.7-1,1c-0.1,0.1-0.2,0.1-0.4,0.1c-0.1,0-0.3,0-0.4-0.1
		c-0.1-0.1-0.2-0.2-0.2-0.3c0-0.1,0.1-0.2,0.2-0.3c0.3-0.4,0.6-0.7,1-1.1c0.3-0.3,0.6-0.6,0.9-0.9c0.1-0.1,0.2-0.1,0.4-0.1
		c0.1,0,0.3,0,0.4,0.1c0.1,0.1,0.2,0.2,0.2,0.3C110.9,88,110.9,88.1,110.8,88.2z M121,86.5c-0.2,0.2-0.4,0.3-0.6,0.5
		c-0.1,0.1-0.2,0.1-0.3,0.2c-0.1,0.1-0.3,0.1-0.4,0.2c-0.2,0.1-0.5,0.3-0.7,0.4c-0.3,0.2-0.7,0.5-1,0.8c-0.4,0.3-0.7,0.6-1.1,0.9
		c-0.4,0.3-1,0.3-1.4,0c-0.4-0.3-0.4-0.9,0-1.3c0.5-0.4,1-0.8,1.5-1.2c-0.1-0.2-0.3-0.3-0.4-0.5c-0.1-0.1-0.1-0.2-0.2-0.3
		c-0.2-0.2-0.3-0.4-0.5-0.7c-0.3-0.3-0.6-0.6-0.8-0.9c-0.2-0.3-0.5-0.6-0.7-0.9c-0.3-0.3-0.5-0.6-0.8-0.9c-0.5-0.5-1-1-1.5-1.5
		c-0.4-0.5-0.8-1-1.2-1.6c-0.2-0.3-0.4-0.5-0.6-0.8c-0.2-0.3-0.4-0.5-0.6-0.8c-0.2-0.2-0.4-0.5-0.6-0.7c-0.2-0.2-0.4-0.5-0.6-0.7
		c-0.4-0.6-0.8-1.1-1.1-1.7c-0.4-0.5-0.8-1-1.1-1.6c-0.2-0.3-0.4-0.5-0.6-0.8c-0.2-0.3-0.4-0.5-0.6-0.8c-0.2-0.2-0.4-0.5-0.5-0.7
		c-0.2-0.3-0.5-0.6-0.7-0.9c-0.4-0.4-0.9-0.8-1.3-1.2c0,0,0,0,0,0c-0.6,0.4-1.2,0.8-1.8,1.2c-0.4,0.3-0.8,0.6-1.3,0.8
		c-0.1,0.1-0.3,0.2-0.4,0.2c0,0,0.1,0.1,0.1,0.1c0.3,0.2,0.6,0.5,0.9,0.8c0.3,0.4,0.1,1-0.4,1.2c-0.5,0.2-1.1,0.1-1.4-0.3
		c0,0,0,0,0,0c-0.1-0.1-0.3-0.3-0.5-0.4c-0.2-0.1-0.4-0.3-0.6-0.4c-0.3-0.2-0.5-0.4-0.8-0.7c-0.2-0.2-0.3-0.4-0.3-0.6
		c0-0.2,0.1-0.5,0.3-0.6c0.2-0.2,0.5-0.3,0.7-0.3c0.1,0,0.1,0,0.2,0c0.1,0,0.2-0.1,0.3-0.1c0.2-0.1,0.3-0.2,0.5-0.2
		c0.3-0.2,0.6-0.4,0.9-0.6c0.3-0.2,0.6-0.4,0.9-0.6c0.3-0.2,0.5-0.3,0.8-0.5c0.7-0.5,1.4-1,2.1-1.4c0.7-0.4,1.4-0.8,2-1.3
		c0.2-0.2,0.5-0.4,0.7-0.5c0.3-0.2,0.6-0.4,0.9-0.6c0.3-0.2,0.6-0.3,0.9-0.5c0.4-0.2,0.7-0.4,1.1-0.6c0,0,0.1,0,0.1-0.1
		c0-0.2,0.1-0.4,0.3-0.5c0.2-0.2,0.4-0.3,0.7-0.3c0.2,0,0.5,0.1,0.7,0.3c0.4,0.4,0.8,0.8,1.1,1.2c0.1,0.2,0.3,0.4,0.4,0.6
		c0.1,0.3,0.3,0.5,0.4,0.7c0.3,0.4,0.1,1-0.4,1.2c-0.5,0.2-1.1,0.1-1.4-0.3c-0.1-0.2-0.3-0.4-0.4-0.6c-0.1-0.1-0.2-0.3-0.2-0.4
		c-0.1-0.1-0.2-0.3-0.3-0.4c0,0-0.1,0-0.1,0.1c-0.4,0.3-0.9,0.5-1.3,0.7c-0.3,0.2-0.6,0.3-0.9,0.5c-0.3,0.2-0.5,0.4-0.7,0.6
		c0,0.1,0.1,0.1,0.1,0.2c0.2,0.2,0.4,0.4,0.5,0.6c0,0,0,0,0,0c0.1,0.1,0.1,0.1,0.1,0.2c0,0,0.1,0.1,0.1,0.1c0.3,0.3,0.6,0.6,0.9,1
		c0.2,0.3,0.4,0.6,0.6,0.9c0.2,0.3,0.4,0.5,0.5,0.7c0.2,0.3,0.3,0.5,0.5,0.8c0.2,0.3,0.4,0.5,0.5,0.8c0.2,0.3,0.3,0.5,0.5,0.8
		c0.2,0.3,0.4,0.5,0.5,0.8c0.2,0.3,0.3,0.5,0.5,0.8c0.2,0.3,0.4,0.5,0.5,0.8c0.2,0.3,0.4,0.5,0.6,0.8c0.4,0.5,0.7,1,1.1,1.6
		c0.2,0.3,0.4,0.6,0.6,0.9c0.2,0.2,0.3,0.5,0.5,0.7c0.2,0.2,0.4,0.5,0.6,0.7c0.2,0.3,0.3,0.5,0.5,0.8c0.2,0.3,0.4,0.5,0.6,0.8
		c0.1,0.1,0.2,0.3,0.3,0.4c0.1,0.2,0.2,0.3,0.3,0.5c0.3,0.3,0.5,0.6,0.7,0.9c0.2,0.2,0.4,0.4,0.6,0.6c0.2,0.2,0.3,0.4,0.5,0.6
		c0.1,0.1,0.1,0.2,0.2,0.3c0.1,0.1,0.2,0.2,0.3,0.4c0.2,0.2,0.3,0.4,0.5,0.5c0.1,0,0.2,0,0.3,0c0.3,0,0.5,0.1,0.7,0.3
		C121.4,85.6,121.4,86.2,121,86.5z M131.2,73.8c0,0.1,0,0.2,0,0.3c0,0.1,0,0.1,0,0.2c0,0.1,0,0.2-0.1,0.2c0,0.1-0.1,0.2-0.1,0.2
		c-0.1,0.2-0.5,0.3-0.7,0.2c-0.3-0.1-0.3-0.4-0.2-0.6c0,0,0-0.1,0-0.1c0-0.5,0-0.9,0-1.4c0-0.3,0-0.5,0-0.8c0-0.2,0-0.4-0.1-0.7
		c-0.1-0.3-0.1-0.6-0.2-0.9c0-0.2-0.1-0.3-0.2-0.5c0-0.1-0.1-0.3-0.2-0.4c0-0.1-0.1-0.2-0.1-0.3c-0.1-0.1-0.1-0.2-0.2-0.3
		c-0.1-0.2-0.3-0.4-0.4-0.6c-0.1-0.2-0.3-0.4-0.4-0.6c-0.1-0.2-0.3-0.4-0.5-0.5c0,0,0.1,0.1,0.1,0.1c0,0-0.1-0.1-0.1-0.1
		c-0.1-0.1-0.1-0.1-0.1-0.2c0,0,0-0.1,0-0.1c0-0.1,0.1-0.2,0.2-0.3c0.1-0.1,0.2-0.1,0.4-0.1c0.1,0,0.3,0,0.4,0.1
		c0.3,0.3,0.6,0.7,0.9,1c0.2,0.3,0.4,0.6,0.6,0.9c0.1,0.1,0.1,0.2,0.2,0.3c0.1,0.2,0.2,0.3,0.2,0.5c0,0.1,0.1,0.2,0.1,0.4
		c0,0.1,0.1,0.3,0.1,0.4c0.1,0.3,0.1,0.5,0.2,0.8c0.1,0.3,0.1,0.5,0.1,0.8c0,0.2,0,0.5,0,0.7c0,0.3,0,0.5,0,0.8
		C131.2,73.3,131.2,73.6,131.2,73.8z"/>
	<path d="M130.1,74.2C130.1,74.2,130.1,74.2,130.1,74.2C130.1,74.3,130.1,74.3,130.1,74.2C130.1,74.3,130.1,74.3,130.1,74.2z"/>
	<path d="M101.6,89.8c0.1,0.3,0.2,0.6,0.3,0.8c0.2,0.6,0.4,1.1,0.6,1.7c0.1,0.3,0.2,0.6,0.2,0.9c0-0.8,0-1.6,0-2.4
		c0-0.6,0-1.2,0-1.8c0-0.5,0-1.1-0.1-1.6c-0.1-0.5-0.2-0.9-0.4-1.4c0-0.1-0.1-0.1-0.1-0.2c-0.1-0.1-0.1-0.2-0.2-0.3
		c-0.2-0.2-0.3-0.3-0.5-0.4c-0.2-0.1-0.5-0.3-0.7-0.4c-0.2-0.2-0.5-0.3-0.7-0.5c-0.3-0.2-0.6-0.4-0.9-0.6c-0.2-0.1-0.4-0.2-0.6-0.3
		c0.1,0.1,0.1,0.2,0.2,0.3c0.3,0.5,0.7,1.1,0.9,1.6c0.1,0.3,0.3,0.6,0.4,0.8c0.1,0.3,0.3,0.5,0.5,0.8c0.3,0.6,0.6,1.3,0.8,1.9
		C101.3,89.2,101.4,89.5,101.6,89.8z"/>
	<path d="M90.4,79.9c-0.1-0.1-0.2-0.2-0.2-0.4c-0.2-0.4-0.5-0.7-0.6-1.2c-0.1-0.4-0.2-0.7-0.2-1.1c0-0.3,0-0.6,0-0.9c0,0,0,0,0,0
		c-0.1,0.2-0.2,0.3-0.3,0.5c0,0,0-0.1,0.1-0.1c-0.1,0.2-0.2,0.4-0.3,0.6c-0.1,0.2-0.1,0.4-0.2,0.6c0,0.3-0.1,0.7,0,1
		c0,0.1,0,0.2,0.1,0.3c0.1,0.1,0.1,0.2,0.2,0.3c0.1,0.1,0.2,0.2,0.4,0.3c0.1,0,0.2,0.1,0.2,0.1c0.4,0.1,0.8,0.2,1.2,0.3
		C90.6,80.1,90.5,80,90.4,79.9z"/>
	<path d="M81.3,90.6C81.3,90.6,81.4,90.6,81.3,90.6c0.1-0.1,0-0.1,0-0.2c-0.1-0.8-0.4-1.5-0.5-2.3c-0.2-0.8-0.3-1.6-0.4-2.4
		c0-0.1,0-0.1,0-0.2c0,0,0,0,0,0c0,0,0,0,0,0c0,0,0,0,0,0c0,0,0,0,0,0c0,0,0-0.1,0-0.1c0,0,0,0,0,0c0-0.1,0-0.1,0-0.2
		c-0.1-0.5-0.1-0.9-0.2-1.4c-0.1-0.4-0.1-0.9-0.3-1.3c-0.1-0.4-0.2-0.8-0.4-1.2c0-0.1-0.1-0.1-0.1-0.2c-0.1-0.2-0.2-0.3-0.3-0.5
		c-0.1-0.1-0.2-0.2-0.2-0.2c-0.1,0-0.1-0.1-0.2-0.1c0,0,0,0,0,0c-0.2,0-0.4,0-0.5,0c-0.3,0.1-0.6,0.1-0.8,0.2
		c-0.2,0-0.3,0.1-0.5,0.1c-0.2,0-0.3,0.1-0.5,0.1c-0.3,0.1-0.6,0.2-0.9,0.3c0.2,0.2,0.3,0.4,0.3,0.6c0,0.2,0,0.4,0,0.6
		c0.1,0.4,0.1,0.7,0.2,1.1c0,0.3,0.1,0.7,0.1,1c0.1,0.4,0.1,0.8,0.2,1.2c0.1,0.5,0.2,0.9,0.3,1.4c0.1,0.5,0.2,1,0.2,1.5
		c0.1,0.4,0.1,0.9,0.2,1.3c0,0,0,0,0,0c0,0.3,0.1,0.6,0.1,0.8c0,0.3,0,0.5,0,0.8c0,0.3,0,0.5,0.1,0.8c0.1,0,0.2-0.1,0.3-0.1
		c0.5-0.2,1-0.2,1.5-0.4c0.5-0.1,0.9-0.3,1.4-0.4C80.6,91,81,90.8,81.3,90.6z"/>
	<path d="M114.1,80.6c-0.2-0.3-0.3-0.5-0.5-0.8c-0.4-0.5-0.7-1-1.1-1.5c-0.4-0.5-0.7-1.1-1.1-1.6c-0.2-0.3-0.4-0.5-0.5-0.8
		c-0.2-0.3-0.4-0.5-0.6-0.8c-0.2-0.2-0.3-0.5-0.5-0.8c-0.2-0.3-0.4-0.5-0.5-0.8c-0.2-0.3-0.4-0.5-0.5-0.8c-0.2-0.3-0.3-0.5-0.5-0.8
		c-0.2-0.3-0.3-0.5-0.5-0.8c-0.1-0.1-0.2-0.3-0.3-0.4c-0.1-0.1-0.2-0.2-0.3-0.4c-0.2-0.3-0.4-0.5-0.5-0.8c-0.1-0.2-0.3-0.4-0.5-0.6
		c-0.2-0.2-0.4-0.4-0.5-0.6c0,0-0.1-0.1-0.1-0.1c0,0,0,0,0,0c-0.2-0.2-0.4-0.5-0.6-0.7c-0.1-0.1-0.2-0.2-0.2-0.3
		c-0.2,0.1-0.4,0.2-0.6,0.4c0.2,0.2,0.5,0.4,0.7,0.6c0.2,0.2,0.5,0.5,0.7,0.7c0.2,0.2,0.3,0.4,0.5,0.6c0.4,0.5,0.7,1,1.1,1.5
		c0.2,0.2,0.4,0.5,0.6,0.7c0.2,0.2,0.4,0.5,0.5,0.7c0.3,0.5,0.7,0.9,1,1.4c0.2,0.3,0.4,0.5,0.6,0.8c0.2,0.3,0.4,0.6,0.6,0.9
		c0.4,0.5,0.8,1,1.2,1.5c0.2,0.3,0.4,0.5,0.6,0.8c0.2,0.3,0.4,0.6,0.6,0.8c0.3,0.5,0.7,0.9,1.1,1.4c0.2,0.2,0.4,0.4,0.5,0.6
		C114.2,80.8,114.2,80.7,114.1,80.6z"/>
	<path d="M118.2,72.2c0.1,0,0.2-0.1,0.2-0.1c0,0,0,0,0,0c0,0,0-0.1,0.1-0.1c0-0.1,0.1-0.2,0.1-0.2c0-0.1,0-0.2,0-0.3
		c0,0,0-0.1,0-0.1c-0.1-0.1-0.1-0.2-0.2-0.3c-0.1,0.3-0.2,0.5-0.2,0.8c0,0.1-0.1,0.2-0.1,0.3c0,0,0,0,0,0
		C118.1,72.2,118.1,72.2,118.2,72.2z"/>
	<path d="M18.8,72.1c0-0.1,0.1-0.2,0.1-0.3c0-0.1,0-0.2,0-0.3c0,0.1-0.1,0.1-0.1,0.2c0,0.1-0.1,0.2-0.1,0.3c0,0.1,0,0.1,0,0.2
		C18.8,72.1,18.8,72.1,18.8,72.1C18.8,72.1,18.8,72.1,18.8,72.1z"/>
	<polygon points="18.6,72.2 18.6,72.2 18.6,72.2 	"/>
	<path d="M136,59.9c-0.1-0.1-0.2-0.1-0.4-0.2c-0.1,0-0.2,0-0.3,0c-0.1,0-0.2-0.1-0.3-0.1c-0.1,0-0.2-0.1-0.2-0.1
		c-0.1,0-0.2,0-0.3-0.1c-0.1,0-0.2-0.1-0.3-0.1c0,0-0.1-0.1-0.1-0.1c-0.1-0.1-0.2-0.3-0.3-0.4c0,0-0.1,0-0.1-0.1
		c-0.1-0.1-0.2-0.3-0.3-0.5c-0.1-0.2-0.3-0.4-0.4-0.6c-0.1-0.1-0.1-0.2-0.2-0.3c-0.1-0.1-0.1-0.2-0.2-0.3c-0.1-0.1-0.1-0.2-0.2-0.3
		c-0.1-0.1-0.2-0.2-0.3-0.3c-0.2-0.2-0.3-0.4-0.5-0.6c-0.1-0.2-0.3-0.3-0.4-0.5c-0.1-0.2-0.3-0.3-0.4-0.5c-0.2-0.2-0.5-0.4-0.7-0.5
		c-0.4-0.3-0.9-0.4-1.3-0.6c-0.2-0.1-0.4-0.2-0.6-0.2c-0.2-0.1-0.4-0.1-0.7-0.2c-0.2-0.1-0.4-0.1-0.6-0.1c-0.3-0.1-0.6-0.1-0.9-0.1
		c0,0,0.1,0,0.1,0c-0.2,0-0.5,0-0.7-0.1c-0.3,0-0.6-0.1-0.8-0.1c-0.3-0.1-0.6-0.1-0.9-0.3c-0.1,0-0.2-0.1-0.3-0.1
		c-0.2-0.1-0.3-0.2-0.5-0.3c-0.3-0.2-0.6-0.4-1-0.6c-0.1-0.1-0.1-0.1-0.2-0.2c-0.1-0.1-0.3-0.2-0.5-0.4c-0.2-0.1-0.4-0.2-0.6-0.3
		c-0.1,0-0.3-0.1-0.5-0.1c-0.1,0-0.1,0-0.2,0c-0.2,0-0.3,0-0.5,0.1c-0.3,0.1-0.5,0.2-0.7,0.5c-0.1,0.2-0.2,0.4-0.2,0.6
		c0,0.1,0,0.3,0.1,0.4c0,0.1,0.1,0.2,0.1,0.4c0,0.2,0,0.4,0.1,0.6c0,0,0.1,0.1,0.1,0.1c0,0,0,0.1,0.1,0.1c-0.1,0.1-0.1,0.3-0.1,0.4
		c0,0.1,0,0.2,0,0.2c0,0.1,0.1,0.3,0.2,0.4c0.1,0.1,0.1,0.1,0.1,0.2c0,0,0,0.1,0,0.1c0,0,0,0.1,0,0.1c0,0,0,0,0-0.1c0,0,0,0,0,0
		c0,0,0,0,0,0.1c0,0.1,0,0.2,0,0.3c0,0.1,0,0.2,0,0.2c0,0,0,0.1,0,0.1c-0.1,0.1-0.1,0.2-0.2,0.3c-0.1,0.1-0.1,0.2-0.1,0.3
		c0,0.1-0.1,0.1-0.1,0.2c0,0.1-0.1,0.2-0.1,0.3c0,0.2,0.1,0.4,0.3,0.6c0,0,0,0,0,0c0,0,0,0,0,0c0,0,0.1,0,0.1,0c0,0,0,0,0,0
		c0.2,0,0.3,0,0.5,0c0,0,0,0,0,0c0.1,0,0.2,0,0.3-0.1c0,0,0,0,0,0c0.1,0,0.1-0.1,0.2-0.1c0.1,0,0.1-0.1,0.2-0.1c0,0,0,0,0,0
		c0,0,0,0,0,0c0,0,0,0,0,0c0,0,0,0,0-0.1c0,0,0-0.1,0.1-0.1c0,0,0-0.1,0.1-0.1c0,0,0,0,0-0.1c0,0,0,0,0,0c0-0.1,0-0.1,0-0.2
		c0,0,0,0,0,0c0,0,0-0.1,0-0.1c0-0.1-0.1-0.3-0.1-0.4c-0.1-0.2-0.1-0.3-0.1-0.5c0-0.1,0-0.3,0.1-0.4c0,0,0.1-0.1,0.1-0.1
		c0,0,0,0,0,0c0,0,0.1-0.1,0.1-0.1c0,0,0,0,0,0c0,0,0.1-0.1,0.1-0.1c0,0,0,0,0,0c0,0,0.1,0,0.1-0.1c0,0,0,0,0,0c0,0,0.1,0,0.1-0.1
		c0,0,0,0,0,0c0,0,0.1,0,0.1,0c0,0,0,0,0,0c0,0,0,0,0.1,0c0,0,0,0,0,0c0,0,0.1,0,0.1,0c0,0,0,0,0,0c0,0,0,0,0.1,0c0,0,0,0,0,0
		c0.1,0,0.2,0,0.3,0c0.1,0,0.2,0.1,0.2,0.1c0,0,0.1,0,0.1,0c0,0,0,0,0.1,0c0,0,0.1,0,0.1,0.1c0,0,0,0,0,0c0,0,0.1,0.1,0.1,0.1
		c0,0,0,0,0.1,0.1c0,0,0,0,0,0.1c0,0,0,0,0,0c0,0,0,0,0.1,0.1c0,0,0,0,0,0c0,0,0,0,0.1,0.1c0,0,0,0,0,0c0,0,0.1,0.1,0.1,0.1
		c0,0,0,0,0,0c0,0,0.1,0.1,0.1,0.1c0,0,0,0,0,0c0,0,0,0,0,0c0,0.1,0.1,0.1,0.1,0.2c0,0,0,0,0,0c0,0,0,0,0,0c0,0,0.1,0.1,0.1,0.1
		c0,0.1,0.1,0.1,0.1,0.2c0,0,0.1,0.1,0.1,0.1c0,0,0.1,0.1,0.1,0.1c0,0.1,0,0.1,0.1,0.2c0,0,0,0,0,0c0,0,0,0.1,0.1,0.1c0,0,0,0,0,0
		c0,0,0,0.1,0,0.1c0,0,0,0,0,0c0,0,0,0,0,0c0,0,0,0.1,0,0.1c0.1,0.3,0,0.5-0.1,0.8c0,0,0,0,0,0c0,0-0.1,0.1-0.1,0.1c0,0,0,0,0,0
		c0,0-0.1,0.1-0.1,0.1c0,0,0,0,0,0c0,0,0,0.1,0,0.1c0,0-0.1,0.1-0.1,0.1c-0.1,0.1-0.1,0.3-0.2,0.4c0,0.1-0.1,0.2-0.1,0.4
		c0,0.2,0,0.3,0.1,0.4c0.1,0.1,0.2,0.2,0.4,0.3c0.4,0.2,0.9,0.2,1.2-0.1c0.1-0.1,0.2-0.2,0.3-0.4c0.1-0.1,0.1-0.3,0.2-0.4
		c0-0.1,0.1-0.1,0.1-0.2c0,0,0,0,0-0.1c0,0,0.1-0.1,0.1-0.1c0.1-0.1,0.3-0.2,0.4-0.3c0.1-0.1,0.2-0.2,0.2-0.3c0.1,0,0.2,0,0.3-0.1
		c0.2,0,0.3,0,0.5,0c0,0,0,0,0,0c0.1,0,0.3,0.1,0.4,0.1c0.2,0.1,0.5,0.2,0.7,0.4c0.2,0.2,0.4,0.3,0.6,0.5c0,0,0,0,0,0
		c0.1,0.1,0.1,0.2,0.2,0.2c0,0,0,0,0,0c-0.2,0-0.3,0-0.5,0.1c-0.2,0-0.4,0.1-0.6,0.2c-0.1,0-0.2,0.1-0.2,0.1c-0.1,0-0.1,0.1-0.2,0.1
		c-0.1,0-0.1,0.1-0.2,0.1c-0.1,0.1-0.2,0.2-0.2,0.3c-0.1,0.2-0.1,0.3-0.2,0.5c0,0,0,0.1-0.1,0.1c0,0.2,0,0.3,0,0.5
		c0,0.1,0.1,0.3,0.3,0.4c0.3,0.3,0.7,0.3,1.1,0.3c0.3,0,0.6-0.1,0.9-0.1c0.2,0,0.5,0,0.7,0c0,0,0,0,0,0c0,0,0.1,0.1,0.1,0.1
		c0.2,0.2,0.4,0.2,0.7,0.3c0,0,0,0,0,0c0.1,0,0.2,0,0.4,0c0.1,0,0.3,0.1,0.4,0.1c0.2,0,0.4,0.1,0.6,0.2c0.3,0.1,0.6,0.2,0.9,0.2
		c0.1,0,0.3,0,0.4,0c0.5,0,1,0.1,1.5-0.1c0.3-0.1,0.4-0.2,0.6-0.3c0.1-0.1,0.2-0.2,0.3-0.3c0.1-0.1,0.1-0.1,0.1-0.2
		c0,0,0.1,0,0.1-0.1c0.1-0.1,0.2-0.1,0.3-0.2c0.2-0.2,0.3-0.3,0.3-0.6C136.5,60.5,136.3,60.2,136,59.9z M119.4,54.8
		C119.4,54.8,119.4,54.8,119.4,54.8C119.4,54.7,119.4,54.7,119.4,54.8C119.4,54.7,119.4,54.7,119.4,54.8
		C119.4,54.8,119.4,54.8,119.4,54.8L119.4,54.8z"/>
	<path d="M6.8,60.4c0.1-0.1,0.1-0.3,0.1-0.4c0-0.2-0.1-0.4-0.3-0.6c0,0-0.1-0.1-0.1-0.1c-0.3-0.2-0.6-0.4-1-0.6
		c-0.1,0-0.1-0.1-0.2-0.1c-0.1,0-0.1-0.1-0.2-0.1c0,0,0,0,0,0c0.2,0,0.3-0.1,0.5-0.1c0.1,0,0.3,0,0.4,0c0.2,0.1,0.5,0.1,0.7,0.2
		c0.1,0,0.2,0.1,0.3,0.1c0.1,0,0.1,0.1,0.2,0.1c0.1,0,0.1,0.1,0.2,0.1c0.1,0.1,0.3,0.1,0.4,0.2C8,59,8.2,59,8.4,59
		c0.2,0,0.3-0.1,0.5-0.2c0.3-0.2,0.3-0.6,0.3-0.9c0-0.2-0.1-0.3-0.3-0.4c0,0,0,0-0.1,0c0-0.1-0.1-0.2-0.2-0.3
		c-0.1-0.1-0.2-0.2-0.4-0.2c-0.1-0.1-0.2-0.1-0.3-0.2c-0.1-0.1-0.2-0.2-0.3-0.3c0,0,0,0,0,0c0-0.1,0-0.1,0-0.2c0,0,0,0,0,0
		c0-0.2,0.1-0.4,0.1-0.6c0,0.1,0,0.2,0,0.2c0-0.1,0-0.2,0.1-0.2c0.1-0.1,0.1-0.2,0.2-0.3c0,0,0.1-0.1,0.1-0.1c0,0,0,0,0.1,0
		c0.2,0,0.3-0.1,0.5-0.1c0.3,0,0.6-0.1,0.8-0.1c0.1,0,0.2,0,0.2,0c0,0,0,0,0,0c0.1,0,0.3,0,0.4,0c0.2,0,0.3,0,0.5,0
		c0.3,0,0.6,0,0.8-0.1c0.2-0.1,0.5-0.1,0.7-0.2c0.1,0,0.2-0.1,0.3-0.1c0,0.1-0.1,0.1-0.1,0.2c0,0-0.1,0.1-0.1,0.1
		c-0.1,0.1-0.1,0.1-0.2,0.2c0,0,0,0,0,0c-0.1,0.1-0.2,0.1-0.2,0.2c-0.2,0.2-0.4,0.3-0.4,0.6c-0.1,0.2,0,0.5,0.1,0.7
		c0,0,0.1,0.1,0.1,0.1c0.2,0.2,0.5,0.3,0.8,0.3c0.2,0,0.4,0,0.6-0.1c0.1,0,0.1-0.1,0.1-0.1c0.2-0.1,0.3-0.2,0.5-0.3
		c0.1-0.1,0.1-0.1,0.2-0.2c0.1-0.1,0.2-0.2,0.3-0.2c0.2-0.1,0.4-0.3,0.5-0.5c0.2-0.2,0.3-0.3,0.5-0.4c0,0,0,0,0.1-0.1
		c0,0,0.1-0.1,0.1-0.1c0.1-0.1,0.2-0.2,0.3-0.2c0.1-0.1,0.2-0.2,0.3-0.3c0.1-0.1,0.1-0.2,0.2-0.2c0.1-0.1,0.2-0.2,0.3-0.4
		c0.1-0.1,0.2-0.2,0.4-0.3c0.2-0.2,0.4-0.5,0.5-0.8c0.1-0.1,0.1-0.3,0.1-0.4c0-0.3-0.1-0.6-0.2-0.8c-0.2-0.2-0.3-0.3-0.5-0.4
		c-0.1-0.1-0.3-0.1-0.5-0.2c-0.2-0.1-0.5-0.1-0.7-0.1c-0.1,0-0.3,0-0.4,0c-0.1,0-0.2,0-0.3,0c-0.4,0-0.9,0.1-1.2,0.3
		c-0.2,0.2-0.5,0.4-0.7,0.5c-0.2,0.1-0.3,0.3-0.4,0.5c0,0-0.1,0.1-0.1,0.1c-0.1,0.1-0.2,0.1-0.3,0.2c-0.1,0.1-0.2,0.1-0.3,0.2
		c-0.1,0-0.2,0.1-0.3,0.1c-0.1,0-0.3,0-0.4,0c-0.2,0-0.5-0.1-0.7-0.2c-0.3-0.1-0.5-0.1-0.8-0.2c-0.3-0.1-0.6-0.2-0.9-0.2
		c-0.4-0.1-0.8-0.1-1.2-0.1c-0.5,0-1,0-1.4,0.2c-0.4,0.2-0.7,0.5-0.9,0.8c-0.2,0.2-0.3,0.5-0.5,0.7c-0.1,0.1-0.2,0.2-0.2,0.4
		c-0.1,0.2-0.2,0.4-0.3,0.6c-0.1,0.2-0.2,0.4-0.2,0.6c-0.1,0.2-0.2,0.3-0.3,0.5c-0.1,0.2-0.2,0.5-0.4,0.7c0,0,0,0,0,0
		c-0.1,0.1-0.2,0.2-0.3,0.3c-0.1,0.1-0.2,0.1-0.3,0.2C2.2,56.9,2.1,56.9,2,57c0,0-0.1,0-0.1,0c-0.1,0-0.2,0-0.3,0
		c-0.1,0-0.3,0-0.4,0c-0.1,0-0.1,0-0.2,0c-0.3,0-0.5,0.1-0.7,0.3C0.1,57.4,0,57.6,0,57.8c0,0.2,0,0.3,0.1,0.5c0,0.1,0.1,0.2,0.1,0.3
		c0.1,0.1,0.2,0.2,0.3,0.3c0,0,0.1,0.1,0.1,0.1c0.2,0.2,0.4,0.2,0.6,0.3c0.2,0.1,0.5,0.2,0.7,0.2c0.4,0.1,0.8,0.1,1.3,0.1
		c0.2,0,0.4,0.1,0.6,0.1c0,0,0,0,0,0C4.1,60,4.3,60,4.5,60.1c0.1,0.1,0.2,0.1,0.3,0.2c0.2,0.1,0.3,0.3,0.5,0.4
		c0.1,0.1,0.2,0.1,0.4,0.2C6.1,61,6.6,60.8,6.8,60.4z M12,54.8C12,54.8,12,54.8,12,54.8C12,54.8,12,54.8,12,54.8
		C12,54.8,12,54.8,12,54.8z"/>
	<path d="M69.6,39.5C69.6,39.5,69.5,39.5,69.6,39.5C69.5,39.5,69.5,39.5,69.6,39.5C69.5,39.5,69.6,39.5,69.6,39.5z"/>
	<path d="M79.8,36.7c0.3,0.1,0.6,0.2,0.9,0.3c0.1,0,0.1,0,0.2,0.1c0.1,0,0.2,0,0.3,0c0.3,0,0.5,0,0.8,0c0.5-0.7,1-1.4,1.6-2.1
		c0.5-0.6,0.9-1.2,1.4-1.8c0.2-0.3,0.5-0.6,0.7-0.9c0.1-0.2,0.3-0.3,0.4-0.5c0.3-0.4,0.5-0.7,0.8-1.1c0.3-0.4,0.1-1-0.4-1.2
		c-0.2-0.1-0.3-0.1-0.5-0.1c-0.3,0-0.7,0.2-0.9,0.4c-0.2,0.3-0.4,0.7-0.7,1c-0.1,0.1-0.2,0.3-0.3,0.4c-0.2,0.3-0.4,0.5-0.7,0.8
		c-0.2,0.3-0.4,0.5-0.6,0.8c-0.2,0.2-0.4,0.5-0.5,0.7c-0.4,0.6-0.9,1.2-1.3,1.7C80.6,35.6,80.2,36.1,79.8,36.7z"/>
	<path d="M108.3,32.6c0.1,0.2,0.2,0.4,0.3,0.6c0,0,0,0,0,0c0.1,0.1,0.2,0.3,0.3,0.4c0,0,0.1-0.1,0.1-0.1c0.5-0.3,1-0.6,1.6-1
		c0.2-0.2,0.5-0.3,0.7-0.5c0.4-0.3,0.9-0.6,1.3-0.9c0.2-0.1,0.3-0.4,0.3-0.6c0-0.2-0.1-0.5-0.3-0.6c-0.2-0.2-0.4-0.3-0.7-0.3
		c-0.1,0-0.2,0-0.3,0c-0.2,0-0.3,0.1-0.4,0.2c-0.1,0.1-0.2,0.2-0.3,0.2c-0.5,0.3-1.1,0.7-1.6,1c-0.5,0.3-1.1,0.7-1.6,1
		C108,32.3,108.2,32.4,108.3,32.6z"/>
	<path d="M102.9,35.4c-0.6,0.4-1.2,0.7-1.7,1.1c-0.4,0.3-0.8,0.5-1.2,0.8c0.1,0.1,0.1,0.1,0.2,0.2c0.3,0.3,0.5,0.7,0.8,1.1
		c0.1,0,0.1,0.1,0.2,0.2c0.2-0.1,0.4-0.3,0.6-0.4c0,0,0,0,0,0c0.7-0.5,1.5-1,2.3-1.4c0.6-0.4,1.1-0.7,1.7-1.1c0-0.1-0.1-0.1-0.1-0.2
		c0-0.1-0.1-0.2-0.1-0.3c0-0.2-0.1-0.4-0.1-0.5c-0.1-0.3-0.3-0.5-0.4-0.8c-0.2,0.1-0.4,0.2-0.5,0.4
		C103.9,34.7,103.4,35.1,102.9,35.4z"/>
	<path d="M97.6,53.9c0.1,0.3,0.2,0.5,0.4,0.8c0.3-0.1,0.5-0.2,0.8-0.3c0.6-0.2,1.1-0.4,1.7-0.6c0.6-0.2,1.1-0.4,1.7-0.6
		c0.6-0.2,1.3-0.4,1.9-0.6c0.4-0.1,0.7-0.3,1.1-0.4c0.1-0.1,0.3-0.1,0.4-0.2c0.1,0,0.2-0.1,0.3-0.1c0.2-0.1,0.4-0.2,0.6-0.4
		c0.2-0.1,0.4-0.3,0.5-0.5c0.1-0.2,0-0.5-0.1-0.7c-0.1-0.2-0.3-0.3-0.6-0.4c-0.1,0-0.2,0-0.3,0c-0.2,0-0.4,0-0.5,0.1
		c-0.3,0.2-0.5,0.3-0.8,0.4c-0.1,0.1-0.2,0.1-0.4,0.2c-0.2,0.1-0.4,0.2-0.6,0.2c-0.6,0.2-1.1,0.4-1.7,0.6c-0.7,0.2-1.3,0.5-2,0.7
		c-0.7,0.2-1.4,0.5-2.1,0.7c-0.2,0.1-0.5,0.2-0.7,0.3C97.3,53.4,97.4,53.6,97.6,53.9z"/>
	<path d="M51.8,33.6c0.2,0.2,0.4,0.3,0.6,0.5c0.3,0.4,0.7,0.8,1,1.2c0.2,0.2,0.4,0.4,0.5,0.5c0.2,0.1,0.3,0.3,0.4,0.5
		c0.5,0.6,1,1.3,1.5,1.9c0.2,0.2,0.4,0.4,0.6,0.6c0.5-0.2,1.1-0.4,1.7-0.6c0.1,0,0.2-0.1,0.2-0.1c-0.2-0.3-0.4-0.5-0.7-0.7
		c-0.2-0.3-0.5-0.5-0.7-0.8c-0.2-0.3-0.5-0.6-0.7-0.9c-0.3-0.3-0.5-0.7-0.8-1c-0.2-0.2-0.5-0.5-0.7-0.7c-0.1-0.2-0.3-0.3-0.4-0.5
		c-0.1-0.1-0.2-0.2-0.3-0.3c-0.1-0.1-0.2-0.3-0.3-0.4c-0.2-0.1-0.3-0.3-0.5-0.4C53,32.1,52.7,32,52.5,32c-0.3,0-0.5,0.1-0.7,0.3
		C51.4,32.6,51.4,33.2,51.8,33.6z"/>
	<path d="M61.2,43c-0.1,0.1-0.3,0.2-0.4,0.3c0.1,0,0.1,0,0.2-0.1C61.1,43.1,61.2,43.1,61.2,43z"/>
	<path d="M26.9,26.6c0.2,0.1,0.4,0.2,0.6,0.4c0.4,0.3,0.7,0.7,1,1c0.3,0.3,0.6,0.6,0.9,1c0.5,0.6,1.1,1.2,1.6,1.8c0-0.1,0-0.3,0-0.4
		c0.1-0.4,0.3-0.7,0.6-1.1c0.1-0.1,0.2-0.3,0.3-0.4c-0.1-0.1-0.2-0.2-0.3-0.3c-0.5-0.6-0.9-1.1-1.4-1.7c-0.2-0.3-0.5-0.5-0.7-0.8
		c-0.1-0.1-0.2-0.2-0.4-0.4c-0.1-0.1-0.3-0.3-0.5-0.4c-0.2-0.2-0.5-0.3-0.8-0.4c-0.1-0.1-0.3-0.1-0.5-0.1c-0.3,0-0.7,0.2-0.9,0.4
		C26.3,25.8,26.5,26.3,26.9,26.6z"/>
	<path d="M34.3,34.2c0.5,0.6,1,1.2,1.5,1.7c0.5,0.5,1,1.1,1.5,1.6c0.4,0.4,0.7,0.8,1.1,1.2c0.4,0.5,0.8,0.9,1.1,1.4
		c0.2,0.3,0.5,0.6,0.7,0.9c0.3,0.3,0.5,0.6,0.8,0.9c0.2,0.2,0.4,0.4,0.6,0.6c0.2,0.2,0.5,0.5,0.7,0.7c0.3,0.3,0.5,0.5,0.8,0.8
		c0.2,0.2,0.4,0.4,0.7,0.7c0.1,0.1,0.3,0.3,0.4,0.4c0,0,0,0.1,0.1,0.1c0.2-0.2,0.4-0.3,0.6-0.5c0.3-0.2,0.6-0.4,1-0.6
		c-0.2-0.2-0.3-0.4-0.5-0.5c-0.4-0.4-0.8-0.8-1.2-1.2c-0.4-0.4-0.8-0.8-1.1-1.1c-0.2-0.2-0.4-0.4-0.6-0.6c-0.2-0.2-0.4-0.4-0.5-0.6
		c-0.2-0.2-0.3-0.4-0.5-0.6c-0.2-0.3-0.5-0.6-0.7-0.9c-0.4-0.6-0.9-1.1-1.4-1.6c-0.4-0.5-0.8-0.9-1.2-1.4c-0.4-0.5-0.9-0.9-1.3-1.4
		c-0.4-0.5-0.8-1-1.3-1.5c-0.4-0.5-0.9-1-1.3-1.4c-0.2-0.2-0.4-0.4-0.5-0.6c-0.1,0.1-0.2,0.2-0.3,0.3c-0.1,0.1-0.1,0.1-0.2,0.2
		c-0.1,0.1-0.1,0.1-0.2,0.2c-0.3,0.3-0.7,0.3-1.1,0.2C32.7,32.4,33.5,33.3,34.3,34.2z"/>
	<path d="M24.3,46.8c0.5,0.2,0.9,0.4,1.4,0.6c0.3,0.1,0.6,0.3,0.9,0.4c0.7,0.3,1.4,0.6,2.1,0.8c0.7,0.2,1.4,0.4,2,0.6
		c0.7,0.2,1.4,0.4,2.1,0.6c0.5,0.1,0.9,0.3,1.4,0.5c1.1,0.4,2.1,0.8,3.2,1.2c0.4,0.2,0.8,0.3,1.3,0.5c0.1-0.2,0.3-0.4,0.4-0.6
		c0.2-0.3,0.4-0.6,0.6-0.9c-0.2-0.1-0.4-0.1-0.6-0.2c-0.8-0.3-1.7-0.6-2.6-1c-0.7-0.3-1.3-0.5-2-0.8c-0.7-0.2-1.3-0.5-2-0.6
		c-0.7-0.2-1.4-0.4-2-0.6c-0.7-0.2-1.3-0.4-2-0.7c-0.5-0.2-0.9-0.4-1.4-0.6c-0.2-0.1-0.4-0.2-0.7-0.3c-0.4-0.2-0.8-0.4-1.2-0.6
		c-0.2-0.1-0.3-0.1-0.5-0.1c-0.3,0-0.7,0.1-0.9,0.4C23.6,46,23.8,46.6,24.3,46.8z"/>
	<path d="M66.5,3.6c0,0.3,0.1,0.6,0.1,0.9c0,0.3,0,0.6,0,0.9c0,0.6,0.1,1.2,0.1,1.9c0,0.1,0,0.3,0,0.4c0.1,0,0.1-0.1,0.2-0.1
		c0,0,0,0,0,0c-0.1-0.1-0.1-0.2-0.1-0.2c-0.1-0.3,0-0.5,0.1-0.8c0.1-0.2,0.4-0.4,0.7-0.4c0.3,0,0.7-0.2,1-0.2c0-0.2,0-0.4,0-0.6
		c0-0.3,0-0.6,0-0.9c-0.1-0.6-0.1-1.2-0.2-1.8c0-0.6-0.1-1.2-0.1-1.9c0-0.3,0-0.5,0-0.8c-0.1,0-0.1,0-0.2,0c-0.2,0-0.3,0.1-0.5,0.1
		c-0.1,0-0.2,0-0.4,0c-0.1,0-0.2,0-0.2,0c-0.2,0-0.4,0-0.7,0c0,0.6,0,1.1,0.1,1.7C66.4,2.4,66.5,3,66.5,3.6z"/>
	<path d="M66.9,10.9c0,0.1,0,0.1,0,0.2c0,0.3,0.1,0.6,0.1,1c0,0.3,0.1,0.6,0.1,1c0.1,0.6,0.1,1.2,0.2,1.8c0.1,0.5,0.1,1,0.1,1.6
		c-0.4,0.2-0.5,0.6-0.4,1c0.1,0.2,0.1,0.5,0.2,0.7c0,0.3,0,0.6,0,1c0,0.3,0,0.6,0,0.9c0,0.6,0.1,1.3,0.1,1.9
		c0.1,1.3,0.2,2.5,0.3,3.8c0.1,0.7,0.1,1.3,0.2,2c0,0.3,0,0.6,0,0.8c0,0.3,0,0.7,0,1c0,1.3,0.1,2.5,0.2,3.8c0,0.7,0.1,1.3,0.1,2
		c0,0.2,0,0.5,0.1,0.7c0,0,0,0,0,0c0.7,0,1.3,0,2,0c0-0.6-0.1-1.2-0.1-1.8c0-0.7-0.1-1.3-0.1-2c0-0.6-0.1-1.2-0.1-1.8
		c0-0.7,0-1.3,0-2c0-0.7-0.1-1.3-0.1-2c-0.1-1.3-0.2-2.5-0.3-3.8c0-0.1,0-0.3,0-0.4c0.2-0.2,0.3-0.4,0.3-0.6
		c-0.1-0.7-0.1-1.4-0.1-2.2c0-0.6,0-1.2-0.1-1.9c0-0.6-0.1-1.3-0.1-1.9c0-0.3-0.1-0.6-0.1-0.9c0-0.3-0.1-0.6-0.1-0.9
		c-0.1-0.7-0.1-1.3-0.2-2c-0.1-0.6-0.1-1.2-0.2-1.8c-0.2,0.1-0.4,0.2-0.7,0.3C67.8,10.6,67.4,10.8,66.9,10.9z"/>
	<path d="M79.7,20.7c0.3,0.1,0.5,0,0.8-0.1c0.2-0.1,0.4-0.3,0.5-0.5c0.1-0.4,0.2-0.9,0.3-1.3c0.1-0.4,0.2-0.7,0.3-1.1
		c0.1-0.4,0.2-0.7,0.3-1.1c0-0.2,0.1-0.3,0.1-0.5c0-0.1,0-0.2,0-0.2c0.1-0.2,0.1-0.5,0.2-0.7c0.2-0.5-0.2-1-0.7-1.1
		c-0.1,0-0.2,0-0.3,0c-0.4,0-0.8,0.3-1,0.7c-0.1,0.2-0.1,0.4-0.2,0.6c0,0.1,0,0.2-0.1,0.3c0,0.2-0.1,0.4-0.1,0.5
		c-0.1,0.4-0.2,0.7-0.3,1.1c-0.1,0.4-0.2,0.7-0.3,1.1c-0.1,0.4-0.2,0.9-0.3,1.3c0,0.2,0,0.5,0.1,0.7C79.3,20.4,79.5,20.6,79.7,20.7z
		"/>
	<path d="M98.9,26.9c0.1,0,0.2,0,0.3,0c0.2,0,0.3-0.1,0.4-0.2c0.7-0.5,1.4-1,2-1.5c0.5-0.4,1-0.8,1.5-1.2c0.1-0.1,0.2-0.2,0.3-0.2
		c0.3-0.2,0.6-0.5,1-0.7c0.2-0.1,0.3-0.4,0.3-0.6c0-0.2-0.1-0.5-0.3-0.6c-0.2-0.2-0.4-0.3-0.7-0.3c-0.3,0-0.5,0.1-0.7,0.3
		c-0.2,0.1-0.3,0.3-0.5,0.4c-0.3,0.2-0.7,0.5-1,0.7c-0.2,0.1-0.3,0.3-0.5,0.4c-0.2,0.1-0.3,0.3-0.5,0.4c-0.8,0.6-1.5,1.1-2.3,1.7
		C98,25.6,98,25.8,98,26.1c0,0.2,0.1,0.5,0.3,0.6C98.4,26.8,98.7,26.9,98.9,26.9z"/>
	<path d="M43.9,17c0.1,0.2,0.3,0.4,0.4,0.6c0.2,0.3,0.5,0.7,0.7,1c0.3,0.4,0.5,0.7,0.8,1.1c0.1,0.2,0.2,0.3,0.3,0.5
		c0.2,0.3,0.3,0.5,0.5,0.8c0.2,0.4,0.9,0.6,1.4,0.3c0.2-0.1,0.4-0.3,0.5-0.5c0.1-0.2,0-0.5-0.1-0.7c-0.2-0.3-0.3-0.5-0.5-0.8
		c-0.1-0.2-0.2-0.3-0.3-0.5c-0.3-0.4-0.5-0.7-0.8-1.1c-0.2-0.3-0.5-0.7-0.7-1c-0.1-0.2-0.3-0.4-0.4-0.6c-0.2-0.3-0.5-0.6-0.7-0.9
		c-0.2-0.2-0.3-0.3-0.6-0.4c-0.1,0-0.2,0-0.3,0c-0.2,0-0.4,0-0.5,0.1c-0.2,0.1-0.4,0.3-0.5,0.5c-0.1,0.2,0,0.5,0.1,0.7
		C43.4,16.3,43.7,16.6,43.9,17z"/>
	<path d="M78.1,56.9c0.2,0.2,0.5,0.4,0.8,0.6c0.3,0.2,0.6,0.5,1,0.7c0.3,0.2,0.5,0.4,0.8,0.5c0.4,0.2,0.9,0.4,1.4,0.6
		c0.3,0.1,0.6,0.2,0.9,0.2c0.3,0.1,0.6,0.2,0.9,0.2c0.3,0.1,0.6,0.1,0.9,0.2c0.4,0.3,0.8,0.7,1.1,1c0.2,0.2,0.3,0.5,0.5,0.7
		c0.2,0.3,0.4,0.6,0.6,0.9c0.1,0.2,0.2,0.4,0.2,0.6c0.1,0.2,0.2,0.5,0.3,0.7c0.2,0.5,0.3,0.9,0.4,1.4c0.1,0.4,0,0.9,0,1.3
		c0,0,0,0,0,0c-0.3,0.1-0.7,0.1-1,0.2c-0.2,0-0.5,0-0.8,0c-0.4,0-0.7,0-1.1,0c-0.3-0.1-0.6-0.2-0.9-0.3c-0.2-0.1-0.3-0.1-0.5-0.2
		c-0.1-0.1-0.3-0.1-0.4-0.2c-0.3-0.2-0.6-0.5-0.8-0.8c0,0,0,0,0,0c0,0,0,0,0,0c0.2-0.4,0.5-0.7,0.8-1.1c0.3-0.4,0.1-1-0.4-1.2
		c-0.2-0.1-0.3-0.1-0.5-0.1c-0.3,0-0.7,0.2-0.9,0.4c-0.2,0.2-0.3,0.5-0.5,0.7c-0.1,0.2-0.3,0.4-0.4,0.6c-0.1,0.2-0.2,0.4-0.3,0.6
		c-0.1,0.2-0.2,0.4-0.3,0.6c0,0.1-0.1,0.1-0.1,0.2c-0.3,0.4-0.1,1,0.4,1.2c0.2,0.1,0.5,0.2,0.8,0.1c0.2,0,0.4-0.2,0.5-0.3
		c0.1,0.1,0.2,0.2,0.3,0.2c0.2,0.1,0.4,0.3,0.6,0.4c0.3,0.2,0.6,0.3,0.9,0.4c0.2,0.1,0.4,0.2,0.6,0.2c0.1,0,0.2,0.1,0.3,0.1
		c0.3,0.1,0.6,0.1,0.8,0.1c0.4,0,0.9,0,1.3,0c0.8,0,1.5-0.1,2.3-0.3c0.4-0.1,0.8-0.2,1.2-0.3c0.2-0.1,0.5-0.2,0.7-0.3
		c0.2-0.1,0.4-0.2,0.5-0.4c0.1-0.1,0.3-0.2,0.4-0.3c0.2-0.2,0.5-0.5,0.7-0.8c0.2-0.3,0.4-0.7,0.5-1c0.1-0.2,0.1-0.5,0.1-0.7
		c0-0.1,0-0.2,0-0.3c0-0.2-0.1-0.4-0.1-0.6c-0.1-0.3-0.3-0.7-0.4-1c-0.1-0.3-0.3-0.5-0.5-0.8c-0.2-0.3-0.5-0.6-0.7-0.8
		c-0.2-0.2-0.5-0.5-0.8-0.7c-0.3-0.2-0.6-0.4-1-0.6c-0.3-0.1-0.5-0.3-0.8-0.4c-0.3-0.1-0.5-0.3-0.8-0.4c-0.2-0.1-0.5-0.2-0.8-0.3
		c-0.4-0.1-0.7-0.3-1.1-0.4c-0.2-0.1-0.3-0.2-0.5-0.3c-0.2-0.1-0.4-0.3-0.6-0.4c-0.1-0.1-0.3-0.2-0.4-0.3c-0.1-0.1-0.2-0.2-0.4-0.3
		c-0.2-0.1-0.4-0.3-0.6-0.4c-0.2-0.1-0.3-0.2-0.5-0.4c-0.1-0.1-0.2-0.2-0.3-0.3c-0.4-0.5-0.7-1-0.9-1.5c-0.2-0.4-0.4-0.9-0.5-1.4
		c0-0.5,0-1,0-1.4c0-0.2,0-0.5,0.1-0.7c0-0.1,0-0.1,0-0.2c0,0,0.1,0,0.1,0c0.3,0.1,0.7,0.3,1,0.5c0.2,0.1,0.3,0.2,0.5,0.4
		c0.1,0.1,0.3,0.2,0.4,0.4c0.1,0.1,0.2,0.2,0.3,0.4c0,0.2,0,0.4,0.1,0.6c0.2,0.3,0.4,0.7,0.5,1c0.1,0.3,0.3,0.5,0.4,0.8
		c0.1,0.1,0.2,0.3,0.2,0.4c-0.2,0-0.4,0.1-0.5,0.2c-0.2,0.2-0.3,0.4-0.3,0.6c0,0.5,0.5,0.9,1,0.9c1.1,0,2.2,0,3.3,0
		c0.5,0,1-0.4,1-0.9c0-0.5-0.5-0.9-1-0.9c0,0,0,0-0.1,0c-0.3,0-0.6,0-0.9,0c-0.1-0.2-0.1-0.4-0.2-0.7c-0.1-0.2-0.2-0.3-0.3-0.5
		c-0.3-0.5-0.7-1-1-1.5c-0.2-0.3-0.3-0.5-0.5-0.8c-0.1-0.1-0.2-0.2-0.3-0.4c-0.1-0.2-0.3-0.3-0.4-0.5c-0.2-0.2-0.5-0.4-0.7-0.6
		c-0.3-0.2-0.6-0.5-1-0.6c-0.3-0.2-0.7-0.3-1-0.4c-0.4-0.1-0.8-0.2-1.2-0.2c-0.1,0-0.3,0-0.4,0c0,0-0.1,0-0.1,0c0,0-0.1,0-0.1,0
		c-0.3,0-0.6,0.1-0.9,0.2c-0.5,0.2-0.8,0.6-1.1,1c-0.1,0.2-0.3,0.5-0.3,0.8c-0.2,0.7-0.3,1.3-0.4,2c0,0.3,0,0.5,0,0.8
		c0,0.3,0,0.6,0,0.9C77,55.3,77.3,56.2,78.1,56.9z M79.4,55.5c-0.1-0.1-0.2-0.2-0.2-0.3c-0.1-0.2-0.2-0.5-0.2-0.7c0-0.3,0-0.6,0-1
		c0-0.1,0-0.3,0-0.4c0,0.3,0.1,0.5,0.2,0.8c0.2,0.6,0.5,1.2,0.8,1.7c0.1,0.2,0.2,0.4,0.3,0.6C79.9,56,79.6,55.7,79.4,55.5z
		 M83.9,59.3c0,0,0.1,0,0.1,0.1C83.9,59.3,83.9,59.3,83.9,59.3z M89.2,62.2c0.2,0.2,0.3,0.3,0.5,0.5c0.1,0.2,0.3,0.3,0.4,0.5
		c0.1,0.2,0.2,0.3,0.2,0.5c0.1,0.2,0.2,0.4,0.2,0.6c0,0.1,0,0.3,0,0.4c0,0.1-0.1,0.2-0.1,0.4c-0.1,0.2-0.2,0.3-0.3,0.5
		c-0.1,0.1-0.2,0.2-0.2,0.2c0-0.1,0-0.3,0-0.4c-0.1-0.6-0.2-1.2-0.4-1.8c0-0.1-0.1-0.3-0.2-0.4c0-0.1-0.1-0.3-0.1-0.4
		c-0.1-0.3-0.2-0.6-0.3-0.8c0-0.1-0.1-0.2-0.1-0.3C88.8,61.9,89,62,89.2,62.2z M85.1,57.9C85.1,57.9,85.1,57.9,85.1,57.9
		c0.1,0,0.1,0.1,0.2,0.1c-0.1-0.1-0.2-0.2-0.4-0.3C85,57.8,85,57.9,85.1,57.9z"/>
	<path d="M77.7,75.5c0.4-0.1,0.7-0.2,1.1-0.4c0,0,0.1,0,0.1,0c0.2-0.1,0.3-0.1,0.4-0.2c0.1-0.1,0.3-0.1,0.4-0.2c0.1,0,0.2,0,0.2-0.1
		c0.1,0,0.1-0.1,0.2-0.1c0,0,0.1,0,0.1-0.1c0.3-0.1,0.5-0.3,0.8-0.4c0.2-0.1,0.4-0.2,0.6-0.3c0.2-0.1,0.3-0.1,0.5-0.2
		c0.1,0,0.1-0.1,0.2-0.1c0,0,0.1,0,0.1-0.1c0.1,0,0.2-0.1,0.3-0.2c0.3-0.2,0.3-0.6,0.3-0.9c0-0.2-0.1-0.3-0.3-0.4
		c-0.2-0.1-0.4-0.3-0.6-0.3c0,0,0,0-0.1,0c-0.2,0-0.3,0-0.5,0.1c-0.1,0-0.3,0.1-0.4,0.2C81.1,72,81,72,81,72.1
		c-0.1,0.1-0.3,0.1-0.4,0.2c-0.1,0.1-0.2,0.1-0.3,0.2c-0.1-0.3-0.2-0.5-0.3-0.8c-0.2-0.6-0.4-1.1-0.6-1.7c-0.1-0.4-0.3-0.7-0.4-1.1
		c-0.1-0.3-0.3-0.6-0.5-0.9c-0.3-0.5-0.6-1-0.9-1.5c-0.1-0.3-0.3-0.6-0.5-1c-0.1-0.2-0.2-0.4-0.3-0.6c0,0.1,0.1,0.1,0.1,0.2
		c-0.3-0.6-0.5-1.2-0.7-1.7c-0.3-0.6-0.5-1.2-0.7-1.7c-0.2-0.6-0.5-1.2-0.7-1.8c-0.2-0.6-0.5-1.2-0.7-1.8c-0.2-0.6-0.4-1.2-0.6-1.8
		c-0.1-0.3-0.2-0.6-0.3-0.8c-0.1-0.3-0.2-0.6-0.3-0.9c-0.4-1.2-0.9-2.3-1.5-3.5c-0.2-0.6-0.5-1.1-0.7-1.7c-0.2-0.6-0.4-1.1-0.7-1.7
		c-0.1-0.3-0.2-0.5-0.3-0.8c0.6,0,1.2,0,1.8,0c0.5,0,1-0.4,1-0.9c0-0.5-0.5-0.9-1-0.9c-0.4,0-0.7,0-1.1,0c-0.2,0-0.5,0-0.7,0
		c-0.3,0-0.6,0-0.8,0c0,0-0.1-0.1-0.1-0.1c-0.1-0.1-0.3-0.2-0.5-0.3c-0.1,0-0.2,0-0.3,0c-0.1,0-0.2,0-0.3,0
		c-0.3,0.1-0.6,0.3-0.7,0.5c0,0,0,0,0,0c-0.3,0.1-0.6,0.1-0.9,0.2c-0.3,0.1-0.5,0.2-0.8,0.3c-0.3,0.1-0.6,0.2-0.9,0.3
		c-0.5,0.1-0.8,0.6-0.7,1.1c0.1,0.5,0.7,0.8,1.2,0.6c0.3-0.1,0.6-0.2,0.9-0.3c0.1,0,0.3-0.1,0.4-0.1c0,0.1,0,0.3-0.1,0.4
		c-0.1,0.5-0.2,1.1-0.4,1.6c-0.1,0.3-0.1,0.6-0.2,0.9c-0.1,0.3-0.2,0.6-0.2,0.9c-0.3,1.2-0.6,2.4-1,3.6c-0.1,0.3-0.2,0.6-0.2,0.9
		c-0.1,0.3-0.1,0.6-0.2,0.9c-0.1,0.3-0.2,0.6-0.2,0.9c-0.1,0.3-0.1,0.6-0.2,0.9c0,0.1-0.1,0.3-0.1,0.4c-0.4,0-0.8,0-1.3,0.1
		c-0.2,0-0.4,0.1-0.5,0.2c-0.2,0.1-0.3,0.3-0.5,0.4c-0.4,0.3-0.4,0.9,0,1.3c0.2,0.2,0.4,0.3,0.7,0.3c0.3,0,0.5-0.1,0.7-0.3
		c0,0,0.1-0.1,0.1-0.1c0,0,0,0,0,0c0.1,0,0.1,0,0.2,0c-0.1,0.5-0.3,1-0.5,1.5c-0.1,0.3-0.2,0.7-0.3,1c-0.1,0.3-0.2,0.6-0.3,0.9
		c-0.2,0.6-0.4,1.2-0.6,1.8c-0.2,0.6-0.4,1.2-0.6,1.8c-0.2,0.5-0.3,1.1-0.4,1.6c-0.2,0.1-0.3,0.3-0.3,0.4c-0.1,0.4-0.3,0.8-0.4,1.1
		c-0.1,0.2-0.1,0.5-0.1,0.7c0,0.2,0,0.4,0,0.6c0,0.4,0,0.7,0,1.1c0,0,0,0,0,0c-0.4,0-0.8,0-1.1,0c0,0,0,0,0,0c-0.5,0-1,0.4-1,0.9
		c0,0.2,0.1,0.5,0.3,0.6c0.2,0.2,0.4,0.3,0.7,0.3c0,0,0,0,0,0c0.1,0,0.2,0.1,0.2,0.1c0.4,0.1,0.8,0.1,1.3,0.2
		c0.4,0.1,0.7,0.1,1.1,0.2c0.4,0.1,0.9,0.1,1.3,0.1c0.2,0,0.3,0,0.5,0c0.3,0,0.6,0,0.8-0.1c0.3-0.1,0.6-0.3,0.7-0.6
		c0.1-0.3,0-0.6-0.3-0.9c-0.1-0.1-0.3-0.2-0.5-0.3c0,0,0,0,0-0.1c0-0.1,0-0.3,0-0.4c0.1-0.3,0.1-0.6,0.2-0.9
		c0.1-0.3,0.2-0.6,0.2-0.9c0.2-0.7,0.4-1.3,0.5-2c0.1-0.3,0.2-0.6,0.3-0.9c0.1-0.3,0.2-0.6,0.3-0.9c0.1-0.3,0.2-0.6,0.3-0.9
		c0.1-0.3,0.1-0.6,0.2-0.9c0.1-0.6,0.3-1.2,0.4-1.8c0.2-0.6,0.3-1.2,0.5-1.8c0.1-0.5,0.3-1,0.4-1.5c0,0,0.1,0,0.1,0
		c0.3,0.1,0.5,0.1,0.8,0.2c0.5,0.1,1.1,0.3,1.6,0.5c0.3,0.1,0.6,0.2,0.8,0.3c0.4,0.1,0.7,0.3,1.1,0.4c0.3,0.2,0.7,0.3,1,0.6
		c0.2,0.1,0.3,0.2,0.5,0.3c0.2,0.1,0.4,0.3,0.5,0.5c0.4,0.3,0.8,0.7,1.1,1c0.3,0.4,0.6,0.9,0.9,1.3c0.1,0.2,0.2,0.5,0.4,0.7
		c0.1,0.2,0.2,0.4,0.3,0.6c0,0.1,0.1,0.1,0.1,0.2c0.1,0.2,0.2,0.5,0.3,0.8c0.2,0.6,0.4,1.1,0.6,1.7c0.2,0.6,0.4,1.1,0.6,1.7
		c0.1,0.3,0.2,0.6,0.3,0.9c0.1,0.3,0.3,0.6,0.4,0.9c0,0,0,0,0,0c0,0,0,0,0,0c-0.1,0.1-0.3,0.2-0.4,0.3c0,0,0,0,0,0
		c-0.1,0-0.3,0.1-0.4,0.1c-0.3,0.1-0.5,0.2-0.6,0.4c-0.1,0.2-0.2,0.5-0.1,0.7c0.1,0.3,0.4,0.6,0.8,0.6
		C77.4,75.6,77.6,75.6,77.7,75.5z M68.2,48.6c-0.1,0-0.2,0.1-0.3,0.1c0-0.1,0-0.1,0-0.2c0-0.1,0-0.2,0.1-0.3
		C68,48.3,68.1,48.4,68.2,48.6z M63.2,66.4c-0.1,0.3-0.2,0.6-0.3,0.9c-0.1,0.3-0.2,0.6-0.3,0.9c-0.1,0.3-0.2,0.6-0.3,0.9
		c-0.2,0.7-0.3,1.3-0.5,2c0,0,0,0,0,0c0-0.1,0-0.2-0.1-0.3c0,0,0-0.1,0-0.1c0.2-0.6,0.3-1.2,0.5-1.8c0.2-0.6,0.3-1.2,0.5-1.8
		c0.2-0.6,0.4-1.2,0.6-1.8c0-0.1,0-0.1,0.1-0.2c0,0.1-0.1,0.3-0.1,0.4C63.4,65.8,63.3,66.1,63.2,66.4z M73.1,61.3
		c-0.6-0.4-1.2-0.7-1.9-0.9c-0.3-0.1-0.7-0.3-1-0.4c-0.3-0.1-0.6-0.2-1-0.3c-0.3-0.1-0.6-0.2-1-0.3c-0.3-0.1-0.7-0.2-1-0.2
		c-0.1,0-0.1,0-0.2,0c0-0.2,0.1-0.3,0.1-0.5c0.2-0.6,0.3-1.2,0.4-1.7c0.1-0.6,0.3-1.3,0.5-1.9c0.1-0.3,0.2-0.6,0.2-0.8
		c0.1-0.3,0.1-0.6,0.2-0.9c0.1-0.6,0.3-1.2,0.4-1.8c0-0.2,0.1-0.4,0.1-0.5c0.3,0.8,0.7,1.6,1.1,2.4c0.2,0.6,0.5,1.1,0.7,1.7
		c0.1,0.3,0.2,0.6,0.3,0.9c0.1,0.3,0.2,0.6,0.3,0.9c0.2,0.6,0.4,1.2,0.6,1.8c0.2,0.6,0.5,1.2,0.7,1.8c0.1,0.3,0.3,0.7,0.4,1
		C73.1,61.3,73.1,61.3,73.1,61.3z"/>
	<path d="M46.9,51.9c-0.4,0.1-0.7,0.1-1.1,0.2c-0.5,0.1-1,0.3-1.5,0.5c-0.2,0.1-0.4,0.2-0.5,0.3c-0.2,0.1-0.4,0.2-0.5,0.3
		c-0.2,0.1-0.5,0.3-0.6,0.4c-0.3,0.3-0.4,0.7-0.2,1.1c0.1,0.2,0.3,0.3,0.6,0.4c0.2,0.1,0.6,0,0.8-0.1c0.1,0,0.2-0.1,0.2-0.2
		c0.3-0.2,0.6-0.3,0.9-0.5c0,0.2,0,0.5,0,0.7c0,0.6,0,1.2,0,1.8c0,0.3,0,0.6,0,1c0,0.3,0,0.6,0.1,0.9c0,0.3,0,0.6,0.1,1
		c0,0.4,0.1,0.7,0.2,1.1c0,0.2,0.1,0.5,0.1,0.7c0.1,0.4,0.1,0.8,0.1,1.3c0,0.2,0,0.5,0.1,0.7c0,0.2,0.1,0.5,0.1,0.7
		c0.1,0.5,0.1,1.1,0.1,1.6c0,0.4,0,0.7,0,1.1c-0.1-0.1-0.2-0.1-0.4-0.2c-0.2-0.1-0.4-0.2-0.5-0.2c-0.2-0.1-0.3-0.1-0.4-0.2
		c-0.4-0.3-0.7-0.7-1.1-1.1c-0.2-0.2-0.5-0.3-0.7-0.3c-0.3,0-0.5,0.1-0.7,0.3c-0.2,0.2-0.3,0.4-0.3,0.6c0,0.1,0,0.2,0,0.2
		c0,0.2,0.1,0.3,0.3,0.4c0.6,0.6,1.1,1.3,1.9,1.6c0.3,0.1,0.6,0.3,0.9,0.4c0.4,0.2,0.7,0.3,1.1,0.5c0.6,0.2,1.2,0.4,1.9,0.6
		c0.3,0.1,0.7,0.1,1,0.2c0.1,0,0.1,0,0.2,0c0,0,0,0,0.1,0c0.3,0.2,0.7,0.3,1.1,0.4c0.4,0.1,0.7,0.1,1.1,0.1c0.3,0,0.7,0,1,0
		c0.4,0,0.8-0.1,1.2-0.1c0.3,0,0.6-0.1,0.9-0.2c0.3-0.1,0.5-0.2,0.7-0.3c0.2-0.1,0.4-0.3,0.6-0.4c0.3-0.2,0.5-0.4,0.7-0.6
		c0.2-0.2,0.4-0.4,0.6-0.6c0.2-0.2,0.5-0.4,0.7-0.7c0.3-0.3,0.5-0.6,0.7-0.9c0.1-0.2,0.3-0.5,0.4-0.7c0.1-0.1,0.1-0.2,0.2-0.3
		c0.2-0.3,0.3-0.6,0.5-0.9c0.1-0.2,0.2-0.5,0.3-0.8c0.1-0.3,0.1-0.6,0.1-0.9c0-0.1,0-0.3,0-0.4c0-0.3,0-0.6,0-0.9
		c0-0.3-0.1-0.7-0.1-1c0,0,0,0.1,0,0.1c0-0.1,0-0.2,0-0.2c0-0.6-0.1-1.2-0.2-1.7c-0.2-0.6-0.3-1.2-0.6-1.8c-0.1-0.2-0.2-0.4-0.3-0.6
		c-0.1-0.1-0.2-0.3-0.3-0.4c0,0,0,0-0.1-0.1c-0.1-0.2-0.2-0.3-0.3-0.5c-0.1-0.2-0.3-0.3-0.4-0.5c-0.1-0.1-0.2-0.3-0.3-0.4
		c-0.4-0.4-0.8-0.8-1.2-1.2c-0.3-0.3-0.5-0.5-0.8-0.7c-0.3-0.2-0.6-0.3-0.9-0.5c-0.2-0.1-0.4-0.2-0.6-0.3C53.3,52.1,53.1,52,53,52
		c-0.4-0.1-0.8-0.1-1.3-0.2c-0.7-0.1-1.4-0.2-2-0.2c0,0,0,0,0,0c-0.3,0-0.7,0-1,0c-0.4,0-0.8,0.1-1.2,0.1
		C47.3,51.9,47.1,51.9,46.9,51.9z M57.4,61.2c0,0.5,0,1,0,1.5c-0.1,0.5-0.2,0.9-0.3,1.4c-0.1,0.3-0.1,0.5-0.2,0.8
		c0,0.1-0.1,0.2-0.1,0.3c0,0,0,0.1-0.1,0.1c-0.1,0.1-0.2,0.3-0.3,0.4c-0.1,0.1-0.2,0.3-0.3,0.4c-0.2,0.2-0.4,0.4-0.6,0.6
		c-0.1,0.1-0.3,0.3-0.4,0.4c-0.3,0.2-0.5,0.3-0.8,0.4c-0.4,0.1-0.8,0.2-1.2,0.3c-0.4,0.1-0.8,0.2-1.2,0.2c-0.3,0-0.6,0-0.9,0
		c-0.3,0-0.7,0-1,0c-0.2,0-0.3,0-0.5-0.1c0,0,0,0,0,0c-0.1,0-0.1-0.1-0.1-0.1c-0.1-0.1-0.3-0.3-0.4-0.4c0-0.2,0-0.4,0-0.6
		c0-0.6,0-1.3,0-1.9c0-0.2,0-0.4,0-0.7c0-0.4,0-0.8,0-1.2c0-0.6,0-1.3,0-1.9c0-1.1,0-2.3,0-3.4c0-0.5,0-1.1,0-1.6c0-0.1,0-0.3,0-0.4
		c0-0.4,0-0.8,0.1-1.2c0.1-0.3,0.1-0.7,0.2-1c0.2,0,0.4,0,0.6,0c0.5,0,0.9,0,1.4,0c0.3,0.1,0.6,0.1,0.8,0.2c0.6,0.2,1.2,0.6,1.7,0.9
		c0.8,0.6,1.5,1.2,2.2,1.9c0.1,0.1,0.2,0.2,0.2,0.3c0.1,0.2,0.2,0.5,0.3,0.7c0.1,0.3,0.2,0.6,0.3,0.9c0.2,0.6,0.4,1.2,0.5,1.9
		c0-0.1,0-0.2,0-0.2c0,0.2,0.1,0.4,0.1,0.5C57.4,60.9,57.4,61,57.4,61.2z M47.2,54.1c0,0.2,0,0.3-0.1,0.5c0,0.2-0.1,0.5-0.1,0.7
		c0,0.2,0,0.5,0,0.7c0,0.4,0,0.7,0,1.1c0,0.6,0,1.2,0,1.8c0,0.2,0,0.4,0,0.6c0-0.2,0-0.5-0.1-0.7c0-0.3-0.1-0.6-0.1-0.9
		c0-0.3,0-0.6,0-0.9c0-0.3,0-0.6,0-0.9c0-0.3,0-0.6,0-0.9c0-0.4,0-0.9,0.1-1.3c0.1,0,0.2,0,0.3,0C47.3,53.9,47.3,54,47.2,54.1z"/>
	<path d="M83.7,57C83.7,57,83.7,57,83.7,57C83.7,57,83.7,57,83.7,57C83.7,57,83.7,57,83.7,57z"/>
	<path d="M90.8,44.2c0,0.2,0.1,0.5,0.3,0.6c0.1,0.1,0.3,0.2,0.5,0.2c0,0,0,0.1,0.1,0.1c0,0,0.1,0,0.1-0.1c0.3,0,0.6-0.1,0.8-0.3
		c0.2-0.2,0.4-0.5,0.7-0.7c0,0,0.1-0.1,0.1-0.1c0.4-0.2,0.7-0.5,1.1-0.7c0,0,0,0,0,0c0,0,0.1,0,0.1-0.1c0.2-0.2,0.5-0.3,0.7-0.5
		c0.2-0.1,0.4-0.2,0.7-0.4c0.2-0.2,0.5-0.3,0.7-0.5c0,0,0,0,0,0c0.2-0.1,0.5-0.3,0.8-0.4c0.1-0.1,0.3-0.2,0.3-0.3
		c0.1,0,0.1-0.1,0.2-0.1c0,0,0,0,0,0c0,0,0-0.1-0.1-0.1c0-0.2,0-0.4-0.1-0.6c-0.1-0.2-0.3-0.3-0.6-0.4c0,0,0,0,0,0
		c-0.1-0.1-0.2-0.2-0.2-0.3c-0.4,0.3-0.8,0.5-1.2,0.8c0,0,0,0,0,0c-0.1,0.1-0.2,0.1-0.3,0.2c-0.1,0-0.1,0.1-0.2,0.1
		c-0.1,0.1-0.3,0.2-0.4,0.3c0,0,0,0,0,0c0,0,0,0,0,0c-0.1,0.1-0.3,0.1-0.4,0.2c-0.3,0.2-0.6,0.4-0.8,0.6c-0.2,0.1-0.3,0.2-0.5,0.3
		c-0.3,0.2-0.5,0.4-0.8,0.6c0,0-0.1,0-0.1,0.1c-0.4,0.2-0.8,0.5-1.1,0.7c-0.1,0.1-0.3,0.2-0.4,0.3c0.1,0.1,0.2,0.3,0.3,0.4
		C90.8,44.1,90.8,44.2,90.8,44.2z"/>
</g>
</svg>
